<svg width="59" height="58" viewBox="0 0 59 58" fill="none" xmlns="http://www.w3.org/2000/svg">
<path d="M29 58C45.0163 58 58 45.0163 58 29C58 12.9837 45.0163 0 29 0C12.9837 0 0 12.9837 0 29C0 45.0163 12.9837 58 29 58Z" fill="white" stroke="#E0E0E0" stroke-width="0.5"/>
<mask id="path-2-inside-1" fill="white">
<path fill-rule="evenodd" clip-rule="evenodd" d="M33.8956 14.0252C30.6922 14.2949 28.2932 16.699 28.025 19.8986C28.024 19.9109 28.023 19.9233 28.022 19.9357C28.017 19.9996 28.0128 20.0638 28.0095 20.1284C28.0032 20.2512 28 20.3751 28 20.5C28 20.78 28.224 21 28.5 21C28.6832 21 28.8642 20.9932 29.0428 20.9798C29.0621 20.9783 29.0815 20.9768 29.1008 20.9752C32.3066 20.7079 34.7076 18.3098 34.9752 15.1011C34.9916 14.9037 35 14.7032 35 14.5C35 14.23 34.776 14 34.5 14C34.2957 14 34.0941 14.0085 33.8956 14.0252ZM32.955 15.1952C31.0776 15.6905 29.6866 17.0815 29.1944 18.9566C29.1086 19.2832 29.0502 19.6245 29.0211 19.9783C29.0211 19.9789 29.021 19.9794 29.021 19.98C29.0212 19.98 29.0215 19.98 29.0217 19.9799C29.376 19.9515 29.7177 19.8935 30.0447 19.8083C31.923 19.3183 33.3145 17.9263 33.8063 16.0444C33.8916 15.7176 33.9499 15.376 33.9789 15.0218C33.9789 15.0212 33.979 15.0206 33.979 15.02C33.9788 15.02 33.9786 15.02 33.9784 15.0201C33.624 15.0498 33.2821 15.1089 32.955 15.1952Z"/>
</mask>
<path d="M28.025 19.8986L27.0285 19.8151L27.0285 19.8151L28.025 19.8986ZM33.8956 14.0252L33.8117 13.0287L33.8117 13.0287L33.8956 14.0252ZM28.022 19.9357L27.0251 19.8574L27.0251 19.8574L28.022 19.9357ZM28.0095 20.1284L29.0082 20.1796L29.0082 20.1796L28.0095 20.1284ZM29.0428 20.9798L29.1177 21.977L29.1177 21.977L29.0428 20.9798ZM29.1008 20.9752L29.0177 19.9786L29.0177 19.9786L29.1008 20.9752ZM34.9752 15.1011L35.9717 15.1842L35.9717 15.1842L34.9752 15.1011ZM32.955 15.1952L32.6999 14.2283L32.6999 14.2283L32.955 15.1952ZM29.1944 18.9566L28.2271 18.7027L28.2271 18.7027L29.1944 18.9566ZM29.0211 19.9783L30.0178 20.0601L30.0178 20.0601L29.0211 19.9783ZM29.021 19.98L28.0243 19.8986C28.0005 20.1909 28.1061 20.4789 28.3132 20.6864C28.5204 20.894 28.8082 21.0001 29.1005 20.9768L29.021 19.98ZM29.0217 19.9799L29.1012 20.9768L29.1018 20.9767L29.0217 19.9799ZM30.0447 19.8083L30.2971 20.7759L30.2971 20.7759L30.0447 19.8083ZM33.8063 16.0444L32.8387 15.7916L32.8387 15.7916L33.8063 16.0444ZM33.9789 15.0218L34.9755 15.1033L34.9756 15.103L33.9789 15.0218ZM33.979 15.02L34.9757 15.1012C34.9995 14.8083 34.8934 14.5197 34.6854 14.3122C34.4774 14.1046 34.1886 13.999 33.8958 14.0235L33.979 15.02ZM33.9784 15.0201L34.062 16.0165L34.0622 16.0165L33.9784 15.0201ZM29.0215 19.9821C29.249 17.2682 31.2628 15.2504 33.9795 15.0217L33.8117 13.0287C30.1216 13.3393 27.3374 16.1298 27.0285 19.8151L29.0215 19.9821ZM29.0189 20.0139C29.0197 20.0033 29.0206 19.9927 29.0215 19.9821L27.0285 19.8151C27.0273 19.8292 27.0262 19.8433 27.0251 19.8574L29.0189 20.0139ZM29.0082 20.1796C29.011 20.1241 29.0146 20.0688 29.0189 20.0139L27.0251 19.8574C27.0193 19.9303 27.0146 20.0036 27.0108 20.0771L29.0082 20.1796ZM29 20.5C29 20.3921 29.0028 20.2852 29.0082 20.1796L27.0108 20.0771C27.0036 20.2171 27 20.3581 27 20.5H29ZM28.5 20C28.7711 20 29 20.2225 29 20.5H27C27 21.3375 27.6769 22 28.5 22V20ZM28.9679 19.9826C28.8144 19.9941 28.6584 20 28.5 20V22C28.7081 22 28.9141 21.9923 29.1177 21.977L28.9679 19.9826ZM29.0177 19.9786C29.0011 19.98 28.9845 19.9813 28.9679 19.9826L29.1177 21.977C29.1398 21.9753 29.1618 21.9735 29.1839 21.9717L29.0177 19.9786ZM33.9786 15.018C33.7517 17.7397 31.7372 19.7519 29.0177 19.9786L29.1839 21.9717C32.8761 21.6639 35.6635 18.8799 35.9717 15.1842L33.9786 15.018ZM34 14.5C34 14.6757 33.9928 14.8485 33.9786 15.018L35.9717 15.1842C35.9905 14.959 36 14.7308 36 14.5H34ZM34.5 15C34.216 15 34 14.7745 34 14.5H36C36 13.6855 35.336 13 34.5 13V15ZM33.9795 15.0217C34.1499 15.0074 34.3234 15 34.5 15V13C34.2679 13 34.0383 13.0097 33.8117 13.0287L33.9795 15.0217ZM32.6999 14.2283C30.4748 14.8153 28.8111 16.4782 28.2271 18.7027L30.1616 19.2105C30.5621 17.6849 31.6804 16.5657 33.2101 16.1621L32.6999 14.2283ZM28.2271 18.7027C28.1263 19.0869 28.0582 19.4858 28.0245 19.8965L30.0178 20.0601C30.0421 19.7632 30.091 19.4795 30.1616 19.2105L28.2271 18.7027ZM28.0245 19.8965C28.0245 19.8958 28.0246 19.8953 28.0246 19.8958C28.0245 19.896 28.0244 19.8972 28.0243 19.8986L30.0177 20.0614C30.0176 20.0622 30.0176 20.0629 30.0176 20.0625C30.0176 20.0625 30.0177 20.0613 30.0178 20.0601L28.0245 19.8965ZM29.1005 20.9768L29.1012 20.9768L28.9422 18.9831L28.9415 18.9832L29.1005 20.9768ZM29.1018 20.9767C29.513 20.9437 29.9124 20.8762 30.2971 20.7759L29.7923 18.8406C29.523 18.9109 29.239 18.9593 28.9417 18.9831L29.1018 20.9767ZM30.2971 20.7759C32.5263 20.1944 34.1908 18.5285 34.7738 16.2972L32.8387 15.7916C32.4383 17.3241 31.3197 18.4422 29.7923 18.8406L30.2971 20.7759ZM34.7738 16.2972C34.8742 15.913 34.9419 15.5141 34.9755 15.1033L32.9822 14.9403C32.9578 15.2379 32.9091 15.5221 32.8387 15.7916L34.7738 16.2972ZM34.9756 15.103C34.9755 15.1039 34.9754 15.1046 34.9755 15.1041C34.9755 15.104 34.9756 15.1027 34.9757 15.1012L32.9823 14.9388C32.9824 14.9379 32.9824 14.9372 32.9824 14.9377C32.9824 14.9378 32.9823 14.9391 32.9822 14.9406L34.9756 15.103ZM33.8958 14.0235C33.8943 14.0236 33.8932 14.0237 33.8931 14.0237C33.8927 14.0237 33.8936 14.0237 33.8946 14.0236L34.0622 16.0165L34.0622 16.0165L33.8958 14.0235ZM33.8948 14.0236C33.4836 14.0581 33.0844 14.1269 32.6999 14.2283L33.2101 16.1621C33.4799 16.0909 33.7643 16.0415 34.062 16.0165L33.8948 14.0236Z" fill="#4169e1" mask="url(#path-2-inside-1)"/>
<mask id="path-4-inside-2" fill="white">
<path fill-rule="evenodd" clip-rule="evenodd" d="M29 42C29.672 42 30.221 42.2 30.802 42.41C31.582 42.69 32.467 43 34 43C35.582 43 37.959 39.74 39.317 35.76C36.785 35.02 35 32.69 35 30C35 27.8 36.196 25.8 38.1 24.75C36.921 23.47 35.502 23 34.5 23C33.485 23 32.54 23.27 31.627 23.52C30.732 23.77 29.888 24 29 24C28.12 24 27.166 23.77 26.156 23.52C25.107 23.27 24.023 23 23 23C21.205 23 18 25.68 18 31C18 36.57 21.631 43 24 43C25.533 43 26.418 42.69 27.198 42.41C27.779 42.2 28.328 42 29 42ZM34 44C32.293 44 31.279 43.64 30.465 43.35C29.925 43.16 29.498 43 29 43C28.502 43 28.075 43.16 27.535 43.35C26.721 43.64 25.707 44 24 44C20.859 44 17 36.84 17 31C17 25.21 20.548 22 23 22C24.144 22 25.287 22.28 26.394 22.55C27.344 22.78 28.24 23 29 23C29.751 23 30.532 22.79 31.358 22.56C32.337 22.28 33.349 22 34.5 22C35.857 22 37.829 22.69 39.292 24.62C39.386 24.74 39.417 24.9 39.376 25.05C39.336 25.2 39.229 25.33 39.085 25.38C37.211 26.16 36 27.98 36 30C36 32.4 37.706 34.46 40.056 34.91C40.196 34.94 40.318 35.02 40.392 35.15C40.465 35.27 40.481 35.42 40.438 35.55C39.148 39.65 36.453 44 34 44Z"/>
</mask>
<path d="M29 41C28.4477 41 28 41.4477 28 42C28 42.5523 28.4477 43 29 43V41ZM30.802 42.41L30.4621 43.3505L30.4641 43.3512L30.802 42.41ZM39.317 35.76L40.2634 36.0829C40.3516 35.8246 40.3303 35.5415 40.2045 35.2993C40.0788 35.057 39.8595 34.8767 39.5975 34.8002L39.317 35.76ZM38.1 24.75L38.5829 25.6257C38.8519 25.4774 39.0377 25.2137 39.087 24.9105C39.1363 24.6074 39.0436 24.2984 38.8355 24.0725L38.1 24.75ZM31.627 23.52L31.3629 22.5555L31.358 22.5569L31.627 23.52ZM26.156 23.52L26.3963 22.5493L26.3878 22.5472L26.156 23.52ZM27.198 42.41L27.5359 43.3512L27.5379 43.3505L27.198 42.41ZM30.465 43.35L30.8006 42.408L30.7969 42.4067L30.465 43.35ZM27.535 43.35L27.2031 42.4067L27.1994 42.408L27.535 43.35ZM26.394 22.55L26.157 23.5215L26.1587 23.5219L26.394 22.55ZM31.358 22.56L31.6263 23.5234L31.633 23.5214L31.358 22.56ZM39.292 24.62L38.4951 25.2241C38.4983 25.2283 38.5015 25.2325 38.5048 25.2367L39.292 24.62ZM39.376 25.05L38.4114 24.7863L38.4098 24.7923L39.376 25.05ZM39.085 25.38L38.757 24.4353C38.738 24.4419 38.7193 24.4491 38.7007 24.4568L39.085 25.38ZM40.056 34.91L40.2655 33.9322C40.2584 33.9307 40.2512 33.9292 40.2441 33.9278L40.056 34.91ZM40.392 35.15L39.5229 35.6447C39.5277 35.6531 39.5326 35.6615 39.5377 35.6697L40.392 35.15ZM40.438 35.55L39.4886 35.236C39.4871 35.2406 39.4856 35.2452 39.4841 35.2499L40.438 35.55ZM34 43C33.4477 43 33 43.4477 33 44C33 44.5523 33.4477 45 34 45V43ZM29 43C29.4723 43 29.8643 43.1344 30.4621 43.3505L31.1419 41.4695C30.5777 41.2656 29.8717 41 29 41V43ZM30.4641 43.3512C31.2884 43.6471 32.2992 44 34 44V42C32.6348 42 31.8756 41.7329 31.1399 41.4688L30.4641 43.3512ZM34 44C34.7228 44 35.3859 43.6398 35.9263 43.2137C36.4865 42.7721 37.035 42.1652 37.5491 41.4636C38.5796 40.0572 39.5569 38.1536 40.2634 36.0829L38.3706 35.4371C37.7191 37.3464 36.8289 39.0628 35.9359 40.2814C35.4882 40.8923 35.061 41.3491 34.6881 41.6431C34.2955 41.9527 34.0682 42 34 42V44ZM39.5975 34.8002C37.4871 34.1834 36 32.2408 36 30H34C34 33.1392 36.0829 35.8566 39.0365 36.7198L39.5975 34.8002ZM36 30C36 28.1666 36.9958 26.5009 38.5829 25.6257L37.6171 23.8743C35.3962 25.0991 34 27.4334 34 30H36ZM38.8355 24.0725C37.4704 22.5904 35.7861 22 34.5 22V24C35.2179 24 36.3716 24.3496 37.3645 25.4275L38.8355 24.0725ZM34.5 22C33.3259 22 32.2468 22.3135 31.3629 22.5555L31.8911 24.4845C32.8332 24.2265 33.6441 24 34.5 24V22ZM31.358 22.5569C30.4453 22.8118 29.73 23 29 23V25C30.046 25 31.0187 24.7282 31.896 24.4831L31.358 22.5569ZM29 23C28.264 23 27.4319 22.8056 26.3963 22.5493L25.9157 24.4907C26.9001 24.7344 27.976 25 29 25V23ZM26.3878 22.5472C25.3757 22.306 24.1655 22 23 22V24C23.8805 24 24.8383 24.234 25.9242 24.4928L26.3878 22.5472ZM23 22C21.6752 22 20.1641 22.9246 19.0339 24.3958C17.8656 25.9164 17 28.1339 17 31H19C19 28.5461 19.7369 26.7636 20.6199 25.6142C21.5409 24.4154 22.5298 24 23 24V22ZM17 31C17 33.979 17.9635 37.1373 19.2253 39.5519C19.8575 40.7616 20.5866 41.8275 21.3476 42.6069C22.0692 43.346 22.9884 44 24 44V42C23.8271 42 23.404 41.8503 22.7786 41.2097C22.1925 40.6094 21.5696 39.7196 20.9979 38.6256C19.852 36.4327 19 33.591 19 31H17ZM24 44C25.7008 44 26.7116 43.6471 27.5359 43.3512L26.8601 41.4688C26.1244 41.7329 25.3652 42 24 42V44ZM27.5379 43.3505C28.1357 43.1344 28.5277 43 29 43V41C28.1283 41 27.4223 41.2656 26.8581 41.4695L27.5379 43.3505ZM34 43C32.4626 43 31.5755 42.6841 30.8006 42.408L30.1294 44.292C30.9825 44.5959 32.1234 45 34 45V43ZM30.7969 42.4067C30.3033 42.233 29.7031 42 29 42V44C29.2929 44 29.5467 44.087 30.1331 44.2933L30.7969 42.4067ZM29 42C28.2969 42 27.6967 42.233 27.2031 42.4067L27.8669 44.2933C28.4533 44.087 28.7071 44 29 44V42ZM27.1994 42.408C26.4245 42.6841 25.5374 43 24 43V45C25.8766 45 27.0175 44.5959 27.8706 44.292L27.1994 42.408ZM24 43C23.5877 43 22.994 42.7522 22.2695 42.0646C21.565 41.3961 20.8477 40.4136 20.2025 39.2158C18.909 36.8143 18 33.7261 18 31H16C16 34.1139 17.0205 37.5257 18.4417 40.1642C19.1539 41.4864 19.9903 42.6589 20.8928 43.5154C21.7752 44.3528 22.8418 45 24 45V43ZM18 31C18 28.3129 18.8214 26.2834 19.8682 24.9448C20.9411 23.5728 22.1784 23 23 23V21C21.3696 21 19.6069 22.0322 18.2928 23.7127C16.9526 25.4266 16 27.8971 16 31H18ZM23 23C24.0029 23 25.0272 23.246 26.157 23.5215L26.631 21.5785C25.5468 21.314 24.2851 21 23 21V23ZM26.1587 23.5219C27.0671 23.7419 28.0942 24 29 24V22C28.3858 22 27.6209 21.8181 26.6293 21.5781L26.1587 23.5219ZM29 24C29.9106 24 30.8237 23.7468 31.6262 23.5234L31.0898 21.5966C30.2403 21.8332 29.5914 22 29 22V24ZM31.633 23.5214C32.6172 23.2399 33.5056 23 34.5 23V21C33.1924 21 32.0568 21.3201 31.083 21.5986L31.633 23.5214ZM34.5 23C35.553 23 37.2265 23.5506 38.4951 25.2241L40.0889 24.0159C38.4315 21.8294 36.161 21 34.5 21V23ZM38.5048 25.2367C38.398 25.1004 38.3715 24.9321 38.4114 24.7863L40.3406 25.3137C40.4625 24.8679 40.374 24.3796 40.0792 24.0033L38.5048 25.2367ZM38.4098 24.7923C38.4411 24.6748 38.5387 24.5111 38.757 24.4353L39.413 26.3247C39.9193 26.1489 40.2309 25.7252 40.3422 25.3077L38.4098 24.7923ZM38.7007 24.4568C36.454 25.3919 35 27.576 35 30H37C37 28.384 37.968 26.9281 39.4693 26.3032L38.7007 24.4568ZM35 30C35 32.8798 37.0467 35.3519 39.8679 35.8922L40.2441 33.9278C38.3653 33.5681 37 31.9202 37 30H35ZM39.8465 35.8878C39.7406 35.8651 39.6057 35.79 39.5229 35.6447L41.2611 34.6553C41.0303 34.25 40.6514 34.0149 40.2655 33.9322L39.8465 35.8878ZM39.5377 35.6697C39.4573 35.5376 39.4401 35.3826 39.4886 35.236L41.3874 35.864C41.5219 35.4574 41.4727 35.0024 41.2463 34.6303L39.5377 35.6697ZM39.4841 35.2499C38.8644 37.2196 37.9105 39.2329 36.8411 40.7317C36.306 41.4816 35.7653 42.0697 35.2524 42.4616C34.734 42.8575 34.3153 43 34 43V45C34.9112 45 35.7492 44.5987 36.4664 44.0509C37.189 43.499 37.8626 42.7434 38.4692 41.8933C39.683 40.1921 40.7216 37.9804 41.3919 35.8501L39.4841 35.2499Z" fill="#4169e1" mask="url(#path-4-inside-2)"/>
</svg>
