<svg width="159" height="162" viewBox="0 0 159 162" fill="none" xmlns="http://www.w3.org/2000/svg">
<path fill-rule="evenodd" clip-rule="evenodd" d="M133.576 45.8802C128.307 32.4995 116.26 22.9621 101.995 20.8783L75.8619 17.0588C61.7067 14.9901 47.504 20.5729 38.5542 31.7221L22.0304 52.3057C13.0106 63.542 10.6972 78.7228 15.9671 92.104L25.4247 116.12C30.6937 129.5 42.7408 139.038 57.0063 141.122L83.1392 144.941C97.2944 147.01 111.497 141.428 120.447 130.279L136.971 109.694C145.99 98.458 148.303 83.2774 143.034 69.8967L133.576 45.8802Z" fill="#E0E0E0" fill-opacity="0.278655"/>
<path d="M46 92H48V103H46V92Z" fill="#263238"/>
<path d="M46 84H48V88H46V84Z" fill="#263238"/>
<path d="M111 101H113V104H111V101Z" fill="#263238"/>
<path d="M111 106H109.561V108.366H104V110H111V106Z" fill="#263238"/>
<path fill-rule="evenodd" clip-rule="evenodd" d="M114.647 56.4611H95.0667V47.4226C95.0667 44.984 93.1071 43 90.6982 43H68.3018C65.8933 43 63.9337 44.9839 63.9337 47.4226V56.4611H44.3532C41.9528 56.4611 40 58.4381 40 60.8682V72.906L41.5474 73.5015V110.024C41.5474 112.768 43.7522 115 46.462 115H112.538C115.248 115 117.453 112.768 117.453 110.024V73.5014L119 72.9061V60.8682C119 58.4381 117.047 56.4611 114.647 56.4611ZM65.5795 47.4226C65.5795 45.9029 66.8007 44.6662 68.3018 44.6662H90.6982C92.1993 44.6662 93.4209 45.9029 93.4209 47.4226V56.4611H90.4254V53.5875H88.7795V56.4611H70.2205V49.365H88.7795V51.7516H90.4253V47.6988H68.5746V56.4611H65.5795V47.4226ZM112.538 113.334C114.341 113.334 115.807 111.849 115.807 110.024H115.807V74.1347L89.4499 84.2777C89.3964 89.7887 84.9559 94.2565 79.4999 94.2565C74.0439 94.2565 69.6034 89.7887 69.5499 84.2776L43.1932 74.1348V110.024C43.1932 111.849 44.6594 113.334 46.462 113.334H112.538ZM71.1908 84.1782C71.1908 79.5395 74.9185 75.7657 79.5 75.7657C84.0815 75.7657 87.8092 79.5395 87.8092 84.1782C87.8092 88.8164 84.0815 92.5902 79.5 92.5902C74.9185 92.5902 71.1908 88.8164 71.1908 84.1782ZM89.3126 82.5482L117.354 71.7572V60.8682C117.354 59.3571 116.14 58.1273 114.647 58.1273H44.3532C42.8605 58.1273 41.6458 59.357 41.6458 60.8682V71.7569L69.6874 82.5481C70.4608 77.7648 74.5601 74.0996 79.5 74.0996C84.4399 74.0996 88.5393 77.7649 89.3126 82.5482Z" fill="#263238"/>
<path fill-rule="evenodd" clip-rule="evenodd" d="M79.5 97C86.4036 97 92 91.4036 92 84.5C92 77.5964 86.4036 72 79.5 72C72.5964 72 67 77.5964 67 84.5C67 91.4036 72.5964 97 79.5 97Z" fill="#4169e1"/>
<path d="M79 75V78" stroke="white" stroke-width="2" stroke-linecap="round" stroke-linejoin="round"/>
<path fill-rule="evenodd" clip-rule="evenodd" d="M85 84.5C85 87.5381 82.5374 90 79.5 90C76.4626 90 74 87.5381 74 84.5C74 81.4619 76.4626 79 79.5 79C82.5374 79 85 81.4619 85 84.5V84.5Z" stroke="white" stroke-width="2" stroke-linecap="round" stroke-linejoin="round"/>
<path fill-rule="evenodd" clip-rule="evenodd" d="M89 84.5C89 89.7467 84.746 94 79.5 94C74.254 94 70 89.7467 70 84.5C70 79.2533 74.254 75 79.5 75C84.746 75 89 79.2533 89 84.5V84.5Z" stroke="white" stroke-width="2" stroke-linecap="round" stroke-linejoin="round"/>
<path d="M86 84H89" stroke="white" stroke-width="2" stroke-linecap="round" stroke-linejoin="round"/>
<path d="M84 89L85 90" stroke="white" stroke-width="2" stroke-linecap="round" stroke-linejoin="round"/>
<path d="M106 62.6481H113.325V68H115V61H106V62.6481Z" fill="#263238"/>
<path d="M46 68H47.5964V62.8115H55V61H46V68Z" fill="#263238"/>
<path d="M72 107H75V109H72V107Z" fill="#263238"/>
<path d="M68 107H71V109H68V107Z" fill="#263238"/>
<path d="M59 107H62V109H59V107Z" fill="#263238"/>
<path d="M62 107H65V109H62V107Z" fill="#263238"/>
<path d="M78 107H81V109H78V107Z" fill="#263238"/>
<path d="M82 107H85V109H82V107Z" fill="#263238"/>
<path d="M57 50H60V52H57V50Z" fill="#263238"/>
<path d="M52 50H55V52H52V50Z" fill="#263238"/>
<path d="M48 50H51V52H48V50Z" fill="#263238"/>
<path d="M104 50H107V52H104V50Z" fill="#263238"/>
<path d="M99 50H102V52H99V50Z" fill="#263238"/>
<path d="M108 50H111V52H108V50Z" fill="#263238"/>
<path d="M102.779 81.0059L103.371 82.5588L95.5185 85.6258L94.9266 84.0729L102.779 81.0059Z" fill="#263238"/>
<path d="M108.052 78.9456L108.644 80.4985L105.623 81.6783L105.031 80.1254L108.052 78.9456Z" fill="#263238"/>
</svg>
