<svg width="59" height="58" viewBox="0 0 59 58" fill="none" xmlns="http://www.w3.org/2000/svg">
<path d="M29 58C45.0163 58 58 45.0163 58 29C58 12.9837 45.0163 0 29 0C12.9837 0 0 12.9837 0 29C0 45.0163 12.9837 58 29 58Z" fill="white" stroke="#E0E0E0" stroke-width="0.5"/>
<path fill-rule="evenodd" clip-rule="evenodd" d="M24.3832 31.4868L14.3512 28.3468C14.0872 28.2668 13.9402 27.9868 14.0232 27.7168C14.1052 27.4568 14.3832 27.3068 14.6492 27.3968L24.6492 30.5268C27.3212 31.1668 30.9212 31.1668 33.3722 30.5168L43.3512 27.3968C43.6132 27.3068 43.8942 27.4568 43.9772 27.7168C44.0602 27.9868 43.9132 28.2668 43.6492 28.3468L33.6492 31.4768C32.3162 31.8368 30.7162 32.0068 29.0872 32.0068C27.4702 32.0068 25.8252 31.8368 24.3832 31.4868Z" fill="#4169e1"/>
<path fill-rule="evenodd" clip-rule="evenodd" d="M15.5 20.9971C15.08 20.9971 15 21.0771 15 21.4971V39.9971C15 40.4171 15.155 40.9971 15.5 40.9971H42.5C42.845 40.9971 43 40.4171 43 39.9971V21.4971C43 21.0771 42.92 20.9971 42.5 20.9971H15.5ZM42.5 41.9971H15.5C14.469 41.9971 14 40.9671 14 39.9971V21.4971C14 20.5371 14.533 19.9971 15.5 19.9971H42.5C43.467 19.9971 44 20.5371 44 21.4971V39.9971C44 40.9671 43.531 41.9971 42.5 41.9971Z" fill="#4169e1"/>
<path fill-rule="evenodd" clip-rule="evenodd" d="M25 19.997H33V17.5C33 17.08 32.92 17 32.5 17H25.5C25.08 17 25 17.08 25 17.5V19.997ZM33.5 20.997H24.5C24.224 20.997 24 20.777 24 20.497V17.5C24 16.533 24.533 16 25.5 16H32.5C33.467 16 34 16.533 34 17.5V20.497C34 20.777 33.776 20.997 33.5 20.997Z" fill="#4169e1"/>
<path fill-rule="evenodd" clip-rule="evenodd" d="M29 25.9971C28.449 25.9971 28 26.4471 28 26.9971C28 27.5471 28.449 27.9971 29 27.9971C29.551 27.9971 30 27.5471 30 26.9971C30 26.4471 29.551 25.9971 29 25.9971ZM29 28.9971C27.897 28.9971 27 28.1071 27 26.9971C27 25.8971 27.897 24.9971 29 24.9971C30.103 24.9971 31 25.8971 31 26.9971C31 28.1071 30.103 28.9971 29 28.9971Z" fill="#4169e1"/>
</svg>
