<?xml version="1.0" encoding="UTF-8"?>
<svg width="80px" height="80px" viewBox="0 0 80 80" version="1.1" xmlns="http://www.w3.org/2000/svg" xmlns:xlink="http://www.w3.org/1999/xlink">
    <title>Pin 1</title>
    <defs>
        <circle id="path-1" cx="40" cy="40" r="29"></circle>
        <filter x="-15.5%" y="-15.5%" width="131.0%" height="131.0%" filterUnits="objectBoundingBox" id="filter-2">
            <feOffset dx="0" dy="0" in="SourceAlpha" result="shadowOffsetOuter1"></feOffset>
            <feGaussianBlur stdDeviation="3" in="shadowOffsetOuter1" result="shadowBlurOuter1"></feGaussianBlur>
            <feColorMatrix values="0 0 0 0 0   0 0 0 0 0   0 0 0 0 0  0 0 0 0.0650404283 0" type="matrix" in="shadowBlurOuter1"></feColorMatrix>
        </filter>
    </defs>
    <g id="Page-1" stroke="none" stroke-width="1" fill="none" fill-rule="evenodd">
        <g id="Продукты---акции" transform="translate(-395.000000, -3548.000000)">
            <g id="Pin-1" transform="translate(395.000000, 3548.000000)">
                <circle id="Oval-Copy-2" fill="#E0E0E0" fill-rule="nonzero" opacity="0.2" cx="40" cy="40" r="40"></circle>
                <g id="Oval-Copy" fill-rule="nonzero">
                    <use fill="black" fill-opacity="1" filter="url(#filter-2)" xlink:href="#path-1"></use>
                    <use fill="#FFFFFF" xlink:href="#path-1"></use>
                </g>
                <g id="Group-521" transform="translate(25.000000, 25.000000)" fill="#4169e1">
                    <path d="M3.64605517,6 C2.30190981,6 1.2093634,7.145 1.2093634,8.551 L1.2093634,26.508 C1.2093634,27.886 2.30680473,29.008 3.65682399,29.008 L26.1734615,29.008 C27.5234807,29.008 28.6209221,27.886 28.6209221,26.508 L28.6209221,8.551 C28.6209221,7.168 27.4950902,6 26.1626926,6 L3.64605517,6 L3.64605517,6 Z M26.1734615,30.008 L3.65682399,30.008 C1.76738441,30.008 0.230379159,28.437 0.230379159,26.508 L0.230379159,8.551 C0.230379159,6.593 1.76248949,5 3.64605517,5 L26.1626926,5 C28.0580061,5 29.5999063,6.593 29.5999063,8.551 L29.5999063,26.508 C29.5999063,28.437 28.0619221,30.008 26.1734615,30.008 L26.1734615,30.008 Z" id="Fill-512"></path>
                    <path d="M10.0094527,5 L19.7992951,5 L19.7992951,2.5 C19.7992951,1.673 19.1404387,1 18.3308187,1 L11.4779291,1 C10.6683091,1 10.0094527,1.673 10.0094527,2.5 L10.0094527,5 Z M20.2887872,6 L9.5199606,6 C9.24976095,6 9.03046848,5.776 9.03046848,5.5 L9.03046848,2.5 C9.03046848,1.122 10.1279098,0 11.4779291,0 L18.3308187,0 C19.680838,0 20.7782793,1.122 20.7782793,2.5 L20.7782793,5.5 C20.7782793,5.776 20.5589869,6 20.2887872,6 L20.2887872,6 Z" id="Fill-514"></path>
                    <path d="M4.13505779,29 L6.09302627,29 L6.09302627,6 L4.13505779,6 L4.13505779,29 Z M6.58251839,30 L3.64556567,30 C3.37536602,30 3.15607356,29.776 3.15607356,29.5 L3.15607356,5.5 C3.15607356,5.224 3.37536602,5 3.64556567,5 L6.58251839,5 C6.85369702,5 7.07201051,5.224 7.07201051,5.5 L7.07201051,29.5 C7.07201051,29.776 6.85369702,30 6.58251839,30 L6.58251839,30 Z" id="Fill-516"></path>
                    <path d="M23.7147426,29 L25.672711,29 L25.672711,6 L23.7147426,6 L23.7147426,29 Z M26.1622032,30 L23.2252504,30 C22.9550508,30 22.7357583,29.776 22.7357583,29.5 L22.7357583,5.5 C22.7357583,5.224 22.9550508,5 23.2252504,5 L26.1622032,5 C26.4333818,5 26.6516953,5.224 26.6516953,5.5 L26.6516953,29.5 C26.6516953,29.776 26.4333818,30 26.1622032,30 L26.1622032,30 Z" id="Fill-518"></path>
                </g>
            </g>
        </g>
    </g>
</svg>