<svg width="59" height="58" viewBox="0 0 59 58" fill="none" xmlns="http://www.w3.org/2000/svg">
<path d="M29 58C45.0163 58 58 45.0163 58 29C58 12.9837 45.0163 0 29 0C12.9837 0 0 12.9837 0 29C0 45.0163 12.9837 58 29 58Z" fill="white" stroke="#E0E0E0" stroke-width="0.5"/>
<path fill-rule="evenodd" clip-rule="evenodd" d="M29 21.5L31.5 27.5H38.5L32.625 32.125L34.5 39L29 35.5L23.5 39L25.125 32.125L19.5 27.5H26.5L29 21.5V21.5Z" stroke="#4169e1" stroke-linecap="round" stroke-linejoin="round"/>
<path fill-rule="evenodd" clip-rule="evenodd" d="M43.5 31C43.5 39.008 37.008 45.5 29 45.5C20.992 45.5 14.5 39.008 14.5 31C14.5 22.992 20.992 16.5 29 16.5C37.008 16.5 43.5 22.992 43.5 31V31Z" stroke="#4169e1" stroke-linecap="round" stroke-linejoin="round"/>
</svg>
