<?xml version="1.0" encoding="UTF-8"?>
<svg width="58px" height="58px" viewBox="0 0 58 58" version="1.1" xmlns="http://www.w3.org/2000/svg" xmlns:xlink="http://www.w3.org/1999/xlink">
    <title>Point 2 Copy 3</title>
    <defs>
        <linearGradient x1="48.003541%" y1="100%" x2="50%" y2="-37.8205034%" id="linearGradient-1">
            <stop stop-color="#2855dd" offset="0%"></stop>
            <stop stop-color="#4169e1" offset="100%"></stop>
        </linearGradient>
    </defs>
    <g id="Page-1" stroke="none" stroke-width="1" fill="none" fill-rule="evenodd">
        <g id="О-компании-/-Награды" transform="translate(-948.000000, -4714.000000)">
            <g id="Point-2-Copy-3" transform="translate(948.000000, 4714.000000)">
                <circle id="Oval-Copy" fill="url(#linearGradient-1)" opacity="0.915364583" cx="29" cy="29" r="29"></circle>
                <g id="Group-3" transform="translate(15.000000, 15.000000)" stroke="#FFFFFF" stroke-linecap="round" stroke-linejoin="round">
                    <polygon id="Stroke-1" points="14.5 5 17 11 24 11 18.125 15.625 20 22.5 14.5 19 9 22.5 10.625 15.625 5 11 12 11"></polygon>
                    <path d="M29,14.5 C29,22.508 22.508,29 14.5,29 C6.492,29 0,22.508 0,14.5 C0,6.492 6.492,0 14.5,0 C22.508,0 29,6.492 29,14.5 L29,14.5 Z" id="Stroke-2"></path>
                </g>
            </g>
        </g>
    </g>
</svg>