<?xml version="1.0" encoding="UTF-8"?>
<svg width="318px" height="63px" viewBox="0 0 318 63" version="1.1" xmlns="http://www.w3.org/2000/svg" xmlns:xlink="http://www.w3.org/1999/xlink">
    <title>Group</title>
    <g id="Page-1" stroke="none" stroke-width="1" fill="none" fill-rule="evenodd">
        <g id="О-компании-/-лицензии" transform="translate(-802.000000, -3609.000000)" fill="#FFFFFF">
            <g id="Trade-Copy" transform="translate(391.000000, 3432.000000)">
                <g id="Group" transform="translate(411.000000, 177.000000)">
                    <path d="M0.0294941926,3.92369039 C0.106073857,16.5304312 0.0974312234,26.2773803 0.00356629293,33.1645377 C-0.119219954,42.2051786 2.87396036,53.48165 17.4863735,60.6761578 C18.7983594,61.3217381 20.821146,62.0893872 22.4352116,62.0893872 C25.9649976,62.0893872 29.3838935,59.1186272 29.3838935,52.8729839 L29.3838935,14.0962184 C27.3836248,14.1935379 22.8842949,14.5039533 19.6854795,15.387379 C18.1644595,15.8085373 16.8065881,16.0992372 15.431722,16.1944592 L24.1431726,40.3036741 C23.4642368,44.0576039 19.5278542,45.8210994 14.7243203,45.8210994 C9.9207863,45.8210994 5.98440367,44.0576039 5.30546795,40.3036741 L14.0054471,16.2246618 C12.8396151,16.1793579 11.6227991,15.9754905 10.2479331,15.5618828 C7.32103182,14.6784572 5.35900106,12.5491748 7.08905503,12.4329787 C7.97150152,12.373832 7.85933692,13.1104395 9.49677013,14.0601431 C10.6736487,14.7006896 12.2027411,15.1545674 14.1460778,15.0744466 C14.1460778,14.3663638 14.0037477,13.5609615 14.7243203,13.5609615 C15.4164268,13.5609615 15.3021379,14.2761755 15.3021379,14.949022 C16.5516685,14.7745182 17.9341822,14.4116676 19.4972639,13.7379822 C24.5234275,11.5726245 26.4191792,11.1900584 29.3838935,11.166148 L29.3838935,10.9392091 C29.3838935,10.2118302 29.8270287,9.59057973 30.4562551,9.30659152 C29.4637683,8.9886254 28.7338487,8.09890753 28.7338487,7.01161441 C28.7338487,5.66130709 29.8423238,4.5668828 31.2095423,4.5668828 C32.5771857,4.5668828 33.6856608,5.66130709 33.6856608,7.01161441 C33.6856608,8.09890753 32.9553163,8.9886254 31.9628296,9.30659152 C32.5924809,9.59057973 33.0351911,10.2118302 33.0351911,10.9392091 L33.0351911,11.166148 C36.0058536,11.1900584 37.8999058,11.5709466 42.9294684,13.7379822 C44.4946744,14.4116676 45.8767632,14.7745182 47.1267187,14.949022 L47.1267187,14.1322937 C47.1267187,13.3759706 48.2823539,13.3793264 48.2823539,14.1322937 L48.2823539,15.0744466 C50.5362676,15.1675713 52.211089,14.5337364 53.4478737,13.7321094 C54.5601726,12.9472617 54.5601726,12.3805437 55.3398015,12.4329787 C57.068156,12.5491748 55.1057004,14.6784572 52.1809235,15.5618828 C50.8060574,15.9754905 49.5871172,16.1793579 48.4229846,16.2246618 L57.0949226,40.3036741 C56.4159869,44.0576039 52.4796042,45.8210994 47.6760703,45.8210994 C42.8725363,45.8210994 38.9357289,44.0576039 38.257218,40.3036741 L46.9954351,16.1944592 C45.620569,16.0992372 44.2622727,15.8085373 42.7429522,15.387379 C39.5386136,14.5022754 35.0320609,14.1935379 33.0351911,14.0953794 L33.0351911,52.9124151 C33.0351911,58.8522572 35.5975574,62.9052765 40.2158498,62.3490455 C42.2887706,62.0990352 44.1020983,61.0994135 45.7352828,60.2516437 C59.6402943,53.0302891 62.5174862,42.0348696 62.3963994,33.1645377 C62.3027914,26.2773673 62.2941726,16.5303943 62.370543,3.92361875 C62.3835841,1.76975132 60.648107,0.0131194273 58.4942396,7.15588163e-05 C58.4863646,2.38530482e-05 58.4784894,1.25424182e-17 58.4706143,0 L3.92943191,0 C1.77551604,-9.45179224e-06 0.0294222403,1.74608435 0.0294222403,3.90000021 C0.0294222403,3.90789699 0.0294462245,3.91579376 0.0294941926,3.92369039 Z" id="Fill-19"></path>
                    <path d="M40.9500023,37.050002 L47.7750026,19.5000011 L54.600003,37.050002 L40.9500023,37.050002 Z" id="Combined-Shape"></path>
                    <path d="M7.80000043,37.050001 L14.6250008,17.550001 L21.4500012,37.050001 L7.80000043,37.050001 Z" id="Combined-Shape"></path>
                    <text id="Logo-text-Copy-2" font-family="Geometria-Regular, Geometria" font-size="19.5000011" font-weight="normal" line-spacing="23.4000013">
                        <tspan x="94.9000052" y="26.8000004">Центр регулирования </tspan>
                        <tspan x="94.9000052" y="50.2000017">торговых операций</tspan>
                    </text>
                </g>
            </g>
        </g>
    </g>
</svg>