<svg width="59" height="58" viewBox="0 0 59 58" fill="none" xmlns="http://www.w3.org/2000/svg">
<path d="M29 58C45.0163 58 58 45.0163 58 29C58 12.9837 45.0163 0 29 0C12.9837 0 0 12.9837 0 29C0 45.0163 12.9837 58 29 58Z" fill="white" stroke="#E0E0E0" stroke-width="0.5"/>
<mask id="path-2-inside-1" fill="white">
<path fill-rule="evenodd" clip-rule="evenodd" d="M17 21C15.897 21 15 21.897 15 23V38C15 39.103 15.897 40 17 40H41C42.103 40 43 39.103 43 38V27C43 25.897 42.103 25 41 25H26.302C25.008 25 23.865 24.176 23.456 22.949C23.444 22.914 23.437 22.878 23.433 22.841L23.38 22.318C23.093 21.527 22.345 21 21.5 21H17ZM41 41H17C15.346 41 14 39.654 14 38V23C14 21.346 15.346 20 17 20H21.5C22.794 20 23.937 20.824 24.346 22.051C24.357 22.087 24.365 22.123 24.369 22.159L24.422 22.682C24.708 23.473 25.457 24 26.302 24H41C42.654 24 44 25.346 44 27V38C44 39.654 42.654 41 41 41Z"/>
</mask>
<path d="M23.456 22.949L24.4047 22.6328L24.4019 22.6247L23.456 22.949ZM23.433 22.841L22.4381 22.9418L22.4388 22.9485L23.433 22.841ZM23.38 22.318L24.3749 22.2172C24.3666 22.1351 24.3482 22.0544 24.32 21.9769L23.38 22.318ZM17 20C16.4477 20 16 20.4477 16 21C16 21.5523 16.4477 22 17 22V20ZM24.346 22.051L25.3024 21.7588C25.2999 21.7507 25.2973 21.7427 25.2947 21.7348L24.346 22.051ZM24.369 22.159L25.364 22.0582L25.3629 22.0486L24.369 22.159ZM24.422 22.682L23.4271 22.7828C23.4354 22.8645 23.4537 22.9448 23.4816 23.022L24.422 22.682ZM41 40C40.4477 40 40 40.4477 40 41C40 41.5523 40.4477 42 41 42V40ZM17 20C15.3447 20 14 21.3447 14 23H16C16 22.4493 16.4493 22 17 22V20ZM14 23V38H16V23H14ZM14 38C14 39.6553 15.3447 41 17 41V39C16.4493 39 16 38.5507 16 38H14ZM17 41H41V39H17V41ZM41 41C42.6553 41 44 39.6553 44 38H42C42 38.5507 41.5507 39 41 39V41ZM44 38V27H42V38H44ZM44 27C44 25.3447 42.6553 24 41 24V26C41.5507 26 42 26.4493 42 27H44ZM41 24H26.302V26H41V24ZM26.302 24C25.4384 24 24.6776 23.4514 24.4047 22.6328L22.5073 23.2652C23.0524 24.9006 24.5776 26 26.302 26V24ZM24.4019 22.6247C24.4196 22.6761 24.4253 22.7159 24.4272 22.7335L22.4388 22.9485C22.4487 23.0401 22.4684 23.1519 22.5101 23.2733L24.4019 22.6247ZM24.4279 22.7402L24.3749 22.2172L22.3851 22.4188L22.4381 22.9418L24.4279 22.7402ZM24.32 21.9769C23.8899 20.7915 22.767 20 21.5 20V22C21.923 22 22.2961 22.2625 22.44 22.6591L24.32 21.9769ZM21.5 20H17V22H21.5V20ZM41 40H17V42H41V40ZM17 40C15.8983 40 15 39.1017 15 38H13C13 40.2063 14.7937 42 17 42V40ZM15 38V23H13V38H15ZM15 23C15 21.8983 15.8983 21 17 21V19C14.7937 19 13 20.7937 13 23H15ZM17 21H21.5V19H17V21ZM21.5 21C22.3636 21 23.1244 21.5486 23.3973 22.3672L25.2947 21.7348C24.7496 20.0994 23.2244 19 21.5 19V21ZM23.3896 22.3432C23.386 22.3312 23.3792 22.3058 23.3751 22.2694L25.3629 22.0486C25.3508 21.9402 25.328 21.8428 25.3024 21.7588L23.3896 22.3432ZM23.3741 22.2598L23.4271 22.7828L25.4169 22.5812L25.3639 22.0582L23.3741 22.2598ZM23.4816 23.022C23.9108 24.2091 25.0358 25 26.302 25V23C25.8782 23 25.5052 22.7369 25.3624 22.342L23.4816 23.022ZM26.302 25H41V23H26.302V25ZM41 25C42.1017 25 43 25.8983 43 27H45C45 24.7937 43.2063 23 41 23V25ZM43 27V38H45V27H43ZM43 38C43 39.1017 42.1017 40 41 40V42C43.2063 42 45 40.2063 45 38H43Z" fill="#4169e1" mask="url(#path-2-inside-1)"/>
<mask id="path-4-inside-2" fill="white">
<path fill-rule="evenodd" clip-rule="evenodd" d="M42.5 25.5C42.224 25.5 42 25.276 42 25V21C42 19.897 41.103 19 40 19H18C16.897 19 16 19.897 16 21C16 21.276 15.776 21.5 15.5 21.5C15.224 21.5 15 21.276 15 21C15 19.346 16.346 18 18 18H40C41.654 18 43 19.346 43 21V25C43 25.276 42.776 25.5 42.5 25.5Z"/>
</mask>
<path d="M42.5 26.5C43.0523 26.5 43.5 26.0523 43.5 25.5C43.5 24.9477 43.0523 24.5 42.5 24.5V26.5ZM42.5 24.5C41.9477 24.5 41.5 24.9477 41.5 25.5C41.5 26.0523 41.9477 26.5 42.5 26.5V24.5ZM42.5 24.5C42.7763 24.5 43 24.7237 43 25H41C41 25.8283 41.6717 26.5 42.5 26.5V24.5ZM43 25V21H41V25H43ZM43 21C43 19.3447 41.6553 18 40 18V20C40.5507 20 41 20.4493 41 21H43ZM40 18H18V20H40V18ZM18 18C16.3447 18 15 19.3447 15 21H17C17 20.4493 17.4493 20 18 20V18ZM15 21C15 20.7237 15.2237 20.5 15.5 20.5V22.5C16.3283 22.5 17 21.8283 17 21H15ZM15.5 20.5C15.7763 20.5 16 20.7237 16 21H14C14 21.8283 14.6717 22.5 15.5 22.5V20.5ZM16 21C16 19.8983 16.8983 19 18 19V17C15.7937 17 14 18.7937 14 21H16ZM18 19H40V17H18V19ZM40 19C41.1017 19 42 19.8983 42 21H44C44 18.7937 42.2063 17 40 17V19ZM42 21V25H44V21H42ZM42 25C42 24.7237 42.2237 24.5 42.5 24.5V26.5C43.3283 26.5 44 25.8283 44 25H42Z" fill="#4169e1" mask="url(#path-4-inside-2)"/>
</svg>
