<?xml version="1.0" encoding="UTF-8"?>
<svg width="220px" height="71px" viewBox="0 0 220 71" version="1.1" xmlns="http://www.w3.org/2000/svg" xmlns:xlink="http://www.w3.org/1999/xlink">
    <title>Group 2</title>
    <defs>
        <filter id="filter-1">
            <feColorMatrix in="SourceGraphic" type="matrix" values="0 0 0 0 1.000000 0 0 0 0 1.000000 0 0 0 0 1.000000 0 0 0 1.000000 0"></feColorMatrix>
        </filter>
    </defs>
    <g id="Page-1" stroke="none" stroke-width="1" fill="none" fill-rule="evenodd">
        <g id="О-компании-/-лицензии" transform="translate(-850.000000, -1614.000000)">
            <g id="Trade" transform="translate(391.000000, 1441.000000)">
                <g id="Group-2" transform="translate(459.000000, 173.000000)">
                    <path d="M78.0935252,55.1986301 L78.0935252,41.5753425 L93.471223,41.5753425 L93.471223,34.0958904 L78.0935252,34.0958904 L78.0935252,25.2808219 L97.7877698,25.2808219 L97.7877698,17.8013699 L70,17.8013699 L70,55.1986301 L78.0935252,55.1986301 Z M115.323741,56 C124.226619,56 129.622302,50.6575342 129.622302,44.5136986 C129.622302,31.4780822 110.73741,34.309589 110.73741,27.9520548 C110.73741,25.8150685 112.302158,24.2123288 116.402878,24.2123288 C118.561151,24.2123288 120.28777,25.0136986 121.528777,25.8150685 C122.230216,26.2958904 122.823741,26.830137 123.417266,27.4178082 L128.81295,22.0753425 C127.895683,21.1671233 126.870504,20.3123288 125.629496,19.5643836 C123.52518,18.2821918 120.28777,17 116.133094,17 C107.5,17 102.374101,22.0753425 102.374101,27.9520548 C102.374101,40.9876712 121.258993,38.1561644 121.258993,44.5136986 C121.258993,46.9178082 119.370504,48.7876712 115.053957,48.7876712 C112.194245,48.7876712 109.982014,47.8260274 108.471223,46.8109589 C107.553957,46.2232877 106.798561,45.5287671 106.151079,44.7808219 L100.755396,50.1232877 C101.726619,51.2452055 102.913669,52.2068493 104.370504,53.0616438 C106.798561,54.5575342 110.413669,56 115.323741,56 Z M144.190647,55.1986301 L144.190647,30.6232877 L156.330935,45.5821918 L168.471223,30.6232877 L168.471223,55.1986301 L176.564748,55.1986301 L176.564748,17.8013699 L169.280576,17.8013699 L156.330935,33.8287671 L143.381295,17.8013699 L136.097122,17.8013699 L136.097122,55.1986301 L144.190647,55.1986301 Z M190.323741,55.1986301 L193.561151,46.6506849 L208.129496,46.6506849 L211.366906,55.1986301 L220,55.1986301 L205.431655,17.8013699 L196.258993,17.8013699 L181.690647,55.1986301 L190.323741,55.1986301 Z M205.431655,39.4383562 L196.258993,39.4383562 L200.73741,27.1506849 L200.953237,27.1506849 L205.431655,39.4383562 Z" id="FSMA-Copy" fill="#FFFFFF" fill-rule="nonzero"></path>
                    <g filter="url(#filter-1)" id="Logo-1-Copy">
                        <g>
                            <path d="M36.0272727,16.6743348 C32.0121212,20.5869528 29.7909091,26.2364807 29.9787879,31.8524893 C35.8909091,31.8463948 41.8,31.8006867 47.7090909,31.8738197 C47.9090909,24.8774249 47.7333333,17.8718884 47.800303,10.8724464 C43.3878788,11.475794 39.1606061,13.4778112 36.0272727,16.6743348 M37.2393939,2.9588412 C41.1336364,1.10613734 45.4090909,0.182832618 49.7,0 C49.7121212,11.2533476 49.6909091,22.5066953 49.7030303,33.7569957 C33.1363636,33.7509013 16.5666667,33.7539485 -8.61263922e-15,33.7569957 C0.878787879,33.0348069 1.53636364,31.6269957 2.86969697,31.8281116 C8.36363636,31.8524893 13.8545455,31.8281116 19.3484848,31.8494421 C19.2060606,25.6849356 20.9363636,19.4899571 24.2909091,14.3249356 C27.4272727,9.40978541 31.9757576,5.42403433 37.2393939,2.9588412" id="Fill-1" fill="#C2976C"></path>
                            <path d="M1.94245455,39.0499086 C1.93942424,46.0341146 1.93336364,53.0155781 1.94548485,59.9994794 C7.63033333,59.2529129 12.9636667,56.0320116 16.1818485,51.241797 C18.6333636,47.6948442 19.8545758,43.3556167 19.766697,39.0499086 C13.8242727,39.0468614 7.88184848,39.0499086 1.94245455,39.0499086 M0.0151818182,37.1088356 C16.5879091,37.1118828 33.1576061,37.1118828 49.7303333,37.1088356 C49.0909394,37.7578914 48.4454848,38.4039 47.8060909,39.0529558 C42.0000303,39.0468614 36.197303,39.0529558 30.3909394,39.0499086 C30.4818485,44.2423549 29.2939697,49.459179 26.8848788,54.0604665 C24.0394242,59.5606811 19.5212424,64.1680631 14.0939697,67.1089258 C9.78790909,69.4671618 4.91821212,70.7073764 0.0273030303,70.8505953 C0.0121515152,59.6036468 0.0333636364,48.3560888 0.0151818182,37.1088356" id="Fill-4" fill="#C2976C"></path>
                        </g>
                    </g>
                </g>
            </g>
        </g>
    </g>
</svg>