<svg width="159" height="162" viewBox="0 0 159 162" fill="none" xmlns="http://www.w3.org/2000/svg">
<path fill-rule="evenodd" clip-rule="evenodd" d="M133.576 45.8802C128.307 32.4995 116.26 22.9621 101.995 20.8783L75.8619 17.0588C61.7067 14.9901 47.504 20.5729 38.5542 31.7221L22.0304 52.3057C13.0106 63.542 10.6972 78.7228 15.9671 92.104L25.4247 116.12C30.6937 129.5 42.7408 139.038 57.0063 141.122L83.1392 144.941C97.2944 147.01 111.497 141.428 120.447 130.279L136.971 109.694C145.99 98.458 148.303 83.2774 143.034 69.8967L133.576 45.8802Z" fill="#E0E0E0" fill-opacity="0.278655"/>
<path fill-rule="evenodd" clip-rule="evenodd" d="M120.589 116.027L118.952 114.391L120.212 113.131L124 116.918L120.212 120.706L118.952 119.446L120.589 117.809H110.285V121H108.503V117.809H100.105V121H98.3235V117.809H89.9265V121H88.1448V117.809H79.7478V121H77.9661V117.809H69.5691V121H67.7874V117.809H59.3895V121H57.6078V117.809H49.2109V121H47.4292V117.809H39V116.028H42.1901V107.63H39V105.849H42.1901V97.4508H39V95.669H42.1901V87.2718H39V85.49H42.1901V77.0923H39V75.3105H42.1901V66.9133H39V65.1315H42.1901V56.7338H39V54.952H42.1901V42.4114L40.5537 44.0478L39.294 42.788L43.081 39L46.868 42.788L45.6082 44.0478L43.9718 42.4114V116.027H51.1753V97.2179H59.6001V116.027H64.4307V83.2875H72.8547V116.027H77.6857V95.0395H86.1097V116.027H90.9407V84.7282H99.3647V116.027H104.09V78.8153H112.514V116.027H120.589ZM52.957 116.027H57.8184V98.9997H52.957V116.027ZM71.0732 116.027H66.2127V85.0692H71.0732V116.027ZM79.4676 116.027H84.3281V96.8212H79.4676V116.027ZM97.583 116.027H92.7225V86.51H97.583V116.027ZM105.872 116.027H110.733V80.597H105.872V116.027Z" fill="#263238"/>
<path d="M68.8987 71.7917L82.1989 87L95.8711 70.3838H107.587L106.322 71.6854L107.594 72.9514L111 69.4471L107.537 66L106.286 67.2871L107.583 68.5783H95.0347L82.1572 84.2283L68.9806 69.1601L55 83.2691L56.2598 84.5475L68.8987 71.7917Z" fill="#263238"/>
<path d="M84.4997 64C90.8412 64 96 58.8411 96 52.5C96 46.1589 90.8412 41 84.4997 41C78.1588 41 73 46.1589 73 52.5C73 58.8411 78.1587 64 84.4997 64Z" fill="#4169e1"/>
<path d="M74 51C76.5216 51 76.7284 56 79.25 56C81.7732 56 81.976 51 84.5 51C87.0248 51 87.6282 56 90.1538 56C92.6795 56 92.4743 51 95 51" stroke="white" stroke-width="1.5" stroke-linecap="round" stroke-linejoin="round"/>
<path d="M84.5 43V48" stroke="white" stroke-width="1.5" stroke-linecap="round" stroke-linejoin="round"/>
<path d="M84.5 62V54.5" stroke="white" stroke-width="1.5" stroke-linecap="round" stroke-linejoin="round"/>
</svg>
