<svg width="59" height="58" viewBox="0 0 59 58" fill="none" xmlns="http://www.w3.org/2000/svg">
<path d="M29 58C45.0163 58 58 45.0163 58 29C58 12.9837 45.0163 0 29 0C12.9837 0 0 12.9837 0 29C0 45.0163 12.9837 58 29 58Z" fill="white" stroke="#E0E0E0" stroke-width="0.5"/>
<path fill-rule="evenodd" clip-rule="evenodd" d="M29.5007 41C28.7339 41 27.9506 40.6978 27.4654 40.3715C26.8122 39.9364 22.6044 36.3709 20.2212 34.3283L18.2096 32.5999C17.9599 32.3945 17.9291 32.0077 18.1398 31.7539C18.3504 31.5001 18.722 31.4638 18.974 31.6814L20.9821 33.4109C24.0658 36.0446 27.6145 39.0299 28.1163 39.3683C28.4925 39.6221 29.1587 39.8397 29.7019 39.7805C30.2131 39.7188 30.3693 39.43 30.4438 39.2245C30.5113 39.0299 30.6663 38.897 30.858 38.8498C31.052 38.8015 31.2532 38.8498 31.3988 38.9816C31.8792 39.43 32.6282 39.4783 33.1217 39.2837C33.3867 39.1762 33.7121 38.9574 33.7512 38.5235C33.7713 38.2938 33.918 38.0993 34.1286 38.0159C34.3393 37.93 34.5783 37.9784 34.7428 38.1355C34.9996 38.3772 35.564 38.3905 36.0302 38.1476C36.2409 38.0388 36.7225 37.7246 36.6609 37.1577C36.6361 36.9148 36.7485 36.6863 36.9473 36.5643C37.1449 36.4434 37.3946 36.4567 37.5863 36.5884C37.8703 36.7939 38.2194 36.6489 38.4323 36.4567C38.7495 36.1896 38.9779 35.6578 38.669 34.9942C37.8135 33.1813 33.2293 28.7323 30.4557 26.7743L30.361 26.8117C29.5528 27.1127 29.5078 27.1127 28.8736 27.1864C28.1387 28.2851 26.7531 30.1113 24.6302 29.397C23.99 29.1795 23.5522 28.6839 23.3972 28.0071C23.0351 26.4237 24.209 24.1998 25.1947 23.2208C26.8253 21.5892 29.8119 20.1751 32.8625 21.565C35.7592 22.8945 37.565 23.4396 37.5827 23.4396C37.8963 23.5351 38.0762 23.8735 37.9839 24.1878C37.8928 24.5141 37.5638 24.6966 37.2502 24.5987C37.1745 24.5757 35.3581 24.0306 32.3785 22.6649C29.8699 21.5167 27.3873 22.7132 26.023 24.079C25.1734 24.9371 24.3261 26.7501 24.5498 27.7291C24.6125 28.0071 24.7474 28.1642 25.0006 28.25C26.3295 28.6972 27.2678 27.4644 28.0476 26.2666C28.1458 26.1216 28.3044 26.0249 28.4795 26.0007L28.7517 25.9778C29.2629 25.9294 29.2629 25.9294 29.9563 25.6756L30.3373 25.5306C30.5148 25.4689 30.7112 25.4931 30.8663 25.5898C33.5287 27.4028 38.669 32.2132 39.7364 34.4733C40.2298 35.5248 40.0192 36.6622 39.2003 37.3874C38.7684 37.762 38.2407 37.93 37.7496 37.8817C37.5697 38.4498 37.1544 38.9223 36.5604 39.2245C35.9438 39.5508 35.2587 39.6101 34.686 39.4408C34.4505 39.8639 34.0612 40.2035 33.5488 40.409C32.7797 40.7099 31.9005 40.6495 31.1869 40.2881C30.8639 40.6737 30.4036 40.9033 29.8415 40.9758C29.7303 40.9891 29.6155 41 29.5007 41Z" fill="#4169e1"/>
<path fill-rule="evenodd" clip-rule="evenodd" d="M27.3768 23C27.3544 23 27.3319 23 27.3082 23C25.676 22.8847 21.9009 22.8091 20.6434 22.8349C20.29 22.8257 20.0103 22.6606 20.0003 22.4274C19.9903 22.2034 20.2613 22.0125 20.6059 22.0051C21.9072 21.9793 25.7684 22.054 27.443 22.1793C27.7865 22.2034 28.0337 22.4034 27.9962 22.6349C27.9613 22.8423 27.6915 23 27.3768 23Z" fill="#4169e1"/>
<path fill-rule="evenodd" clip-rule="evenodd" d="M39.6753 35C39.4716 35 39.2707 34.9377 39.1372 34.8026C38.912 34.574 38.9699 34.2414 39.268 34.0752L40.9174 33.1098C41.2154 32.9332 41.6362 32.9737 41.8627 33.2023C42.088 33.4319 42.03 33.7634 41.7333 33.9307L40.0826 34.8961C39.9612 34.9699 39.8169 35 39.6753 35Z" fill="#4169e1"/>
<path fill-rule="evenodd" clip-rule="evenodd" d="M36.4216 38C36.2968 38 36.1697 37.9615 36.0646 37.862C35.3112 37.2281 31.3512 33.2395 31.1836 33.0779C30.9502 32.8405 30.9375 32.4428 31.1559 32.1954C31.3755 31.9456 31.7406 31.9331 31.9717 32.1706C33.3849 33.5863 36.2078 36.4078 36.781 36.8925C37.0306 37.1038 37.0733 37.4891 36.8757 37.7638C36.7613 37.9254 36.5926 38 36.4216 38Z" fill="#4169e1"/>
<path fill-rule="evenodd" clip-rule="evenodd" d="M33.4466 39C33.3261 39 33.2045 38.9519 33.1028 38.8676C32.1677 38.0493 29.5402 35.4753 29.1456 35.0169C28.9389 34.7642 28.9544 34.3911 29.1788 34.1625C29.4031 33.9338 29.7524 33.9471 29.9592 34.1986C30.2819 34.5837 32.874 37.1228 33.7926 37.929C34.0303 38.1348 34.07 38.5066 33.8788 38.7714C33.7705 38.9158 33.6091 39 33.4466 39Z" fill="#4169e1"/>
<path fill-rule="evenodd" clip-rule="evenodd" d="M30.4484 40C30.3227 40 30.197 39.955 30.0934 39.8639C29.2047 39.1113 27.9742 37.8503 27.1483 36.9515C26.941 36.7254 26.9521 36.3665 27.1748 36.1528C27.3986 35.9391 27.747 35.9492 27.9543 36.1854C28.7581 37.0629 29.9511 38.2778 30.8045 39.0101C31.0372 39.2114 31.0658 39.5602 30.8707 39.7964C30.7615 39.9314 30.605 40 30.4484 40Z" fill="#4169e1"/>
<path fill-rule="evenodd" clip-rule="evenodd" d="M13.1694 33.7252C13.4598 33.7616 13.8697 33.7859 14.4446 33.7859C15.4189 33.7859 16.4594 33.713 17.0017 33.6657C17.4953 32.0752 19.3777 25.8831 19.7912 22.435C18.2908 21.9858 15.6628 21.5001 14.5142 21.3059C14.2076 23.1866 13.2751 29.222 13.1694 33.7252ZM14.4446 35C13.5515 35 12.8977 34.9393 12.4448 34.8312C12.1823 34.7693 11.9977 34.5143 12 34.2351C12.0488 28.7363 13.4551 20.5896 13.4702 20.5034C13.526 20.1755 13.8209 19.9582 14.1298 20.0068C14.3191 20.042 18.7808 20.7705 20.611 21.4382C20.8619 21.5244 21.021 21.7794 20.9978 22.0586C20.6691 25.9912 18.0934 34.0894 17.9842 34.4294C17.911 34.6613 17.7171 34.8179 17.4883 34.8422C17.4233 34.8555 15.8927 35 14.4446 35Z" fill="#4169e1"/>
<path fill-rule="evenodd" clip-rule="evenodd" d="M41.6285 32.6471C41.9947 32.7405 42.7061 32.8327 44.0731 32.8327C44.7263 32.8327 45.347 32.8105 45.7806 32.7872C45.5144 30.2763 44.7717 25.1296 43.6348 23.2619C43.2873 23.2023 42.9165 23.1673 42.5271 23.1673C40.873 23.1673 39.2468 23.6704 38.4075 23.9728C39.4397 26.0518 41.0531 30.6848 41.6285 32.6471ZM44.0731 34C42.5305 34 41.503 33.8844 40.9334 33.6498C40.7672 33.5798 40.6416 33.4397 40.594 33.2646C40.0372 31.2346 37.9774 25.4214 37.087 23.9856C36.9987 23.8455 36.9766 23.6704 37.0254 23.5058C37.0742 23.3424 37.1905 23.214 37.3439 23.144C37.4462 23.0973 39.9 22 42.5271 22C43.0804 22 43.6081 22.0584 44.0951 22.1518C44.2404 22.1879 44.3695 22.2685 44.4543 22.3864C46.2165 24.8482 46.9663 32.9494 46.9977 33.2879C47.0116 33.4397 46.9628 33.6031 46.8617 33.7198C46.7594 33.8366 46.6152 33.9078 46.4583 33.9183C46.413 33.9311 45.3133 34 44.0731 34Z" fill="#4169e1"/>
</svg>
