<svg width="59" height="58" viewBox="0 0 59 58" fill="none" xmlns="http://www.w3.org/2000/svg">
<path d="M29 58C45.0163 58 58 45.0163 58 29C58 12.9837 45.0163 0 29 0C12.9837 0 0 12.9837 0 29C0 45.0163 12.9837 58 29 58Z" fill="white" stroke="#E0E0E0" stroke-width="0.5"/>
<path fill-rule="evenodd" clip-rule="evenodd" d="M17.8889 32.3422V20.1902L29 16.9137L40.1111 20.1902V32.3422C40.1111 36.3839 33.5876 40.6416 29 42.0818C24.4124 40.6416 17.8889 36.3839 17.8889 32.3422ZM28.8711 42.982C28.9129 43 28.9564 43 29 43C29.0436 43 29.0871 43 29.1289 42.982C33.2684 41.7218 41 37.293 41 32.3422V19.8571C41 19.6501 40.8702 19.4791 40.68 19.4251L29.1244 16.0135C29.0427 15.9955 28.9573 15.9955 28.8756 16.0135L17.32 19.4251C17.1298 19.4791 17 19.6501 17 19.8571V32.3422C17 37.293 24.7316 41.7218 28.8711 42.982ZM26.9076 33.8725C26.9947 33.9535 27.1084 33.9985 27.2222 33.9985C27.336 33.9985 27.4498 33.9535 27.5369 33.8725L35.5369 25.7711C35.7102 25.5911 35.7102 25.3031 35.5369 25.132C35.3627 24.952 35.0818 24.952 34.9076 25.132L27.2222 32.9183L23.0924 28.7326C22.9182 28.5526 22.6373 28.5526 22.4631 28.7326C22.2898 28.9037 22.2898 29.1917 22.4631 29.3717L26.9076 33.8725Z" fill="#4169e1"/>
<path d="M17.8889 20.1902L17.8182 19.9504L17.6389 20.0033V20.1902H17.8889ZM29 16.9137L29.0707 16.6739L29 16.653L28.9293 16.6739L29 16.9137ZM40.1111 20.1902H40.3611V20.0033L40.1818 19.9504L40.1111 20.1902ZM29 42.0818L28.9251 42.3204L29 42.3439L29.0749 42.3204L29 42.0818ZM28.8711 42.982L28.97 42.7524L28.9573 42.7469L28.9439 42.7428L28.8711 42.982ZM29.1289 42.982L29.0561 42.7428L29.0427 42.7469L29.03 42.7524L29.1289 42.982ZM40.68 19.4251L40.6092 19.6649L40.6117 19.6656L40.68 19.4251ZM29.1244 16.0135L29.1952 15.7737L29.1868 15.7712L29.1782 15.7693L29.1244 16.0135ZM28.8756 16.0135L28.8218 15.7693L28.8132 15.7712L28.8048 15.7737L28.8756 16.0135ZM17.32 19.4251L17.3883 19.6656L17.3908 19.6648L17.32 19.4251ZM26.9076 33.8725L26.7295 34.0483L26.7373 34.0555L26.9076 33.8725ZM27.5369 33.8725L27.7073 34.0557L27.7148 34.0481L27.5369 33.8725ZM35.5369 25.7711L35.7148 25.9468L35.717 25.9445L35.5369 25.7711ZM35.5369 25.132L35.3572 25.3059L35.3613 25.31L35.5369 25.132ZM34.9076 25.132L35.0855 25.3076L35.0872 25.3059L34.9076 25.132ZM27.2222 32.9183L27.0443 33.0939L27.2222 33.2742L27.4001 33.0939L27.2222 32.9183ZM23.0924 28.7326L22.9128 28.9065L22.9145 28.9082L23.0924 28.7326ZM22.4631 28.7326L22.6387 28.9106L22.6428 28.9065L22.4631 28.7326ZM22.4631 29.3717L22.283 29.5451L22.2852 29.5474L22.4631 29.3717ZM17.6389 20.1902V32.3422H18.1389V20.1902H17.6389ZM28.9293 16.6739L17.8182 19.9504L17.9596 20.43L29.0707 17.1534L28.9293 16.6739ZM40.1818 19.9504L29.0707 16.6739L28.9293 17.1534L40.0404 20.43L40.1818 19.9504ZM40.3611 32.3422V20.1902H39.8611V32.3422H40.3611ZM29.0749 42.3204C31.3976 41.5912 34.2027 40.1523 36.4313 38.3834C37.5461 37.4985 38.5244 36.5249 39.2259 35.5086C39.9267 34.4932 40.3611 33.4202 40.3611 32.3422H39.8611C39.8611 33.2851 39.4801 34.26 38.8144 35.2246C38.1493 36.1883 37.21 37.127 36.1205 37.9918C33.9404 39.7222 31.19 41.1323 28.9251 41.8433L29.0749 42.3204ZM17.6389 32.3422C17.6389 33.4202 18.0733 34.4932 18.7741 35.5086C19.4756 36.5249 20.4539 37.4985 21.5687 38.3834C23.7973 40.1523 26.6024 41.5912 28.9251 42.3204L29.0749 41.8433C26.81 41.1323 24.0596 39.7222 21.8795 37.9918C20.79 37.127 19.8507 36.1883 19.1856 35.2246C18.5199 34.26 18.1389 33.2851 18.1389 32.3422H17.6389ZM29 42.75C28.9886 42.75 28.9809 42.75 28.9738 42.7498C28.9671 42.7496 28.9632 42.7493 28.9608 42.7491C28.9566 42.7487 28.9614 42.7487 28.97 42.7524L28.7722 43.2116C28.8687 43.2532 28.9643 43.25 29 43.25V42.75ZM29.03 42.7524C29.0386 42.7487 29.0434 42.7487 29.0392 42.7491C29.0368 42.7493 29.0329 42.7496 29.0262 42.7498C29.0191 42.75 29.0114 42.75 29 42.75V43.25C29.0357 43.25 29.1313 43.2532 29.2278 43.2116L29.03 42.7524ZM40.75 32.3422C40.75 34.6925 38.9046 36.9721 36.4644 38.8479C34.0384 40.7127 31.0977 42.1213 29.0561 42.7428L29.2017 43.2212C31.2996 42.5825 34.2945 41.1466 36.7691 39.2443C39.2297 37.3529 41.25 34.9428 41.25 32.3422H40.75ZM40.75 19.8571V32.3422H41.25V19.8571H40.75ZM40.6117 19.6656C40.6919 19.6883 40.75 19.7592 40.75 19.8571H41.25C41.25 19.541 41.0485 19.2698 40.7483 19.1846L40.6117 19.6656ZM29.0537 16.2533L40.6092 19.6648L40.7508 19.1853L29.1952 15.7737L29.0537 16.2533ZM28.9293 16.2577C28.9757 16.2474 29.0243 16.2474 29.0707 16.2577L29.1782 15.7693C29.061 15.7436 28.939 15.7436 28.8218 15.7693L28.9293 16.2577ZM17.3908 19.6648L28.9463 16.2533L28.8048 15.7737L17.2492 19.1853L17.3908 19.6648ZM17.25 19.8571C17.25 19.7592 17.3081 19.6883 17.3883 19.6656L17.2517 19.1846C16.9515 19.2698 16.75 19.541 16.75 19.8571H17.25ZM17.25 32.3422V19.8571H16.75V32.3422H17.25ZM28.9439 42.7428C26.9023 42.1213 23.9616 40.7127 21.5356 38.8479C19.0954 36.9721 17.25 34.6925 17.25 32.3422H16.75C16.75 34.9428 18.7703 37.3529 21.2309 39.2443C23.7055 41.1466 26.7004 42.5825 28.7983 43.2212L28.9439 42.7428ZM27.2222 33.7485C27.1735 33.7485 27.12 33.7287 27.0778 33.6894L26.7373 34.0555C26.8693 34.1783 27.0434 34.2485 27.2222 34.2485V33.7485ZM27.3666 33.6894C27.3244 33.7287 27.271 33.7485 27.2222 33.7485V34.2485C27.401 34.2485 27.5752 34.1783 27.7071 34.0555L27.3666 33.6894ZM35.359 25.5955L27.359 33.6968L27.7148 34.0481L35.7148 25.9468L35.359 25.5955ZM35.3613 25.31C35.433 25.3807 35.4394 25.512 35.3568 25.5977L35.717 25.9445C35.9811 25.6702 35.9875 25.2254 35.7125 24.9541L35.3613 25.31ZM35.0872 25.3059C35.1632 25.2274 35.2813 25.2274 35.3572 25.3059L35.7165 24.9582C35.4441 24.6766 35.0004 24.6766 34.7279 24.9582L35.0872 25.3059ZM27.4001 33.0939L35.0855 25.3076L34.7296 24.9564L27.0443 32.7427L27.4001 33.0939ZM22.9145 28.9082L27.0443 33.0939L27.4002 32.7427L23.2704 28.557L22.9145 28.9082ZM22.6428 28.9065C22.7187 28.828 22.8368 28.828 22.9128 28.9065L23.2721 28.5588C22.9996 28.2772 22.5559 28.2772 22.2835 28.5588L22.6428 28.9065ZM22.6432 29.1983C22.5606 29.1126 22.567 28.9813 22.6387 28.9106L22.2875 28.5547C22.0125 28.826 22.0189 29.2708 22.283 29.5451L22.6432 29.1983ZM27.0854 33.6968L22.641 29.1961L22.2852 29.5474L26.7297 34.0481L27.0854 33.6968Z" fill="#4169e1"/>
</svg>
