<svg width="59" height="58" viewBox="0 0 59 58" fill="none" xmlns="http://www.w3.org/2000/svg">
<path d="M29 58C45.0163 58 58 45.0163 58 29C58 12.9837 45.0163 0 29 0C12.9837 0 0 12.9837 0 29C0 45.0163 12.9837 58 29 58Z" fill="white" stroke="#E0E0E0" stroke-width="0.5"/>
<mask id="path-2-inside-1" fill="white">
<path fill-rule="evenodd" clip-rule="evenodd" d="M17 19.8625V33.1525C17 37.6425 24.34 42.3725 29.5 43.9725C34.66 42.3725 42 37.6425 42 33.1525V19.8625L29.5 16.0225L17 19.8625ZM29.5 44.9925C29.45 44.9925 29.4 44.9925 29.36 44.9725C24.7 43.5725 16 38.6525 16 33.1525V19.4925C16 19.2725 16.14 19.0825 16.35 19.0225L29.35 15.0225C29.45 14.9925 29.55 14.9925 29.65 15.0225L42.65 19.0225C42.86 19.0825 43 19.2725 43 19.4925V33.1525C43 38.6525 34.3 43.5725 29.64 44.9725C29.6 44.9925 29.55 44.9925 29.5 44.9925Z"/>
</mask>
<path d="M29.5 43.9725L29.2038 44.9276C29.3967 44.9875 29.6033 44.9875 29.7962 44.9276L29.5 43.9725ZM42 19.8625H43C43 19.4233 42.7135 19.0356 42.2937 18.9066L42 19.8625ZM29.5 16.0225L29.7937 15.0666C29.6023 15.0078 29.3977 15.0078 29.2063 15.0666L29.5 16.0225ZM29.36 44.9725L29.8072 44.0781C29.756 44.0524 29.7026 44.0313 29.6477 44.0148L29.36 44.9725ZM16.35 19.0225L16.6247 19.984C16.6312 19.9822 16.6377 19.9803 16.6441 19.9783L16.35 19.0225ZM29.35 15.0225L29.0626 14.0646L29.0559 14.0667L29.35 15.0225ZM29.65 15.0225L29.9441 14.0667L29.9373 14.0647L29.65 15.0225ZM42.65 19.0225L42.3559 19.9783C42.3623 19.9803 42.3688 19.9822 42.3753 19.984L42.65 19.0225ZM29.64 44.9725L29.3523 44.0148C29.2974 44.0313 29.244 44.0524 29.1928 44.0781L29.64 44.9725ZM29.5 43.9925C28.9477 43.9925 28.5 44.4402 28.5 44.9925C28.5 45.5448 28.9477 45.9925 29.5 45.9925V43.9925ZM16 19.8625V33.1525H18V19.8625H16ZM16 33.1525C16 34.5486 16.5684 35.8842 17.4079 37.0852C18.2502 38.2903 19.4076 39.4218 20.6981 40.4333C23.2753 42.4532 26.5093 44.0921 29.2038 44.9276L29.7962 43.0174C27.3307 42.2529 24.3147 40.7268 21.9319 38.8592C20.7424 37.9269 19.7423 36.9341 19.0471 35.9395C18.3491 34.9408 18 34.0014 18 33.1525H16ZM29.7962 44.9276C32.4907 44.0921 35.7247 42.4532 38.3019 40.4333C39.5924 39.4218 40.7498 38.2903 41.5921 37.0852C42.4316 35.8842 43 34.5486 43 33.1525H41C41 34.0014 40.6509 34.9408 39.9529 35.9395C39.2577 36.9341 38.2576 37.9269 37.0681 38.8592C34.6853 40.7268 31.6693 42.2529 29.2038 43.0174L29.7962 44.9276ZM43 33.1525V19.8625H41V33.1525H43ZM42.2937 18.9066L29.7937 15.0666L29.2063 16.9784L41.7063 20.8184L42.2937 18.9066ZM29.2063 15.0666L16.7063 18.9066L17.2937 20.8184L29.7937 16.9784L29.2063 15.0666ZM29.5 43.9925C29.4644 43.9925 29.4932 43.9915 29.5309 43.9955C29.5732 43.9999 29.6807 44.0148 29.8072 44.0781L28.9128 45.8669C29.0793 45.9502 29.2318 45.9751 29.3216 45.9845C29.4068 45.9935 29.4856 45.9925 29.5 45.9925V43.9925ZM29.6477 44.0148C27.4292 43.3483 24.197 41.8219 21.537 39.8034C18.8176 37.7398 17 35.3963 17 33.1525H15C15 36.4087 17.5324 39.2752 20.328 41.3966C23.183 43.5631 26.6308 45.1967 29.0723 45.9302L29.6477 44.0148ZM17 33.1525V19.4925H15V33.1525H17ZM17 19.4925C17 19.7062 16.8562 19.9179 16.6247 19.984L16.0753 18.061C15.4238 18.2471 15 18.8388 15 19.4925H17ZM16.6441 19.9783L29.6441 15.9783L29.0559 14.0667L16.0559 18.0667L16.6441 19.9783ZM29.6373 15.9803C29.5983 15.9921 29.5515 16 29.5 16C29.4485 16 29.4017 15.9921 29.3627 15.9803L29.9373 14.0647C29.6499 13.9784 29.3501 13.9784 29.0627 14.0647L29.6373 15.9803ZM29.3559 15.9783L42.3559 19.9783L42.9441 18.0667L29.9441 14.0667L29.3559 15.9783ZM42.3753 19.984C42.1438 19.9179 42 19.7062 42 19.4925H44C44 18.8388 43.5762 18.2471 42.9247 18.061L42.3753 19.984ZM42 19.4925V33.1525H44V19.4925H42ZM42 33.1525C42 35.3963 40.1824 37.7398 37.463 39.8034C34.803 41.8219 31.5708 43.3483 29.3523 44.0148L29.9277 45.9302C32.3692 45.1967 35.817 43.5631 38.672 41.3966C41.4676 39.2752 44 36.4087 44 33.1525H42ZM29.1928 44.0781C29.3193 44.0148 29.4268 43.9999 29.4691 43.9955C29.5068 43.9915 29.5356 43.9925 29.5 43.9925V45.9925C29.5144 45.9925 29.5932 45.9935 29.6784 45.9845C29.7682 45.9751 29.9207 45.9502 30.0872 45.8669L29.1928 44.0781Z" fill="#4169e1" mask="url(#path-2-inside-1)"/>
<mask id="path-4-inside-2" fill="white">
<path fill-rule="evenodd" clip-rule="evenodd" d="M29.4992 31.9924C27.6092 31.9924 26.1392 31.2224 25.9992 30.1524C25.9692 29.8824 26.1592 29.6324 26.4392 29.5924C26.6892 29.5624 26.9592 29.7524 26.9992 30.0224C27.0492 30.4324 28.0192 30.9924 29.4992 30.9924C30.9992 30.9924 31.9992 30.3924 31.9992 29.9924C31.9992 29.7424 31.6892 29.2724 29.5892 29.0124L29.2892 28.9724C28.3892 28.8624 25.9992 28.5724 25.9992 26.9924C25.9992 25.8524 27.5092 24.9924 29.4992 24.9924C31.3892 24.9924 32.8592 25.7724 32.9992 26.8424C33.0292 27.1124 32.8392 27.3624 32.5592 27.3924C32.2992 27.4224 32.0392 27.2424 31.9992 26.9624C31.9492 26.5624 30.9792 25.9924 29.4992 25.9924C27.9692 25.9924 26.9992 26.5924 26.9992 26.9924C26.9992 27.2524 27.3092 27.7224 29.4092 27.9824L29.7092 28.0224C30.6092 28.1324 32.9992 28.4224 32.9992 29.9924C32.9992 31.1324 31.4892 31.9924 29.4992 31.9924Z"/>
</mask>
<path d="M29.4992 32.9924C30.0515 32.9924 30.4992 32.5447 30.4992 31.9924C30.4992 31.4401 30.0515 30.9924 29.4992 30.9924V32.9924ZM25.9992 30.1524L25.0053 30.2629C25.006 30.2693 25.0068 30.2757 25.0077 30.2822L25.9992 30.1524ZM26.4392 29.5924L26.3201 28.5996C26.3126 28.6004 26.3052 28.6014 26.2978 28.6025L26.4392 29.5924ZM26.9992 30.0224L27.9919 29.9014C27.9908 29.8929 27.9897 29.8844 27.9884 29.8759L26.9992 30.0224ZM29.5892 29.0124L29.457 30.0037L29.4663 30.0049L29.5892 29.0124ZM29.2892 28.9724L29.4214 27.9811L29.4105 27.9798L29.2892 28.9724ZM32.9992 26.8424L33.9931 26.732C33.9924 26.7256 33.9916 26.7191 33.9908 26.7127L32.9992 26.8424ZM32.5592 27.3924L32.4527 26.3981L32.4446 26.399L32.5592 27.3924ZM31.9992 26.9624L31.0069 27.0865C31.0077 27.0923 31.0084 27.0981 31.0093 27.1039L31.9992 26.9624ZM29.4092 27.9824L29.5414 26.9912L29.5321 26.99L29.4092 27.9824ZM29.7092 28.0224L29.577 29.0137L29.5879 29.015L29.7092 28.0224ZM29.4992 30.9924C28.9469 30.9924 28.4992 31.4401 28.4992 31.9924C28.4992 32.5447 28.9469 32.9924 29.4992 32.9924V30.9924ZM29.4992 30.9924C28.6785 30.9924 28.0057 30.8235 27.5579 30.5883C27.0947 30.3451 27.0026 30.1129 26.9908 30.0227L25.0077 30.2822C25.1358 31.2619 25.8487 31.9498 26.628 32.359C27.4227 32.7764 28.4299 32.9924 29.4992 32.9924V30.9924ZM26.9931 30.042C27.0231 30.3124 26.8318 30.5465 26.5806 30.5824L26.2978 28.6025C25.4866 28.7184 24.9153 29.4525 25.0053 30.2629L26.9931 30.042ZM26.5583 30.5853C26.3971 30.6047 26.2747 30.5523 26.1995 30.4961C26.1202 30.4369 26.0336 30.3285 26.01 30.169L27.9884 29.8759C27.8662 29.0509 27.0881 28.5074 26.3201 28.5996L26.5583 30.5853ZM26.0066 30.1435C26.0607 30.5878 26.3285 30.9035 26.5299 31.0867C26.7514 31.2882 27.0232 31.4499 27.3095 31.5762C27.8868 31.8307 28.6395 31.9924 29.4992 31.9924V29.9924C28.8789 29.9924 28.4066 29.8741 28.1164 29.7462C27.969 29.6812 27.8964 29.6261 27.8757 29.6072C27.8349 29.5701 27.9627 29.6621 27.9919 29.9014L26.0066 30.1435ZM29.4992 31.9924C30.3758 31.9924 31.1449 31.8182 31.7275 31.5519C32.0154 31.4203 32.2913 31.2508 32.512 31.0388C32.7056 30.853 32.9992 30.4954 32.9992 29.9924H30.9992C30.9992 29.6895 31.1678 29.5568 31.127 29.596C31.1134 29.6091 31.0455 29.6646 30.8959 29.733C30.6035 29.8666 30.1227 29.9924 29.4992 29.9924V31.9924ZM32.9992 29.9924C32.9992 29.3577 32.5721 28.9009 32.0521 28.6237C31.5509 28.3565 30.8047 28.1553 29.7121 28.02L29.4663 30.0049C30.4737 30.1296 30.9325 30.2933 31.1113 30.3886C31.2713 30.4739 30.9992 30.3771 30.9992 29.9924H32.9992ZM29.7214 28.0212L29.4214 27.9812L29.157 29.9637L29.457 30.0037L29.7214 28.0212ZM29.4105 27.9798C28.9454 27.923 28.2493 27.8335 27.6778 27.6051C27.0746 27.364 26.9992 27.1429 26.9992 26.9924H24.9992C24.9992 28.422 26.1188 29.1358 26.9356 29.4623C27.7841 29.8014 28.733 29.9119 29.1679 29.965L29.4105 27.9798ZM26.9992 26.9924C26.9992 26.9167 27.0457 26.692 27.4987 26.4334C27.9402 26.1814 28.6346 25.9924 29.4992 25.9924V23.9924C28.3739 23.9924 27.3182 24.2335 26.5072 24.6965C25.7077 25.1529 24.9992 25.9282 24.9992 26.9924H26.9992ZM29.4992 25.9924C30.3179 25.9924 30.9899 26.1631 31.4377 26.4001C31.9013 26.6454 31.9956 26.8801 32.0077 26.9722L33.9908 26.7127C33.8628 25.7348 33.1521 25.0445 32.3732 24.6323C31.5785 24.2118 30.5705 23.9924 29.4992 23.9924V25.9924ZM32.0053 26.9529C31.9762 26.6906 32.164 26.4291 32.4527 26.3981L32.6657 28.3867C33.5144 28.2958 34.0822 27.5343 33.9931 26.732L32.0053 26.9529ZM32.4446 26.399C32.6903 26.3707 32.948 26.5329 32.9892 26.821L31.0093 27.1039C31.1304 27.952 31.9081 28.4742 32.6738 28.3858L32.4446 26.399ZM32.9915 26.8384C32.9359 26.3937 32.6643 26.0797 32.4669 25.901C32.247 25.7018 31.9769 25.5403 31.6911 25.4134C31.1147 25.1576 30.3616 24.9924 29.4992 24.9924V26.9924C30.1168 26.9924 30.5887 27.1123 30.8798 27.2415C31.0277 27.3071 31.102 27.3631 31.1243 27.3833C31.1692 27.4239 31.0375 27.3312 31.0069 27.0865L32.9915 26.8384ZM29.4992 24.9924C28.6102 24.9924 27.8393 25.1657 27.2567 25.4343C26.9687 25.5671 26.694 25.7384 26.4749 25.9531C26.2797 26.1443 25.9992 26.4997 25.9992 26.9924H27.9992C27.9992 27.2851 27.84 27.4155 27.8745 27.3818C27.885 27.3715 27.9485 27.3177 28.0942 27.2505C28.3791 27.1192 28.8582 26.9924 29.4992 26.9924V24.9924ZM25.9992 26.9924C25.9992 27.6224 26.4145 28.0844 26.9438 28.3685C27.4465 28.6384 28.1944 28.8397 29.2863 28.9749L29.5321 26.99C28.524 26.8652 28.0669 26.7015 27.8896 26.6063C27.7389 26.5254 27.9992 26.6225 27.9992 26.9924H25.9992ZM29.277 28.9737L29.577 29.0137L29.8414 27.0312L29.5414 26.9912L29.277 28.9737ZM29.5879 29.015C30.0529 29.0719 30.7498 29.1614 31.322 29.3891C31.9285 29.6304 31.9992 29.8502 31.9992 29.9924H33.9992C33.9992 28.5647 32.8749 27.8545 32.0614 27.5308C31.2136 27.1935 30.2655 27.083 29.8305 27.0298L29.5879 29.015ZM31.9992 29.9924C31.9992 30.0682 31.9527 30.2929 31.4997 30.5515C31.0582 30.8035 30.3639 30.9924 29.4992 30.9924V32.9924C30.6246 32.9924 31.6802 32.7514 32.4912 32.2884C33.2907 31.832 33.9992 31.0567 33.9992 29.9924H31.9992Z" fill="#4169e1" mask="url(#path-4-inside-2)"/>
<mask id="path-6-inside-3" fill="white">
<path fill-rule="evenodd" clip-rule="evenodd" d="M29.5 32.9924C29.22 32.9924 29 32.7724 29 32.4924V24.4924C29 24.2224 29.22 23.9924 29.5 23.9924C29.78 23.9924 30 24.2224 30 24.4924V32.4924C30 32.7724 29.78 32.9924 29.5 32.9924Z"/>
</mask>
<path d="M29.5 33.9924C30.0523 33.9924 30.5 33.5447 30.5 32.9924C30.5 32.4401 30.0523 31.9924 29.5 31.9924V33.9924ZM29.5 31.9924C28.9477 31.9924 28.5 32.4401 28.5 32.9924C28.5 33.5447 28.9477 33.9924 29.5 33.9924V31.9924ZM29.5 31.9924C29.7723 31.9924 30 32.2201 30 32.4924H28C28 33.3247 28.6677 33.9924 29.5 33.9924V31.9924ZM30 32.4924V24.4924H28V32.4924H30ZM30 24.4924C30 24.7617 29.7852 24.9924 29.5 24.9924V22.9924C28.6548 22.9924 28 23.6832 28 24.4924H30ZM29.5 24.9924C29.2148 24.9924 29 24.7617 29 24.4924H31C31 23.6832 30.3452 22.9924 29.5 22.9924V24.9924ZM29 24.4924V32.4924H31V24.4924H29ZM29 32.4924C29 32.2201 29.2277 31.9924 29.5 31.9924V33.9924C30.3323 33.9924 31 33.3247 31 32.4924H29Z" fill="#4169e1" mask="url(#path-6-inside-3)"/>
<mask id="path-8-inside-4" fill="white">
<path fill-rule="evenodd" clip-rule="evenodd" d="M29.5 22.9924C26.47 22.9924 24 25.4624 24 28.4924C24 31.5324 26.47 33.9924 29.5 33.9924C32.53 33.9924 35 31.5324 35 28.4924C35 25.4624 32.53 22.9924 29.5 22.9924ZM29.5 34.9924C25.92 34.9924 23 32.0824 23 28.4924C23 24.9124 25.92 21.9924 29.5 21.9924C33.08 21.9924 36 24.9124 36 28.4924C36 32.0824 33.08 34.9924 29.5 34.9924Z"/>
</mask>
<path d="M29.5 21.9924C28.9477 21.9924 28.5 22.4401 28.5 22.9924C28.5 23.5447 28.9477 23.9924 29.5 23.9924V21.9924ZM29.5 33.9924C28.9477 33.9924 28.5 34.4401 28.5 34.9924C28.5 35.5447 28.9477 35.9924 29.5 35.9924V33.9924ZM29.5 21.9924C25.9177 21.9924 23 24.9101 23 28.4924H25C25 26.0147 27.0223 23.9924 29.5 23.9924V21.9924ZM23 28.4924C23 32.0859 25.9189 34.9924 29.5 34.9924V32.9924C27.0211 32.9924 25 30.979 25 28.4924H23ZM29.5 34.9924C33.0811 34.9924 36 32.0859 36 28.4924H34C34 30.979 31.9789 32.9924 29.5 32.9924V34.9924ZM36 28.4924C36 24.9101 33.0823 21.9924 29.5 21.9924V23.9924C31.9777 23.9924 34 26.0147 34 28.4924H36ZM29.5 33.9924C26.4713 33.9924 24 31.5291 24 28.4924H22C22 32.6357 25.3687 35.9924 29.5 35.9924V33.9924ZM24 28.4924C24 25.4647 26.4723 22.9924 29.5 22.9924V20.9924C25.3677 20.9924 22 24.3601 22 28.4924H24ZM29.5 22.9924C32.5277 22.9924 35 25.4647 35 28.4924H37C37 24.3601 33.6323 20.9924 29.5 20.9924V22.9924ZM35 28.4924C35 31.5291 32.5287 33.9924 29.5 33.9924V35.9924C33.6313 35.9924 37 32.6357 37 28.4924H35Z" fill="#4169e1" mask="url(#path-8-inside-4)"/>
</svg>
