<?xml version="1.0" encoding="UTF-8"?>
<svg width="80px" height="80px" viewBox="0 0 80 80" version="1.1" xmlns="http://www.w3.org/2000/svg" xmlns:xlink="http://www.w3.org/1999/xlink">
    <title>Pin 1 Copy</title>
    <defs>
        <circle id="path-1" cx="40" cy="40" r="29"></circle>
        <filter x="-15.5%" y="-15.5%" width="131.0%" height="131.0%" filterUnits="objectBoundingBox" id="filter-2">
            <feOffset dx="0" dy="0" in="SourceAlpha" result="shadowOffsetOuter1"></feOffset>
            <feGaussianBlur stdDeviation="3" in="shadowOffsetOuter1" result="shadowBlurOuter1"></feGaussianBlur>
            <feColorMatrix values="0 0 0 0 0   0 0 0 0 0   0 0 0 0 0  0 0 0 0.0650404283 0" type="matrix" in="shadowBlurOuter1"></feColorMatrix>
        </filter>
    </defs>
    <g id="Page-1" stroke="none" stroke-width="1" fill="none" fill-rule="evenodd">
        <g id="Продукты---акции" transform="translate(-649.000000, -3548.000000)">
            <g id="Pin-1-Copy" transform="translate(649.000000, 3548.000000)">
                <circle id="Oval-Copy-2" fill="#E0E0E0" fill-rule="nonzero" opacity="0.2" cx="40" cy="40" r="40"></circle>
                <g id="Oval-Copy" fill-rule="nonzero">
                    <use fill="black" fill-opacity="1" filter="url(#filter-2)" xlink:href="#path-1"></use>
                    <use fill="#FFFFFF" xlink:href="#path-1"></use>
                </g>
                <g id="Group-186" transform="translate(26.000000, 25.000000)" fill="#4169e1">
                    <path d="M14.2202735,9.4775 C10.9751314,9.4775 8.33606298,12.1685 8.33606298,15.4775 C8.33606298,18.7865 10.9751314,21.4775 14.2202735,21.4775 C17.4654156,21.4775 20.104484,18.7865 20.104484,15.4775 C20.104484,12.1685 17.4654156,9.4775 14.2202735,9.4775 M14.2202735,22.4775 C10.4357454,22.4775 7.35536123,19.3365 7.35536123,15.4775 C7.35536123,11.6185 10.4357454,8.4775 14.2202735,8.4775 C18.0048016,8.4775 21.0851858,11.6185 21.0851858,15.4775 C21.0851858,19.3365 18.0048016,22.4775 14.2202735,22.4775" id="Fill-170"></path>
                    <path d="M14.2202735,4.4775 C8.27231737,4.4775 3.43255421,9.4125 3.43255421,15.4775 C3.43255421,21.5425 8.27231737,26.4775 14.2202735,26.4775 C20.1682296,26.4775 25.0079928,21.5425 25.0079928,15.4775 C25.0079928,9.4125 20.1682296,4.4775 14.2202735,4.4775 M14.2202735,27.4775 C7.73097,27.4775 2.45185246,22.0945 2.45185246,15.4775 C2.45185246,8.8605 7.73097,3.4775 14.2202735,3.4775 C20.709577,3.4775 25.9886946,8.8605 25.9886946,15.4775 C25.9886946,22.0945 20.709577,27.4775 14.2202735,27.4775" id="Fill-176"></path>
                    <path d="M14.2202735,6.9775 C13.9495998,6.9775 13.7299226,6.7535 13.7299226,6.4775 L13.7299226,1.4775 C13.7299226,1.2015 13.9495998,0.9775 14.2202735,0.9775 C14.4909472,0.9775 14.7106244,1.2015 14.7106244,1.4775 L14.7106244,6.4775 C14.7106244,6.7535 14.4909472,6.9775 14.2202735,6.9775" id="Fill-178"></path>
                    <path d="M5.39395772,15.9775 L0.490448947,15.9775 C0.219775263,15.9775 9.80701755e-05,15.7535 9.80701755e-05,15.4775 C9.80701755e-05,15.2015 0.219775263,14.9775 0.490448947,14.9775 L5.39395772,14.9775 C5.6646314,14.9775 5.8843086,15.2015 5.8843086,15.4775 C5.8843086,15.7535 5.6646314,15.9775 5.39395772,15.9775" id="Fill-180"></path>
                    <path d="M14.2202735,29.9775 C13.9495998,29.9775 13.7299226,29.7535 13.7299226,29.4775 L13.7299226,24.4775 C13.7299226,24.2015 13.9495998,23.9775 14.2202735,23.9775 C14.4909472,23.9775 14.7106244,24.2015 14.7106244,24.4775 L14.7106244,29.4775 C14.7106244,29.7535 14.4909472,29.9775 14.2202735,29.9775" id="Fill-182"></path>
                    <path d="M27.9500981,15.9775 L23.0465893,15.9775 C22.7759156,15.9775 22.5562384,15.7535 22.5562384,15.4775 C22.5562384,15.2015 22.7759156,14.9775 23.0465893,14.9775 L27.9500981,14.9775 C28.2207718,14.9775 28.4404489,15.2015 28.4404489,15.4775 C28.4404489,15.7535 28.2207718,15.9775 27.9500981,15.9775" id="Fill-184"></path>
                </g>
            </g>
        </g>
    </g>
</svg>