<svg width="80" height="80" viewBox="0 0 80 80" fill="none" xmlns="http://www.w3.org/2000/svg">
<path opacity="0.2" d="M40 80C62.0914 80 80 62.0914 80 40C80 17.9086 62.0914 0 40 0C17.9086 0 0 17.9086 0 40C0 62.0914 17.9086 80 40 80Z" fill="#E0E0E0"/>
<g filter="url(#filter0_d)">
<path d="M40 69C56.0163 69 69 56.0163 69 40C69 23.9837 56.0163 11 40 11C23.9837 11 11 23.9837 11 40C11 56.0163 23.9837 69 40 69Z" fill="white"/>
</g>
<path fill-rule="evenodd" clip-rule="evenodd" d="M28 39.9966C28 33.3711 33.3711 28 39.9966 28C46.6193 28.0071 51.9862 33.374 51.9933 39.9966C51.9933 46.6222 46.6222 51.9933 39.9966 51.9933C33.3711 51.9933 28 46.6222 28 39.9966ZM29.7138 39.9966C29.7138 45.6757 34.3176 50.2795 39.9966 50.2795C45.6732 50.2734 50.2734 45.6732 50.2795 39.9966C50.2795 34.3176 45.6757 29.7138 39.9966 29.7138C34.3176 29.7138 29.7138 34.3176 29.7138 39.9966Z" fill="#4169e1"/>
<path d="M39.9973 32.2847C39.524 32.2847 39.1404 32.6683 39.1404 33.1416V39.1399H33.1421C32.6688 39.1399 32.2852 39.5236 32.2852 39.9969C32.2852 40.4701 32.6688 40.8537 33.1421 40.8537H39.9973C40.4706 40.8537 40.8542 40.4701 40.8542 39.9968V33.1416C40.8542 32.6683 40.4706 32.2847 39.9973 32.2847Z" fill="#4169e1"/>
<defs>
<filter id="filter0_d" x="5" y="5" width="70" height="70" filterUnits="userSpaceOnUse" color-interpolation-filters="sRGB">
<feFlood flood-opacity="0" result="BackgroundImageFix"/>
<feColorMatrix in="SourceAlpha" type="matrix" values="0 0 0 0 0 0 0 0 0 0 0 0 0 0 0 0 0 0 127 0"/>
<feOffset/>
<feGaussianBlur stdDeviation="3"/>
<feColorMatrix type="matrix" values="0 0 0 0 0 0 0 0 0 0 0 0 0 0 0 0 0 0 0.0650404 0"/>
<feBlend mode="normal" in2="BackgroundImageFix" result="effect1_dropShadow"/>
<feBlend mode="normal" in="SourceGraphic" in2="effect1_dropShadow" result="shape"/>
</filter>
</defs>
</svg>
