<svg width="80" height="80" viewBox="0 0 80 80" fill="none" xmlns="http://www.w3.org/2000/svg">
<g id="Group 13">
<g id="Point 2 Copy 8">
<path id="Oval Copy 2" opacity="0.2" d="M40 80C62.0914 80 80 62.0914 80 40C80 17.9086 62.0914 0 40 0C17.9086 0 0 17.9086 0 40C0 62.0914 17.9086 80 40 80Z" fill="#E0E0E0"/>
<g id="Oval Copy" filter="url(#filter0_d)">
<path d="M40 69C56.0163 69 69 56.0163 69 40C69 23.9837 56.0163 11 40 11C23.9837 11 11 23.9837 11 40C11 56.0163 23.9837 69 40 69Z" fill="white"/>
</g>
</g>
<path id="Combined Shape" fill-rule="evenodd" clip-rule="evenodd" d="M28.8889 43.3422V31.1902L40 27.9137L51.1111 31.1902V43.3422C51.1111 47.3839 44.5876 51.6416 40 53.0818C35.4124 51.6416 28.8889 47.3839 28.8889 43.3422ZM39.8711 53.982C39.9129 54 39.9564 54 40 54C40.0436 54 40.0871 54 40.1289 53.982C44.2684 52.7218 52 48.293 52 43.3422V30.8571C52 30.6501 51.8702 30.4791 51.68 30.4251L40.1244 27.0135C40.0427 26.9955 39.9573 26.9955 39.8756 27.0135L28.32 30.4251C28.1298 30.4791 28 30.6501 28 30.8571V43.3422C28 48.293 35.7316 52.7218 39.8711 53.982ZM37.9076 44.8725C37.9947 44.9535 38.1084 44.9985 38.2222 44.9985C38.336 44.9985 38.4498 44.9535 38.5369 44.8725L46.5369 36.7711C46.7102 36.5911 46.7102 36.3031 46.5369 36.132C46.3627 35.952 46.0818 35.952 45.9076 36.132L38.2222 43.9183L34.0924 39.7326C33.9182 39.5526 33.6373 39.5526 33.4631 39.7326C33.2898 39.9037 33.2898 40.1917 33.4631 40.3717L37.9076 44.8725Z" fill="#4169e1"/>
</g>
<defs>
<filter id="filter0_d" x="5" y="5" width="70" height="70" filterUnits="userSpaceOnUse" color-interpolation-filters="sRGB">
<feFlood flood-opacity="0" result="BackgroundImageFix"/>
<feColorMatrix in="SourceAlpha" type="matrix" values="0 0 0 0 0 0 0 0 0 0 0 0 0 0 0 0 0 0 127 0"/>
<feOffset/>
<feGaussianBlur stdDeviation="3"/>
<feColorMatrix type="matrix" values="0 0 0 0 0 0 0 0 0 0 0 0 0 0 0 0 0 0 0.0650404 0"/>
<feBlend mode="normal" in2="BackgroundImageFix" result="effect1_dropShadow"/>
<feBlend mode="normal" in="SourceGraphic" in2="effect1_dropShadow" result="shape"/>
</filter>
</defs>
</svg>
