<svg width="80" height="80" viewBox="0 0 80 80" fill="none" xmlns="http://www.w3.org/2000/svg">
<g id="Group 10">
<path id="Oval Copy 2" opacity="0.2" d="M40 80C62.0914 80 80 62.0914 80 40C80 17.9086 62.0914 0 40 0C17.9086 0 0 17.9086 0 40C0 62.0914 17.9086 80 40 80Z" fill="#E0E0E0"/>
<g id="Oval Copy" filter="url(#filter0_d)">
<path d="M40 69C56.0163 69 69 56.0163 69 40C69 23.9837 56.0163 11 40 11C23.9837 11 11 23.9837 11 40C11 56.0163 23.9837 69 40 69Z" fill="white"/>
</g>
<g id="Group">
<path id="Shape" d="M39.5049 51.4919C33.5049 43.4919 33.5049 35.0129 39.5049 28.5129" stroke="#4169e1" stroke-width="0.9" stroke-linecap="round" stroke-linejoin="round"/>
<path id="Shape_2" d="M30 45.502H40.499" stroke="#4169e1" stroke-width="0.9" stroke-linecap="round" stroke-linejoin="round"/>
<path id="Shape_3" d="M29.7861 34.502H40.4991" stroke="#4169e1" stroke-width="0.9" stroke-linecap="round" stroke-linejoin="round"/>
<path id="Shape_4" d="M28.564 39.502H40.499" stroke="#4169e1" stroke-width="0.9" stroke-linecap="round" stroke-linejoin="round"/>
<path id="Shape_5" fill-rule="evenodd" clip-rule="evenodd" d="M40.4999 28.5261C40.3349 28.5191 40.1719 28.5001 40.0049 28.5001C36.9785 28.4364 34.0538 29.593 31.8896 31.7095C29.7254 33.8259 28.5038 36.724 28.4999 39.7511C28.4512 46.1506 33.569 51.3938 39.9679 51.5001C40.1479 51.5001 40.3219 51.4811 40.4999 51.4741V28.5261Z" stroke="#4169e1" stroke-width="0.9" stroke-linecap="round" stroke-linejoin="round"/>
<path id="Shape_6" d="M46.5 39.002V42.002" stroke="#4169e1" stroke-width="0.9" stroke-linecap="round" stroke-linejoin="round"/>
<path id="Shape_7" d="M42.5 45.5001H44L44.5 51.5001H48.5L49 45.5001H51.5V42.0001C51.5 39.8479 50.1228 37.9372 48.0811 37.2567C46.0394 36.5761 43.7913 37.2784 42.5 39.0001" stroke="#4169e1" stroke-width="0.9" stroke-linecap="round" stroke-linejoin="round"/>
<path id="Shape_8" d="M43.4941 30.2361C44.5891 31.3646 46.0947 32.0011 47.6671 32.0001C48.4529 32.0009 49.2306 31.842 49.9531 31.5331" stroke="#4169e1" stroke-width="0.9" stroke-linecap="round" stroke-linejoin="round"/>
<path id="Oval" fill-rule="evenodd" clip-rule="evenodd" d="M46.5 35.502C48.433 35.502 50 33.9349 50 32.002C50 30.069 48.433 28.502 46.5 28.502C44.567 28.502 43 30.069 43 32.002C43 33.9349 44.567 35.502 46.5 35.502Z" stroke="#4169e1" stroke-width="0.9" stroke-linecap="round" stroke-linejoin="round"/>
</g>
</g>
<defs>
<filter id="filter0_d" x="5" y="5" width="70" height="70" filterUnits="userSpaceOnUse" color-interpolation-filters="sRGB">
<feFlood flood-opacity="0" result="BackgroundImageFix"/>
<feColorMatrix in="SourceAlpha" type="matrix" values="0 0 0 0 0 0 0 0 0 0 0 0 0 0 0 0 0 0 127 0"/>
<feOffset/>
<feGaussianBlur stdDeviation="3"/>
<feColorMatrix type="matrix" values="0 0 0 0 0 0 0 0 0 0 0 0 0 0 0 0 0 0 0.0650404 0"/>
<feBlend mode="normal" in2="BackgroundImageFix" result="effect1_dropShadow"/>
<feBlend mode="normal" in="SourceGraphic" in2="effect1_dropShadow" result="shape"/>
</filter>
</defs>
</svg>
