<svg width="80" height="80" viewBox="0 0 80 80" fill="none" xmlns="http://www.w3.org/2000/svg">
<g id="Group 11">
<path id="Oval Copy 2" opacity="0.2" d="M40 80C62.0914 80 80 62.0914 80 40C80 17.9086 62.0914 0 40 0C17.9086 0 0 17.9086 0 40C0 62.0914 17.9086 80 40 80Z" fill="#E0E0E0"/>
<g id="Oval Copy" filter="url(#filter0_d)">
<path d="M40 69C56.0163 69 69 56.0163 69 40C69 23.9837 56.0163 11 40 11C23.9837 11 11 23.9837 11 40C11 56.0163 23.9837 69 40 69Z" fill="white"/>
</g>
<g id="Group">
<rect id="Rectangle-path" x="42.0039" y="39.5" width="9" height="3" rx="0.5" stroke="#4169e1" stroke-width="0.9" stroke-linecap="round" stroke-linejoin="round"/>
<rect id="Rectangle-path_2" x="41.0039" y="42.5" width="9" height="3" rx="0.5" stroke="#4169e1" stroke-width="0.9" stroke-linecap="round" stroke-linejoin="round"/>
<rect id="Rectangle-path_3" x="42.0039" y="45.5" width="9" height="3" rx="0.5" stroke="#4169e1" stroke-width="0.9" stroke-linecap="round" stroke-linejoin="round"/>
<rect id="Rectangle-path_4" x="41.0039" y="48.5" width="9" height="3" rx="0.5" stroke="#4169e1" stroke-width="0.9" stroke-linecap="round" stroke-linejoin="round"/>
<rect id="Rectangle-path_5" x="29.0039" y="45.5" width="9" height="3" rx="0.5" stroke="#4169e1" stroke-width="0.9" stroke-linecap="round" stroke-linejoin="round"/>
<rect id="Rectangle-path_6" x="30.0039" y="48.5" width="9" height="3" rx="0.5" stroke="#4169e1" stroke-width="0.9" stroke-linecap="round" stroke-linejoin="round"/>
<path id="Shape" d="M29.5 41.5L37.871 33.133C38.2309 32.7743 38.8025 32.7424 39.2 33.059L42.779 35.922C43.1873 36.2471 43.7769 36.2036 44.133 35.822L51 28.5" stroke="#4169e1" stroke-width="0.9" stroke-linecap="round" stroke-linejoin="round"/>
<path id="Shape_2" d="M44.0039 28.5H51.0039V35" stroke="#4169e1" stroke-width="0.9" stroke-linecap="round" stroke-linejoin="round"/>
</g>
</g>
<defs>
<filter id="filter0_d" x="5" y="5" width="70" height="70" filterUnits="userSpaceOnUse" color-interpolation-filters="sRGB">
<feFlood flood-opacity="0" result="BackgroundImageFix"/>
<feColorMatrix in="SourceAlpha" type="matrix" values="0 0 0 0 0 0 0 0 0 0 0 0 0 0 0 0 0 0 127 0"/>
<feOffset/>
<feGaussianBlur stdDeviation="3"/>
<feColorMatrix type="matrix" values="0 0 0 0 0 0 0 0 0 0 0 0 0 0 0 0 0 0 0.0650404 0"/>
<feBlend mode="normal" in2="BackgroundImageFix" result="effect1_dropShadow"/>
<feBlend mode="normal" in="SourceGraphic" in2="effect1_dropShadow" result="shape"/>
</filter>
</defs>
</svg>
