<svg width="80" height="80" viewBox="0 0 80 80" fill="none" xmlns="http://www.w3.org/2000/svg">
<g id="Group 11">
<path id="Oval Copy 2" opacity="0.2" d="M40 80C62.0914 80 80 62.0914 80 40C80 17.9086 62.0914 0 40 0C17.9086 0 0 17.9086 0 40C0 62.0914 17.9086 80 40 80Z" fill="#E0E0E0"/>
<g id="Oval Copy" filter="url(#filter0_d)">
<path d="M40 69C56.0163 69 69 56.0163 69 40C69 23.9837 56.0163 11 40 11C23.9837 11 11 23.9837 11 40C11 56.0163 23.9837 69 40 69Z" fill="white"/>
</g>
<g id="optimization-graph-line">
<path id="Oval" fill-rule="evenodd" clip-rule="evenodd" d="M40.315 48.7675C44.9542 48.7675 48.715 45.0067 48.715 40.3675C48.715 35.7283 44.9542 31.9675 40.315 31.9675C35.6758 31.9675 31.915 35.7283 31.915 40.3675C31.915 45.0067 35.6758 48.7675 40.315 48.7675Z" stroke="#4169e1" stroke-width="0.8" stroke-linecap="round" stroke-linejoin="round"/>
<path id="Shape" d="M34.3149 42.7676L35.1825 41.4668C35.3662 41.1912 35.7384 41.1165 36.0141 41.3L36.8661 41.8676C37.1226 42.0369 37.4656 41.9851 37.6605 41.7476L39.8937 39.0656C40.0017 38.936 40.1593 38.8579 40.3278 38.8504C40.4963 38.8428 40.6602 38.9066 40.7793 39.026L42.2505 40.4972C42.3698 40.616 42.5335 40.6793 42.7017 40.6715C42.8699 40.6638 43.0271 40.5857 43.1349 40.4564L45.7149 37.3616" stroke="#4169e1" stroke-width="0.8" stroke-linecap="round" stroke-linejoin="round"/>
<path id="Shape_2" fill-rule="evenodd" clip-rule="evenodd" d="M53.6746 42.2661C53.9766 42.2284 54.2025 41.9705 54.2002 41.6661V39.1293C54.2025 38.825 53.9766 38.567 53.6746 38.5293L50.9734 38.1921C50.698 36.8691 50.1748 35.6102 49.4314 34.4817L51.1054 32.3277C51.2908 32.089 51.2697 31.7496 51.0562 31.5357L49.2562 29.7357C49.0422 29.5222 48.7029 29.5011 48.4642 29.6865L46.3102 31.3665C45.1815 30.6232 43.9227 30.0996 42.5998 29.8233L42.2662 27.1257C42.2284 26.8237 41.9705 26.5978 41.6662 26.6001H39.1294C38.825 26.5978 38.5671 26.8237 38.5294 27.1257L38.1922 29.8257C36.8709 30.1026 35.6138 30.6261 34.4866 31.3689L32.3326 29.6949C32.0939 29.5095 31.7545 29.5306 31.5406 29.7441L29.7406 31.5441C29.527 31.758 29.5059 32.0974 29.6914 32.3361L31.3714 34.4961C30.6279 35.6246 30.1047 36.8835 29.8294 38.2065L27.1282 38.5437C26.8261 38.5814 26.6002 38.8394 26.6026 39.1437V41.6853C26.6002 41.9897 26.8261 42.2476 27.1282 42.2853L29.8294 42.6225C30.1047 43.9455 30.6279 45.2045 31.3714 46.3329L29.695 48.4677C29.5095 48.7064 29.5306 49.0458 29.7442 49.2597L31.5442 51.0597C31.7581 51.2733 32.0975 51.2944 32.3362 51.1089L34.4962 49.4349C35.6248 50.1783 36.8837 50.7018 38.2066 50.9781L38.5438 53.6781C38.5815 53.9801 38.8394 54.2061 39.1438 54.2037H41.6854C41.9897 54.2061 42.2476 53.9801 42.2854 53.6781L42.6226 50.9781C43.9455 50.7018 45.2043 50.1783 46.333 49.4349L48.487 51.1089C48.7257 51.2944 49.065 51.2733 49.279 51.0597L51.079 49.2597C51.2925 49.0458 51.3136 48.7064 51.1282 48.4677L49.4542 46.3137C50.1976 45.1853 50.7208 43.9263 50.9962 42.6033L53.6746 42.2661Z" stroke="#4169e1" stroke-width="0.8" stroke-linecap="round" stroke-linejoin="round"/>
</g>
</g>
<defs>
<filter id="filter0_d" x="5" y="5" width="70" height="70" filterUnits="userSpaceOnUse" color-interpolation-filters="sRGB">
<feFlood flood-opacity="0" result="BackgroundImageFix"/>
<feColorMatrix in="SourceAlpha" type="matrix" values="0 0 0 0 0 0 0 0 0 0 0 0 0 0 0 0 0 0 127 0"/>
<feOffset/>
<feGaussianBlur stdDeviation="3"/>
<feColorMatrix type="matrix" values="0 0 0 0 0 0 0 0 0 0 0 0 0 0 0 0 0 0 0.0650404 0"/>
<feBlend mode="normal" in2="BackgroundImageFix" result="effect1_dropShadow"/>
<feBlend mode="normal" in="SourceGraphic" in2="effect1_dropShadow" result="shape"/>
</filter>
</defs>
</svg>
