<svg width="80" height="80" viewBox="0 0 80 80" fill="none" xmlns="http://www.w3.org/2000/svg">
<g id="Group 10">
<g id="Point 2 Copy">
<path id="Oval Copy 2" opacity="0.2" d="M40 80C62.0914 80 80 62.0914 80 40C80 17.9086 62.0914 0 40 0C17.9086 0 0 17.9086 0 40C0 62.0914 17.9086 80 40 80Z" fill="#E0E0E0"/>
<g id="Oval Copy" filter="url(#filter0_d)">
<path d="M40 69C56.0163 69 69 56.0163 69 40C69 23.9837 56.0163 11 40 11C23.9837 11 11 23.9837 11 40C11 56.0163 23.9837 69 40 69Z" fill="white"/>
</g>
</g>
<path id="Combined Shape" fill-rule="evenodd" clip-rule="evenodd" d="M46.7998 42.2857C48.2884 42.2857 49.4998 41.0893 49.4998 39.6071V33.0982L53.8673 28.7679C53.9969 28.6339 54.0356 28.4464 53.9654 28.2768C53.8961 28.1161 53.7314 28 53.5496 28H36.0001C34.5116 28 33.3002 29.2054 33.3002 30.6786V38.7143H27.4504C27.2686 38.7143 27.1039 38.8304 27.0346 38.9911C26.9644 39.1607 27.0031 39.3482 27.1318 39.4821L31.5003 43.8125V50.3214C31.5003 51.8036 32.7116 53 34.2002 53H44.0999C45.5885 53 46.7998 51.8036 46.7998 50.3214V42.2857ZM46.7998 41.3929C46.7998 39.9196 45.5885 38.7143 44.0999 38.7143H34.2002V30.6786C34.2002 29.6964 35.0075 28.8929 36.0001 28.8929H52.4634L48.7312 32.5982C48.6475 32.6786 48.5998 32.7946 48.5998 32.9107V39.6071C48.5998 40.5982 47.7925 41.3929 46.7998 41.3929ZM33.7502 39.6071L28.5367 39.6071L32.268 43.3125C32.3525 43.3929 32.4002 43.5089 32.4002 43.625V50.3214C32.4002 51.3125 33.2075 52.1071 34.2002 52.1071H44.0999C45.0926 52.1071 45.8999 51.3125 45.8999 50.3214V41.3929C45.8999 40.4107 45.0926 39.6071 44.0999 39.6071L33.7502 39.6071ZM42.75 42.2857H35.5502C35.3018 42.2857 35.1002 42.0893 35.1002 41.8393C35.1002 41.5982 35.3018 41.3929 35.5502 41.3929H42.75C42.9983 41.3929 43.1999 41.5982 43.1999 41.8393C43.1999 42.0893 42.9983 42.2857 42.75 42.2857ZM35.5502 45.8571H42.75C42.9983 45.8571 43.1999 45.6607 43.1999 45.4107C43.1999 45.1696 42.9983 44.9643 42.75 44.9643H35.5502C35.3018 44.9643 35.1002 45.1696 35.1002 45.4107C35.1002 45.6607 35.3018 45.8571 35.5502 45.8571ZM42.75 49.4286H35.5502C35.3018 49.4286 35.1002 49.2321 35.1002 48.9821C35.1002 48.7411 35.3018 48.5357 35.5502 48.5357H42.75C42.9983 48.5357 43.1999 48.7411 43.1999 48.9821C43.1999 49.2321 42.9983 49.4286 42.75 49.4286ZM45.4499 32.4643H37.3501C37.1017 32.4643 36.9001 32.2679 36.9001 32.0179C36.9001 31.7768 37.1017 31.5714 37.3501 31.5714H45.4499C45.6983 31.5714 45.8999 31.7768 45.8999 32.0179C45.8999 32.2679 45.6983 32.4643 45.4499 32.4643ZM37.3501 36.0357H45.4499C45.6983 36.0357 45.8999 35.8393 45.8999 35.5893C45.8999 35.3482 45.6983 35.1429 45.4499 35.1429H37.3501C37.1017 35.1429 36.9001 35.3482 36.9001 35.5893C36.9001 35.8393 37.1017 36.0357 37.3501 36.0357Z" fill="#4169e1"/>
</g>
<defs>
<filter id="filter0_d" x="5" y="5" width="70" height="70" filterUnits="userSpaceOnUse" color-interpolation-filters="sRGB">
<feFlood flood-opacity="0" result="BackgroundImageFix"/>
<feColorMatrix in="SourceAlpha" type="matrix" values="0 0 0 0 0 0 0 0 0 0 0 0 0 0 0 0 0 0 127 0"/>
<feOffset/>
<feGaussianBlur stdDeviation="3"/>
<feColorMatrix type="matrix" values="0 0 0 0 0 0 0 0 0 0 0 0 0 0 0 0 0 0 0.0650404 0"/>
<feBlend mode="normal" in2="BackgroundImageFix" result="effect1_dropShadow"/>
<feBlend mode="normal" in="SourceGraphic" in2="effect1_dropShadow" result="shape"/>
</filter>
</defs>
</svg>
