<svg width="80" height="80" viewBox="0 0 80 80" fill="none" xmlns="http://www.w3.org/2000/svg">
<g id="Group 11">
<path id="Oval Copy 2" opacity="0.2" d="M40 80C62.0914 80 80 62.0914 80 40C80 17.9086 62.0914 0 40 0C17.9086 0 0 17.9086 0 40C0 62.0914 17.9086 80 40 80Z" fill="#E0E0E0"/>
<g id="Oval Copy" filter="url(#filter0_d)">
<path d="M40 69C56.0163 69 69 56.0163 69 40C69 23.9837 56.0163 11 40 11C23.9837 11 11 23.9837 11 40C11 56.0163 23.9837 69 40 69Z" fill="white"/>
</g>
<g id="Group">
<path id="Shape" d="M27 32H49" stroke="#4169e1" stroke-width="0.9" stroke-linecap="round" stroke-linejoin="round"/>
<path id="Shape_2" d="M30.25 29C30.1119 29 30 29.1119 30 29.25C30 29.3881 30.1119 29.5 30.25 29.5C30.3881 29.5 30.5 29.3881 30.5 29.25C30.5 29.1119 30.3881 29 30.25 29V29" stroke="#4169e1" stroke-width="0.9" stroke-linecap="round" stroke-linejoin="round"/>
<path id="Shape_3" d="M33.25 29C33.1119 29 33 29.1119 33 29.25C33 29.3881 33.1119 29.5 33.25 29.5C33.3881 29.5 33.5 29.3881 33.5 29.25C33.5 29.1119 33.3881 29 33.25 29V29" stroke="#4169e1" stroke-width="0.9" stroke-linecap="round" stroke-linejoin="round"/>
<path id="Shape_4" d="M36.25 29C36.1119 29 36 29.1119 36 29.25C36 29.3881 36.1119 29.5 36.25 29.5C36.3881 29.5 36.5 29.3881 36.5 29.25C36.5 29.1119 36.3881 29 36.25 29V29" stroke="#4169e1" stroke-width="0.9" stroke-linecap="round" stroke-linejoin="round"/>
<path id="Shape_5" d="M35.8 44H29.2C27.985 44 27 42.9852 27 41.7333V29.2667C27 28.0148 27.985 27 29.2 27H46.8C48.015 27 49 28.0148 49 29.2667V34.9333" stroke="#4169e1" stroke-width="0.9" stroke-linecap="round" stroke-linejoin="round"/>
<path id="Oval" fill-rule="evenodd" clip-rule="evenodd" d="M46.5 53C50.0899 53 53 50.0899 53 46.5C53 42.9101 50.0899 40 46.5 40C42.9101 40 40 42.9101 40 46.5C40 50.0899 42.9101 53 46.5 53Z" stroke="#4169e1" stroke-width="0.9" stroke-linecap="round" stroke-linejoin="round"/>
<path id="Shape_6" d="M46 42V46H49" stroke="#4169e1" stroke-width="0.9" stroke-linecap="round" stroke-linejoin="round"/>
<path id="Shape_7" d="M43 37H50" stroke="#4169e1" stroke-width="0.9" stroke-linecap="round" stroke-linejoin="round"/>
<path id="Shape_8" d="M46 39V37" stroke="#4169e1" stroke-width="0.9" stroke-linecap="round" stroke-linejoin="round"/>
</g>
</g>
<defs>
<filter id="filter0_d" x="5" y="5" width="70" height="70" filterUnits="userSpaceOnUse" color-interpolation-filters="sRGB">
<feFlood flood-opacity="0" result="BackgroundImageFix"/>
<feColorMatrix in="SourceAlpha" type="matrix" values="0 0 0 0 0 0 0 0 0 0 0 0 0 0 0 0 0 0 127 0"/>
<feOffset/>
<feGaussianBlur stdDeviation="3"/>
<feColorMatrix type="matrix" values="0 0 0 0 0 0 0 0 0 0 0 0 0 0 0 0 0 0 0.0650404 0"/>
<feBlend mode="normal" in2="BackgroundImageFix" result="effect1_dropShadow"/>
<feBlend mode="normal" in="SourceGraphic" in2="effect1_dropShadow" result="shape"/>
</filter>
</defs>
</svg>
