<svg width="80" height="80" viewBox="0 0 80 80" fill="none" xmlns="http://www.w3.org/2000/svg">
<g id="Group 11">
<path id="Oval Copy 2" opacity="0.2" d="M40 80C62.0914 80 80 62.0914 80 40C80 17.9086 62.0914 0 40 0C17.9086 0 0 17.9086 0 40C0 62.0914 17.9086 80 40 80Z" fill="#E0E0E0"/>
<g id="Oval Copy" filter="url(#filter0_d)">
<path d="M40 69C56.0163 69 69 56.0163 69 40C69 23.9837 56.0163 11 40 11C23.9837 11 11 23.9837 11 40C11 56.0163 23.9837 69 40 69Z" fill="white"/>
</g>
<g id="Group">
<rect id="Rectangle-path" x="28.5039" y="31.5" width="23" height="17" rx="1" stroke="#4169e1" stroke-width="0.9" stroke-linecap="round" stroke-linejoin="round"/>
<path id="Shape" d="M32.5039 44.5V42.5" stroke="#4169e1" stroke-width="0.9" stroke-linecap="round" stroke-linejoin="round"/>
<path id="Shape_2" d="M35.5039 44.5V39.5" stroke="#4169e1" stroke-width="0.9" stroke-linecap="round" stroke-linejoin="round"/>
<path id="Shape_3" d="M38.5039 44.5V41.5" stroke="#4169e1" stroke-width="0.9" stroke-linecap="round" stroke-linejoin="round"/>
<path id="Shape_4" d="M47.5039 44.5V37.5" stroke="#4169e1" stroke-width="0.9" stroke-linecap="round" stroke-linejoin="round"/>
<path id="Shape_5" d="M44.5039 44.5V40" stroke="#4169e1" stroke-width="0.9" stroke-linecap="round" stroke-linejoin="round"/>
<path id="Shape_6" d="M41.5039 44.5V35.5" stroke="#4169e1" stroke-width="0.9" stroke-linecap="round" stroke-linejoin="round"/>
</g>
</g>
<defs>
<filter id="filter0_d" x="5" y="5" width="70" height="70" filterUnits="userSpaceOnUse" color-interpolation-filters="sRGB">
<feFlood flood-opacity="0" result="BackgroundImageFix"/>
<feColorMatrix in="SourceAlpha" type="matrix" values="0 0 0 0 0 0 0 0 0 0 0 0 0 0 0 0 0 0 127 0"/>
<feOffset/>
<feGaussianBlur stdDeviation="3"/>
<feColorMatrix type="matrix" values="0 0 0 0 0 0 0 0 0 0 0 0 0 0 0 0 0 0 0.0650404 0"/>
<feBlend mode="normal" in2="BackgroundImageFix" result="effect1_dropShadow"/>
<feBlend mode="normal" in="SourceGraphic" in2="effect1_dropShadow" result="shape"/>
</filter>
</defs>
</svg>
