<svg width="80" height="80" viewBox="0 0 80 80" fill="none" xmlns="http://www.w3.org/2000/svg">
<g id="Group 11">
<path id="Oval Copy 2" opacity="0.2" d="M40 80C62.0914 80 80 62.0914 80 40C80 17.9086 62.0914 0 40 0C17.9086 0 0 17.9086 0 40C0 62.0914 17.9086 80 40 80Z" fill="#E0E0E0"/>
<g id="Oval Copy" filter="url(#filter0_d)">
<path d="M40 69C56.0163 69 69 56.0163 69 40C69 23.9837 56.0163 11 40 11C23.9837 11 11 23.9837 11 40C11 56.0163 23.9837 69 40 69Z" fill="white"/>
</g>
<g id="Group">
<path id="Oval" fill-rule="evenodd" clip-rule="evenodd" d="M39.5 47.5C43.9183 47.5 47.5 43.9183 47.5 39.5C47.5 35.0817 43.9183 31.5 39.5 31.5C35.0817 31.5 31.5 35.0817 31.5 39.5C31.5 43.9183 35.0817 47.5 39.5 47.5Z" stroke="#4169e1" stroke-width="0.8" stroke-linecap="round" stroke-linejoin="round"/>
<path id="Shape" d="M45.1572 45.157L51.5002 51.5" stroke="#4169e1" stroke-width="0.8" stroke-linecap="round" stroke-linejoin="round"/>
<path id="Oval_2" fill-rule="evenodd" clip-rule="evenodd" d="M39.5 42.5C41.1569 42.5 42.5 41.1569 42.5 39.5C42.5 37.8431 41.1569 36.5 39.5 36.5C37.8431 36.5 36.5 37.8431 36.5 39.5C36.5 41.1569 37.8431 42.5 39.5 42.5Z" stroke="#4169e1" stroke-width="0.8" stroke-linecap="round" stroke-linejoin="round"/>
<path id="Shape_2" d="M39.5001 42.5C37.2815 42.499 35.1765 41.5186 33.7481 39.821C33.5931 39.6354 33.5931 39.3656 33.7481 39.18C35.1766 37.4825 37.2814 36.5018 39.5001 36.5" stroke="#4169e1" stroke-width="0.8" stroke-linecap="round" stroke-linejoin="round"/>
<path id="Shape_3" d="M39.5 42.5C41.7192 42.499 43.8248 41.5187 45.254 39.821C45.409 39.6354 45.409 39.3656 45.254 39.18C43.8253 37.4815 41.7195 36.5007 39.5 36.5" stroke="#4169e1" stroke-width="0.8" stroke-linecap="round" stroke-linejoin="round"/>
<path id="Shape_4" d="M48.748 45.4601C51.287 41.5177 51.0477 36.3992 48.1518 32.711C45.2559 29.0227 40.3403 27.5758 35.9081 29.107C31.4759 30.6382 28.5017 34.8109 28.5 39.5001C28.4992 41.8119 29.2313 44.0645 30.591 45.9341L29.6 49.4001L33.066 48.4101C36.7446 51.0774 41.6864 51.2022 45.495 48.7241" stroke="#4169e1" stroke-width="0.8" stroke-linecap="round" stroke-linejoin="round"/>
</g>
</g>
<defs>
<filter id="filter0_d" x="5" y="5" width="70" height="70" filterUnits="userSpaceOnUse" color-interpolation-filters="sRGB">
<feFlood flood-opacity="0" result="BackgroundImageFix"/>
<feColorMatrix in="SourceAlpha" type="matrix" values="0 0 0 0 0 0 0 0 0 0 0 0 0 0 0 0 0 0 127 0"/>
<feOffset/>
<feGaussianBlur stdDeviation="3"/>
<feColorMatrix type="matrix" values="0 0 0 0 0 0 0 0 0 0 0 0 0 0 0 0 0 0 0.0650404 0"/>
<feBlend mode="normal" in2="BackgroundImageFix" result="effect1_dropShadow"/>
<feBlend mode="normal" in="SourceGraphic" in2="effect1_dropShadow" result="shape"/>
</filter>
</defs>
</svg>
