<?xml version="1.0" encoding="UTF-8"?>
<svg width="56px" height="56px" viewBox="0 0 56 56" version="1.1" xmlns="http://www.w3.org/2000/svg" xmlns:xlink="http://www.w3.org/1999/xlink">
    <title>bar-graph</title>
    <defs>
        <circle id="path-1" cx="28" cy="28" r="20.3"></circle>
        <filter x="-22.2%" y="-22.2%" width="144.3%" height="144.3%" filterUnits="objectBoundingBox" id="filter-2">
            <feOffset dx="0" dy="0" in="SourceAlpha" result="shadowOffsetOuter1"></feOffset>
            <feGaussianBlur stdDeviation="3" in="shadowOffsetOuter1" result="shadowBlurOuter1"></feGaussianBlur>
            <feColorMatrix values="0 0 0 0 0   0 0 0 0 0   0 0 0 0 0  0 0 0 0.0650404283 0" type="matrix" in="shadowBlurOuter1"></feColorMatrix>
        </filter>
    </defs>
    <g id="Web" stroke="none" stroke-width="1" fill="none" fill-rule="evenodd">
        <g id="Main" transform="translate(-382.000000, -5062.000000)">
            <g id="Info" transform="translate(263.000000, 4991.000000)">
                <g id="bar-graph" transform="translate(119.000000, 71.000000)">
                    <g id="Point-3">
                        <g>
                            <circle id="Oval-Copy-2" fill="#E0E0E0" fill-rule="nonzero" opacity="0.05" cx="28" cy="28" r="28"></circle>
                            <g id="Oval-Copy" opacity="0.15" fill-rule="nonzero">
                                <use fill="black" fill-opacity="1" filter="url(#filter-2)" xlink:href="#path-1"></use>
                                <use fill="#FFFFFF" xlink:href="#path-1"></use>
                            </g>
                        </g>
                    </g>
                    <path d="M22.5,27.5 C23.0522847,27.5 23.5,27.9477153 23.5,28.5 L23.5,28.5 L23.5,34.5 L18.5,34.5 L18.5,28.5 C18.5,27.9477153 18.9477153,27.5 19.5,27.5 L19.5,27.5 Z M36.5,25.5 C37.0522847,25.5 37.5,25.9477153 37.5,26.5 L37.5,26.5 L37.5,34.5 L32.5,34.5 L32.5,26.5 C32.5,25.9477153 32.9477153,25.5 33.5,25.5 L33.5,25.5 Z M29.5,19.5 C30.0522847,19.5 30.5,19.9477153 30.5,20.5 L30.5,20.5 L30.5,34.5 L25.5,34.5 L25.5,20.5 C25.5,19.9477153 25.9477153,19.5 26.5,19.5 L26.5,19.5 Z M17.5,36.5 L38.5,36.5" id="Combined-Shape" stroke="#FFFFFF" stroke-linecap="round" stroke-linejoin="round"></path>
                </g>
            </g>
        </g>
    </g>
</svg>