<?xml version="1.0" encoding="UTF-8"?>
<svg width="16px" height="16px" viewBox="0 0 16 16" version="1.1" xmlns="http://www.w3.org/2000/svg" xmlns:xlink="http://www.w3.org/1999/xlink">
    <title>Open Copy</title>
    <defs>
        <rect id="path-1" x="0" y="0" width="16" height="16"></rect>
    </defs>
    <g id="Web" stroke="none" stroke-width="1" fill="none" fill-rule="evenodd">
        <g id="Main" transform="translate(-1526.000000, -20.000000)">
            <g id="Menu-2" transform="translate(1198.000000, 13.000000)">
                <g id="Enter" transform="translate(328.000000, 0.000000)">
                    <g transform="translate(0.000000, 7.000000)">
                        <mask id="mask-2" fill="white">
                            <use xlink:href="#path-1"></use>
                        </mask>
                        <g id="Background"></g>
                        <path d="M8,0 C10.1217319,0 12.1565632,0.842854723 13.6568542,2.34314575 C15.1571453,3.84343678 16,5.87826808 16,8 C16,12.418278 12.418278,16 8,16 C4.64299184,16 1.76892431,13.9322854 0.581908835,11.0009677 L2.34553101,11.0005449 C3.42096371,13.022965 5.54966998,14.4 8,14.4 C9.69738553,14.4 11.3252506,13.7257162 12.5254834,12.5254834 C13.7257162,11.3252506 14.4,9.69738553 14.4,8 C14.4,4.4653776 11.5346224,1.6 8,1.6 C5.54926342,1.6 3.42025733,2.97749197 2.34499579,5.00046186 L0.581505108,5.0000295 C1.76827252,2.06818353 4.64261119,0 8,0 Z" id="Combined-Shape" fill="#FFFFFF" fill-rule="nonzero" mask="url(#mask-2)"></path>
                        <path d="M6.87537299,4 C6.97159175,4 7.06382601,4.03550766 7.13158342,4.09863398 L10.8412217,7.51983187 C10.9427622,7.61354292 10.9998737,7.74067897 11,7.87328897 L11,8.12671103 C10.9983372,8.25903345 10.941457,8.38565466 10.8412217,8.48016813 L7.13158342,11.901366 C7.06382601,11.9644923 6.97159175,12 6.87537299,12 C6.77915423,12 6.68691997,11.9644923 6.61916256,11.901366 L6.10674171,11.4278669 C6.03885384,11.366403 6.00059739,11.2822757 6.00059739,11.1944518 C6.00059739,11.106628 6.03885384,11.0225007 6.10674171,10.9610368 L8.504,8.75 L0.25,8.75 L0.25,7.25 L8.505,7.25 L6.10674171,5.03896322 C6.03842639,4.97635243 6,4.89112397 6,4.80221366 C6,4.71330335 6.03842639,4.62807489 6.10674171,4.5654641 L6.61916256,4.09863398 C6.68691997,4.03550766 6.77915423,4 6.87537299,4 Z" id="Combined-Shape" fill="#FFFFFF" fill-rule="nonzero" mask="url(#mask-2)"></path>
                    </g>
                </g>
            </g>
        </g>
    </g>
</svg>