<svg width="16" height="16" viewBox="0 0 16 16" fill="none" xmlns="http://www.w3.org/2000/svg">
<path fill-rule="evenodd" clip-rule="evenodd" d="M8 0C3.58172 0 0 3.58172 0 8C0 12.4183 3.58172 16 8 16C12.4183 16 16 12.4183 16 8C16 5.87827 15.1571 3.84344 13.6569 2.34315C12.1566 0.842855 10.1217 0 8 0ZM8 14.4C4.46538 14.4 1.6 11.5346 1.6 8C1.6 4.46538 4.46538 1.6 8 1.6C11.5346 1.6 14.4 4.46538 14.4 8C14.4 9.69739 13.7257 11.3253 12.5255 12.5255C11.3253 13.7257 9.69739 14.4 8 14.4ZM8.35213 8.39144H11.507C11.8804 8.39144 12.1831 8.69409 12.1831 9.06747C12.1831 9.44084 11.8804 9.74353 11.507 9.74353H7.72113C7.71655 9.74353 7.71207 9.74323 7.70758 9.74292C7.7046 9.74272 7.70161 9.74252 7.69859 9.74241C7.69535 9.7425 7.69214 9.74272 7.68892 9.74294C7.68466 9.74324 7.6804 9.74353 7.67606 9.74353C7.30269 9.74353 7 9.44084 7 9.06747V4.7175C7 4.34412 7.30269 4.04144 7.67606 4.04144C8.04944 4.04144 8.35213 4.34412 8.35213 4.7175V8.39144Z" fill="#4169e1"/>
</svg>
