<svg width="17" height="17" viewBox="0 0 17 17" fill="none" xmlns="http://www.w3.org/2000/svg">
<path fill-rule="evenodd" clip-rule="evenodd" d="M8.67397 1.00418C8.68652 1.00418 8.69488 1.00418 8.69906 1C12.9187 1.00418 16.3354 4.43342 16.327 8.65306C16.327 12.8852 12.8852 16.327 8.65306 16.327C7.7832 16.3312 6.92171 16.1807 6.10204 15.8837L2.00786 16.603C1.9284 16.6156 1.84476 16.6072 1.76949 16.5738C1.56039 16.4859 1.46002 16.2392 1.55202 16.0259L2.66862 13.4331C1.58966 12.0823 1 10.4053 1 8.67815C1 4.44597 4.44179 1.00418 8.67397 1.00418ZM6.29441 15.0641C7.05135 15.3484 7.85012 15.4948 8.65724 15.4948C12.4252 15.4948 15.4948 12.4294 15.4948 8.65306V8.62797C15.4906 4.86835 12.4378 1.82804 8.67815 1.8364C4.91017 1.8364 1.84058 4.90181 1.84058 8.67397C1.84058 9.52292 1.9995 10.3635 2.30897 11.1539C2.58498 11.8607 2.97809 12.513 3.47156 13.086C3.57611 13.2073 3.6012 13.3787 3.53847 13.5251L2.6268 15.6454L6.07277 15.0432C6.14804 15.0306 6.22332 15.0348 6.29441 15.0641Z" fill="#4169e1"/>
<path d="M8.69906 1L8.69937 0.694L8.57244 0.693874L8.48268 0.783629L8.69906 1ZM16.327 8.65306L16.021 8.65245V8.65306H16.327ZM8.65306 16.327V16.021L8.65159 16.021L8.65306 16.327ZM6.10204 15.8837L6.20626 15.596L6.1295 15.5682L6.04909 15.5824L6.10204 15.8837ZM2.00786 16.603L2.05559 16.9053L2.06081 16.9044L2.00786 16.603ZM1.76949 16.5738L1.89379 16.2941L1.88798 16.2916L1.76949 16.5738ZM1.55202 16.0259L1.833 16.1471L1.83307 16.147L1.55202 16.0259ZM2.66862 13.4331L2.94966 13.5541L3.02227 13.3855L2.90771 13.2421L2.66862 13.4331ZM6.29441 15.0641L6.17785 15.3472L6.18679 15.3505L6.29441 15.0641ZM15.4948 8.62797H15.8008V8.62763L15.4948 8.62797ZM8.67815 1.8364V2.1424L8.67883 2.1424L8.67815 1.8364ZM2.30897 11.1539L2.594 11.0426L2.5939 11.0423L2.30897 11.1539ZM3.47156 13.086L3.23971 13.2857L3.23979 13.2858L3.47156 13.086ZM3.53847 13.5251L3.81959 13.646L3.81973 13.6456L3.53847 13.5251ZM2.6268 15.6454L2.34568 15.5245L2.12223 16.0442L2.67948 15.9468L2.6268 15.6454ZM6.07277 15.0432L6.02246 14.7413L6.02009 14.7417L6.07277 15.0432ZM8.48268 0.783629C8.55388 0.712433 8.63519 0.702086 8.6517 0.700022C8.67068 0.697649 8.68729 0.698182 8.67397 0.698182V1.31018C8.67612 1.31018 8.68306 1.3102 8.69024 1.31002C8.69737 1.30984 8.7111 1.30936 8.72761 1.3073C8.75248 1.30419 8.84007 1.29175 8.91544 1.21637L8.48268 0.783629ZM16.633 8.65367C16.6417 4.26504 13.0882 0.69835 8.69937 0.694L8.69876 1.306C12.7492 1.31001 16.0291 4.60181 16.021 8.65245L16.633 8.65367ZM8.65306 16.633C13.0542 16.633 16.633 13.0542 16.633 8.65306H16.021C16.021 12.7162 12.7162 16.021 8.65306 16.021V16.633ZM5.99782 16.1714C6.85101 16.4805 7.74826 16.6374 8.65453 16.633L8.65159 16.021C7.81815 16.025 6.99242 15.8808 6.20626 15.596L5.99782 16.1714ZM2.06081 16.9044L6.15499 16.1851L6.04909 15.5824L1.95491 16.3017L2.06081 16.9044ZM1.64521 16.8534C1.77992 16.9133 1.92404 16.9261 2.05559 16.9053L1.96014 16.3008C1.93277 16.3051 1.90961 16.3012 1.89377 16.2941L1.64521 16.8534ZM1.27105 15.9047C1.11222 16.2729 1.28371 16.7016 1.65099 16.8559L1.88798 16.2916C1.83707 16.2703 1.80782 16.2055 1.833 16.1471L1.27105 15.9047ZM2.38757 13.3121L1.27098 15.9049L1.83307 16.147L2.94966 13.5541L2.38757 13.3121ZM0.694 8.67815C0.694 10.475 1.30744 12.2193 2.42953 13.6241L2.90771 13.2421C1.87189 11.9453 1.306 10.3356 1.306 8.67815H0.694ZM8.67397 0.698182C4.27279 0.698182 0.694 4.27697 0.694 8.67815H1.306C1.306 4.61497 4.61079 1.31018 8.67397 1.31018V0.698182ZM8.65724 15.1888C7.88723 15.1888 7.1249 15.0492 6.40203 14.7776L6.18679 15.3505C6.97781 15.6477 7.813 15.8008 8.65724 15.8008V15.1888ZM15.1888 8.65306C15.1888 12.2604 12.2562 15.1888 8.65724 15.1888V15.8008C12.5942 15.8008 15.8008 12.5984 15.8008 8.65306H15.1888ZM15.1888 8.62797V8.65306H15.8008V8.62797H15.1888ZM8.67883 2.1424C12.2695 2.13441 15.1848 5.03796 15.1888 8.62831L15.8008 8.62763C15.7964 4.69874 12.6061 1.52166 8.67747 1.5304L8.67883 2.1424ZM2.14658 8.67397C2.14658 5.07093 5.07905 2.1424 8.67815 2.1424V1.5304C4.74129 1.5304 1.53458 4.73269 1.53458 8.67397H2.14658ZM2.5939 11.0423C2.29834 10.2874 2.14658 9.48469 2.14658 8.67397H1.53458C1.53458 9.56114 1.70066 10.4396 2.02403 11.2655L2.5939 11.0423ZM3.70342 12.8863C3.23249 12.3395 2.85739 11.717 2.594 11.0426L2.02393 11.2652C2.31257 12.0043 2.72368 12.6866 3.23971 13.2857L3.70342 12.8863ZM3.81973 13.6456C3.92781 13.3934 3.88539 13.0974 3.70333 12.8862L3.23979 13.2858C3.26684 13.3171 3.2746 13.364 3.25722 13.4046L3.81973 13.6456ZM2.90791 15.7662L3.81959 13.646L3.25736 13.4042L2.34568 15.5245L2.90791 15.7662ZM6.02009 14.7417L2.57412 15.3439L2.67948 15.9468L6.12544 15.3446L6.02009 14.7417ZM6.41092 14.7811C6.27648 14.7258 6.14153 14.7215 6.02246 14.7413L6.12307 15.345C6.15455 15.3397 6.17016 15.3438 6.1779 15.347L6.41092 14.7811Z" fill="#4169e1"/>
<path d="M8.67648 7H6.4182C6.18819 7 6 7.18819 6 7.4182C6 7.64821 6.18819 7.8364 6.4182 7.8364H8.67648C8.90649 7.8364 9.09468 7.64821 9.09468 7.4182C9.09468 7.18819 8.90649 7 8.67648 7Z" fill="#4169e1" stroke="#4169e1" stroke-width="0.612"/>
<path d="M11.6039 10.0908H6.4182C6.18819 10.0908 6 10.279 6 10.509C6 10.739 6.18819 10.9272 6.4182 10.9272H11.6039C11.8339 10.9272 12.0221 10.739 12.0221 10.509C12.0221 10.279 11.8339 10.0908 11.6039 10.0908Z" fill="#4169e1" stroke="#4169e1" stroke-width="0.612"/>
</svg>
