<svg width="16" height="16" viewBox="0 0 16 16" fill="none" xmlns="http://www.w3.org/2000/svg">
<mask id="mask0" mask-type="alpha" maskUnits="userSpaceOnUse" x="0" y="0" width="16" height="16">
<rect width="16" height="16" fill="white"/>
</mask>
<g mask="url(#mask0)">
<path fill-rule="evenodd" clip-rule="evenodd" d="M0.581555 5H2.34528C3.42062 2.97728 5.54949 1.6 8.00004 1.6C11.5347 1.6 14.4 4.46538 14.4 8C14.4 9.69739 13.7258 11.3253 12.5255 12.5255C11.3253 13.7257 9.69742 14.4 8.00004 14.4C5.54949 14.4 3.42062 13.0227 2.34528 11H0.581555C1.76833 13.9318 4.64266 16 8.00004 16C12.4183 16 16 12.4183 16 8C16 5.87827 15.1572 3.84344 13.6569 2.34315C12.1566 0.842855 10.1218 0 8.00004 0C4.64266 0 1.76833 2.06817 0.581555 5Z" fill="#4169e1"/>
<path fill-rule="evenodd" clip-rule="evenodd" d="M11 7.87329C10.9999 7.74068 10.9428 7.61354 10.8412 7.51983L7.13158 4.09863C7.06383 4.03551 6.97159 4 6.87537 4C6.77915 4 6.68692 4.03551 6.61916 4.09863L6.10674 4.56546C6.03843 4.62807 6 4.7133 6 4.80221C6 4.89112 6.03843 4.97635 6.10674 5.03896L8.50492 7.25H0.25V8.75H8.50492L6.10674 10.961C6.03885 11.0225 6.0006 11.1066 6.0006 11.1945C6.0006 11.2823 6.03885 11.3664 6.10674 11.4279L6.61916 11.9014C6.68692 11.9645 6.77915 12 6.87537 12C6.97159 12 7.06383 11.9645 7.13158 11.9014L10.8412 8.48017C10.9415 8.38565 10.9983 8.25903 11 8.12671V7.87329Z" fill="#4169e1"/>
</g>
</svg>
