<?xml version="1.0" encoding="UTF-8"?>
<svg width="56px" height="56px" viewBox="0 0 56 56" version="1.1" xmlns="http://www.w3.org/2000/svg" xmlns:xlink="http://www.w3.org/1999/xlink">
    <title>money-portfolio</title>
    <defs>
        <circle id="path-1" cx="28" cy="28" r="20.3"></circle>
        <filter x="-22.2%" y="-22.2%" width="144.3%" height="144.3%" filterUnits="objectBoundingBox" id="filter-2">
            <feOffset dx="0" dy="0" in="SourceAlpha" result="shadowOffsetOuter1"></feOffset>
            <feGaussianBlur stdDeviation="3" in="shadowOffsetOuter1" result="shadowBlurOuter1"></feGaussianBlur>
            <feColorMatrix values="0 0 0 0 0   0 0 0 0 0   0 0 0 0 0  0 0 0 0.0650404283 0" type="matrix" in="shadowBlurOuter1"></feColorMatrix>
        </filter>
    </defs>
    <g id="Web" stroke="none" stroke-width="1" fill="none" fill-rule="evenodd">
        <g id="Main" transform="translate(-276.000000, -5062.000000)">
            <g id="Info" transform="translate(263.000000, 4991.000000)">
                <g id="money-portfolio" transform="translate(13.000000, 71.000000)">
                    <path d="M28.8,28.459 C28.2427494,28.3579621 27.6782461,28.3021138 27.112,28.292 C25.427,28.292 24.83,28.876 24.83,29.376 C24.83,30.144 25.993,30.331 27.02,30.496 C28.562,30.745 29.249,30.971 29.249,31.651 C29.249,32.19 28.635,32.579 27.606,32.694 C26.6456862,32.7715892 25.6791847,32.6829566 24.749,32.432 M27.011,28.25 L27.011,27.5 M24.5,21.5 C24.5,20.9477153 24.9477153,20.5 25.5,20.5 L28.5,20.5 C29.0522847,20.5 29.5,20.9477153 29.5,21.5 L29.5,23.5 L32.5,23.5 C34.1568542,23.5 35.5,24.8431458 35.5,26.5 L35.5,34.5 C35.5,36.1568542 34.1568542,37.5 32.5,37.5 L21.5,37.5 C19.8431458,37.5 18.5,36.1568542 18.5,34.5 L18.5,26.5 C18.5,24.8431458 19.8431458,23.5 21.5,23.5 L24.5,23.5 L24.5,21.5 Z" id="Combined-Shape" stroke="#FFFFFF" stroke-linecap="round"></path>
                    <g id="Point-3">
                        <g>
                            <circle id="Oval-Copy-2" fill="#E0E0E0" fill-rule="nonzero" opacity="0.05" cx="28" cy="28" r="28"></circle>
                            <g id="Oval-Copy" opacity="0.15" fill-rule="nonzero">
                                <use fill="black" fill-opacity="1" filter="url(#filter-2)" xlink:href="#path-1"></use>
                                <use fill="#FFFFFF" xlink:href="#path-1"></use>
                            </g>
                        </g>
                    </g>
                </g>
            </g>
        </g>
    </g>
</svg>