<svg width="121" height="108" viewBox="0 0 121 108" fill="none" xmlns="http://www.w3.org/2000/svg">
<path fill-rule="evenodd" clip-rule="evenodd" d="M89.0506 30.5866C85.5379 21.6662 77.5066 15.3079 67.9963 13.9187L50.5743 11.3724C41.1375 9.99321 31.669 13.7151 25.7025 21.1479L14.6866 34.8703C8.67341 42.3612 7.13112 52.4817 10.6444 61.4025L16.9495 77.413C20.4621 86.3335 28.4935 92.6918 38.0039 94.0814L55.4258 96.6273C64.8626 98.0065 74.3312 94.285 80.2978 86.8523L91.3135 73.1294C97.3267 65.6385 98.8685 55.5181 95.3558 46.5976L89.0506 30.5866Z" fill="#E0E0E0" fill-opacity="0.278655"/>
<path d="M85 70.0292V80.1962C85 84.263 81.8138 87.4584 77.7586 87.4584H50.2414C46.1862 87.4584 43 84.263 43 80.1962V25.0039C43 20.937 46.1862 17.7417 50.2414 17.7417H77.7586C81.8138 17.7417 85 20.937 85 25.0039V35.1709" stroke="#263238" stroke-width="1.6" stroke-linecap="round" stroke-linejoin="round"/>
<path d="M85 78.5586H43" stroke="#263238" stroke-width="1.6" stroke-linecap="round" stroke-linejoin="round"/>
<path d="M43 26.6416H85" stroke="#263238" stroke-width="1.6" stroke-linecap="round" stroke-linejoin="round"/>
<path d="M60.25 22.1919H68.5" stroke="#263238" stroke-width="1.6" stroke-linecap="round" stroke-linejoin="round"/>
<path fill-rule="evenodd" clip-rule="evenodd" d="M67.125 84.4916H61.625C60.8 84.4916 60.25 83.8982 60.25 83.0082V83.0082C60.25 82.1182 60.8 81.5249 61.625 81.5249H67.125C67.95 81.5249 68.5 82.1182 68.5 83.0082V83.0082C68.5 83.8982 67.95 84.4916 67.125 84.4916Z" stroke="#263238" stroke-width="1.6" stroke-linecap="round" stroke-linejoin="round"/>
<path fill-rule="evenodd" clip-rule="evenodd" d="M104.47 87.1617C103.885 87.1617 103.3 87.0171 102.861 86.5832L95.5487 79.4966C94.6712 78.6288 94.6712 77.3272 95.5487 76.4594C96.4262 75.5917 97.7425 75.5917 98.62 76.4594L104.324 82.0998L116.17 70.3852C117.048 69.5174 118.364 69.5174 119.241 70.3852C120.119 71.2529 120.119 72.5546 119.241 73.4223L105.786 86.7278C105.64 87.0171 105.055 87.1617 104.47 87.1617Z" stroke="#4169e1" stroke-width="1.56" stroke-linecap="round" stroke-linejoin="round"/>
<path fill-rule="evenodd" clip-rule="evenodd" d="M99.375 66.6916H63.125C61.095 66.6916 59.5 65.1007 59.5 63.076V41.3822C59.5 39.3575 61.095 37.7666 63.125 37.7666H99.375C101.405 37.7666 103 39.3575 103 41.3822V63.076C103 65.1007 101.405 66.6916 99.375 66.6916Z" stroke="#263238" stroke-width="1.6" stroke-linecap="round" stroke-linejoin="round"/>
<path fill-rule="evenodd" clip-rule="evenodd" d="M101.917 40.2059C103.364 40.4151 104.05 40.7333 105.25 40.7333C111.917 40.7333 117.25 35.4593 117.25 28.8667C117.25 22.2741 111.917 17 105.25 17C98.5833 17 93.25 22.2741 93.25 28.8667C93.25 31.3719 94.05 33.6133 95.25 35.4593C96.45 37.3052 100.469 39.9968 101.917 40.2059Z" fill="#4169e1"/>
<rect x="59.4248" y="43.7739" width="43.5" height="5.785" stroke="#263238" stroke-width="1.6" stroke-linecap="round" stroke-linejoin="round"/>
<path fill-rule="evenodd" clip-rule="evenodd" d="M95.9875 61.8524C97.6029 61.8524 98.9125 60.5574 98.9125 58.9599C98.9125 57.3624 97.6029 56.0674 95.9875 56.0674C94.3721 56.0674 93.0625 57.3624 93.0625 58.9599C93.0625 60.5574 94.3721 61.8524 95.9875 61.8524Z" stroke="#263238" stroke-width="1.56" stroke-linecap="round" stroke-linejoin="round"/>
<path fill-rule="evenodd" clip-rule="evenodd" d="M93.0622 58.9599C93.0622 58.0921 93.501 57.2244 94.2322 56.7905C93.7935 56.3566 93.0622 56.0674 92.4772 56.0674C90.8685 56.0674 89.5522 57.369 89.5522 58.9599C89.5522 60.5508 90.8685 61.8524 92.4772 61.8524C93.2085 61.8524 93.7935 61.5631 94.2322 61.1293C93.501 60.6954 93.0622 59.8276 93.0622 58.9599Z" stroke="#263238" stroke-width="1.6" stroke-linecap="round" stroke-linejoin="round"/>
<path d="M64.0375 56.3086H36.25" stroke="#263238" stroke-width="1.6" stroke-linecap="round" stroke-linejoin="round"/>
<path d="M29.4625 59.2563H28" stroke="#263238" stroke-width="1.56" stroke-linecap="round" stroke-linejoin="round"/>
<path d="M55.0564 59.2563H32.3877" stroke="#263238" stroke-width="1.6" stroke-linecap="round" stroke-linejoin="round"/>
<path d="M105.137 21.4502C104.699 21.4502 104.406 21.7394 104.406 22.1733V23.9088H103.967C102.212 23.9088 100.75 25.3551 100.75 27.0906C100.75 28.8261 102.212 30.2723 103.967 30.2723H106.454C107.331 30.2723 108.209 30.9954 108.209 32.0078C108.209 32.8756 107.477 33.7433 106.454 33.7433H102.797C102.359 33.7433 102.066 34.0326 102.066 34.4664C102.066 34.9003 102.359 35.1896 102.797 35.1896H104.406V36.6358C104.406 37.0697 104.699 37.3589 105.137 37.3589C105.576 37.3589 105.869 37.0697 105.869 36.6358V34.9003H106.307C108.062 34.9003 109.525 33.4541 109.525 31.7186C109.525 29.9831 108.062 28.5368 106.307 28.5368H103.821C102.944 28.5368 102.066 27.8137 102.066 26.8013C102.066 25.9336 102.798 25.0658 103.821 25.0658H107.477C107.916 25.0658 108.209 24.7766 108.209 24.3427C108.209 23.9088 107.916 23.6196 107.477 23.6196H105.869V22.1733C105.869 21.7394 105.576 21.4502 105.137 21.4502Z" fill="white"/>
</svg>
