<?xml version="1.0" encoding="UTF-8"?>
<svg width="16px" height="16px" viewBox="0 0 16 16" version="1.1" xmlns="http://www.w3.org/2000/svg" xmlns:xlink="http://www.w3.org/1999/xlink">
    <title>Open</title>
    <defs>
        <rect id="path-1" x="0" y="0" width="16" height="16"></rect>
    </defs>
    <g id="Web" stroke="none" stroke-width="1" fill="none" fill-rule="evenodd">
        <g id="Main" transform="translate(-1378.000000, -20.000000)">
            <g id="Menu-2" transform="translate(1198.000000, 13.000000)">
                <g id="Help" transform="translate(180.000000, 0.000000)">
                    <g id="Support" transform="translate(0.000000, 7.000000)">
                        <mask id="mask-2" fill="white">
                            <use xlink:href="#path-1"></use>
                        </mask>
                        <g id="Background"></g>
                        <path d="M16,10.828125 C16,8.84265137 14.8609619,7.07067872 13.1550293,6.20874025 C13.1020508,10.015625 10.015625,13.1020508 6.20874025,13.1550293 C7.07067872,14.8609619 8.84265137,16 10.828125,16 C11.7590332,16 12.6643066,15.7520752 13.4597168,15.2810059 L15.977417,15.977417 L15.2810059,13.4597168 C15.7520752,12.6643066 16,11.7590332 16,10.828125 L16,10.828125 Z" id="Path" fill="#FFFFFF" fill-rule="nonzero" mask="url(#mask-2)"></path>
                        <path d="M12.21875,6.109375 C12.21875,2.74060059 9.47814941,0 6.109375,0 C2.74060059,0 0,2.74060059 0,6.109375 C0,7.20727538 0.292236312,8.27624512 0.847167969,9.21472169 L0.0224609375,12.196167 L3.00402831,11.371582 C3.94250488,11.9265137 5.01147462,12.21875 6.109375,12.21875 C9.47814941,12.21875 12.21875,9.47814941 12.21875,6.109375 Z M5.171875,4.6875 L4.234375,4.6875 C4.234375,3.65356444 5.07543944,2.8125 6.109375,2.8125 C7.14331056,2.8125 7.984375,3.65356444 7.984375,4.6875 C7.984375,5.21228028 7.76220703,5.71667481 7.37463378,6.071167 L6.578125,6.80017091 L6.578125,7.53125 L5.640625,7.53125 L5.640625,6.38732909 L6.74169922,5.37951659 C6.93847656,5.19946288 7.046875,4.95373534 7.046875,4.6875 C7.046875,4.17053222 6.62634278,3.75 6.109375,3.75 C5.59240722,3.75 5.171875,4.17053222 5.171875,4.6875 Z M5.640625,8.46875 L6.578125,8.46875 L6.578125,9.40625 L5.640625,9.40625 L5.640625,8.46875 Z" id="Shape" fill="#FFFFFF" fill-rule="nonzero" mask="url(#mask-2)"></path>
                    </g>
                </g>
            </g>
        </g>
    </g>
</svg>