<svg width="108" height="108" viewBox="0 0 108 108" fill="none" xmlns="http://www.w3.org/2000/svg">
<path fill-rule="evenodd" clip-rule="evenodd" d="M89.0506 30.5866C85.5379 21.6662 77.5066 15.3079 67.9963 13.9187L50.5743 11.3724C41.1375 9.99321 31.669 13.7151 25.7025 21.1479L14.6866 34.8703C8.67341 42.3612 7.13112 52.4817 10.6444 61.4025L16.9495 77.413C20.4621 86.3335 28.4935 92.6918 38.0039 94.0814L55.4258 96.6273C64.8626 98.0065 74.3312 94.285 80.2978 86.8523L91.3135 73.1294C97.3267 65.6385 98.8685 55.5181 95.3558 46.5976L89.0506 30.5866Z" fill="#E0E0E0" fill-opacity="0.278655"/>
<path d="M61.5827 76.0983H16.427C14.361 76.0983 12.7378 74.4967 12.7378 72.4583V18.5863C12.7378 16.5479 14.361 14.9463 16.427 14.9463H91.6864C93.7524 14.9463 95.3756 16.5479 95.3756 18.5863V72.4583C95.3756 74.4967 93.7524 76.0983 91.6864 76.0983H87.7021" stroke="#2E2E3D" stroke-width="1.6" stroke-linecap="round" stroke-linejoin="round"/>
<path fill-rule="evenodd" clip-rule="evenodd" d="M91.6864 14.9463H16.427C14.361 14.9463 12.7378 16.5479 12.7378 18.5863V26.5943H95.3756V18.5863C95.3756 16.5479 93.7524 14.9463 91.6864 14.9463Z" stroke="#2E2E3D" stroke-width="1.6" stroke-linecap="round" stroke-linejoin="round"/>
<path fill-rule="evenodd" clip-rule="evenodd" d="M19.3786 22.9544C20.601 22.9544 21.5921 21.9766 21.5921 20.7704C21.5921 19.5642 20.601 18.5864 19.3786 18.5864C18.1561 18.5864 17.165 19.5642 17.165 20.7704C17.165 21.9766 18.1561 22.9544 19.3786 22.9544Z" stroke="#2E2E3D" stroke-width="1.6" stroke-linecap="round" stroke-linejoin="round"/>
<path fill-rule="evenodd" clip-rule="evenodd" d="M26.757 22.9544C27.9795 22.9544 28.9705 21.9766 28.9705 20.7704C28.9705 19.5642 27.9795 18.5864 26.757 18.5864C25.5345 18.5864 24.5435 19.5642 24.5435 20.7704C24.5435 21.9766 25.5345 22.9544 26.757 22.9544Z" stroke="#2E2E3D" stroke-width="1.6" stroke-linecap="round" stroke-linejoin="round"/>
<path fill-rule="evenodd" clip-rule="evenodd" d="M34.1349 22.9544C35.3574 22.9544 36.3484 21.9766 36.3484 20.7704C36.3484 19.5642 35.3574 18.5864 34.1349 18.5864C32.9124 18.5864 31.9214 19.5642 31.9214 20.7704C31.9214 21.9766 32.9124 22.9544 34.1349 22.9544Z" stroke="#2E2E3D" stroke-width="1.6" stroke-linecap="round" stroke-linejoin="round"/>
<path d="M83.5703 30.9624H90.9487V38.2424" stroke="#2E2E3D" stroke-width="1.6" stroke-linecap="round" stroke-linejoin="round"/>
<path fill-rule="evenodd" clip-rule="evenodd" d="M64.5 67.9087V83.6312C64.5 84.9293 66.1406 85.5063 67.0355 84.6409L69.571 82.1887C70.1676 81.6118 71.0625 81.6118 71.6591 82.1887L81.2045 91.4202C81.8011 91.9972 82.696 91.9972 83.2926 91.4202L90.3026 84.6409C90.8991 84.0639 90.8991 83.1984 90.3026 82.6215L80.7571 73.3899C80.1605 72.813 80.1605 71.9475 80.7571 71.3706L83.2926 68.9184C84.1875 68.053 83.5909 66.4663 82.2486 66.4663H65.9915C65.2457 66.4663 64.5 67.1875 64.5 67.9087Z" fill="#4169e1"/>
<path d="M57.7875 82.1465H30" stroke="#2E2E3D" stroke-width="1.6" stroke-linecap="round" stroke-linejoin="round"/>
<path d="M49.6688 85.8799H27" stroke="#2E2E3D" stroke-width="1.6" stroke-linecap="round" stroke-linejoin="round"/>
<path d="M23.2125 85.8799H21.75" stroke="#2E2E3D" stroke-width="1.6" stroke-linecap="round" stroke-linejoin="round"/>
<path d="M90.7314 7.40525H96.5814" stroke="#2E2E3D" stroke-width="1.6" stroke-linecap="round" stroke-linejoin="round"/>
<path d="M93.6561 4.49316V10.3172" stroke="#2E2E3D" stroke-width="1.6" stroke-linecap="round" stroke-linejoin="round"/>
<path d="M100.5 16.3652H106.35" stroke="#2E2E3D" stroke-width="1.6" stroke-linecap="round" stroke-linejoin="round"/>
<path d="M103.425 13.4531V19.2771" stroke="#2E2E3D" stroke-width="1.6" stroke-linecap="round" stroke-linejoin="round"/>
<path fill-rule="evenodd" clip-rule="evenodd" d="M40.4052 50.7861H68.3448C73.2226 50.7861 73.2142 58.9995 68.3447 58.9995H40.4052C35.5274 58.9995 35.5358 50.7861 40.4052 50.7861ZM40.6042 57.5061H68.1459C71.2954 57.5061 71.274 52.2795 68.1458 52.2795H40.6042C37.4545 52.2795 37.4761 57.5061 40.6042 57.5061Z" fill="#2E2E3D"/>
<path d="M42.5095 54.0762C41.6668 54.0762 41.6654 55.3866 42.5095 55.3866C43.3522 55.3866 43.3536 54.0762 42.5095 54.0762Z" fill="#2E2E3D"/>
<path d="M45.8733 54.0762C45.0306 54.0762 45.0292 55.3866 45.8733 55.3866C46.7161 55.3866 46.7175 54.0762 45.8733 54.0762Z" fill="#2E2E3D"/>
<path d="M49.2376 54.0762C48.3948 54.0762 48.3934 55.3866 49.2376 55.3866C50.0803 55.3866 50.0817 54.0762 49.2376 54.0762Z" fill="#2E2E3D"/>
<path d="M52.6013 54.0762C51.7586 54.0762 51.7572 55.3866 52.6013 55.3866C53.4441 55.3866 53.4455 54.0762 52.6013 54.0762Z" fill="#2E2E3D"/>
<path d="M55.9656 54.0762C55.1228 54.0762 55.1214 55.3866 55.9656 55.3866C56.8083 55.3866 56.8097 54.0762 55.9656 54.0762Z" fill="#2E2E3D"/>
<path d="M59.3299 54.0762C58.4871 54.0762 58.4857 55.3866 59.3299 55.3866C60.1725 55.3866 60.1739 54.0762 59.3299 54.0762Z" fill="#2E2E3D"/>
<path d="M62.6936 54.0762C61.8509 54.0762 61.8495 55.3866 62.6936 55.3866C63.5364 55.3866 63.5378 54.0762 62.6936 54.0762Z" fill="#2E2E3D"/>
<path d="M66.0579 54.0762C65.2151 54.0762 65.2137 55.3866 66.0579 55.3866C66.9006 55.3866 66.902 54.0762 66.0579 54.0762Z" fill="#2E2E3D"/>
<path d="M68.1809 41.1431H40.3862C35.5421 41.1431 35.5338 48.6097 40.3862 48.6097H62.4296C63.2763 48.6097 63.2763 47.3104 62.4296 47.3104H40.3862C37.2294 47.3104 37.2077 42.4424 40.3862 42.4424H68.1808C71.3376 42.4424 71.3594 47.3104 68.1808 47.3104H65.9222C65.0755 47.3104 65.0755 48.6097 65.9222 48.6097H68.1808C73.025 48.6097 73.0333 41.1431 68.1809 41.1431V41.1431Z" fill="#2E2E3D"/>
<path d="M66.7128 44.8447C66.7128 44.4828 66.4196 44.1895 66.058 44.1895H42.5095C41.6628 44.1895 41.6628 45.4999 42.5095 45.4999H66.058C66.4196 45.4999 66.7128 45.2065 66.7128 44.8447Z" fill="#2E2E3D"/>
</svg>
