<?xml version="1.0" encoding="UTF-8"?>
<svg width="16px" height="16px" viewBox="0 0 16 16" version="1.1" xmlns="http://www.w3.org/2000/svg" xmlns:xlink="http://www.w3.org/1999/xlink">
    <title>Open</title>
    <g id="Web" stroke="none" stroke-width="1" fill="none" fill-rule="evenodd">
        <g id="Main" transform="translate(-1198.000000, -20.000000)" fill="#FFFFFF" fill-rule="nonzero">
            <g id="Menu-2" transform="translate(1198.000000, 13.000000)">
                <g id="Markets">
                    <g id="Time" transform="translate(0.000000, 7.000000)">
                        <path d="M8,0 C3.581722,0 0,3.581722 0,8 C0,12.418278 3.581722,16 8,16 C12.418278,16 16,12.418278 16,8 C16,5.87826808 15.1571453,3.84343678 13.6568542,2.34314575 C12.1565632,0.842854723 10.1217319,0 8,0 Z M8,14.4 C4.4653776,14.4 1.6,11.5346224 1.6,8 C1.6,4.4653776 4.4653776,1.6 8,1.6 C11.5346224,1.6 14.4,4.4653776 14.4,8 C14.4,9.69738553 13.7257162,11.3252506 12.5254834,12.5254834 C11.3252506,13.7257162 9.69738553,14.4 8,14.4 Z M11.5070312,8.3914375 L8.352125,8.3914375 L8.352125,4.71749802 C8.352125,4.34412302 8.0494375,4.04143552 7.6760625,4.04143552 C7.3026875,4.04143552 7,4.34412302 7,4.71749802 L7,9.06746875 C7,9.44084375 7.3026875,9.74353125 7.6760625,9.74353125 C7.6836875,9.74353125 7.6910625,9.742625 7.69859375,9.74240625 C7.706125,9.7426875 7.7135,9.74353125 7.721125,9.74353125 L11.5070312,9.74353125 C11.8804062,9.74353125 12.1830938,9.44084375 12.1830938,9.06746875 C12.1830938,8.69409375 11.8804062,8.3914375 11.5070312,8.3914375 Z" id="Open"></path>
                    </g>
                </g>
            </g>
        </g>
    </g>
</svg>