<svg width="129" height="108" viewBox="0 0 129 108" fill="none" xmlns="http://www.w3.org/2000/svg">
<path fill-rule="evenodd" clip-rule="evenodd" d="M89.0506 30.5866C85.5379 21.6662 77.5066 15.3079 67.9963 13.9187L50.5743 11.3724C41.1375 9.99321 31.669 13.7151 25.7025 21.1479L14.6866 34.8703C8.67341 42.3612 7.13112 52.4817 10.6444 61.4025L16.9495 77.413C20.4621 86.3335 28.4935 92.6918 38.0039 94.0814L55.4258 96.6273C64.8626 98.0065 74.3312 94.285 80.2978 86.8523L91.3135 73.1294C97.3267 65.6385 98.8685 55.5181 95.3558 46.5976L89.0506 30.5866Z" fill="#E0E0E0" fill-opacity="0.278655"/>
<path fill-rule="evenodd" clip-rule="evenodd" d="M121.738 34.4201C121.738 34.4201 113.876 43.8358 104.266 43.8358C94.6568 43.8358 86.7944 34.4201 86.7944 34.4201C86.7944 34.4201 94.6568 25.0044 104.266 25.0044C113.876 25.0044 121.738 34.4201 121.738 34.4201Z" fill="#4169e1"/>
<path fill-rule="evenodd" clip-rule="evenodd" d="M104.266 40.9385C107.885 40.9385 110.818 38.02 110.818 34.4199C110.818 30.8198 107.885 27.9014 104.266 27.9014C100.648 27.9014 97.7144 30.8198 97.7144 34.4199C97.7144 38.02 100.648 40.9385 104.266 40.9385Z" stroke="white" stroke-width="1.6" stroke-linecap="round" stroke-linejoin="round"/>
<path d="M104.267 30.7988C106.305 30.7988 107.907 32.3923 107.907 34.4203" stroke="white" stroke-width="1.6" stroke-linecap="round" stroke-linejoin="round"/>
<path d="M104.267 21.9506V19.0452C104.267 14.9777 101.063 11.7817 96.9866 11.7817H46.0266C41.9498 11.7817 38.7466 14.9777 38.7466 19.0452V69.8897C38.7466 73.9572 41.9498 77.1532 46.0266 77.1532H96.9866C101.063 77.1532 104.267 73.9572 104.267 69.8897V46.6465" stroke="#263238" stroke-width="1.6" stroke-linecap="round" stroke-linejoin="round"/>
<path d="M81.2617 49.7749L89.7065 60.4943H95.5305" stroke="#263238" stroke-width="1.6" stroke-linecap="round" stroke-linejoin="round"/>
<path d="M61.0234 56.0038L69.3226 60.4943L77.7674 49.7749" stroke="#263238" stroke-width="1.6" stroke-linecap="round" stroke-linejoin="round"/>
<path d="M47.4824 60.4945L55.7816 56.0039" stroke="#263238" stroke-width="1.6" stroke-linecap="round" stroke-linejoin="round"/>
<path fill-rule="evenodd" clip-rule="evenodd" d="M79.5145 50.3543C81.1228 50.3543 82.4265 49.0572 82.4265 47.4572C82.4265 45.8572 81.1228 44.5601 79.5145 44.5601C77.9063 44.5601 76.6025 45.8572 76.6025 47.4572C76.6025 49.0572 77.9063 50.3543 79.5145 50.3543Z" stroke="#4169e1" stroke-width="1.6" stroke-linecap="round" stroke-linejoin="round"/>
<path fill-rule="evenodd" clip-rule="evenodd" d="M58.4027 57.5975C60.011 57.5975 61.3147 56.3004 61.3147 54.7004C61.3147 53.1003 60.011 51.8032 58.4027 51.8032C56.7945 51.8032 55.4907 53.1003 55.4907 54.7004C55.4907 56.3004 56.7945 57.5975 58.4027 57.5975Z" stroke="#4169e1" stroke-width="1.6" stroke-linecap="round" stroke-linejoin="round"/>
<path d="M46.2134 29.2575H57.8614" stroke="#263238" stroke-width="1.6" stroke-linecap="round" stroke-linejoin="round"/>
<path d="M46.2134 23.3146H62.2294" stroke="#263238" stroke-width="1.6" stroke-linecap="round" stroke-linejoin="round"/>
<path d="M55.1733 84.2287H82.8373" stroke="#263238" stroke-width="1.6" stroke-linecap="round" stroke-linejoin="round"/>
<path d="M86.5332 84.2287H87.9892" stroke="#263238" stroke-width="1.6" stroke-linecap="round" stroke-linejoin="round"/>
<path d="M88.0639 4.74284H60.3999" stroke="#263238" stroke-width="1.6" stroke-linecap="round" stroke-linejoin="round"/>
<path d="M57.3759 4.00016H55.9199" stroke="#263238" stroke-width="1.6" stroke-linecap="round" stroke-linejoin="round"/>
<path d="M126.704 53.7716H120.88" stroke="#263238" stroke-width="1.6" stroke-linecap="round" stroke-linejoin="round"/>
<path d="M123.867 50.8003V56.5946" stroke="#263238" stroke-width="1.6" stroke-linecap="round" stroke-linejoin="round"/>
<path d="M113.413 60.4575V66.2518" stroke="#263238" stroke-width="1.6" stroke-linecap="round" stroke-linejoin="round"/>
<path d="M116.251 63.4289H110.427" stroke="#263238" stroke-width="1.6" stroke-linecap="round" stroke-linejoin="round"/>
</svg>
