<svg width="125" height="115" viewBox="0 0 125 115" fill="none" xmlns="http://www.w3.org/2000/svg">
<path fill-rule="evenodd" clip-rule="evenodd" d="M89.0506 37.5866C85.5379 28.6662 77.5066 22.3079 67.9963 20.9187L50.5743 18.3724C41.1375 16.9932 31.669 20.7151 25.7025 28.1479L14.6866 41.8703C8.67341 49.3612 7.13112 59.4817 10.6444 68.4025L16.9495 84.413C20.4621 93.3335 28.4935 99.6918 38.0039 101.081L55.4258 103.627C64.8626 105.006 74.3312 101.285 80.2978 93.8523L91.3135 80.1294C97.3267 72.6385 98.8685 62.5181 95.3558 53.5976L89.0506 37.5866Z" fill="#E0E0E0" fill-opacity="0.278655"/>
<path d="M78.8349 48.9955C76.5377 43.6113 71.2447 40.1318 65.3497 40.1318C63.4045 40.1318 61.5075 40.5089 59.7119 41.2522C58.7173 41.6637 57.7774 42.1532 56.9184 42.7066C56.6673 42.8691 56.5957 43.202 56.759 43.4511C56.9227 43.7001 57.259 43.7711 57.5095 43.6092C58.3138 43.0907 59.195 42.6319 60.1294 42.2451C61.7927 41.5561 63.5487 41.2076 65.3497 41.2076C70.8076 41.2076 75.709 44.4289 77.8354 49.415C78.7194 51.488 79.1972 55.3047 79.4032 57.396C79.4309 57.6741 79.6663 57.8812 79.9423 57.8812C79.9596 57.8812 79.9775 57.8801 79.996 57.8785C80.2937 57.8494 80.5117 57.5864 80.4824 57.2906C80.2238 54.6625 79.7281 51.0894 78.8349 48.9955Z" fill="#2E2E3D" stroke="#2E2E3D" stroke-width="0.5"/>
<path d="M54.437 45.2287C54.6535 45.0205 54.6552 44.6795 54.4425 44.4681C54.2299 44.2568 53.882 44.2546 53.6655 44.4628C50.7103 47.3124 47.7667 52.612 50.5241 61.6729C50.5949 61.9068 50.8131 62.0574 51.0505 62.0574C51.1021 62.0574 51.1549 62.0499 51.2071 62.0348C51.4978 61.9504 51.6637 61.6508 51.5769 61.3663C49.5179 54.5988 50.5065 49.019 54.437 45.2287Z" fill="#2E2E3D" stroke="#2E2E3D" stroke-width="0.5"/>
<path d="M65.5463 43.273C63.8627 43.2067 62.2242 43.5136 60.6754 44.1673C55.2801 46.4453 52.4114 52.4498 54.0031 58.1352C54.1621 58.7037 54.325 59.3084 54.4125 59.9109C54.6094 61.2746 54.6199 63.7843 54.6199 67.7652C54.6199 68.0731 54.8658 68.322 55.1701 68.322C55.4743 68.322 55.7203 68.0731 55.7203 67.7652C55.7203 63.6123 55.7098 61.1922 55.5013 59.7489C55.4045 59.0796 55.2312 58.4347 55.0617 57.8311C53.6218 52.6881 56.2171 47.2555 61.099 45.1947C62.5009 44.6027 63.9925 44.3338 65.5072 44.385C69.4197 44.5276 73.8543 48.0179 75.1918 52.0076C76.3494 55.4595 76.3593 61.3403 76.2157 66.6365C76.2075 66.9439 76.4473 67.2 76.751 67.2084C77.0493 67.2028 77.3078 66.975 77.3161 66.6665C77.4619 61.2713 77.4471 55.2674 76.2339 51.649C74.739 47.1904 69.9445 43.4323 65.5463 43.273Z" fill="#2E2E3D" stroke="#2E2E3D" stroke-width="0.5"/>
<path d="M64.0966 46.3965C63.486 46.3965 62.8782 46.4605 62.2889 46.5874C61.9862 46.6524 61.7946 46.9439 61.8615 47.2393C61.9283 47.5341 62.2243 47.7167 62.531 47.6555C63.0405 47.5461 63.5674 47.4903 64.096 47.4903C67.0355 47.4903 69.6756 49.1934 70.821 51.83C72.186 54.9693 71.9124 57.7335 71.5973 66.5256C71.586 66.8275 71.8287 67.0813 72.1388 67.0911C72.1455 67.0917 72.1523 67.0917 72.159 67.0917C72.4601 67.0917 72.7089 66.8592 72.7196 66.5639C73.0477 57.4179 73.3106 54.7511 71.8551 51.4035C70.5345 48.3621 67.4888 46.3965 64.0966 46.3965Z" fill="#2E2E3D" stroke="#2E2E3D" stroke-width="0.5"/>
<path d="M61.3275 49.1514C61.5685 48.9836 61.6272 48.6533 61.4576 48.4141C61.2891 48.1749 60.9559 48.1161 60.7149 48.285C57.9689 50.1988 56.7756 53.8756 57.7476 57.4386C57.7588 57.4772 58.8412 61.3879 58.8412 67.4967C58.8412 67.7894 59.0796 68.026 59.3744 68.026C59.6693 68.026 59.9076 67.7894 59.9076 67.4967C59.9076 61.2445 58.821 57.3179 58.7756 57.1575C57.922 54.0275 58.9479 50.8101 61.3275 49.1514Z" fill="#2E2E3D" stroke="#2E2E3D" stroke-width="0.5"/>
<path d="M85.3869 87.3438C84.0765 89.1155 81.8925 90.2966 79.5629 90.2966H46.0749C41.9981 90.2966 38.7949 87.0486 38.7949 82.9148V22.3842C38.7949 18.2504 41.9981 15.0024 46.0749 15.0024H69.3709" stroke="#2E2E3D" stroke-width="1.6" stroke-linecap="round" stroke-linejoin="round"/>
<path fill-rule="evenodd" clip-rule="evenodd" d="M65.8767 87.3598H60.0527C59.1791 87.3598 58.5967 86.7725 58.5967 85.8916V85.8916C58.5967 85.0106 59.1791 84.4233 60.0527 84.4233H65.8767C66.7503 84.4233 67.3327 85.0106 67.3327 85.8916V85.8916C67.1871 86.6257 66.6047 87.3598 65.8767 87.3598Z" stroke="#2E2E3D" stroke-width="1.6" stroke-linecap="round" stroke-linejoin="round"/>
<path fill-rule="evenodd" clip-rule="evenodd" d="M122.78 78.8195L118.721 74.8511C117.272 73.4338 114.953 73.4338 113.648 74.8511L100.314 87.8902C98.8642 89.3075 98.8642 91.5752 100.314 92.8508L104.372 96.8192C105.821 98.2365 108.14 98.2365 109.445 96.8192L122.78 83.7801C124.229 82.5045 124.229 80.2368 122.78 78.8195Z" stroke="#2E2E3D" stroke-width="1.6" stroke-linecap="round" stroke-linejoin="round"/>
<path fill-rule="evenodd" clip-rule="evenodd" d="M88.8816 47.2773C87.1344 48.7456 87.1344 51.2416 88.5904 52.7098C87.1344 51.2416 84.8048 51.2416 83.4944 52.7098C82.0384 54.178 82.0384 56.5272 83.4944 57.8486C82.0384 56.3804 79.7088 56.3804 78.3984 57.8486C76.9424 59.3169 76.9424 61.666 78.3984 62.9875L67.624 52.1225C66.168 50.6543 63.8384 50.6543 62.528 52.1225C61.072 53.5908 61.072 55.9399 62.528 57.2613L78.544 73.4119H71.264C69.2256 73.4119 67.624 75.027 67.624 77.0825C67.624 78.8444 68.7888 80.3126 70.536 80.6063L88.1536 84.4237C89.3184 84.7173 90.4832 85.011 91.648 85.4515L100.238 88.9752L114.653 74.4397L112.178 68.2731C111.013 65.4835 109.411 62.9875 107.373 60.9319L94.2688 47.7178C92.5216 46.3964 90.3376 46.1028 88.8816 47.2773Z" fill="white" stroke="#2E2E3D" stroke-width="1.6" stroke-linecap="round" stroke-linejoin="round"/>
<path d="M103.878 64.1621C105.626 65.924 106.79 67.8327 107.81 70.0351L109.266 73.5588" stroke="#2E2E3D" stroke-width="1.6" stroke-linecap="round" stroke-linejoin="round"/>
<path d="M104.461 44.7811V38.9082" stroke="#2E2E3D" stroke-width="1.6" stroke-linecap="round" stroke-linejoin="round"/>
<path d="M113.488 35.9716V30.0986" stroke="#2E2E3D" stroke-width="1.6" stroke-linecap="round" stroke-linejoin="round"/>
<path fill-rule="evenodd" clip-rule="evenodd" d="M90.4958 26.6579L85.8027 29.5623L81.1096 26.6579C76.6005 23.961 73.8398 18.7746 73.8398 12.9659V0H97.5814V12.9659C97.7655 18.7746 95.0048 23.961 90.4958 26.6579Z" fill="#4169e1"/>
<path d="M84.3358 18.8556C84.0609 18.8556 83.786 18.7764 83.5798 18.5387L80.1433 14.6555C79.7309 14.18 79.7309 13.4667 80.1433 12.9912C80.5557 12.5157 81.1742 12.5157 81.5866 12.9912L84.2671 16.0819L89.8343 9.66277C90.2467 9.18728 90.8652 9.18728 91.2776 9.66277C91.69 10.1383 91.69 10.8515 91.2776 11.327L84.9544 18.6179C84.817 18.6972 84.6108 18.8556 84.3358 18.8556Z" fill="white"/>
<path d="M93.1597 96.3577H68.4077" stroke="#2E2E3D" stroke-width="1.6" stroke-linecap="round" stroke-linejoin="round"/>
<path d="M86.7013 99.3884H64.1333" stroke="#2E2E3D" stroke-width="1.6" stroke-linecap="round" stroke-linejoin="round"/>
<path d="M61.1093 99.3884H59.6533" stroke="#2E2E3D" stroke-width="1.6" stroke-linecap="round" stroke-linejoin="round"/>
<path d="M86.5332 33.1294V44.5816" stroke="#2E2E3D" stroke-width="1.56" stroke-linecap="round" stroke-linejoin="round"/>
<path d="M110.427 33.1296H116.251" stroke="#2E2E3D" stroke-width="1.6" stroke-linecap="round" stroke-linejoin="round"/>
<path d="M101.467 41.4119H107.291" stroke="#2E2E3D" stroke-width="1.6" stroke-linecap="round" stroke-linejoin="round"/>
<path d="M65.537 81.3176H38.7466" stroke="#2E2E3D" stroke-width="1.56" stroke-linecap="round" stroke-linejoin="round"/>
<path d="M38.7466 24.094H69.3226" stroke="#2E2E3D" stroke-width="1.6" stroke-linecap="round" stroke-linejoin="round"/>
<path d="M58.1602 19.5764H66.8962" stroke="#2E2E3D" stroke-width="1.6" stroke-linecap="round" stroke-linejoin="round"/>
</svg>
