<?xml version="1.0" standalone="no"?>
<!DOCTYPE svg PUBLIC "-//W3C//DTD SVG 20010904//EN"
 "http://www.w3.org/TR/2001/REC-SVG-20010904/DTD/svg10.dtd">
<svg version="1.0" xmlns="http://www.w3.org/2000/svg"
 width="124.000000pt" height="124.000000pt" viewBox="0 0 124.000000 124.000000"
 preserveAspectRatio="xMidYMid meet">
<metadata>
Created by potrace 1.14, written by Peter Selinger 2001-2017
</metadata>
<g transform="translate(0.000000,124.000000) scale(0.100000,-0.100000)"
fill="#000000" stroke="none">
<path d="M229 1094 c-12 -15 -7 -132 7 -183 l7 -23 -44 27 c-24 16 -70 48
-101 73 -71 55 -87 49 -83 -33 4 -69 11 -103 37 -185 27 -85 49 -126 122 -235
102 -151 394 -425 454 -425 49 0 311 231 410 361 120 158 191 322 200 461 4
67 2 79 -12 84 -24 9 -39 -9 -43 -53 -11 -117 -33 -189 -93 -301 -82 -151
-231 -319 -392 -440 l-70 -53 -37 27 c-54 41 -106 87 -106 94 0 4 32 31 70 60
200 152 365 361 424 536 26 79 40 165 30 193 -11 27 -26 27 -162 -5 -188 -44
-299 -40 -544 19 -54 13 -64 13 -74 1z m251 -101 c101 -15 283 -5 380 22 35
10 82 16 87 12 3 -4 -3 -38 -13 -76 l-18 -71 -76 -25 c-181 -60 -324 -66 -472
-19 -47 15 -48 17 -68 81 -11 36 -20 78 -20 93 l0 27 78 -18 c42 -11 97 -22
122 -26z m-335 -114 c22 -15 61 -37 87 -50 35 -17 53 -34 73 -71 36 -67 129
-180 207 -255 l66 -63 -68 -50 c-37 -27 -72 -50 -77 -50 -21 0 -162 159 -221
250 -64 96 -114 212 -127 289 -8 48 -12 48 60 0z m725 -84 c0 -12 -74 -122
-114 -170 -52 -62 -125 -135 -135 -135 -26 0 -261 263 -248 277 2 2 27 -1 54
-7 65 -14 176 -18 228 -9 22 4 59 10 82 14 24 3 60 12 80 20 43 15 53 17 53
10z"/>
</g>
</svg>
