<svg width="319" height="134" viewBox="0 0 319 134" fill="none" xmlns="http://www.w3.org/2000/svg">
<g clip-path="url(#clip0)">
<g filter="url(#filter0_d)">
<rect width="318.5" height="133.9" rx="5.2" fill="url(#paint0_linear)"/>
</g>
<path fill-rule="evenodd" clip-rule="evenodd" d="M208 27.2999C208 21.5561 212.656 16.8999 218.4 16.8999C221.158 16.8999 223.804 17.9956 225.754 19.946C227.704 21.8964 228.8 24.5417 228.8 27.2999C228.8 33.0437 224.144 37.6999 218.4 37.6999C212.656 37.6999 208 33.0437 208 27.2999ZM210.08 27.2999C210.08 31.8949 213.805 35.6199 218.4 35.6199C220.607 35.6199 222.723 34.7433 224.283 33.183C225.843 31.6227 226.72 29.5065 226.72 27.2999C226.72 22.7049 222.995 18.9799 218.4 18.9799C213.805 18.9799 210.08 22.7049 210.08 27.2999Z" fill="white"/>
<path d="M219.382 31.9153L219.378 31.9315V24.9723L222.017 27.16C222.146 27.2671 222.321 27.3259 222.504 27.3259C222.687 27.3259 222.861 27.2671 222.99 27.16L223.4 26.8196C223.529 26.7126 223.6 26.5699 223.6 26.4178C223.6 26.2656 223.529 26.1229 223.4 26.0158L218.886 22.2657C218.756 22.1582 218.584 22.0994 218.401 22.0999C218.216 22.0994 218.044 22.1582 217.915 22.2657L213.4 26.0158C213.271 26.1229 213.2 26.2655 213.2 26.4178C213.2 26.5699 213.271 26.7126 213.4 26.8196L213.81 27.16C213.938 27.2671 214.11 27.3259 214.294 27.3259C214.477 27.3259 214.639 27.2671 214.768 27.16L217.423 24.9476V31.923C217.423 32.2365 217.748 32.4999 218.125 32.4999H218.705C219.082 32.4999 219.382 32.2287 219.382 31.9153Z" fill="white"/>
<g clip-path="url(#clip1)">
<mask id="mask0" mask-type="alpha" maskUnits="userSpaceOnUse" x="166" y="40" width="132" height="76">
<rect x="166.4" y="40.3" width="131.3" height="75.4" fill="white"/>
</mask>
<g mask="url(#mask0)">
<path d="M25.4941 124.454C25.4941 124.454 51.602 146.597 69.8193 142.302C88.0366 138.008 101.48 111.968 119.287 111.968C137.094 111.968 152.855 118.373 175.063 104.152C197.271 89.9307 200.939 70.3839 227.67 70.3839C254.402 70.3839 288.767 112.356 324.632 80.2656C360.496 48.1753 435.789 106.692 435.789 106.692" stroke="white" stroke-width="1.95"/>
</g>
<g clip-path="url(#clip2)">
<path d="M236.473 77.4001C239.786 77.4001 242.473 74.7139 242.473 71.4001C242.473 68.0864 239.786 65.4001 236.473 65.4001C233.159 65.4001 230.473 68.0864 230.473 71.4001C230.473 74.7139 233.159 77.4001 236.473 77.4001Z" fill="#3F5982" stroke="white" stroke-width="1.95"/>
</g>
</g>
<path d="M25.4408 90.8H28.7168L34.3133 82.064C34.559 81.6818 34.8047 81.245 34.9958 80.7809C35.3234 79.9892 35.6783 78.9245 35.6783 77.8325C35.6783 74.2835 32.8118 71.417 28.8533 71.417C24.8948 71.417 22.0283 74.2835 22.0283 77.8325C22.0283 81.3815 24.8948 84.248 28.5803 84.248C28.9898 84.248 29.2901 84.2207 29.5085 84.1934L29.8088 84.1115L25.4408 90.8ZM25.0313 77.8325C25.0313 75.785 26.6693 74.147 28.8533 74.147C31.0373 74.147 32.6753 75.785 32.6753 77.8325C32.6753 79.88 31.0373 81.518 28.8533 81.518C26.6693 81.518 25.0313 79.88 25.0313 77.8325ZM51.235 81.245C51.235 86.0225 48.9145 88.343 46.321 88.343C43.7275 88.343 41.407 86.0225 41.407 81.245C41.407 76.4675 43.7275 74.147 46.321 74.147C48.9145 74.147 51.235 76.4675 51.235 81.245ZM46.321 91.073C50.689 91.073 54.238 87.4967 54.238 81.245C54.238 74.9933 50.689 71.417 46.321 71.417C41.953 71.417 38.404 74.9933 38.404 81.245C38.404 87.4967 41.953 91.073 46.321 91.073ZM70.0838 81.245C70.0838 86.0225 67.7633 88.343 65.1698 88.343C62.5763 88.343 60.2558 86.0225 60.2558 81.245C60.2558 76.4675 62.5763 74.147 65.1698 74.147C67.7633 74.147 70.0838 76.4675 70.0838 81.245ZM65.1698 91.073C69.5378 91.073 73.0868 87.4967 73.0868 81.245C73.0868 74.9933 69.5378 71.417 65.1698 71.417C60.8018 71.417 57.2528 74.9933 57.2528 81.245C57.2528 87.4967 60.8018 91.073 65.1698 91.073ZM77.603 91.073C78.5585 91.073 79.3775 90.254 79.3775 89.2985C79.3775 88.343 78.5585 87.524 77.603 87.524C76.6475 87.524 75.8285 88.343 75.8285 89.2985C75.8285 90.254 76.6475 91.073 77.603 91.073ZM85.103 87.9335C87.287 83.702 94.385 82.883 94.385 77.2865C94.385 74.0105 91.7915 71.417 87.9695 71.417C85.4306 71.417 83.9018 72.509 83.0009 73.601C82.4822 74.2289 82.0727 74.966 81.827 75.785L84.284 76.877C84.4751 76.4129 84.7208 75.9761 85.0484 75.5939C85.6217 74.9387 86.5226 74.2835 87.9695 74.2835C90.1535 74.2835 91.382 75.512 91.382 77.2865C91.382 81.9548 81.554 82.2005 81.554 90.8H94.385V87.9335H85.103ZM98.4683 80.426C98.2226 80.8355 97.9769 81.2723 97.7858 81.7364C97.4309 82.5281 97.1033 83.5655 97.1033 84.6575C97.1033 88.2065 99.9698 91.073 103.928 91.073C107.887 91.073 110.753 88.2065 110.753 84.6575C110.753 81.1085 107.887 78.242 104.201 78.242C103.792 78.242 103.464 78.2966 103.273 78.3239L102.973 78.3785L107.341 71.69H104.065L98.4683 80.426ZM100.106 84.6575C100.106 82.61 101.744 80.972 103.928 80.972C106.112 80.972 107.75 82.61 107.75 84.6575C107.75 86.705 106.112 88.343 103.928 88.343C101.744 88.343 100.106 86.705 100.106 84.6575ZM126.31 81.245C126.31 86.0225 123.99 88.343 121.396 88.343C118.803 88.343 116.482 86.0225 116.482 81.245C116.482 76.4675 118.803 74.147 121.396 74.147C123.99 74.147 126.31 76.4675 126.31 81.245ZM121.396 91.073C125.764 91.073 129.313 87.4967 129.313 81.245C129.313 74.9933 125.764 71.417 121.396 71.417C117.028 71.417 113.479 74.9933 113.479 81.245C113.479 87.4967 117.028 91.073 121.396 91.073Z" fill="white"/>
<path d="M22.8473 34.5H32.4023V33.135H24.3098V28.065H30.6473V26.7H24.3098V22.215H32.2073V20.85H22.8473V34.5ZM38.0647 34.5H39.5272V22.215H43.8172V20.85H33.7747V22.215H38.0647V34.5ZM46.3603 34.5H47.8228V28.26H55.4278V34.5H56.8903V20.85H55.4278V26.895H47.8228V20.85H46.3603V34.5ZM59.0495 38.595H60.317L66.167 20.655H64.8995L59.0495 38.595ZM68.3308 34.5H69.7933V29.43H73.4983C76.0333 29.43 77.8858 27.558 77.8858 25.14C77.8858 22.722 76.0333 20.85 73.4983 20.85H68.3308V34.5ZM69.7933 28.065V22.215H73.4983C75.2728 22.215 76.4233 23.3655 76.4233 25.14C76.4233 26.9145 75.2728 28.065 73.4983 28.065H69.7933ZM81.1251 34.5H89.6076V33.135H82.5876V20.85H81.1251V34.5ZM90.491 34.5H92.246L96.4385 28.5525L100.631 34.5H102.386L97.316 27.3825L101.996 20.85H100.241L96.4385 26.2125L92.636 20.85H90.881L95.561 27.3825L90.491 34.5Z" fill="white"/>
<path d="M239.837 28.95H243.113V32.226H244.66V28.95H247.936V27.312H244.66V24.036H243.113V27.312H239.837V28.95ZM258.226 27.13C258.226 30.315 256.679 31.862 254.95 31.862C253.221 31.862 251.674 30.315 251.674 27.13C251.674 23.945 253.221 22.398 254.95 22.398C256.679 22.398 258.226 23.945 258.226 27.13ZM254.95 33.682C257.862 33.682 260.228 31.2978 260.228 27.13C260.228 22.9622 257.862 20.578 254.95 20.578C252.038 20.578 249.672 22.9622 249.672 27.13C249.672 31.2978 252.038 33.682 254.95 33.682ZM263.343 33.682C263.98 33.682 264.526 33.136 264.526 32.499C264.526 31.862 263.98 31.316 263.343 31.316C262.706 31.316 262.16 31.862 262.16 32.499C262.16 33.136 262.706 33.682 263.343 33.682ZM267.628 33.5H269.63V20.76H268.083C267.646 21.67 266.991 22.2888 265.353 22.489V23.763H267.628V33.5ZM272.284 31.771C272.594 32.135 272.958 32.4626 273.394 32.7356C274.141 33.227 275.214 33.682 276.743 33.682C279.564 33.682 281.384 31.8802 281.384 29.405C281.384 26.9298 279.582 25.128 277.107 25.128C276.397 25.128 275.888 25.2918 275.506 25.4556C275.287 25.5466 275.087 25.6558 274.923 25.765L275.105 22.671H280.565V20.76H273.376L272.921 28.04L274.377 28.222C274.541 27.9854 274.741 27.7852 274.978 27.585C275.396 27.2756 275.961 26.948 276.743 26.948C278.399 26.948 279.382 27.949 279.382 29.405C279.382 30.861 278.399 31.862 276.743 31.862C275.669 31.862 274.923 31.498 274.414 31.134C274.104 30.9156 273.849 30.679 273.649 30.406L272.284 31.771ZM283.124 23.399C283.124 24.9278 284.398 26.22 286.036 26.22C287.674 26.22 288.948 24.9278 288.948 23.399C288.948 21.8702 287.674 20.578 286.036 20.578C284.398 20.578 283.124 21.8702 283.124 23.399ZM284.58 23.399C284.58 22.58 285.217 21.943 286.036 21.943C286.855 21.943 287.492 22.58 287.492 23.399C287.492 24.218 286.855 24.855 286.036 24.855C285.217 24.855 284.58 24.218 284.58 23.399ZM284.762 33.5H286.4L294.408 20.76H292.77L284.762 33.5ZM290.222 30.861C290.222 32.3898 291.496 33.682 293.134 33.682C294.772 33.682 296.046 32.3898 296.046 30.861C296.046 29.3322 294.772 28.04 293.134 28.04C291.496 28.04 290.222 29.3322 290.222 30.861ZM293.134 32.317C292.315 32.317 291.678 31.68 291.678 30.861C291.678 30.042 292.315 29.405 293.134 29.405C293.953 29.405 294.59 30.042 294.59 30.861C294.59 31.68 293.953 32.317 293.134 32.317Z" fill="white"/>
<path d="M26.7801 111.8H27.5601L31.8501 100.88H30.9921L27.1701 110.63L23.3481 100.88H22.4901L26.7801 111.8ZM35.9303 111.956C37.9739 111.956 39.6743 110.24 39.6743 108.056C39.6743 105.872 37.9739 104.156 35.9303 104.156C33.8867 104.156 32.1863 105.872 32.1863 108.056C32.1863 110.24 33.8867 111.956 35.9303 111.956ZM35.9303 111.254C34.2923 111.254 32.8883 109.85 32.8883 108.056C32.8883 106.262 34.2923 104.858 35.9303 104.858C37.5683 104.858 38.9723 106.262 38.9723 108.056C38.9723 109.85 37.5683 111.254 35.9303 111.254ZM41.9489 111.8H42.6509V100.88H41.9489V111.8ZM45.1521 104.78C45.1521 105.092 45.3861 105.326 45.6981 105.326C46.0101 105.326 46.2441 105.092 46.2441 104.78C46.2441 104.468 46.0101 104.234 45.6981 104.234C45.3861 104.234 45.1521 104.468 45.1521 104.78ZM45.1521 111.332C45.1521 111.644 45.3861 111.878 45.6981 111.878C46.0101 111.878 46.2441 111.644 46.2441 111.332C46.2441 111.02 46.0101 110.786 45.6981 110.786C45.3861 110.786 45.1521 111.02 45.1521 111.332ZM55.789 111.956C57.9106 111.956 60.001 109.85 60.001 106.34C60.001 102.83 57.9106 100.724 55.789 100.724C53.6674 100.724 51.577 102.83 51.577 106.34C51.577 109.85 53.6674 111.956 55.789 111.956ZM55.789 111.176C54.0886 111.176 52.357 109.46 52.357 106.34C52.357 103.22 54.0886 101.504 55.789 101.504C57.4894 101.504 59.221 103.22 59.221 106.34C59.221 109.46 57.4894 111.176 55.789 111.176ZM62.1171 111.332C62.1171 111.644 62.3511 111.878 62.6631 111.878C62.9751 111.878 63.2091 111.644 63.2091 111.332C63.2091 111.02 62.9751 110.786 62.6631 110.786C62.3511 110.786 62.1171 111.02 62.1171 111.332ZM67.4356 111.8H68.2936L71.5696 106.574C71.71 106.371 71.8504 106.153 71.9596 105.903C72.1468 105.482 72.3496 104.905 72.3496 104.234C72.3496 102.284 70.8052 100.724 68.7616 100.724C66.718 100.724 65.1736 102.284 65.1736 104.234C65.1736 106.184 66.718 107.744 68.7616 107.744C69.1828 107.744 69.5416 107.666 69.7912 107.588C69.9316 107.541 70.0564 107.494 70.1656 107.432L67.4356 111.8ZM65.9536 104.234C65.9536 102.674 67.1392 101.504 68.7616 101.504C70.384 101.504 71.5696 102.674 71.5696 104.234C71.5696 105.794 70.384 106.964 68.7616 106.964C67.1392 106.964 65.9536 105.794 65.9536 104.234ZM76.0318 111.8H76.8118V100.88H76.1878C76.0162 101.192 75.829 101.473 75.6106 101.707C75.2362 102.128 74.659 102.518 73.9258 102.518V103.142C74.659 103.142 75.1738 102.955 75.5326 102.721C75.7354 102.596 75.8914 102.456 76.0318 102.284V111.8ZM81.7366 111.8H82.5946L85.8706 106.574C86.011 106.371 86.1514 106.153 86.2606 105.903C86.4478 105.482 86.6506 104.905 86.6506 104.234C86.6506 102.284 85.1062 100.724 83.0626 100.724C81.019 100.724 79.4746 102.284 79.4746 104.234C79.4746 106.184 81.019 107.744 83.0626 107.744C83.4838 107.744 83.8426 107.666 84.0922 107.588C84.2326 107.541 84.3574 107.494 84.4666 107.432L81.7366 111.8ZM80.2546 104.234C80.2546 102.674 81.4402 101.504 83.0626 101.504C84.685 101.504 85.8706 102.674 85.8706 104.234C85.8706 105.794 84.685 106.964 83.0626 106.964C81.4402 106.964 80.2546 105.794 80.2546 104.234ZM90.7228 111.8H91.5808L94.8568 106.574C94.9972 106.371 95.1376 106.153 95.2468 105.903C95.434 105.482 95.6368 104.905 95.6368 104.234C95.6368 102.284 94.0924 100.724 92.0488 100.724C90.0052 100.724 88.4608 102.284 88.4608 104.234C88.4608 106.184 90.0052 107.744 92.0488 107.744C92.47 107.744 92.8288 107.666 93.0784 107.588C93.2188 107.541 93.3436 107.494 93.4528 107.432L90.7228 111.8ZM89.2408 104.234C89.2408 102.674 90.4264 101.504 92.0488 101.504C93.6712 101.504 94.8568 102.674 94.8568 104.234C94.8568 105.794 93.6712 106.964 92.0488 106.964C90.4264 106.964 89.2408 105.794 89.2408 104.234ZM96.8304 110.318C97.0644 110.63 97.3452 110.911 97.6728 111.145C98.2344 111.566 99.0768 111.956 100.262 111.956C102.368 111.956 103.85 110.474 103.85 108.836C103.85 107.728 103.304 107.058 102.758 106.621C102.431 106.371 102.072 106.168 101.666 106.028C101.994 105.919 102.29 105.747 102.556 105.544C103.008 105.186 103.46 104.608 103.46 103.61C103.46 102.05 102.134 100.724 100.262 100.724C99.2484 100.724 98.484 101.067 97.938 101.426C97.626 101.629 97.3608 101.863 97.1424 102.128L97.6884 102.752C97.8756 102.518 98.094 102.315 98.3592 102.128C98.796 101.816 99.4356 101.504 100.262 101.504C101.744 101.504 102.68 102.44 102.68 103.61C102.68 104.78 101.744 105.716 100.262 105.716H99.2484V106.496H100.262C101.978 106.496 103.07 107.588 103.07 108.836C103.07 110.084 101.978 111.176 100.262 111.176C99.264 111.176 98.5776 110.833 98.094 110.474C97.8132 110.271 97.5792 110.037 97.3764 109.772L96.8304 110.318ZM109.803 111.8H117.291V111.02H110.583V106.496H115.887V105.716H110.583V101.66H117.135V100.88H109.803V111.8ZM121.903 111.8H122.683V101.66H126.271V100.88H118.315V101.66H121.903V111.8ZM128.385 111.8H129.165V106.652H135.795V111.8H136.575V100.88H135.795V105.872H129.165V100.88H128.385V111.8Z" fill="white"/>
</g>
<defs>
<filter id="filter0_d" x="-65" y="-52" width="448.5" height="263.9" filterUnits="userSpaceOnUse" color-interpolation-filters="sRGB">
<feFlood flood-opacity="0" result="BackgroundImageFix"/>
<feColorMatrix in="SourceAlpha" type="matrix" values="0 0 0 0 0 0 0 0 0 0 0 0 0 0 0 0 0 0 127 0"/>
<feOffset dy="13"/>
<feGaussianBlur stdDeviation="32.5"/>
<feColorMatrix type="matrix" values="0 0 0 0 0 0 0 0 0 0 0 0 0 0 0 0 0 0 0.249454 0"/>
<feBlend mode="normal" in2="BackgroundImageFix" result="effect1_dropShadow"/>
<feBlend mode="normal" in="SourceGraphic" in2="effect1_dropShadow" result="shape"/>
</filter>
<linearGradient id="paint0_linear" x1="0" y1="0" x2="0" y2="133.9" gradientUnits="userSpaceOnUse">
<stop stop-color="#5172A6"/>
<stop offset="1" stop-color="#354C6F"/>
</linearGradient>
<clipPath id="clip0">
<rect width="319" height="134" fill="white"/>
</clipPath>
<clipPath id="clip1">
<rect width="132" height="76" fill="white" transform="translate(166.4 40.3)"/>
</clipPath>
<clipPath id="clip2">
<rect width="12" height="12" fill="white" transform="translate(230.473 65.4001)"/>
</clipPath>
</defs>
</svg>
