<?xml version="1.0" encoding="UTF-8"?>
<svg width="245px" height="43px" viewBox="0 0 245 43" version="1.1" xmlns="http://www.w3.org/2000/svg" xmlns:xlink="http://www.w3.org/1999/xlink">
    <title>Card networks/MC-Horizontal</title>
    <g id="Page-1" stroke="none" stroke-width="1" fill="none" fill-rule="evenodd">
        <g id="1372" transform="translate(-1007.000000, -8020.000000)">
            <g id="Card-networks/MC-Horizontal" transform="translate(1007.000000, 8020.000000)">
                <g>
                    <polygon id="Fill-1" fill="#FF5F00" points="25.4203893 38.3128213 44.1977616 38.3128213 44.1977616 4.59491765 25.4203893 4.59491765"></polygon>
                    <path d="M26.6126034,21.4538695 C26.6126034,14.6133154 29.817871,8.52090965 34.8090754,4.59491765 C31.1591119,1.72324304 26.5529927,0.0101262121 21.5468856,0.0101262121 C9.69568127,0.0101262121 0.0888199513,9.61037094 0.0888199513,21.4538695 C0.0888199513,33.2967724 9.69568127,42.8976127 21.5468856,42.8976127 C26.5529927,42.8976127 31.1591119,41.1844959 34.8090754,38.3128213 C29.817871,34.3862336 26.6126034,28.2944236 26.6126034,21.4538695" id="Fill-2" fill="#EB001B"></path>
                    <path d="M68.8593066,34.7418424 L68.8593066,33.9091104 L68.6417275,33.9091104 L68.3919586,34.4815392 L68.1415937,33.9091104 L67.9240146,33.9091104 L67.9240146,34.7418424 L68.0778102,34.7418424 L68.0778102,34.1140172 L68.3120803,34.6548761 L68.4712409,34.6548761 L68.7061071,34.1122303 L68.7061071,34.7418424 L68.8593066,34.7418424 Z M67.4822993,34.7418424 L67.4822993,34.051473 L67.7606813,34.051473 L67.7606813,33.9103017 L67.0513139,33.9103017 L67.0513139,34.051473 L67.3296959,34.051473 L67.3296959,34.7418424 L67.4822993,34.7418424 Z M69.5293309,21.4538695 C69.5293309,33.2967724 59.9224696,42.8976127 48.0712652,42.8976127 C43.0651582,42.8976127 38.459635,41.1844959 34.8090754,38.3128213 C39.8002798,34.3862336 43.0055474,28.2944236 43.0055474,21.4538695 C43.0055474,14.6133154 39.8002798,8.52090965 34.8090754,4.59491765 C38.459635,1.72324304 43.0651582,0.0101262121 48.0712652,0.0101262121 C59.9224696,0.0101262121 69.5293309,9.61037094 69.5293309,21.4538695 L69.5293309,21.4538695 Z" id="Fill-3" fill="#F79E1B"></path>
                    <path d="M112.388832,21.5461967 C112.388832,19.040257 114.031107,16.9822533 116.718358,16.9822533 C119.285791,16.9822533 121.017482,18.9509081 121.017482,21.5461967 C121.017482,24.142081 119.285791,26.1113314 116.718358,26.1113314 C114.031107,26.1113314 112.388832,24.052732 112.388832,21.5461967 Z M123.943771,21.5461967 L123.943771,14.4161521 L120.83865,14.4161521 L120.83865,16.146543 C119.853285,14.8634924 118.360633,14.0581607 116.329696,14.0581607 C112.329221,14.0581607 109.194294,17.1907342 109.194294,21.5461967 C109.194294,25.9022549 112.329221,29.035424 116.329696,29.035424 C118.360633,29.035424 119.853285,28.2294967 120.83865,26.9464461 L120.83865,28.676837 L123.943771,28.676837 L123.943771,21.5461967 Z M228.801983,21.5461967 C228.801983,19.040257 230.444258,16.9822533 233.130912,16.9822533 C235.698942,16.9822533 237.430633,18.9509081 237.430633,21.5461967 C237.430633,24.142081 235.698942,26.1113314 233.130912,26.1113314 C230.444258,26.1113314 228.801983,24.052732 228.801983,21.5461967 Z M243.830438,28.0001678 L243.830438,28.2241358 L244.036691,28.2241358 C244.083783,28.2241358 244.121934,28.2146052 244.149951,28.1961398 C244.177968,28.1776743 244.192275,28.1490827 244.192275,28.1109604 C244.192275,28.0740296 244.177968,28.0460336 244.149951,28.0275681 C244.121934,28.0091027 244.083783,28.0001678 244.036691,28.0001678 L243.830438,28.0001678 Z M244.039075,27.842318 C244.146971,27.842318 244.230426,27.8661444 244.288844,27.9143928 C244.347263,27.9626412 244.376472,28.0281638 244.376472,28.1109604 C244.376472,28.1800569 244.353224,28.2378359 244.306131,28.2825104 C244.259635,28.3277805 244.193467,28.3557765 244.107628,28.3659027 L244.383029,28.6827936 L244.167835,28.6827936 L243.912701,28.3682854 L243.830438,28.3682854 L243.830438,28.6827936 L243.650414,28.6827936 L243.650414,27.842318 L244.039075,27.842318 Z M243.985426,28.9716885 C244.083187,28.9716885 244.174392,28.953223 244.259039,28.9162921 C244.34309,28.8787656 244.417007,28.8287302 244.480791,28.7649946 C244.544574,28.7018547 244.594051,28.6268016 244.630414,28.5410266 C244.666776,28.4552517 244.684659,28.3635201 244.684659,28.2658319 C244.684659,28.1687394 244.666776,28.0770078 244.630414,27.9912329 C244.594051,27.9054579 244.544574,27.8304048 244.480791,27.7666692 C244.417007,27.7035293 244.34309,27.6534939 244.259039,27.6171587 C244.174392,27.5808235 244.083187,27.5629537 243.985426,27.5629537 C243.886472,27.5629537 243.793479,27.5808235 243.707044,27.6171587 C243.620608,27.6534939 243.545499,27.7035293 243.481715,27.7666692 C243.417932,27.8304048 243.367859,27.9054579 243.331496,27.9912329 C243.29573,28.0770078 243.277251,28.1687394 243.277251,28.2658319 C243.277251,28.3635201 243.29573,28.4552517 243.331496,28.5410266 C243.367859,28.6268016 243.417932,28.7018547 243.481715,28.7649946 C243.545499,28.8287302 243.620608,28.8787656 243.707044,28.9162921 C243.793479,28.953223 243.886472,28.9716885 243.985426,28.9716885 Z M243.985426,27.3610251 C244.112993,27.3610251 244.232214,27.3848515 244.344282,27.4319086 C244.455754,27.4795613 244.553516,27.5438926 244.636971,27.6260936 C244.720426,27.7082946 244.786594,27.8041958 244.834878,27.9143928 C244.882567,28.0245898 244.907007,28.1419347 244.907007,28.2658319 C244.907007,28.3903248 244.882567,28.507074 244.834878,28.6166754 C244.786594,28.7256811 244.720426,28.8215823 244.636971,28.9037833 C244.553516,28.9859843 244.455754,29.0509112 244.344282,29.0991596 C244.232214,29.147408 244.112993,29.1712344 243.985426,29.1712344 C243.855474,29.1712344 243.733869,29.147408 243.620608,29.0991596 C243.507348,29.0509112 243.40899,28.9859843 243.326131,28.9037833 C243.243273,28.8215823 243.177701,28.7256811 243.130012,28.6166754 C243.081727,28.507074 243.057883,28.3903248 243.057883,28.2658319 C243.057883,28.1419347 243.081727,28.0245898 243.130012,27.9143928 C243.177701,27.8041958 243.243273,27.7082946 243.326131,27.6260936 C243.40899,27.5438926 243.507348,27.4795613 243.620608,27.4319086 C243.733869,27.3848515 243.855474,27.3610251 243.985426,27.3610251 Z M240.356922,21.5461967 L240.356922,8.68769432 L237.251204,8.68769432 L237.251204,16.146543 C236.265839,14.8634924 234.773187,14.0581607 232.742847,14.0581607 C228.742372,14.0581607 225.606849,17.1907342 225.606849,21.5461967 C225.606849,25.9022549 228.742372,29.035424 232.742847,29.035424 C234.773187,29.035424 236.265839,28.2294967 237.251204,26.9464461 L237.251204,28.676837 L240.356922,28.676837 L240.356922,21.5461967 Z M162.45944,16.8327428 C164.459976,16.8327428 165.743394,18.0854148 166.071849,20.2935247 L158.667603,20.2935247 C158.996058,18.2349254 160.249672,16.8327428 162.45944,16.8327428 Z M162.519051,14.0581607 C158.339148,14.0581607 155.413455,17.1007896 155.413455,21.5461967 C155.413455,26.0815484 158.45837,29.035424 162.728285,29.035424 C164.877847,29.035424 166.848577,28.4981391 168.580268,27.0363906 L167.057214,24.7389318 C165.863212,25.6931784 164.340158,26.2304633 162.907117,26.2304633 C160.906582,26.2304633 159.085474,25.3059997 158.637798,22.7398984 L169.237178,22.7398984 C169.266983,22.3521241 169.296788,21.9643497 169.296788,21.5461967 C169.266983,17.1007896 166.520122,14.0581607 162.519051,14.0581607 Z M199.989745,21.5461967 C199.989745,19.040257 201.632019,16.9822533 204.31927,16.9822533 C206.886703,16.9822533 208.618394,18.9509081 208.618394,21.5461967 C208.618394,24.142081 206.886703,26.1113314 204.31927,26.1113314 C201.632019,26.1113314 199.989745,24.052732 199.989745,21.5461967 Z M211.544684,21.5461967 L211.544684,14.4161521 L208.439562,14.4161521 L208.439562,16.146543 C207.454197,14.8634924 205.961545,14.0581607 203.930608,14.0581607 C199.930134,14.0581607 196.795207,17.1907342 196.795207,21.5461967 C196.795207,25.9022549 199.930134,29.035424 203.930608,29.035424 C205.961545,29.035424 207.454197,28.2294967 208.439562,26.9464461 L208.439562,28.676837 L211.544684,28.676837 L211.544684,21.5461967 Z M182.463601,21.5461967 C182.463601,25.8724719 185.479307,29.035424 190.077676,29.035424 C192.227238,29.035424 193.659684,28.5577051 195.212543,27.3342204 L193.719891,24.8282807 C192.555693,25.6639911 191.33129,26.1113314 189.987664,26.1113314 C187.509647,26.0815484 185.68854,24.2909958 185.68854,21.5461967 C185.68854,18.8019932 187.509647,17.0114407 189.987664,16.9822533 C191.33129,16.9822533 192.555693,17.428998 193.719891,18.2647083 L195.212543,15.7587687 C193.659684,14.535284 192.227238,14.0581607 190.077676,14.0581607 C185.479307,14.0581607 182.463601,17.2205172 182.463601,21.5461967 Z M222.471922,14.0581607 C220.68062,14.0581607 219.516423,14.8932754 218.710487,16.146543 L218.710487,14.4161521 L215.63517,14.4161521 L215.63517,28.676837 L218.739696,28.676837 L218.739696,20.6812991 C218.739696,18.3242743 219.755462,17.0114407 221.785207,17.0114407 C222.412311,17.0114407 223.069221,17.1007896 223.726131,17.369432 L224.681691,14.445935 C223.994976,14.1772926 223.099027,14.0581607 222.471922,14.0581607 Z M139.290547,15.5496922 C137.797299,14.565067 135.737153,14.0581607 133.46837,14.0581607 C129.855365,14.0581607 127.526375,15.7885516 127.526375,18.6226997 C127.526375,20.9499415 129.258066,22.381907 132.452603,22.8292473 L133.916046,23.0383238 C135.617932,23.2765877 136.423869,23.7245236 136.423869,24.5298553 C136.423869,25.6342081 135.289477,26.2602463 133.16972,26.2602463 C131.019562,26.2602463 129.467299,25.5740465 128.422324,24.7687148 L126.959477,27.1853055 C128.660766,28.4385732 130.810925,29.035424 133.139319,29.035424 C137.259611,29.035424 139.648212,27.0953609 139.648212,24.3809404 C139.648212,21.8744051 137.767494,20.5621672 134.662372,20.1142312 L133.199526,19.9057503 C131.8559,19.7264568 130.781119,19.45841 130.781119,18.5035678 C130.781119,17.4593766 131.795693,16.8327428 133.498175,16.8327428 C135.319282,16.8327428 137.080779,17.5189426 137.946922,18.0562275 L139.290547,15.5496922 Z M179.328674,14.0581607 C177.537372,14.0581607 176.372579,14.8932754 175.566642,16.146543 L175.566642,14.4161521 L172.491326,14.4161521 L172.491326,28.676837 L175.596448,28.676837 L175.596448,20.6812991 C175.596448,18.3242743 176.611618,17.0114407 178.641959,17.0114407 C179.269063,17.0114407 179.925973,17.1007896 180.582883,17.369432 L181.537847,14.445935 C180.851131,14.1772926 179.955779,14.0581607 179.328674,14.0581607 Z M152.845426,14.4161521 L147.769574,14.4161521 L147.769574,10.0898769 L144.634647,10.0898769 L144.634647,14.4161521 L141.738163,14.4161521 L141.738163,17.2503001 L144.634647,17.2503001 L144.634647,23.7543066 C144.634647,27.0661736 145.918662,29.035424 149.590681,29.035424 C150.934307,29.035424 152.487165,28.617271 153.471934,27.9310713 L152.576582,25.2756211 C151.650827,25.812906 150.635657,26.0815484 149.82972,26.0815484 C148.276861,26.0815484 147.769574,25.1267062 147.769574,23.6947406 L147.769574,17.2503001 L152.845426,17.2503001 L152.845426,14.4161521 Z M106.447433,28.676837 L106.447433,19.7264568 C106.447433,16.3550239 104.297871,14.0879437 100.834489,14.0581607 C99.013382,14.0283777 97.1320681,14.5948499 95.8182482,16.5938833 C94.8328832,15.0130029 93.2800243,14.0581607 91.1006569,14.0581607 C89.5781995,14.0581607 88.0855474,14.505501 86.9207543,16.176326 L86.9207543,14.4161521 L83.8156326,14.4161521 L83.8156326,28.676837 L86.9505596,28.676837 L86.9505596,20.770648 C86.9505596,18.2944913 88.3239903,16.9822533 90.443747,16.9822533 C92.5038929,16.9822533 93.5494647,18.3242743 93.5494647,20.740865 L93.5494647,28.676837 L96.6843917,28.676837 L96.6843917,20.770648 C96.6843917,18.2944913 98.1174331,16.9822533 100.177579,16.9822533 C102.297336,16.9822533 103.312506,18.3242743 103.312506,20.740865 L103.312506,28.676837 L106.447433,28.676837 L106.447433,28.676837 Z" id="Fill-4" fill="#000000"></path>
                </g>
            </g>
        </g>
    </g>
</svg>