<?xml version="1.0" encoding="UTF-8"?>
<svg width="160px" height="26px" viewBox="0 0 160 26" version="1.1" xmlns="http://www.w3.org/2000/svg" xmlns:xlink="http://www.w3.org/1999/xlink">
    <title>Shape</title>
    <g id="Page-1" stroke="none" stroke-width="1" fill="none" fill-rule="evenodd">
        <g id="1372" transform="translate(-704.000000, -8028.000000)" fill="#8DC640">
            <path d="M853.604138,8039.34633 C852.694313,8039.94266 851.373852,8040.23747 849.567056,8040.23747 L848.782921,8040.23747 L847.775257,8040.23747 L849.149279,8033.2595 L849.845574,8033.2595 L850.466883,8033.2595 C851.966595,8033.2595 853.062099,8033.48648 853.816954,8033.94715 C854.406841,8034.30844 855.105993,8035.02363 855.105993,8036.38081 C855.105993,8038.01601 854.292577,8038.89573 853.604138,8039.34633 L853.604138,8039.34633 Z M746.716086,8048.10388 L732.849462,8048.10388 L733.745718,8043.54278 L742.443334,8043.54278 L743.431716,8038.40551 L734.817655,8038.40551 L735.650353,8033.89142 L749.492695,8033.89142 L746.716086,8048.10388 L746.716086,8048.10388 Z M861.074133,8029.97634 C859.035238,8028.66214 855.950116,8028 851.905179,8028 L841.311498,8028 L837.373682,8048.10455 L823.496346,8048.10455 L824.386176,8043.54346 L832.746713,8043.54346 L833.740808,8038.42028 L825.385269,8038.43438 L826.280098,8033.89276 L834.889873,8033.89276 L836.035368,8028.00067 L818.545868,8028.00067 L814.808014,8047.07307 L808.39496,8047.07307 L812.159951,8028.00067 L803.016706,8028.00067 L799.278852,8047.07307 L793.025767,8047.07307 L796.794329,8028.00067 L787.660369,8028.00067 L783.712555,8048.10523 L769.736666,8048.10523 L770.617212,8043.54413 L779.015599,8043.54413 L780.004695,8038.4505 L771.619162,8038.44311 L772.509706,8033.89276 L781.215177,8033.89276 L782.354958,8028.00067 L727.867561,8028.00067 L724.766014,8043.93295 L718.5872,8028 L709.10402,8028 L704,8054 L713.056119,8054 L716.144811,8037.62988 L722.141517,8054 L754.601001,8054 L758.546672,8033.89209 L763.625697,8033.89209 L759.677883,8054 L845.08863,8054 L847.562441,8041.30589 L851.572385,8054 L860.633503,8054 L856.482157,8043.62807 L857.429832,8043.43534 C859.518003,8043.01495 861.152689,8042.10905 862.286757,8040.75187 C863.422968,8039.38193 864,8037.62316 864,8035.5105 C864.000714,8033.04998 863.045183,8031.24085 861.074133,8029.97634 L861.074133,8029.97634 Z" id="Shape"></path>
        </g>
    </g>
</svg>