<?xml version="1.0" encoding="UTF-8"?>
<svg width="171px" height="44px" viewBox="0 0 171 44" version="1.1" xmlns="http://www.w3.org/2000/svg" xmlns:xlink="http://www.w3.org/1999/xlink">
    <title>Paypal</title>
    <g id="Page-1" stroke="none" stroke-width="1" fill="none" fill-rule="evenodd">
        <g id="1372" transform="translate(-1028.000000, -8197.000000)">
            <g id="Paypal" transform="translate(1028.000000, 8197.399981)">
                <path d="M63.5277435,9.53254923 L54.125924,9.53254923 C53.4824754,9.53254923 52.9352938,10.0091571 52.8347911,10.6569354 L49.0322449,35.2363943 C48.9567716,35.7216392 49.3252816,36.1585952 49.8077718,36.1585952 L54.296124,36.1585952 C54.9395726,36.1585952 55.4867542,35.6823799 55.5872569,35.0334238 L56.6126929,28.4037068 C56.7116554,27.7547506 57.2599922,27.2781428 57.9022856,27.2781428 L60.8784759,27.2781428 C67.0715241,27.2781428 70.645725,24.2225919 71.5795148,18.1680236 C72.000009,15.5188064 71.5972279,13.4376712 70.3804131,11.9799736 C69.0442273,10.3793722 66.6741339,9.53254923 63.5277435,9.53254923 Z M64.612095,18.509972 C64.0980292,21.9494788 61.5203842,21.9494788 59.0282243,21.9494788 L57.6092489,21.9494788 L58.6046496,15.5258731 C58.66395,15.1375987 58.9935682,14.851791 59.3786362,14.851791 L60.029016,14.851791 C61.7267807,14.851791 63.3282783,14.851791 64.1557894,15.8383771 C64.6494465,16.4268739 64.8003932,17.301571 64.612095,18.509972 L64.612095,18.509972 Z" id="Fill-1" fill="#28356A"></path>
                <path d="M91.6311592,18.3992608 L87.1289445,18.3992608 C86.7454168,18.3992608 86.4138733,18.6850685 86.3549579,19.0733429 L86.1554927,20.3571218 L85.8408921,19.8918992 C84.8662851,18.4495127 82.6925764,17.9674086 80.5234885,17.9674086 C75.5480253,17.9674086 71.2988003,21.8093231 70.4712892,27.1984464 C70.0411683,29.8865303 70.6526562,32.4572289 72.1486453,34.2498083 C73.5206424,35.8979135 75.4837189,36.5849511 77.8191562,36.5849511 C81.8280988,36.5849511 84.0507111,33.9569339 84.0507111,33.9569339 L83.8500907,35.2324684 C83.7746174,35.7200689 84.1431275,36.1574174 84.6229221,36.1574174 L88.6780729,36.1574174 C89.3230618,36.1574174 89.8675479,35.6808096 89.9692058,35.0318534 L92.4024503,19.3214617 C92.4794639,18.8377871 92.1121091,18.3992608 91.6311592,18.3992608 Z M85.3553214,27.3331058 C84.9209648,29.9552341 82.8797194,31.7156208 80.2758898,31.7156208 C78.9685841,31.7156208 77.9238947,31.2880871 77.2527212,30.4781679 C76.5873238,29.6737449 76.3347192,28.5285513 76.5461215,27.2530169 C76.9519831,24.6532664 79.0274995,22.8351685 81.5916671,22.8351685 C82.8700927,22.8351685 83.9093912,23.2685911 84.594042,24.0851844 C85.2798481,24.9108074 85.5520912,26.0630677 85.3553214,27.3331058 L85.3553214,27.3331058 Z" id="Fill-2" fill="#28356A"></path>
                <path d="M115.609342,18.3992608 L111.084793,18.3992608 C110.653132,18.3992608 110.247655,18.6179351 110.003137,18.9838317 L103.763111,28.3546327 L101.118079,19.3493358 C100.951729,18.7859649 100.441899,18.3992608 99.8642975,18.3992608 L95.4186878,18.3992608 C94.8780523,18.3992608 94.5029961,18.9375058 94.6747364,19.456121 L99.6582861,34.3660158 L94.9731641,41.1091922 C94.6046541,41.6403704 94.9758596,42.3705933 95.6123769,42.3705933 L100.13115,42.3705933 C100.560115,42.3705933 100.961356,42.1574153 101.204719,41.798978 L116.252405,19.6535953 C116.612829,19.1239874 116.242779,18.3992608 115.609342,18.3992608" id="Fill-3" fill="#28356A"></path>
                <path d="M130.588101,9.53254923 L121.185126,9.53254923 C120.543218,9.53254923 119.996036,10.0091571 119.895533,10.6569354 L116.092987,35.2363943 C116.017514,35.7216392 116.386024,36.1585952 116.865818,36.1585952 L121.691105,36.1585952 C122.138939,36.1585952 122.522467,35.8252838 122.592549,35.3710537 L123.671895,28.4037068 C123.770857,27.7547506 124.319579,27.2781428 124.961487,27.2781428 L127.936523,27.2781428 C134.130726,27.2781428 137.703772,24.2225919 138.638717,18.1680236 C139.060751,15.5188064 138.655275,13.4376712 137.43846,11.9799736 C136.103429,10.3793722 133.734876,9.53254923 130.588101,9.53254923 Z M131.672837,18.509972 C131.159927,21.9494788 128.582282,21.9494788 126.088581,21.9494788 L124.671531,21.9494788 L125.668087,15.5258731 C125.727003,15.1375987 126.05431,14.851791 126.440534,14.851791 L127.090913,14.851791 C128.787138,14.851791 130.390176,14.851791 131.217687,15.8383771 C131.711344,16.4268739 131.861135,17.301571 131.672837,18.509972 L131.672837,18.509972 Z" id="Fill-4" fill="#298FC2"></path>
                <path d="M158.690361,18.3992608 L154.190842,18.3992608 C153.804619,18.3992608 153.476156,18.6850685 153.418396,19.0733429 L153.21893,20.3571218 L152.90279,19.8918992 C151.928182,18.4495127 149.756014,17.9674086 147.586541,17.9674086 C142.611463,17.9674086 138.363778,21.8093231 137.536267,27.1984464 C137.107301,29.8865303 137.716094,32.4572289 139.211698,34.2498083 C140.586776,35.8979135 142.546772,36.5849511 144.882594,36.5849511 C148.891151,36.5849511 151.114149,33.9569339 151.114149,33.9569339 L150.913528,35.2324684 C150.838055,35.7200689 151.20618,36.1574174 151.689055,36.1574174 L155.743051,36.1574174 C156.384959,36.1574174 156.932141,35.6808096 157.032643,35.0318534 L159.467043,19.3214617 C159.541361,18.8377871 159.172851,18.3992608 158.690361,18.3992608 Z M152.414908,27.3331058 C151.983247,29.9552341 149.938921,31.7156208 147.335092,31.7156208 C146.030481,31.7156208 144.983097,31.2880871 144.311923,30.4781679 C143.646911,29.6737449 143.396617,28.5285513 143.605323,27.2530169 C144.01388,24.6532664 146.086701,22.8351685 148.650869,22.8351685 C149.929295,22.8351685 150.968593,23.2685911 151.653244,24.0851844 C152.341745,24.9108074 152.613989,26.0630677 152.414908,27.3331058 L152.414908,27.3331058 Z" id="Fill-5" fill="#298FC2"></path>
                <path d="M163.998138,10.2070239 L160.139372,35.2363943 C160.063899,35.7216392 160.432024,36.1585952 160.911818,36.1585952 L164.791378,36.1585952 C165.436367,36.1585952 165.983163,35.6823799 166.082126,35.0334238 L169.887368,10.4551426 C169.963226,9.96989777 169.594716,9.53137145 169.114921,9.53137145 L164.770969,9.53137145 C164.387442,9.53254923 164.057438,9.81874949 163.998138,10.2070239" id="Fill-6" fill="#298FC2"></path>
                <path d="M9.98866314,40.9352735 L10.707585,36.2795138 L9.10608735,36.2414323 L1.45863747,36.2414323 L6.77334559,1.88444612 C6.78990351,1.78040899 6.84342796,1.68383113 6.92159676,1.61512736 C7.00015063,1.5464236 7.1002683,1.50873468 7.20500679,1.50873468 L20.0997779,1.50873468 C24.3809636,1.50873468 27.3352051,2.41680215 28.8774023,4.20938153 C29.6005599,5.05031561 30.0611012,5.92933121 30.2840556,6.89628762 C30.5177918,7.91114038 30.5216425,9.12346739 30.2936823,10.602365 L30.2771243,10.7099355 L30.2771243,11.6576548 L31.000282,12.0753737 C31.6090745,12.4047592 32.0931049,12.7816484 32.4643104,13.2131081 C33.0827296,13.9323383 33.4828152,14.8462947 33.65186,15.9294586 C33.8266809,17.0436374 33.7689207,18.3698164 33.4828152,19.8710918 C33.1528119,21.5977155 32.6194928,23.1017391 31.8990306,24.3321254 C31.2367137,25.4659338 30.3926447,26.4065865 29.3903128,27.135239 C28.4334189,27.8277729 27.2966983,28.3534549 26.0113414,28.689907 C24.7656465,29.0204703 23.3455158,29.1873223 21.7879159,29.1873223 L20.7844287,29.1873223 C20.0670471,29.1873223 19.3700741,29.4507522 18.8228925,29.9230415 C18.2741707,30.4051456 17.9114366,31.0639166 17.800152,31.7843246 L17.7242936,32.2036139 L16.4539544,40.4099841 L16.3965792,40.7111029 C16.3811765,40.806503 16.3549919,40.8540068 16.3164851,40.8861994 C16.282214,40.9156439 16.2329253,40.9352735 16.1847918,40.9352735 L9.98866314,40.9352735" id="Fill-7" fill="#28356A"></path>
                <path d="M31.6845478,10.8194689 C31.646426,11.0703358 31.6021432,11.326699 31.5528545,11.5901288 C29.8523944,20.4917812 24.0344024,23.5669617 16.6041309,23.5669617 L12.8208381,23.5669617 C11.9120777,23.5669617 11.1461775,24.2394734 11.0048575,25.1534298 L8.51924377,41.2281478 C8.42721252,41.8284224 8.88082259,42.3690229 9.4745974,42.3690229 L16.1847918,42.3690229 C16.9791871,42.3690229 17.6542112,41.7805261 17.7793583,40.9815995 L17.8452049,40.6341547 L19.1086129,32.4599771 L19.1898623,32.0116359 C19.3134691,31.2099611 19.9900335,30.6210717 20.7844287,30.6210717 L21.7879159,30.6210717 C28.2890184,30.6210717 33.3784618,27.9302397 34.8659793,20.1427661 C35.487094,16.889741 35.1655622,14.1733904 33.521322,12.2630331 C33.0238142,11.6870993 32.4065502,11.2089211 31.6845478,10.8194689" id="Fill-8" fill="#298FC2"></path>
                <path d="M29.9059188,10.0963127 C29.6459979,10.0189719 29.3779906,9.94909034 29.1030521,9.88588288 C28.8265733,9.82424579 28.5435483,9.76967537 28.2520519,9.72177903 C27.2320068,9.55374925 26.1141545,9.47405288 24.9169782,9.47405288 L14.8100992,9.47405288 C14.5609602,9.47405288 14.3245285,9.53137145 14.1131262,9.63501599 C13.6468089,9.86350508 13.3006328,10.3134166 13.2166879,10.8642245 L11.0664684,24.7486665 L11.0048575,25.1534298 C11.1461775,24.2394734 11.9120777,23.5669617 12.8208381,23.5669617 L16.6041309,23.5669617 C24.0344024,23.5669617 29.8523944,20.4902108 31.5528545,11.5901288 C31.6036835,11.326699 31.646426,11.0703358 31.6845478,10.8194689 C31.2544269,10.5866613 30.7884946,10.3876167 30.286751,10.2180165 C30.1627592,10.1760091 30.0349166,10.135572 29.9059188,10.0963127" id="Fill-9" fill="#22284F"></path>
                <path d="M13.2166879,10.8642245 C13.3006328,10.3134166 13.6468089,9.86350508 14.1131262,9.63658636 C14.3260688,9.53254923 14.5609602,9.47523066 14.8100992,9.47523066 L24.9169782,9.47523066 C26.1141545,9.47523066 27.2320068,9.55531962 28.2520519,9.7233494 C28.5435483,9.77085315 28.8265733,9.82581616 29.1030521,9.88745325 C29.3779906,9.95026812 29.6459979,10.0205423 29.9059188,10.0974905 C30.0349166,10.1367498 30.1627592,10.1775794 30.2879062,10.2180165 C30.7896498,10.3876167 31.2559671,10.5882317 31.686088,10.8194689 C32.1920674,7.52993263 31.6818523,5.2901899 29.9374944,3.26205476 C28.0140799,1.0289861 24.5430772,0.0734148802 20.1013182,0.0734148802 L7.20616199,0.0734148802 C6.29894185,0.0734148802 5.52495523,0.74592659 5.38479049,1.66145333 L0.0138624469,36.3717731 C-0.0920312448,37.0584182 0.427425447,37.6779299 1.10668535,37.6779299 L9.06758056,37.6779299 L13.2166879,10.8642245" id="Fill-11" fill="#28356A"></path>
            </g>
        </g>
    </g>
</svg>