<?xml version="1.0" encoding="UTF-8"?>
<svg width="167px" height="59px" viewBox="0 0 167 59" version="1.1" xmlns="http://www.w3.org/2000/svg" xmlns:xlink="http://www.w3.org/1999/xlink">
    <title>qiwi</title>
    <g id="Page-1" stroke="none" stroke-width="1" fill="none" fill-rule="evenodd">
        <g id="1372" transform="translate(-386.000000, -8012.000000)" fill-rule="nonzero">
            <g id="qiwi" transform="translate(386.000000, 8012.000000)">
                <g id="Group" transform="translate(55.000000, 4.000000)" fill="#1C2F76">
                    <polyline id="Path" points="24.5142867 22.5754067 30.0254701 22.5754067 33.4721175 0.93623923 27.9620479 0.93623923 24.5142867 22.5754067"></polyline>
                    <path d="M19.8873874,0.95825837 L14.4928649,15.7037416 L13.9156858,12.7077273 L11.9867438,2.76269856 C11.6492903,1.39243062 10.6809213,0.98648804 9.4881402,0.93623923 L0.5982456,0.93623923 L0.5266899,1.3856555 C2.6861694,1.94403828 4.6159467,2.75084211 6.3087827,3.75327751 L11.2168933,22.557622 L17.0463187,22.5533876 L25.7315694,0.95825837 L19.8873874,0.95825837" id="Path"></path>
                    <path d="M44.5910984,9.6216603 C42.663827,8.6180957 41.4802339,7.9544163 41.4919279,6.9423828 C41.4969396,6.0418565 42.4925944,5.07414354 44.6548582,5.07414354 C46.456281,5.04619617 47.757648,5.465689 48.773071,5.9117177 L49.273405,6.1550574 L50.017362,1.46723923 C48.929269,1.02826794 47.213602,0.55824402 45.078067,0.55824402 C39.6284162,0.55824402 35.79392,3.49638756 35.7602303,7.7009139 C35.7284897,10.8149282 38.4952184,12.5518995 40.5853697,13.579177 C42.7359396,14.6380718 43.4545596,15.3155837 43.4478773,16.265512 C43.4328422,17.7173636 41.735273,18.3796316 40.1540863,18.3796316 C37.9428193,18.3796316 36.7728692,18.0527321 34.9611449,17.2388708 L34.2478151,16.8970096 L33.4754587,21.7491244 C34.7631834,22.3439234 37.1454045,22.8740766 39.6200634,22.896378 C45.410509,22.896378 49.169273,19.9932392 49.218276,15.4993589 C49.238323,13.0363206 47.769342,11.170622 44.5910984,9.6216603" id="Path"></path>
                    <path d="M57.357253,14.9071005 C57.815544,13.6610431 59.554877,8.851555 59.554877,8.851555 C59.521188,8.9111196 60.008156,7.6012632 60.285191,6.7910718 L60.654664,8.6573349 C60.654664,8.6573349 61.714078,13.8194115 61.928746,14.9071005 L57.357253,14.9071005 L57.357253,14.9071005 Z M64.153377,0.95825837 L59.899013,0.95825837 C58.577877,0.95825837 57.583893,1.34302871 57.008106,2.75253589 L48.826808,22.5855694 L54.612242,22.5855694 C54.612242,22.5855694 55.559172,19.9175837 55.769106,19.333512 C56.403641,19.333512 62.026195,19.3360526 62.830292,19.3360526 C62.994842,20.0971244 63.505199,22.5855694 63.505199,22.5855694 L68.617397,22.5855694 L64.153377,0.95825837 L64.153377,0.95825837 Z" id="Shape"></path>
                </g>
                <g id="Group" fill="#FF8C00">
                    <path d="M44.705069,37.1220096 C44.1983319,36.9718278 43.8202281,37.0833349 43.6334036,37.4299952 C43.3502434,37.9539378 43.559342,38.9899665 44.1298389,39.8927512 C44.7081317,40.8076746 45.19872,41.271488 45.589353,41.271488 C45.7241117,41.271488 45.8443921,41.2138995 45.9373867,41.1057799 C46.1548382,40.8531244 46.2266724,40.3238182 46.1356267,39.6539282 C46.0437458,38.9696411 45.6291681,37.5612632 44.705069,37.1220096 Z M38.9973162,41.3928756 C38.4799989,41.3928756 38.0487155,41.5755215 37.7828178,41.9077847 C37.1028991,42.7572153 37.4083335,44.2539522 38.4496503,45.1764976 C38.9040431,45.5787703 39.5591818,45.8192871 40.2017912,45.8192871 C40.856373,45.8192871 41.4020899,45.5705837 41.7389865,45.1189091 C42.3448436,44.2957321 41.9965315,43.129 40.8510829,42.14689 C40.2842056,41.6604928 39.6257258,41.3928756 38.9973162,41.3928756 Z M55.9632634,58.0125263 C50.7998353,51.5245024 46.3759092,49.7426459 42.2905503,48.6366077 C41.7155987,48.4810622 41.1473292,48.3385024 40.5846283,48.198201 C40.511402,48.180134 40.4381757,48.1617847 40.3652279,48.1434354 C36.928047,47.2880766 33.694953,46.4561483 30.4100717,43.0759282 C30.3646881,43.0293493 30.3195829,42.9838995 30.2741993,42.9361914 C29.3768292,41.9938852 28.4752827,40.8573589 27.5642697,39.4769282 C27.3195324,39.1059904 27.0742382,38.7209378 26.8281088,38.3135837 C26.1309276,37.1604019 26.1871699,40.0180909 26.4527892,43.4575933 C26.457244,43.5137703 26.4616989,43.5702297 26.4661537,43.6269713 C26.2475885,43.6337464 26.0287449,43.6405215 25.8068387,43.6405215 C21.1866216,43.6405215 17.323169,42.000378 13.9951315,38.6263684 C10.6676508,35.2532057 9.04999011,31.2420526 9.04999011,26.3639665 C9.04999011,21.4751531 10.6233809,17.4467799 13.859816,14.0490574 C17.079267,10.6682727 20.9872679,9.02445933 25.8068387,9.02445933 C30.5136465,9.02445933 34.4294434,10.6660144 37.7791982,14.042 C41.1253335,17.4157273 42.7519038,21.4779761 42.7519038,26.4602297 C42.7519038,27.1004785 42.724618,27.7240718 42.6714384,28.3332679 C42.6154746,28.3293158 42.5597892,28.3259282 42.5041038,28.3225407 C39.6410393,28.138201 37.1505101,28.1777225 36.9781638,28.3507703 C36.5610802,28.7702632 37.7109836,28.7095694 38.2269088,28.8504354 C39.0680366,29.0807895 39.8498596,29.3594163 40.5748834,29.6840574 C41.1431528,29.9378421 41.6755052,30.2207033 42.1738894,30.531512 C42.2242847,30.5628469 42.2755153,30.5938995 42.3256321,30.6260813 C45.3677252,32.5843732 47.0936939,35.6168038 47.65194,39.6096077 C47.6742142,39.7691053 47.7691578,39.986756 47.9406688,39.7010718 C49.5357769,36.9865072 50.3919398,34.8715407 50.8527364,33.3779091 L50.8738969,33.3903301 C50.9499074,33.1088804 51.0214631,32.8263014 51.0882856,32.5420287 C51.1779391,32.1877464 51.2416989,31.8831483 51.2856903,31.6321866 C51.6275987,29.902555 51.8018939,28.1232392 51.8018939,26.3007321 C51.8018939,21.5821435 50.6369555,17.1475455 48.339933,13.1211483 C46.0384557,9.09023445 42.8345966,5.88757895 38.8166171,3.60154067 C34.810053,1.32227751 30.3696998,0.166837321 25.6189004,0.166837321 C21.0696822,0.166837321 16.7604681,1.33667464 12.8104247,3.64332057 C8.85982449,5.95194258 5.70190584,9.17605263 3.42493011,13.226445 C1.15240921,17.2700622 0,21.7117177 0,26.4277656 C0,31.1477656 1.15380135,35.5705072 3.42910652,39.5729091 C5.70942337,43.5846268 8.90353753,46.7776842 12.9223524,49.0631579 C16.9269674,51.3421388 21.3141411,52.4975789 25.9633146,52.4975789 C26.9508951,52.4975789 27.9245542,52.4419665 28.8854056,52.3369522 C29.1295861,52.3186029 29.3732097,52.2999713 29.6154411,52.2804928 C30.1706245,52.2356077 30.7196825,52.1873349 31.2640072,52.1384976 C33.9886935,51.894311 36.5956052,51.6393971 39.2178303,51.750622 C44.1590737,51.9603684 49.1548888,53.4709378 55.0948497,58.8057799 C55.6898481,59.3401675 56.4875413,58.6714067 55.9632634,58.0125263 Z" id="Shape"></path>
                    <path d="M64.3854007,41.9800526 C65.7521987,41.9800526 66.5688249,40.7788804 66.5688249,38.8242584 C66.5688249,36.8250335 65.7521987,35.6687464 64.3854007,35.6687464 C63.048116,35.6687464 62.1872198,36.8250335 62.1872198,38.8242584 C62.1872198,40.7788804 63.048116,41.9800526 64.3854007,41.9800526 L64.3854007,41.9800526 Z M68.1875993,46.3477464 C68.1029575,46.4186029 68.0055081,46.4075933 67.9336739,46.3217751 L67.2584885,45.4079809 C66.6387101,44.5647608 65.8496481,44.0351722 64.3854007,44.0351722 C61.6242404,44.0351722 59.89326,42.0209856 59.89326,38.8242584 C59.89326,35.6125694 61.6242404,33.5983828 64.3854007,33.5983828 C67.1462825,33.5983828 68.8644553,35.6125694 68.8644553,38.8242584 C68.8644553,40.4505694 68.2998054,42.1068038 67.3562164,42.6773254 C67.1869328,42.7781053 67.1869328,42.8229904 67.3562164,42.8788852 C68.1728427,43.1772727 68.5534524,43.5352249 68.989469,44.1060287 L69.6242825,44.97889 C69.6941676,45.0647081 69.6810816,45.165488 69.5964398,45.2363445 L68.1875993,46.3477464 L68.1875993,46.3477464 Z" id="Shape"></path>
                    <path d="M72.9205793,43.6918995 C72.9205793,43.8076411 72.8506942,43.8784976 72.7365391,43.8784976 L70.8215184,43.8784976 C70.7093124,43.8784976 70.6394272,43.8076411 70.6394272,43.6918995 L70.6394272,33.9416555 C70.6394272,33.8259139 70.7093124,33.7550574 70.8215184,33.7550574 L72.7365391,33.7550574 C72.8506942,33.7550574 72.9205793,33.8259139 72.9205793,33.9416555 L72.9205793,43.6918995" id="Path"></path>
                    <path d="M86.1737029,40.8088038 C85.920056,41.7934545 85.7065025,42.7371722 85.5227407,43.7068612 C85.5116036,43.8226029 85.4380989,43.8784976 85.3275634,43.8784976 L82.7487728,43.8784976 C82.6385157,43.8784976 82.5683521,43.8226029 82.5538739,43.7068612 C82.399347,42.8788852 82.240922,42.1217656 82.0460231,41.3383923 L81.608336,39.4808804 C81.5236942,39.1076842 81.4114881,38.5109091 81.3268463,38.011244 C81.299282,37.8096842 81.1299984,37.8096842 81.1024342,38.011244 C81.0177924,38.5109091 80.9055863,39.0966746 80.8209445,39.4808804 L80.3832573,41.3383923 C80.2011661,42.1217656 80.0466391,42.8788852 79.8773555,43.7068612 C79.8625989,43.8226029 79.7927137,43.8784976 79.6805076,43.8784976 L77.1017171,43.8784976 C76.989511,43.8784976 76.9193474,43.8226029 76.9048692,43.7068612 C76.722778,42.7371722 76.5111735,41.7934545 76.2572481,40.8088038 L74.5245971,33.9529474 C74.4822762,33.8408756 74.5538319,33.7550574 74.6807946,33.7550574 L76.6233796,33.7550574 C76.7355856,33.7550574 76.8071413,33.8109522 76.834984,33.9117321 L77.7933297,37.7687512 C78.03222,38.7384402 78.2290679,39.9805455 78.3137097,40.9093014 C78.3267957,41.0958995 78.5381218,41.1071914 78.5676351,40.9093014 C78.6945978,39.9955072 78.9190099,38.7384402 79.1874135,37.7687512 L80.2139737,33.9117321 C80.243487,33.8109522 80.3133721,33.7550574 80.4124921,33.7550574 L82.0165099,33.7550574 C82.1159083,33.7550574 82.1857935,33.8109522 82.2153067,33.9117321 L83.2563452,37.7687512 C83.5250272,38.7384402 83.7494393,39.9955072 83.8780726,40.9093014 C83.8892097,41.1071914 84.1024847,41.0958995 84.1172413,40.9093014 C84.1871265,39.9805455 84.396782,38.7384402 84.6359508,37.7687512 L85.5962454,33.9117321 C85.6218607,33.8109522 85.6920243,33.7550574 85.8059009,33.7550574 L87.7484858,33.7550574 C87.8771191,33.7550574 87.9470043,33.8408756 87.9030128,33.9529474 L86.1737029,40.8088038" id="Path"></path>
                    <path d="M91.7915238,43.6918995 C91.7915238,43.8076411 91.7216387,43.8784976 91.6074836,43.8784976 L89.6946903,43.8784976 C89.5805353,43.8784976 89.5106501,43.8076411 89.5106501,43.6918995 L89.5106501,33.9416555 C89.5106501,33.8259139 89.5805353,33.7550574 89.6946903,33.7550574 L91.6074836,33.7550574 C91.7216387,33.7550574 91.7915238,33.8259139 91.7915238,33.9416555 L91.7915238,43.6918995" id="Path"></path>
                    <path d="M103.564251,36.8659665 C103.126286,37.7388278 102.563585,38.2534545 101.805707,38.5521244 C101.731923,38.5817656 101.706308,38.6825455 101.805707,38.7234785 C102.622333,39.0966746 103.210927,39.6821579 103.648615,40.5513493 L105.282146,43.6659282 C105.352031,43.7926794 105.296902,43.8784976 105.142375,43.8784976 L103.041644,43.8784976 C102.946143,43.8784976 102.87236,43.8375646 102.831988,43.7517464 L101.691551,41.536 C101.084581,40.3797129 100.242061,39.6821579 99.436293,39.6821579 L99.1419957,39.6821579 L99.1419957,43.6918995 C99.1419957,43.8076411 99.0721106,43.8784976 98.9582339,43.8784976 L97.0451622,43.8784976 C96.9310072,43.8784976 96.861122,43.8076411 96.861122,43.6918995 L96.861122,33.9416555 C96.861122,33.8259139 96.9310072,33.7550574 97.0451622,33.7550574 L98.9582339,33.7550574 C99.0721106,33.7550574 99.1419957,33.8259139 99.1419957,33.9416555 L99.1419957,37.6679713 L99.4254344,37.6679713 C100.227304,37.6679713 101.04393,37.026311 101.592153,35.967134 L102.662705,33.8820909 C102.703355,33.7962727 102.77686,33.7550574 102.87236,33.7550574 L104.9291,33.7550574 C105.07249,33.7550574 105.127619,33.8408756 105.057733,33.9676268 L103.564251,36.8659665" id="Path"></path>
                    <path d="M108.339274,38.8092967 C108.339274,40.7639187 109.170935,41.9800526 110.535784,41.9800526 C111.904253,41.9800526 112.720879,40.7639187 112.720879,38.8092967 C112.720879,36.8100718 111.904253,35.6687464 110.535784,35.6687464 C109.170935,35.6687464 108.339274,36.8100718 108.339274,38.8092967 L108.339274,38.8092967 Z M115.016509,38.8092967 C115.016509,42.0096938 113.313371,44.0351722 110.535784,44.0351722 C107.74706,44.0351722 106.043643,42.0096938 106.043643,38.8092967 C106.043643,35.59789 107.74706,33.5983828 110.535784,33.5983828 C113.313371,33.5983828 115.016509,35.59789 115.016509,38.8092967 L115.016509,38.8092967 Z" id="Shape"></path>
                    <path d="M128.22759,43.6918995 C128.22759,43.8076411 128.157705,43.8784976 128.043829,43.8784976 L116.962714,43.8784976 C116.848837,43.8784976 116.778952,43.8076411 116.778952,43.6918995 L116.778952,33.9416555 C116.778952,33.8259139 116.848837,33.7550574 116.962714,33.7550574 L118.875785,33.7550574 C118.98994,33.7550574 119.059826,33.8259139 119.059826,33.9416555 L119.059826,41.864311 L121.370213,41.864311 L121.370213,33.9416555 C121.370213,33.8259139 121.440098,33.7550574 121.553974,33.7550574 L123.452289,33.7550574 C123.566444,33.7550574 123.63633,33.8259139 123.63633,33.9416555 L123.63633,41.864311 L125.946717,41.864311 L125.946717,33.9416555 C125.946717,33.8259139 126.016602,33.7550574 126.130757,33.7550574 L128.043829,33.7550574 C128.157705,33.7550574 128.22759,33.8259139 128.22759,33.9416555 L128.22759,43.6918995" id="Path"></path>
                    <path d="M136.001271,37.6679713 C136.115426,37.6679713 136.185311,37.7388278 136.185311,37.8545694 L136.185311,39.4955598 C136.185311,39.6076316 136.115426,39.6821579 136.001271,39.6821579 L132.550447,39.6821579 L132.550447,41.864311 L137.156465,41.864311 C137.266722,41.864311 137.340505,41.9351675 137.340505,42.0509091 L137.340505,43.6918995 C137.340505,43.8076411 137.266722,43.8784976 137.156465,43.8784976 L130.453336,43.8784976 C130.339459,43.8784976 130.269574,43.8076411 130.269574,43.6918995 L130.269574,33.9416555 C130.269574,33.8259139 130.339459,33.7550574 130.453336,33.7550574 L137.22635,33.7550574 C137.351364,33.7550574 137.41039,33.8408756 137.380877,33.9676268 L136.932053,35.6238612 C136.902539,35.7246411 136.832654,35.7805359 136.733256,35.7805359 L132.550447,35.7805359 L132.550447,37.6679713 L136.001271,37.6679713" id="Path"></path>
                    <path d="M147.450188,43.6918995 C147.450188,43.8076411 147.380303,43.8784976 147.266148,43.8784976 L145.367833,43.8784976 C145.253678,43.8784976 145.183793,43.8076411 145.183793,43.6918995 L145.183793,35.7805359 L142.564352,35.7805359 L142.564352,38.8092967 C142.564352,41.4352201 141.703734,43.0355598 139.816278,43.9343923 L139.33794,44.1658756 C139.224063,44.2217703 139.139422,44.1918469 139.09905,44.0800574 L138.407159,42.5206507 C138.366787,42.4088612 138.3963,42.3230431 138.506557,42.2784402 L138.999651,42.0359474 C139.886163,41.6218182 140.294615,40.607244 140.294615,38.8092967 L140.294615,33.9416555 C140.294615,33.8259139 140.36812,33.7550574 140.478377,33.7550574 L147.266148,33.7550574 C147.380303,33.7550574 147.450188,33.8259139 147.450188,33.9416555 L147.450188,43.6918995" id="Path"></path>
                    <path d="M155.238347,37.6679713 C155.348883,37.6679713 155.422387,37.7388278 155.422387,37.8545694 L155.422387,39.4955598 C155.422387,39.6076316 155.348883,39.6821579 155.238347,39.6821579 L151.787523,39.6821579 L151.787523,41.864311 L156.393541,41.864311 C156.503798,41.864311 156.577581,41.9351675 156.577581,42.0509091 L156.577581,43.6918995 C156.577581,43.8076411 156.503798,43.8784976 156.393541,43.8784976 L149.69069,43.8784976 C149.576535,43.8784976 149.50665,43.8076411 149.50665,43.6918995 L149.50665,33.9416555 C149.50665,33.8259139 149.576535,33.7550574 149.69069,33.7550574 L156.463426,33.7550574 C156.58844,33.7550574 156.647466,33.8408756 156.617953,33.9676268 L156.169129,35.6238612 C156.139615,35.7246411 156.06973,35.7805359 155.97061,35.7805359 L151.787523,35.7805359 L151.787523,37.6679713 L155.238347,37.6679713" id="Path"></path>
                    <path d="M165.053733,36.8659665 C164.616046,37.7388278 164.053067,38.2534545 163.295188,38.5521244 C163.221684,38.5817656 163.19579,38.6825455 163.295188,38.7234785 C164.112093,39.0966746 164.700688,39.6821579 165.138375,40.5513493 L166.771906,43.6659282 C166.841791,43.7926794 166.786662,43.8784976 166.632136,43.8784976 L164.531404,43.8784976 C164.435625,43.8784976 164.36212,43.8375646 164.321749,43.7517464 L163.181312,41.536 C162.574062,40.3797129 161.731821,39.6821579 160.926053,39.6821579 L160.631756,39.6821579 L160.631756,43.6918995 C160.631756,43.8076411 160.561871,43.8784976 160.447716,43.8784976 L158.534644,43.8784976 C158.420767,43.8784976 158.350882,43.8076411 158.350882,43.6918995 L158.350882,33.9416555 C158.350882,33.8259139 158.420767,33.7550574 158.534644,33.7550574 L160.447716,33.7550574 C160.561871,33.7550574 160.631756,33.8259139 160.631756,33.9416555 L160.631756,37.6679713 L160.914916,37.6679713 C161.717064,37.6679713 162.533691,37.026311 163.081913,35.967134 L164.152465,33.8820909 C164.192837,33.7962727 164.266342,33.7550574 164.36212,33.7550574 L166.418582,33.7550574 C166.56225,33.7550574 166.617379,33.8408756 166.547494,33.9676268 L165.053733,36.8659665" id="Path"></path>
                </g>
            </g>
        </g>
    </g>
</svg>