<?xml version="1.0" encoding="UTF-8"?>
<svg width="120px" height="41px" viewBox="0 0 120 41" version="1.1" xmlns="http://www.w3.org/2000/svg" xmlns:xlink="http://www.w3.org/1999/xlink">
    <title>Skrill</title>
    <g id="Page-1" stroke="none" stroke-width="1" fill="none" fill-rule="evenodd">
        <g id="1372" transform="translate(-728.000000, -8198.000000)" fill="#712560">
            <g id="Skrill" transform="translate(728.000000, 8198.000000)">
                <path d="M85.7277715,9.97506098 C88.4301265,9.97506098 90.6205007,7.78905575 90.6205007,5.09289515 C90.6205007,2.39568485 88.4301265,0.20810506 85.7277715,0.20810506 C83.0285703,0.20810506 80.8392475,2.39568485 80.8392475,5.09289515 C80.8392475,7.78905575 83.0285703,9.97506098 85.7277715,9.97506098 Z M48.2559209,12.6108637 C48.0351489,13.1651066 46.4461157,17.6468109 42.6031051,22.291744 L42.6031051,2.43032503 L32.3634871,4.45152699 L32.3634871,40.4510706 L42.6031051,40.4510706 L42.6031051,29.3231755 C45.5688097,33.7644663 47.0332643,40.4510706 47.0332643,40.4510706 L59.298203,40.4510706 C58.085008,35.4156482 52.7780684,26.129456 52.7780684,26.129456 C57.5409626,20.0999654 59.6330406,13.6757868 59.9657757,12.6108637 L48.2559209,12.6108637 Z M75.1753931,12.2350702 C66.0038913,12.5295118 61.3482292,16.6380469 61.3482292,24.8052564 L61.3482292,40.4510706 L71.353934,40.4510706 L71.353934,27.6924628 C71.353934,22.8013745 71.9952242,20.7051188 77.8073113,20.5056754 L77.8073113,12.3788795 C76.8290809,12.1715632 75.1753931,12.2350702 75.1753931,12.2350702 Z M15.1905754,16.5750648 C13.9363798,16.4926631 11.0327017,16.3058161 11.0327017,13.6957311 C11.0327017,10.5460991 15.2131782,10.5460991 16.7811854,10.5460991 C19.5382078,10.5460991 23.1089329,11.3590936 25.6588501,12.1206527 C25.6588501,12.1206527 27.0812529,12.6213607 28.2918197,13.1346652 L28.4043083,13.1651066 L28.4043083,4.53865228 L28.2497679,4.49351508 C25.2404345,3.44223813 21.7411975,2.43032503 15.2536531,2.43032503 C4.06786914,2.43032503 0.104485168,8.93690531 0.104485168,14.5113499 C0.104485168,17.7244889 1.48378484,25.2865449 14.294346,26.1588476 C15.3803342,26.2255037 18.2624608,26.3908319 18.2624608,29.088567 C18.2624608,31.3155106 15.902828,32.6286883 11.9341876,32.6286883 C7.58497818,32.6286883 3.36612941,31.5212523 0.803596664,30.4710251 L0.803596664,39.3546564 C4.63977388,40.3586968 8.96427786,40.8609794 14.0325734,40.8609794 C24.9697259,40.8609794 29.8682373,34.7044748 29.8682373,28.6030797 C29.8682373,21.685016 24.3867826,17.1901904 15.1905754,16.5750648 Z M80.7677594,40.4510706 L90.6925144,40.4510706 L90.6925144,12.6423548 L80.7677594,12.6423548 L80.7677594,40.4510706 Z M109.380343,4.20327237 L109.380343,40.4510706 L119.306675,40.4510706 L119.306675,2.43032503 L109.380343,4.20327237 Z M94.896645,4.20327237 L104.813515,2.43032503 L104.813515,40.4510706 L94.896645,40.4510706 L94.896645,4.20327237 L94.896645,4.20327237 Z" id="Fill-1"></path>
            </g>
        </g>
    </g>
</svg>