<?xml version="1.0" encoding="UTF-8"?>
<svg width="120px" height="37px" viewBox="0 0 120 37" version="1.1" xmlns="http://www.w3.org/2000/svg" xmlns:xlink="http://www.w3.org/1999/xlink">
    <title>Visa</title>
    <g id="Page-1" stroke="none" stroke-width="1" fill="none" fill-rule="evenodd">
        <g id="1372" transform="translate(-1393.000000, -8203.000000)">
            <g id="Visa" transform="translate(1393.536725, 8203.703454)">
                <polyline id="Fill-2" fill="#004F8B" points="41.6621843 35.4402363 47.6368531 0.643240821 57.1921597 0.643240821 51.2134616 35.4402363 41.6621843 35.4402363"></polyline>
                <path d="M85.8694955,1.4997843 C83.9764314,0.794552393 81.0102505,0.0386611064 77.3053783,0.0386611064 C67.8642331,0.0386611064 61.2126545,4.75798237 61.1562453,11.5216763 C61.1031939,16.5216238 65.9046867,19.3112226 69.5289744,20.9756499 C73.2479489,22.680738 74.4990232,23.7685816 74.4808917,25.2916958 C74.4573879,27.6240271 71.5106815,28.6898738 68.7640933,28.6898738 C64.9396874,28.6898738 62.9082866,28.1626163 59.770192,26.8634698 L58.5385923,26.310216 L57.197532,34.0997624 C59.4297225,35.070956 63.5569918,35.912835 67.8414008,35.9561621 C77.8862582,35.9561621 84.4062154,31.290833 84.4807561,24.0678719 C84.5170191,20.1097744 81.970549,17.0968744 76.4585695,14.6138982 C73.1183422,13.0041297 71.0728391,11.9296176 71.0943283,10.299852 C71.0943283,8.85339336 72.8255518,7.3069491 76.5666871,7.3069491 C79.6913509,7.258956 81.9544321,7.9348588 83.7178895,8.6400907 L84.5740998,9.04136632 L85.8694955,1.4997843" id="Fill-3" fill="#004F8B"></path>
                <path d="M110.371883,0.676569361 L102.988329,0.676569361 C100.701072,0.676569361 98.989323,1.29581363 97.9847029,3.56215435 L83.7937732,35.451568 L93.827886,35.451568 C93.827886,35.451568 95.4684521,31.163518 95.8398123,30.22232 C96.936433,30.22232 106.683128,30.2369846 108.076568,30.2369846 C108.362643,31.4548094 109.239671,35.451568 109.239671,35.451568 L118.10598,35.451568 L110.371883,0.676569361 M98.5897582,23.104677 C99.3794863,21.0996321 102.396704,13.3774094 102.396704,13.3774094 C102.339623,13.4700627 103.18106,11.3630324 103.663224,10.0565536 L104.309243,13.0567888 C104.309243,13.0567888 106.139182,21.3629275 106.521287,23.104677 L98.5897582,23.104677" id="Fill-4" fill="#004F8B"></path>
                <path d="M33.6480562,0.668570512 L24.2928678,24.3978244 L23.2963062,19.5751847 C21.5550095,14.0159842 16.1289868,7.99351703 10.0623174,4.9786173 L18.6163616,35.4102406 L28.7263581,35.3989089 L43.7694688,0.668570512 L33.6480562,0.668570512" id="Fill-5" fill="#004F8B"></path>
                <path d="M15.6145891,0.647240246 L0.206833539,0.647240246 L0.0846137205,1.37113613 C12.072229,4.25138856 20.003758,11.2117208 23.2963062,19.5751847 L19.9460058,3.58481776 C19.3671405,1.3811347 17.6896399,0.723895888 15.6145891,0.647240246" id="Fill-6" fill="#ED9F2D"></path>
            </g>
        </g>
    </g>
</svg>