<?xml version="1.0" encoding="UTF-8"?>
<svg width="179px" height="43px" viewBox="0 0 179 43" version="1.1" xmlns="http://www.w3.org/2000/svg" xmlns:xlink="http://www.w3.org/1999/xlink">
    <title>Combined Shape</title>
    <g id="Page-1" stroke="none" stroke-width="1" fill="none" fill-rule="evenodd">
        <g id="1372" transform="translate(-1363.000000, -8020.000000)" fill="#0068A3">
            <path d="M1520.15711,8020 C1523.63617,8020 1526.93101,8020.77417 1529.86547,8022.14863 C1530.32645,8022.35756 1530.78609,8022.58742 1531.24707,8022.8412 L1529.2073,8024.58566 L1526.14273,8021.55775 L1520.97043,8025.9661 L1517.89825,8022.76216 L1508.26323,8031.06103 L1514.44022,8037.56589 L1512.01279,8039.606 L1518.09678,8046.12068 L1515.68366,8048.15609 L1524.37749,8057.40303 L1529.53817,8052.86309 L1534,8057.72816 C1533.11246,8058.38741 1532.14579,8059.00777 1531.08074,8059.58114 C1527.85431,8061.33927 1524.12532,8062.34586 1520.15711,8062.34586 C1507.95338,8062.34586 1498,8052.83361 1498,8041.17357 C1498,8029.51098 1507.95338,8020 1520.15711,8020 Z M1536.20887,8048.87218 L1540,8052.92374 L1535.79018,8056.57143 L1532,8052.52124 L1536.20887,8048.87218 Z M1473.83889,8037.32331 L1477.14194,8046.3017 L1477.29576,8046.3017 L1480.2387,8037.32331 L1483,8037.32331 L1478.32862,8049.52307 C1477.03788,8052.89072 1475.46326,8054.64662 1472.49703,8054.64662 L1472.49703,8052.64691 C1474.25194,8052.64691 1475.33455,8051.32816 1475.95482,8049.52307 L1471,8037.32331 L1473.83889,8037.32331 Z M1525.26187,8044.06015 L1530,8049.124 L1524.73858,8053.68421 L1520,8048.61907 L1525.26187,8044.06015 Z M1365.88561,8032.51128 L1368.77168,8045.43657 L1368.95215,8045.43657 L1372.30169,8032.51128 L1374.59487,8032.51128 L1378.17727,8045.43657 L1378.35683,8045.43657 L1380.98496,8032.51128 L1384,8032.51128 L1379.82516,8049.83459 L1377.04253,8049.83459 L1373.53896,8037.64216 L1373.3585,8037.64216 L1369.95655,8049.83459 L1367.17439,8049.83459 L1363,8032.51128 L1365.88561,8032.51128 Z M1400.66076,8031.54887 L1400.66076,8038.29956 C1401.42808,8037.92045 1402.73245,8037.42279 1404.11418,8037.42279 C1407.28573,8037.42279 1409,8039.45993 1409,8043.25062 C1409,8047.67889 1406.69847,8049.83459 1402.98898,8049.83459 C1401.63258,8049.83459 1399.5351,8049.43202 1398,8048.67296 L1398,8032.14121 L1400.66076,8031.54887 Z M1390.82086,8037.32331 C1394.0254,8037.32331 1396,8039.2577 1396,8043.14887 L1396,8044.03183 L1387.64127,8044.03183 C1387.64127,8046.89647 1388.89751,8048.16242 1391.53878,8048.16242 C1392.92336,8048.16242 1394.20499,8047.70891 1395.61542,8046.92096 L1395.61542,8048.73543 C1394.46168,8049.35701 1392.92336,8049.83459 1391.07664,8049.83459 C1386.76916,8049.83459 1385,8047.35125 1385,8043.57831 C1385,8039.94979 1386.9746,8037.32331 1390.82086,8037.32331 Z M1465.8199,8037.32331 C1469.02527,8037.32331 1471,8039.2577 1471,8043.14887 L1471,8044.03183 L1462.64174,8044.03183 C1462.64174,8046.89647 1463.89777,8048.16242 1466.53815,8048.16242 C1467.9225,8048.16242 1469.20438,8047.70891 1470.61322,8046.92096 L1470.61322,8048.73543 C1469.46012,8049.35701 1467.9225,8049.83459 1466.07564,8049.83459 C1461.76932,8049.83459 1460,8047.35125 1460,8043.57831 C1460,8039.94979 1461.97473,8037.32331 1465.8199,8037.32331 Z M1452.67801,8037.32331 C1455.82245,8037.32331 1457,8038.47158 1457,8040.9881 L1457,8049.83459 L1454.27617,8049.83459 L1454.27617,8041.55078 C1454.27617,8039.62028 1453.25566,8039.27801 1451.92015,8039.27801 C1450.87185,8039.27801 1449.53588,8039.71882 1448.72429,8040.1579 L1448.72429,8049.83459 L1446,8049.83459 L1446,8039.1315 C1447.17847,8038.47158 1449.66744,8037.32331 1452.67801,8037.32331 Z M1415.16542,8032.51128 L1421.02568,8046.16943 L1421.15709,8046.16943 L1426.75546,8032.51128 L1430,8032.51128 L1430,8049.83459 L1427.17467,8049.83459 L1427.17467,8037.27616 L1426.93869,8037.27616 L1421.6013,8049.83459 L1419.92766,8049.83459 L1414.5898,8037.56956 L1414.35475,8037.56956 L1414.35475,8049.83459 L1412,8049.83459 L1412,8032.51128 L1415.16542,8032.51128 Z M1437.99953,8037.32331 C1441.47332,8037.32331 1444,8039.40001 1444,8043.57831 C1444,8047.66161 1441.60503,8049.83459 1437.99953,8049.83459 C1434.39404,8049.83459 1432,8047.66161 1432,8043.57831 C1432,8039.40001 1434.52622,8037.32331 1437.99953,8037.32331 Z M1533.2105,8041.17293 L1537,8045.22493 L1532.79093,8048.87218 L1529,8044.8211 L1533.2105,8041.17293 Z M1403.42377,8039.27059 C1402.39991,8039.27059 1401.65882,8039.53115 1400.63542,8040.05227 L1400.63542,8047.79702 C1401.45342,8048.1288 1402.34924,8048.17571 1402.98898,8048.17571 C1404.88196,8048.17571 1406.31436,8047.08656 1406.31436,8043.25062 C1406.31436,8040.24161 1405.13758,8039.27059 1403.42377,8039.27059 Z M1437.99953,8038.99505 C1436.26264,8038.99505 1434.76264,8040.35559 1434.76264,8043.57831 C1434.76264,8046.85044 1436.13186,8048.16242 1437.99953,8048.16242 C1439.86767,8048.16242 1441.23643,8046.85044 1441.23643,8043.57831 C1441.23643,8040.35559 1439.78855,8038.99505 1437.99953,8038.99505 Z M1521.26189,8035.3985 L1526,8040.46386 L1520.73856,8045.02256 L1516,8039.95891 L1521.26189,8035.3985 Z M1539.63106,8039.24812 L1542,8041.78007 L1539.36894,8044.06015 L1537,8041.5282 L1539.63106,8039.24812 Z M1465.74282,8038.92327 C1464.17845,8038.92327 1462.97502,8040.04565 1462.69253,8042.43271 L1468.56321,8042.43271 C1468.4358,8039.9253 1467.12717,8038.92327 1465.74282,8038.92327 Z M1390.74376,8038.92327 C1389.17868,8038.92327 1387.97415,8040.04565 1387.69297,8042.43271 L1393.56372,8042.43271 C1393.43673,8039.9253 1392.12834,8038.92327 1390.74376,8038.92327 Z M1529.2096,8032.51128 L1533,8036.56284 L1528.79135,8040.21053 L1525,8036.16034 L1529.2096,8032.51128 Z M1536.6313,8032.51128 L1539,8035.04365 L1536.37004,8037.32331 L1534,8034.79136 L1536.6313,8032.51128 Z M1517.26259,8026.73684 L1522,8031.80137 L1516.73741,8036.3609 L1512,8031.29638 L1517.26259,8026.73684 Z M1526.20982,8024.81203 L1530,8028.86311 L1525.79018,8032.51128 L1522,8028.45883 L1526.20982,8024.81203 Z M1533.63106,8024.81203 L1536,8027.34441 L1533.36849,8029.62406 L1531,8027.09168 L1533.63106,8024.81203 Z" id="Combined-Shape"></path>
        </g>
    </g>
</svg>