<svg width="233" height="51" viewBox="0 0 233 51" fill="none" xmlns="http://www.w3.org/2000/svg">
<path d="M15.6626 36.9427L16.7757 39.7053L17.0532 39.5945C33.7264 32.938 45.5842 34.6731 59.2899 45.8262L59.9359 46.357L61.8445 44.0667L61.6143 43.8767C47.1122 31.9064 33.9696 29.7821 16.4717 36.6219L15.6626 36.9427Z" fill="#4169e1"/>
<path d="M0.7012 44.6785C0.691079 37.4999 3.42836 29.8964 8.83201 22.0739C14.2572 14.2213 21.5751 7.1191 30.5817 0.96365C31.092 0.615603 31.764 0.615603 32.2746 0.963823C41.2822 7.12058 48.6002 14.2225 54.0246 22.0739C59.5193 30.029 62.257 37.7576 62.1525 45.0433C62.1411 45.8245 61.5263 46.4578 60.7547 46.5072L60.6575 46.5104L60.6358 46.5103C59.8103 46.4984 59.1505 45.8226 59.1624 45.0007C59.2583 38.3523 56.7036 31.2063 51.5601 23.7605C46.5895 16.5651 39.944 10.0089 31.7909 4.25686L31.4284 4.00262L31.0658 4.25682C23.0901 9.88313 16.557 16.2797 11.6225 23.2921L11.2959 23.7605C6.1527 31.2059 3.5983 38.3519 3.69422 45.0007C3.70617 45.8226 3.04637 46.4984 2.2104 46.5103C1.40745 46.494 0.768905 45.9099 0.708582 45.1404L0.704083 45.0432L0.7012 44.6785Z" fill="#4169e1"/>
<path fill-rule="evenodd" clip-rule="evenodd" d="M50.268 50.7861L50.3311 50.79L50.3957 50.7913L50.4959 50.788C51.2244 50.7396 51.8211 50.1672 51.8844 49.4291C52.3261 44.2426 50.7453 38.6138 47.1952 32.7006C43.7112 26.8972 38.8412 21.532 32.7217 16.753C32.0728 16.2456 31.133 16.3586 30.6232 17.0052C30.1128 17.6515 30.2261 18.5871 30.8761 19.094C36.7074 23.6482 41.3344 28.7406 44.6281 34.2273C47.856 39.6042 49.2918 44.634 48.9047 49.1775C48.8352 49.9964 49.4455 50.7161 50.268 50.7861Z" fill="white"/>
<path d="M40.8647 9.81242C41.4243 9.21121 42.6288 9.11485 43.2396 9.66567C47.6824 13.6725 51.2471 18.0173 54.4409 22.5898C59.9672 30.5008 62.2616 38.1004 62.1553 45.3782C62.1434 46.1935 61.9022 46.8449 61.0739 46.8332C60.2457 46.8215 59.144 46.1935 59.1559 45.3782C59.2525 38.7662 57.287 32.3603 51.9027 24.2997C48.9221 19.8376 45.2358 15.7568 40.9574 11.8983C40.3466 11.3475 40.3051 10.4136 40.8647 9.81242Z" fill="white"/>
<path d="M40.4874 9.15259L41.6786 8.2876L44.022 10.3888L42.1444 11.6297C34.0473 16.9388 27.4515 23.0929 22.5391 29.9199C17.7878 36.5226 15.3316 42.8967 15.2265 48.8719L15.223 49.2034L14.9243 49.2025L14.9231 49.5002L12.2319 49.4921L12.2328 49.1945C12.2534 42.4841 14.9058 35.4164 20.1081 28.1864C25.1272 21.2121 31.8063 14.9268 39.9539 9.50496L40.4874 9.15259Z" fill="#4169e1"/>
<path d="M50.2631 50.7961L50.1467 50.7825L50.0307 50.7598L42.0523 48.8034C35.7953 47.3154 29.1839 47.2541 22.9026 48.6224L22.4322 48.7277L14.0627 50.6494C13.2578 50.8311 12.4562 50.3331 12.2712 49.5334C12.0925 48.7649 12.5479 47.9981 13.2966 47.774L13.3917 47.7489L21.7601 45.8269C28.4726 44.2861 35.5525 44.2769 42.2684 45.7972L42.7475 45.9083L50.726 47.8654C51.529 48.0566 52.0244 48.8596 51.8324 49.6584C51.6791 50.2981 51.1255 50.7533 50.4818 50.7972L50.3795 50.8007L50.2631 50.7961Z" fill="#4169e1"/>
<path fill-rule="evenodd" clip-rule="evenodd" d="M82.4085 22.7027L81.2062 25.8739H78L83.4105 12H86.8171L92.2275 25.8739H89.0213L87.819 22.7027H82.4085ZM83.4105 20.027H86.8171L85.1538 15.4685H85.0737L83.4105 20.027ZM103.65 25.8739V23.0991H97.137V12H94.1312V25.8739H103.65ZM108.86 20.8198V25.8739H105.854V12H116.174V14.7748H108.86V18.045H114.571V20.8198H108.86ZM120.182 25.8739L121.384 22.7027H126.794L127.997 25.8739H131.203L125.793 12H122.386L116.975 25.8739H120.182ZM122.386 20.027H125.793L124.129 15.4685H124.049L122.386 20.027ZM86.4163 45C88.4202 45 89.903 44.3063 90.925 43.6126C91.5061 43.1964 92.0071 42.7405 92.4279 42.2252L90.424 40.2432C90.1435 40.6198 89.8028 40.9369 89.4021 41.2342C88.7007 41.7297 87.7188 42.2252 86.4163 42.2252C83.9114 42.2252 81.9076 40.2432 81.9076 37.7658C81.9076 35.2883 83.9114 33.3063 86.4163 33.3063C87.6787 33.3063 88.6406 33.8018 89.3019 34.2973C89.6826 34.5946 90.0233 34.9117 90.3239 35.2883L92.3277 33.3063C91.9069 32.791 91.426 32.3351 90.8449 31.9189C89.863 31.2252 88.3601 30.5315 86.4163 30.5315C82.0879 30.5315 78.8016 33.8018 78.8016 37.7658C78.8016 41.7297 82.0879 45 86.4163 45ZM108.96 37.7658C108.96 41.7297 105.674 45 101.345 45C97.0168 45 93.7304 41.7297 93.7304 37.7658C93.7304 33.8018 97.0168 30.5315 101.345 30.5315C105.674 30.5315 108.96 33.8018 108.96 37.7658ZM101.345 42.2252C98.8403 42.2252 96.8365 40.2432 96.8365 37.7658C96.8365 35.2883 98.8403 33.3063 101.345 33.3063C103.85 33.3063 105.854 35.2883 105.854 37.7658C105.854 40.2432 103.85 42.2252 101.345 42.2252ZM114.671 40.1441V44.7027H111.665V30.8288H117.877C120.883 30.8288 122.787 32.7117 122.787 35.4865C122.787 37.0721 122.206 38.1027 121.584 38.7171C121.244 39.0739 120.843 39.3514 120.382 39.5495L123.288 44.7027H119.981L117.476 40.1441H114.671ZM117.777 37.3694H114.671V33.6036H117.777C118.899 33.6036 119.681 34.3766 119.681 35.4865C119.681 36.5964 118.899 37.3694 117.777 37.3694ZM128.798 40.1441V44.7027H125.793V30.8288H131.704C134.69 30.8288 136.714 32.791 136.714 35.4865C136.714 38.182 134.69 40.1441 131.704 40.1441H128.798ZM131.604 37.3694H128.798V33.6036H131.604C132.806 33.6036 133.608 34.3766 133.608 35.4865C133.608 36.5964 132.806 37.3694 131.604 37.3694ZM153.747 37.7658C153.747 41.7297 150.46 45 146.132 45C141.803 45 138.517 41.7297 138.517 37.7658C138.517 33.8018 141.803 30.5315 146.132 30.5315C150.46 30.5315 153.747 33.8018 153.747 37.7658ZM146.132 42.2252C143.627 42.2252 141.623 40.2432 141.623 37.7658C141.623 35.2883 143.627 33.3063 146.132 33.3063C148.637 33.3063 150.641 35.2883 150.641 37.7658C150.641 40.2432 148.637 42.2252 146.132 42.2252ZM159.458 40.1441V44.7027H156.452V30.8288H162.664C165.67 30.8288 167.573 32.7117 167.573 35.4865C167.573 37.0721 166.992 38.1027 166.371 38.7171C166.03 39.0739 165.63 39.3514 165.169 39.5495L168.074 44.7027H164.768L162.263 40.1441H159.458ZM162.564 37.3694H159.458V33.6036H162.564C163.686 33.6036 164.467 34.3766 164.467 35.4865C164.467 36.5964 163.686 37.3694 162.564 37.3694ZM173.284 41.5315L172.082 44.7027H168.876L174.286 30.8288H177.693L183.103 44.7027H179.897L178.695 41.5315H173.284ZM177.693 38.8559H174.286L175.95 34.2973H176.03L177.693 38.8559ZM190.618 33.6036V44.7027H187.612V33.6036H183.604V30.8288H194.626V33.6036H190.618ZM199.836 30.8288H196.83V44.7027H199.836V30.8288ZM217.771 37.7658C217.771 41.7297 214.484 45 210.156 45C205.827 45 202.541 41.7297 202.541 37.7658C202.541 33.8018 205.827 30.5315 210.156 30.5315C214.484 30.5315 217.771 33.8018 217.771 37.7658ZM210.156 42.2252C207.651 42.2252 205.647 40.2432 205.647 37.7658C205.647 35.2883 207.651 33.3063 210.156 33.3063C212.661 33.3063 214.665 35.2883 214.665 37.7658C214.665 40.2432 212.661 42.2252 210.156 42.2252ZM223.482 36.0811V44.7027H220.476V30.8288H223.181L229.994 39.4505V30.8288H233V44.7027H230.295L223.482 36.0811Z" fill="white"/>
</svg>
