<svg width="242" height="58" viewBox="0 0 242 58" fill="none" xmlns="http://www.w3.org/2000/svg">
<path d="M17.3452 41.2558L18.586 44.3499L18.8954 44.2258C37.4819 36.7705 50.7005 38.7137 65.9789 51.2052L66.6991 51.7997L68.8267 49.2346L68.5701 49.0218C52.4038 35.6151 37.753 33.2359 18.2471 40.8965L17.3452 41.2558Z" fill="#4169e1"/>
<path d="M67.8869 49.3227L66.6102 50.8614L66.3989 50.6875C51.0886 38.1712 37.7305 36.103 19.2157 43.3814L18.9569 43.484L18.2122 41.6274L17.9028 41.7506C37.2831 33.9772 51.7126 36.1053 67.6609 49.1369L67.8869 49.3227Z" fill="#4169e1"/>
<path d="M0.666535 49.9195C0.655253 41.8795 3.70665 33.3635 9.73039 24.6023C15.7781 15.8075 23.9358 7.85295 33.976 0.958839C34.5449 0.569027 35.2939 0.569027 35.8631 0.959032C45.9044 7.8546 54.0622 15.8087 60.1091 24.6023C66.2342 33.512 69.2861 42.1681 69.1697 50.328C69.1569 51.203 68.4716 51.9123 67.6114 51.9677L67.503 51.9711L67.4789 51.9711C66.5586 51.9578 65.8231 51.2009 65.8364 50.2804C65.9433 42.8341 63.0955 34.8307 57.3617 26.4913C51.8206 18.4325 44.4126 11.0896 35.3239 4.64724L34.9198 4.36248L34.5155 4.64719C25.6246 10.9487 18.3418 18.1128 12.8411 25.9667L12.4771 26.4913C6.74362 34.8302 3.89609 42.8337 4.00301 50.2803C4.01634 51.2009 3.28082 51.9578 2.34892 51.9711C1.45383 51.9528 0.74201 51.2986 0.674765 50.4368L0.669749 50.328L0.666535 49.9195Z" fill="#4169e1"/>
<path d="M35.4863 1.50916C35.1445 1.27497 34.6949 1.27497 34.3534 1.50898C24.3787 8.3581 16.2798 16.2553 10.28 24.9804C4.22752 33.7835 1.22174 42.3088 1.33667 50.3187C1.34464 50.8686 1.78379 51.2931 2.35121 51.3049C2.90338 51.2969 3.34474 50.8427 3.33674 50.2903C3.22766 42.6929 6.12153 34.5591 11.928 26.114C17.5158 17.9875 24.9797 10.5893 34.13 4.10395L34.92 3.54885L35.111 3.6823C44.5353 10.2689 52.203 17.8118 57.9114 26.114C63.7182 34.5596 66.6124 42.6933 66.5033 50.2903C66.4958 50.8102 66.8863 51.2431 67.3886 51.2989L67.484 51.3049H67.5034C68.0494 51.3049 68.4954 50.8656 68.5034 50.3188C68.6177 42.3088 65.6119 33.7835 59.56 24.9804C53.5611 16.2566 45.4621 8.35974 35.4863 1.50916Z" fill="#4169e1"/>
<path fill-rule="evenodd" clip-rule="evenodd" d="M55.9218 56.7602L55.9921 56.7646L56.0642 56.7661L56.1758 56.7624C56.988 56.7082 57.6531 56.067 57.7236 55.2404C58.216 49.4314 56.4539 43.1273 52.4963 36.5044C48.6126 30.0047 43.1837 23.9956 36.3619 18.6432C35.6386 18.0748 34.591 18.2014 34.0226 18.9256C33.4537 19.6495 33.58 20.6973 34.3046 21.2651C40.8051 26.3657 45.963 32.0693 49.6347 38.2144C53.233 44.2365 54.8335 49.8699 54.402 54.9586C54.3246 55.8758 55.0049 56.6818 55.9218 56.7602Z" fill="white"/>
<path d="M45.4392 10.8697C46.063 10.1964 47.4058 10.0885 48.0866 10.7054C53.0393 15.193 57.0131 20.0592 60.5734 25.1804C66.7338 34.0408 69.2915 42.5522 69.173 50.7034C69.1598 51.6166 68.8908 52.3462 67.9675 52.333C67.0442 52.3199 65.8162 51.6166 65.8294 50.7034C65.937 43.2979 63.7461 36.1234 57.7439 27.0955C54.4212 22.0979 50.3119 17.5275 45.5425 13.206C44.8617 12.589 44.8154 11.5431 45.4392 10.8697Z" fill="white"/>
<path d="M45.0184 10.1309L46.3463 9.16211L48.9586 11.5155L46.8656 12.9052C37.8393 18.8514 30.4865 25.744 25.0105 33.3903C19.7139 40.7853 16.9758 47.9243 16.8587 54.6165L16.8549 54.9879L16.5218 54.9868L16.5205 55.3202L13.5205 55.3112L13.5215 54.9778C13.5444 47.4622 16.5012 39.5464 22.3005 31.4487C27.8955 23.6375 35.3411 16.598 44.4237 10.5256L45.0184 10.1309Z" fill="#4169e1"/>
<path d="M46.3021 10.0195L45.3985 10.6786C36.0988 16.8056 28.5101 23.9249 22.8428 31.837C17.3199 39.5488 14.4185 47.0681 14.2015 54.2031L14.1914 54.6469L16.1914 54.6529L16.1923 54.6132C16.3077 47.8955 18.9961 40.767 24.1783 33.4111L24.4688 33.0022C29.8741 25.4547 37.0854 18.6407 45.9076 12.7412L47.8734 11.4355L46.3021 10.0195Z" fill="#4169e1"/>
<path d="M55.9163 56.7717L55.7865 56.7565L55.6573 56.731L46.7633 54.5398C39.7883 52.8733 32.4182 52.8046 25.4162 54.3371L24.8917 54.4551L15.5618 56.6074C14.6645 56.8108 13.771 56.2532 13.5647 55.3574C13.3655 54.4968 13.8732 53.638 14.7078 53.387L14.8138 53.3588L24.1425 51.2061C31.6253 49.4805 39.5176 49.4701 47.0042 51.1729L47.5383 51.2974L56.4324 53.4893C57.3275 53.7035 57.8798 54.6028 57.6657 55.4975C57.4948 56.2139 56.8777 56.7237 56.1602 56.7729L56.0461 56.7768L55.9163 56.7717Z" fill="#4169e1"/>
<path d="M90.5 26.1L92.16 21.5H92.24L93.9 26.1H90.5ZM85.1 32H88.3L89.5 28.8H94.9L96.1 32H99.3L93.9 18H90.5L85.1 32ZM101.195 32H110.695V29.2H104.195V18H101.195V32ZM112.894 32H115.894V26.9H121.594V24.1H115.894V20.8H123.194V18H112.894V32ZM128.195 26.1L129.855 21.5H129.935L131.595 26.1H128.195ZM122.795 32H125.995L127.195 28.8H132.595L133.795 32H136.995L131.595 18H128.195L122.795 32ZM97.5 46.5C97.22 46.88 96.88 47.2 96.48 47.5C95.78 48 94.8 48.5 93.5 48.5C91 48.5 89 46.5 89 44C89 41.5 91 39.5 93.5 39.5C94.76 39.5 95.72 40 96.38 40.5C96.76 40.8 97.1 41.12 97.4 41.5L99.4 39.5C98.98 38.98 98.5 38.52 97.92 38.1C96.94 37.4 95.44 36.7 93.5 36.7C89.18 36.7 85.9 40 85.9 44C85.9 48 89.18 51.3 93.5 51.3C95.5 51.3 96.98 50.6 98 49.9C98.58 49.48 99.08 49.02 99.5 48.5L97.5 46.5ZM103.512 44C103.512 41.5 105.512 39.5 108.012 39.5C110.512 39.5 112.512 41.5 112.512 44C112.512 46.5 110.512 48.5 108.012 48.5C105.512 48.5 103.512 46.5 103.512 44ZM100.412 44C100.412 48 103.692 51.3 108.012 51.3C112.332 51.3 115.612 48 115.612 44C115.612 40 112.332 36.7 108.012 36.7C103.692 36.7 100.412 40 100.412 44ZM118.304 51H121.304V46.4H124.104L126.604 51H129.904L127.004 45.8C127.464 45.6 127.864 45.32 128.204 44.96C128.824 44.34 129.404 43.3 129.404 41.7C129.404 38.9 127.504 37 124.504 37H118.304V51ZM121.304 43.6V39.8H124.404C125.524 39.8 126.304 40.58 126.304 41.7C126.304 42.82 125.524 43.6 124.404 43.6H121.304ZM132.405 51H135.405V46.4H138.305C141.285 46.4 143.305 44.42 143.305 41.7C143.305 38.98 141.285 37 138.305 37H132.405V51ZM135.405 43.6V39.8H138.205C139.405 39.8 140.205 40.58 140.205 41.7C140.205 42.82 139.405 43.6 138.205 43.6H135.405ZM148.199 44C148.199 41.5 150.199 39.5 152.699 39.5C155.199 39.5 157.199 41.5 157.199 44C157.199 46.5 155.199 48.5 152.699 48.5C150.199 48.5 148.199 46.5 148.199 44ZM145.099 44C145.099 48 148.379 51.3 152.699 51.3C157.019 51.3 160.299 48 160.299 44C160.299 40 157.019 36.7 152.699 36.7C148.379 36.7 145.099 40 145.099 44ZM162.991 51H165.991V46.4H168.791L171.291 51H174.591L171.691 45.8C172.151 45.6 172.551 45.32 172.891 44.96C173.511 44.34 174.091 43.3 174.091 41.7C174.091 38.9 172.191 37 169.191 37H162.991V51ZM165.991 43.6V39.8H169.091C170.211 39.8 170.991 40.58 170.991 41.7C170.991 42.82 170.211 43.6 169.091 43.6H165.991ZM180.793 45.1L182.453 40.5H182.533L184.193 45.1H180.793ZM175.393 51H178.593L179.793 47.8H185.193L186.393 51H189.593L184.193 37H180.793L175.393 51ZM192.896 51H195.896V39.8H199.896V37H188.896V39.8H192.896V51ZM202.093 51H205.093V37H202.093V51ZM210.895 44C210.895 41.5 212.895 39.5 215.395 39.5C217.895 39.5 219.895 41.5 219.895 44C219.895 46.5 217.895 48.5 215.395 48.5C212.895 48.5 210.895 46.5 210.895 44ZM207.795 44C207.795 48 211.075 51.3 215.395 51.3C219.715 51.3 222.995 48 222.995 44C222.995 40 219.715 36.7 215.395 36.7C211.075 36.7 207.795 40 207.795 44ZM225.687 51H228.687V42.3L235.487 51H238.187V37H235.187V45.7L228.387 37H225.687V51Z" fill="white"/>
</svg>
