<svg width="8" height="16" viewBox="0 0 8 16" fill="none" xmlns="http://www.w3.org/2000/svg">
<path d="M0.104542 1.53698C0.0376344 1.46189 0 1.35966 0 1.25302C0 1.14639 0.0376344 1.04416 0.104542 0.969068L0.853797 0.121197C0.917932 0.0438665 1.00748 0 1.10119 0C1.19491 0 1.28445 0.0438665 1.34859 0.121197L7.84449 7.47208C7.94394 7.58448 7.99988 7.73696 8 7.89602V8.10398C7.99988 8.26304 7.94394 8.41552 7.84449 8.52792L1.34859 15.8788C1.28445 15.9561 1.19491 16 1.10119 16C1.00748 16 0.917932 15.9561 0.853797 15.8788L0.104542 15.0309C0.0376344 14.9558 0 14.8536 0 14.747C0 14.6403 0.0376344 14.5381 0.104542 14.463L5.81585 8L0.104542 1.53698Z" fill="#2E2E3D"/>
</svg>
