<svg width="24" height="24" viewBox="0 0 24 24" fill="none" xmlns="http://www.w3.org/2000/svg">
<mask id="mask0" mask-type="alpha" maskUnits="userSpaceOnUse" x="0" y="0" width="24" height="24">
<rect width="24" height="24" fill="white"/>
</mask>
<g mask="url(#mask0)">
<path d="M8.10454 5.53698C8.03763 5.46189 8 5.35966 8 5.25302C8 5.14639 8.03763 5.04416 8.10454 4.96907L8.8538 4.1212C8.91793 4.04387 9.00748 4 9.10119 4C9.19491 4 9.28445 4.04387 9.34859 4.1212L15.8445 11.4721C15.9439 11.5845 15.9999 11.737 16 11.896V12.104C15.9999 12.263 15.9439 12.4155 15.8445 12.5279L9.34859 19.8788C9.28445 19.9561 9.19491 20 9.10119 20C9.00748 20 8.91793 19.9561 8.8538 19.8788L8.10454 19.0309C8.03763 18.9558 8 18.8536 8 18.747C8 18.6403 8.03763 18.5381 8.10454 18.463L13.8158 12L8.10454 5.53698Z" fill="#4169e1"/>
</g>
</svg>
