<svg width="907" height="334" viewBox="0 0 907 334" fill="none" xmlns="http://www.w3.org/2000/svg">
<path fill-rule="evenodd" clip-rule="evenodd" d="M560.281 88.7596C558.551 88.7596 557.149 87.3579 557.149 85.6293C557.149 83.9008 558.551 82.499 560.281 82.499C562.01 82.499 563.412 83.9008 563.412 85.6293C563.412 87.3579 562.01 88.7596 560.281 88.7596Z" fill="#E6E6E7"/>
<path fill-rule="evenodd" clip-rule="evenodd" d="M560.501 133.5C558.843 133.5 557.5 132.158 557.5 130.5C557.5 128.843 558.843 127.5 560.501 127.5C562.157 127.5 563.5 128.843 563.5 130.5C563.5 132.158 562.157 133.5 560.501 133.5Z" fill="#E6E6E7"/>
<path fill-rule="evenodd" clip-rule="evenodd" d="M560.501 176.5C558.843 176.5 557.5 175.157 557.5 173.5C557.5 171.843 558.843 170.5 560.501 170.5C562.157 170.5 563.5 171.843 563.5 173.5C563.5 175.157 562.157 176.5 560.501 176.5Z" fill="#E6E6E7"/>
<path fill-rule="evenodd" clip-rule="evenodd" d="M560.501 220.5C558.843 220.5 557.5 219.157 557.5 217.5C557.5 215.843 558.843 214.5 560.501 214.5C562.157 214.5 563.5 215.843 563.5 217.5C563.5 219.157 562.157 220.5 560.501 220.5Z" fill="#E6E6E7"/>
<path fill-rule="evenodd" clip-rule="evenodd" d="M560.501 264.5C558.843 264.5 557.5 263.158 557.5 261.5C557.5 259.843 558.843 258.5 560.501 258.5C562.157 258.5 563.5 259.843 563.5 261.5C563.5 263.158 562.157 264.5 560.501 264.5Z" fill="#E6E6E7"/>
<path fill-rule="evenodd" clip-rule="evenodd" d="M522.089 88.7596C520.36 88.7596 518.959 87.3579 518.959 85.6293C518.959 83.9008 520.36 82.499 522.089 82.499C523.819 82.499 525.221 83.9008 525.221 85.6293C525.221 87.3579 523.819 88.7596 522.089 88.7596Z" fill="#E6E6E7"/>
<path fill-rule="evenodd" clip-rule="evenodd" d="M521.499 133.5C519.843 133.5 518.5 132.158 518.5 130.5C518.5 128.843 519.843 127.5 521.499 127.5C523.157 127.5 524.5 128.843 524.5 130.5C524.5 132.158 523.157 133.5 521.499 133.5Z" fill="#E6E6E7"/>
<path fill-rule="evenodd" clip-rule="evenodd" d="M521.499 176.5C519.843 176.5 518.5 175.157 518.5 173.5C518.5 171.843 519.843 170.5 521.499 170.5C523.157 170.5 524.5 171.843 524.5 173.5C524.5 175.157 523.157 176.5 521.499 176.5Z" fill="#E6E6E7"/>
<path fill-rule="evenodd" clip-rule="evenodd" d="M521.499 220.5C519.843 220.5 518.5 219.157 518.5 217.5C518.5 215.843 519.843 214.5 521.499 214.5C523.157 214.5 524.5 215.843 524.5 217.5C524.5 219.157 523.157 220.5 521.499 220.5Z" fill="#E6E6E7"/>
<path fill-rule="evenodd" clip-rule="evenodd" d="M521.499 264.5C519.843 264.5 518.5 263.158 518.5 261.5C518.5 259.843 519.843 258.5 521.499 258.5C523.157 258.5 524.5 259.843 524.5 261.5C524.5 263.158 523.157 264.5 521.499 264.5Z" fill="#E6E6E7"/>
<path fill-rule="evenodd" clip-rule="evenodd" d="M482.898 88.7596C481.17 88.7596 479.768 87.3579 479.768 85.6293C479.768 83.9008 481.17 82.499 482.898 82.499C484.627 82.499 486.029 83.9008 486.029 85.6293C486.029 87.3579 484.627 88.7596 482.898 88.7596Z" fill="#E6E6E7"/>
<path fill-rule="evenodd" clip-rule="evenodd" d="M482.5 133.5C480.843 133.5 479.5 132.158 479.5 130.5C479.5 128.843 480.843 127.5 482.5 127.5C484.157 127.5 485.5 128.843 485.5 130.5C485.5 132.158 484.157 133.5 482.5 133.5Z" fill="#E6E6E7"/>
<path fill-rule="evenodd" clip-rule="evenodd" d="M482.5 176.5C480.843 176.5 479.5 175.157 479.5 173.5C479.5 171.843 480.843 170.5 482.5 170.5C484.157 170.5 485.5 171.843 485.5 173.5C485.5 175.157 484.157 176.5 482.5 176.5Z" fill="#E6E6E7"/>
<path fill-rule="evenodd" clip-rule="evenodd" d="M482.5 220.5C480.843 220.5 479.5 219.157 479.5 217.5C479.5 215.843 480.843 214.5 482.5 214.5C484.157 214.5 485.5 215.843 485.5 217.5C485.5 219.157 484.157 220.5 482.5 220.5Z" fill="#E6E6E7"/>
<path fill-rule="evenodd" clip-rule="evenodd" d="M482.5 264.5C480.843 264.5 479.5 263.158 479.5 261.5C479.5 259.843 480.843 258.5 482.5 258.5C484.157 258.5 485.5 259.843 485.5 261.5C485.5 263.158 484.157 264.5 482.5 264.5Z" fill="#E6E6E7"/>
<path fill-rule="evenodd" clip-rule="evenodd" d="M444.708 88.7596C442.98 88.7596 441.578 87.3579 441.578 85.6293C441.578 83.9008 442.98 82.499 444.708 82.499C446.437 82.499 447.838 83.9008 447.838 85.6293C447.838 87.3579 446.437 88.7596 444.708 88.7596Z" fill="#E6E6E7"/>
<path fill-rule="evenodd" clip-rule="evenodd" d="M444.5 133.5C442.843 133.5 441.5 132.158 441.5 130.5C441.5 128.843 442.843 127.5 444.5 127.5C446.157 127.5 447.5 128.843 447.5 130.5C447.5 132.158 446.157 133.5 444.5 133.5Z" fill="#E6E6E7"/>
<path fill-rule="evenodd" clip-rule="evenodd" d="M444.5 176.5C442.843 176.5 441.5 175.157 441.5 173.5C441.5 171.843 442.843 170.5 444.5 170.5C446.157 170.5 447.5 171.843 447.5 173.5C447.5 175.157 446.157 176.5 444.5 176.5Z" fill="#E6E6E7"/>
<path fill-rule="evenodd" clip-rule="evenodd" d="M444.5 220.5C442.843 220.5 441.5 219.157 441.5 217.5C441.5 215.843 442.843 214.5 444.5 214.5C446.157 214.5 447.5 215.843 447.5 217.5C447.5 219.157 446.157 220.5 444.5 220.5Z" fill="#E6E6E7"/>
<path fill-rule="evenodd" clip-rule="evenodd" d="M444.5 264.5C442.843 264.5 441.5 263.158 441.5 261.5C441.5 259.843 442.843 258.5 444.5 258.5C446.157 258.5 447.5 259.843 447.5 261.5C447.5 263.158 446.157 264.5 444.5 264.5Z" fill="#E6E6E7"/>
<path fill-rule="evenodd" clip-rule="evenodd" d="M405.455 88.7596C403.699 88.7596 402.275 87.3579 402.275 85.6293C402.275 83.9008 403.699 82.499 405.455 82.499C407.211 82.499 408.635 83.9008 408.635 85.6293C408.635 87.3579 407.211 88.7596 405.455 88.7596Z" fill="#E6E6E7"/>
<path fill-rule="evenodd" clip-rule="evenodd" d="M405.5 133.5C403.843 133.5 402.5 132.158 402.5 130.5C402.5 128.843 403.843 127.5 405.5 127.5C407.157 127.5 408.5 128.843 408.5 130.5C408.5 132.158 407.157 133.5 405.5 133.5Z" fill="#E6E6E7"/>
<path fill-rule="evenodd" clip-rule="evenodd" d="M405.5 176.5C403.843 176.5 402.5 175.157 402.5 173.5C402.5 171.843 403.843 170.5 405.5 170.5C407.157 170.5 408.5 171.843 408.5 173.5C408.5 175.157 407.157 176.5 405.5 176.5Z" fill="#E6E6E7"/>
<path fill-rule="evenodd" clip-rule="evenodd" d="M405.5 220.5C403.843 220.5 402.5 219.157 402.5 217.5C402.5 215.843 403.843 214.5 405.5 214.5C407.157 214.5 408.5 215.843 408.5 217.5C408.5 219.157 407.157 220.5 405.5 220.5Z" fill="#E6E6E7"/>
<path fill-rule="evenodd" clip-rule="evenodd" d="M405.5 264.5C403.843 264.5 402.5 263.158 402.5 261.5C402.5 259.843 403.843 258.5 405.5 258.5C407.157 258.5 408.5 259.843 408.5 261.5C408.5 263.158 407.157 264.5 405.5 264.5Z" fill="#E6E6E7"/>
<path fill-rule="evenodd" clip-rule="evenodd" d="M366.202 88.7596C364.474 88.7596 363.072 87.3579 363.072 85.6293C363.072 83.9008 364.474 82.499 366.202 82.499C367.931 82.499 369.333 83.9008 369.333 85.6293C369.333 87.3579 367.931 88.7596 366.202 88.7596Z" fill="#E6E6E7"/>
<path fill-rule="evenodd" clip-rule="evenodd" d="M366.5 133.5C364.843 133.5 363.5 132.158 363.5 130.5C363.5 128.843 364.843 127.5 366.5 127.5C368.157 127.5 369.5 128.843 369.5 130.5C369.5 132.158 368.157 133.5 366.5 133.5Z" fill="#E6E6E7"/>
<path fill-rule="evenodd" clip-rule="evenodd" d="M366.5 176.5C364.843 176.5 363.5 175.157 363.5 173.5C363.5 171.843 364.843 170.5 366.5 170.5C368.157 170.5 369.5 171.843 369.5 173.5C369.5 175.157 368.157 176.5 366.5 176.5Z" fill="#E6E6E7"/>
<path fill-rule="evenodd" clip-rule="evenodd" d="M366.5 220.5C364.843 220.5 363.5 219.157 363.5 217.5C363.5 215.843 364.843 214.5 366.5 214.5C368.157 214.5 369.5 215.843 369.5 217.5C369.5 219.157 368.157 220.5 366.5 220.5Z" fill="#E6E6E7"/>
<path fill-rule="evenodd" clip-rule="evenodd" d="M366.5 264.5C364.843 264.5 363.5 263.158 363.5 261.5C363.5 259.843 364.843 258.5 366.5 258.5C368.157 258.5 369.5 259.843 369.5 261.5C369.5 263.158 368.157 264.5 366.5 264.5Z" fill="#E6E6E7"/>
<path fill-rule="evenodd" clip-rule="evenodd" d="M328.012 88.7596C326.284 88.7596 324.882 87.3579 324.882 85.6293C324.882 83.9008 326.284 82.499 328.012 82.499C329.741 82.499 331.143 83.9008 331.143 85.6293C331.143 87.3579 329.741 88.7596 328.012 88.7596Z" fill="#E6E6E7"/>
<path fill-rule="evenodd" clip-rule="evenodd" d="M327.5 133.5C325.843 133.5 324.5 132.158 324.5 130.5C324.5 128.843 325.843 127.5 327.5 127.5C329.157 127.5 330.5 128.843 330.5 130.5C330.5 132.158 329.157 133.5 327.5 133.5Z" fill="#E6E6E7"/>
<path fill-rule="evenodd" clip-rule="evenodd" d="M327.5 176.5C325.843 176.5 324.5 175.157 324.5 173.5C324.5 171.843 325.843 170.5 327.5 170.5C329.157 170.5 330.5 171.843 330.5 173.5C330.5 175.157 329.157 176.5 327.5 176.5Z" fill="#E6E6E7"/>
<path fill-rule="evenodd" clip-rule="evenodd" d="M327.5 220.5C325.843 220.5 324.5 219.157 324.5 217.5C324.5 215.843 325.843 214.5 327.5 214.5C329.157 214.5 330.5 215.843 330.5 217.5C330.5 219.157 329.157 220.5 327.5 220.5Z" fill="#E6E6E7"/>
<path fill-rule="evenodd" clip-rule="evenodd" d="M327.5 264.5C325.843 264.5 324.5 263.158 324.5 261.5C324.5 259.843 325.843 258.5 327.5 258.5C329.157 258.5 330.5 259.843 330.5 261.5C330.5 263.158 329.157 264.5 327.5 264.5Z" fill="#E6E6E7"/>
<g opacity="0.135742" filter="url(#filter0_f)">
<rect x="136" y="136" width="635" height="62" rx="4" fill="black"/>
</g>
<rect x="137" y="80" width="634" height="112" rx="8" fill="white"/>
<g opacity="0.135742" filter="url(#filter1_df)">
<rect x="137" y="140" width="635" height="36" rx="4" fill="black"/>
</g>
<rect x="120" y="80" width="669" height="96" rx="8" fill="white"/>
<path d="M151.12 143H156.88V148.76H159.6V143H165.36V140.12H159.6V134.36H156.88V140.12H151.12V143ZM167.521 147.96C168.065 148.6 168.705 149.176 169.473 149.656C170.785 150.52 172.673 151.32 175.361 151.32C180.321 151.32 183.361 148.312 183.361 144.6C183.361 142.52 182.305 141.176 181.281 140.312C180.673 139.832 179.969 139.448 179.201 139.16C179.809 138.872 180.385 138.52 180.865 138.072C181.729 137.304 182.561 136.088 182.561 134.2C182.561 131 179.841 128.28 175.361 128.28C173.025 128.28 171.265 129.048 170.017 129.816C169.313 130.264 168.705 130.776 168.161 131.32L170.561 133.72C170.913 133.304 171.329 132.952 171.809 132.6C172.673 132.056 173.825 131.48 175.361 131.48C177.793 131.48 179.041 132.728 179.041 134.52C179.041 136.312 177.793 137.56 175.361 137.56H172.961V140.92H175.361C178.273 140.92 179.841 142.52 179.841 144.44C179.841 146.52 178.273 148.12 175.361 148.12C173.473 148.12 172.161 147.48 171.265 146.84C170.721 146.456 170.273 146.04 169.921 145.56L167.521 147.96ZM186.666 147.96C187.21 148.6 187.85 149.176 188.618 149.656C189.93 150.52 191.818 151.32 194.506 151.32C199.466 151.32 202.666 148.152 202.666 143.8C202.666 139.448 199.498 136.28 195.146 136.28C193.898 136.28 193.002 136.568 192.33 136.856C191.946 137.016 191.594 137.208 191.306 137.4L191.626 131.96H201.226V128.6H188.586L187.786 141.4L190.346 141.72C190.634 141.304 190.986 140.952 191.402 140.6C192.138 140.056 193.13 139.48 194.506 139.48C197.418 139.48 199.146 141.24 199.146 143.8C199.146 146.36 197.418 148.12 194.506 148.12C192.618 148.12 191.306 147.48 190.41 146.84C189.866 146.456 189.418 146.04 189.066 145.56L186.666 147.96ZM221.473 139.8C221.473 145.4 218.753 148.12 215.713 148.12C212.673 148.12 209.953 145.4 209.953 139.8C209.953 134.2 212.673 131.48 215.713 131.48C218.753 131.48 221.473 134.2 221.473 139.8ZM215.713 151.32C220.833 151.32 224.993 147.128 224.993 139.8C224.993 132.472 220.833 128.28 215.713 128.28C210.593 128.28 206.433 132.472 206.433 139.8C206.433 147.128 210.593 151.32 215.713 151.32ZM228.459 133.24C228.459 135.928 230.699 138.2 233.579 138.2C236.459 138.2 238.699 135.928 238.699 133.24C238.699 130.552 236.459 128.28 233.579 128.28C230.699 128.28 228.459 130.552 228.459 133.24ZM231.019 133.24C231.019 131.8 232.139 130.68 233.579 130.68C235.019 130.68 236.139 131.8 236.139 133.24C236.139 134.68 235.019 135.8 233.579 135.8C232.139 135.8 231.019 134.68 231.019 133.24ZM231.339 151H234.219L248.299 128.6H245.419L231.339 151ZM240.939 146.36C240.939 149.048 243.179 151.32 246.059 151.32C248.939 151.32 251.179 149.048 251.179 146.36C251.179 143.672 248.939 141.4 246.059 141.4C243.179 141.4 240.939 143.672 240.939 146.36ZM246.059 148.92C244.619 148.92 243.499 147.8 243.499 146.36C243.499 144.92 244.619 143.8 246.059 143.8C247.499 143.8 248.619 144.92 248.619 146.36C248.619 147.8 247.499 148.92 246.059 148.92Z" fill="#4169e1"/>
<path d="M154.6 108H156.36V98.48H161.88V108H163.64V96.8H154.6V108ZM166.446 111.36H168.046V106.88C168.206 107.12 168.414 107.328 168.67 107.52C169.102 107.84 169.742 108.16 170.686 108.16C172.606 108.16 174.286 106.48 174.286 104.16C174.286 101.84 172.606 100.16 170.686 100.16C169.742 100.16 169.102 100.48 168.67 100.8C168.414 100.992 168.206 101.2 168.046 101.44V100.32H166.446V111.36ZM170.366 106.64C169.086 106.64 168.046 105.616 168.046 104.16C168.046 102.704 169.086 101.68 170.366 101.68C171.646 101.68 172.686 102.704 172.686 104.16C172.686 105.616 171.646 106.64 170.366 106.64ZM176.131 108H177.571L181.571 102.88V108H183.171V100.32H181.731L177.731 105.44V100.32H176.131V108ZM191.824 96.24C191.6 96.352 191.344 96.448 191.056 96.56C190.56 96.736 189.856 96.944 189.024 97.12C186.928 97.504 185.184 99.28 185.184 103.12C185.184 106.4 186.944 108.16 189.184 108.16C191.28 108.16 193.024 106.4 193.024 104.24C193.024 102.08 191.264 100.32 189.344 100.32C188.528 100.32 187.936 100.624 187.504 100.928C187.264 101.104 187.04 101.312 186.864 101.52C187.104 99.84 188.048 98.88 189.584 98.56C190.592 98.352 191.344 98.112 191.856 97.92C192.16 97.808 192.416 97.696 192.624 97.6L191.824 96.24ZM189.184 106.64C187.984 106.64 186.944 105.6 186.944 104.24C186.944 102.88 187.984 101.84 189.184 101.84C190.384 101.84 191.424 102.88 191.424 104.24C191.424 105.6 190.384 106.64 189.184 106.64ZM202.157 108H203.757V100.32H202.157V108ZM196.477 106.56V104.16H198.077C198.973 104.16 199.437 104.64 199.437 105.36C199.437 106.08 198.973 106.56 198.077 106.56H196.477ZM194.877 108H198.077C199.933 108 201.037 106.88 201.037 105.36C201.037 103.84 199.933 102.72 198.077 102.72H196.477V100.32H194.877V108ZM204.894 108C204.974 108.032 205.054 108.064 205.166 108.08C205.358 108.128 205.582 108.16 205.854 108.16C207.374 108.16 208.494 107.04 208.494 102.56V101.84H211.214V108H212.814V100.32H206.894V102.56C206.894 106 206.334 106.56 205.454 106.56C205.326 106.56 205.198 106.544 205.086 106.528L204.894 106.48V108ZM216.739 106.56V104.16H218.499C219.395 104.16 219.859 104.64 219.859 105.36C219.859 106.08 219.395 106.56 218.499 106.56H216.739ZM215.139 108H218.499C220.355 108 221.459 106.88 221.459 105.36C221.459 103.84 220.355 102.72 218.499 102.72H216.739V100.32H215.139V108Z" fill="#2E2E3D"/>
<path d="M349.12 151H352.64V128.6H349.92C349.152 130.2 348 131.288 345.12 131.64V133.88H349.12V151ZM361.536 147.64C364.096 142.68 372.416 141.72 372.416 135.16C372.416 131.32 369.376 128.28 364.896 128.28C361.92 128.28 360.128 129.56 359.072 130.84C358.464 131.576 357.984 132.44 357.696 133.4L360.576 134.68C360.8 134.136 361.088 133.624 361.472 133.176C362.144 132.408 363.2 131.64 364.896 131.64C367.456 131.64 368.896 133.08 368.896 135.16C368.896 140.632 357.376 140.92 357.376 151H372.416V147.64H361.536Z" fill="#4169e1"/>
<path d="M357.32 104.8C357.08 105.136 356.776 105.424 356.424 105.68C355.832 106.128 354.952 106.56 353.8 106.56C351.48 106.56 349.64 104.72 349.64 102.4C349.64 100.08 351.48 98.24 353.8 98.24C354.952 98.24 355.816 98.656 356.392 99.088C356.728 99.328 357.016 99.616 357.24 99.92L358.36 98.8C358.04 98.4 357.656 98.048 357.224 97.728C356.456 97.168 355.336 96.64 353.8 96.64C350.44 96.64 347.88 99.2 347.88 102.4C347.88 105.6 350.44 108.16 353.8 108.16C355.336 108.16 356.472 107.6 357.256 107.04C357.72 106.704 358.104 106.336 358.44 105.92L357.32 104.8ZM361.817 108H363.417V101.84H366.057V100.32H359.177V101.84H361.817V108ZM367.585 111.36H369.185V106.88C369.345 107.12 369.553 107.328 369.809 107.52C370.241 107.84 370.881 108.16 371.825 108.16C373.745 108.16 375.425 106.48 375.425 104.16C375.425 101.84 373.745 100.16 371.825 100.16C370.881 100.16 370.241 100.48 369.809 100.8C369.553 100.992 369.345 101.2 369.185 101.44V100.32H367.585V111.36ZM371.505 106.64C370.225 106.64 369.185 105.616 369.185 104.16C369.185 102.704 370.225 101.68 371.505 101.68C372.785 101.68 373.825 102.704 373.825 104.16C373.825 105.616 372.785 106.64 371.505 106.64ZM381.75 108H383.35V103.12C383.35 101.44 382.07 100.16 380.15 100.16C379.126 100.16 378.39 100.512 377.878 100.88C377.574 101.088 377.318 101.328 377.11 101.6L378.15 102.64C378.31 102.448 378.486 102.272 378.694 102.128C379.062 101.872 379.526 101.6 380.15 101.6C381.11 101.6 381.75 102.224 381.75 103.04L378.95 103.52C377.59 103.76 376.71 104.64 376.71 105.92C376.71 107.12 377.734 108.16 379.27 108.16C380.102 108.16 380.71 107.84 381.142 107.52C381.382 107.328 381.59 107.12 381.75 106.88V108ZM381.75 104.56C381.75 105.84 380.79 106.8 379.59 106.8C378.774 106.8 378.31 106.32 378.31 105.76C378.31 105.264 378.694 104.864 379.51 104.72L381.75 104.32V104.56ZM385.674 108H387.274V104.8H391.034V108H392.634V100.32H391.034V103.36H387.274V100.32H385.674V108Z" fill="#2E2E3D"/>
<path d="M485.28 147.96C485.824 148.6 486.464 149.176 487.232 149.656C488.544 150.52 490.432 151.32 493.12 151.32C498.08 151.32 501.28 148.152 501.28 143.8C501.28 139.448 498.112 136.28 493.76 136.28C492.512 136.28 491.616 136.568 490.944 136.856C490.56 137.016 490.208 137.208 489.92 137.4L490.24 131.96H499.84V128.6H487.2L486.4 141.4L488.96 141.72C489.248 141.304 489.6 140.952 490.016 140.6C490.752 140.056 491.744 139.48 493.12 139.48C496.032 139.48 497.76 141.24 497.76 143.8C497.76 146.36 496.032 148.12 493.12 148.12C491.232 148.12 489.92 147.48 489.024 146.84C488.48 146.456 488.032 146.04 487.68 145.56L485.28 147.96ZM506.327 138.84C506.039 139.32 505.751 139.832 505.527 140.376C505.111 141.304 504.727 142.52 504.727 143.8C504.727 147.96 508.087 151.32 512.727 151.32C517.367 151.32 520.727 147.96 520.727 143.8C520.727 139.64 517.367 136.28 513.047 136.28C512.567 136.28 512.183 136.344 511.959 136.376L511.607 136.44L516.727 128.6H512.887L506.327 138.84ZM508.247 143.8C508.247 141.4 510.167 139.48 512.727 139.48C515.287 139.48 517.207 141.4 517.207 143.8C517.207 146.2 515.287 148.12 512.727 148.12C510.167 148.12 508.247 146.2 508.247 143.8ZM539.374 139.8C539.374 145.4 536.654 148.12 533.614 148.12C530.574 148.12 527.854 145.4 527.854 139.8C527.854 134.2 530.574 131.48 533.614 131.48C536.654 131.48 539.374 134.2 539.374 139.8ZM533.614 151.32C538.734 151.32 542.894 147.128 542.894 139.8C542.894 132.472 538.734 128.28 533.614 128.28C528.494 128.28 524.334 132.472 524.334 139.8C524.334 147.128 528.494 151.32 533.614 151.32Z" fill="#4169e1"/>
<path d="M497.32 104.8C497.08 105.136 496.776 105.424 496.424 105.68C495.832 106.128 494.952 106.56 493.8 106.56C491.48 106.56 489.64 104.72 489.64 102.4C489.64 100.08 491.48 98.24 493.8 98.24C494.952 98.24 495.816 98.656 496.392 99.088C496.728 99.328 497.016 99.616 497.24 99.92L498.36 98.8C498.04 98.4 497.656 98.048 497.224 97.728C496.456 97.168 495.336 96.64 493.8 96.64C490.44 96.64 487.88 99.2 487.88 102.4C487.88 105.6 490.44 108.16 493.8 108.16C495.336 108.16 496.472 107.6 497.256 107.04C497.72 106.704 498.104 106.336 498.44 105.92L497.32 104.8ZM499.497 104.16C499.497 106.4 501.257 108.16 503.497 108.16C505.737 108.16 507.497 106.4 507.497 104.16C507.497 101.92 505.737 100.16 503.497 100.16C501.257 100.16 499.497 101.92 499.497 104.16ZM503.497 106.64C502.137 106.64 501.097 105.616 501.097 104.16C501.097 102.704 502.137 101.68 503.497 101.68C504.857 101.68 505.897 102.704 505.897 104.16C505.897 105.616 504.857 106.64 503.497 106.64ZM511.034 108H512.634V101.84H515.274V100.32H508.394V101.84H511.034V108ZM516.801 111.36H518.401V106.88C518.561 107.12 518.769 107.328 519.025 107.52C519.457 107.84 520.097 108.16 521.041 108.16C522.961 108.16 524.641 106.48 524.641 104.16C524.641 101.84 522.961 100.16 521.041 100.16C520.097 100.16 519.457 100.48 519.025 100.8C518.769 100.992 518.561 101.2 518.401 101.44V100.32H516.801V111.36ZM520.721 106.64C519.441 106.64 518.401 105.616 518.401 104.16C518.401 102.704 519.441 101.68 520.721 101.68C522.001 101.68 523.041 102.704 523.041 104.16C523.041 105.616 522.001 106.64 520.721 106.64ZM526.007 111.12L526.343 111.248C526.551 111.312 526.839 111.36 527.207 111.36C528.487 111.36 529.367 110.496 530.007 108.88L533.367 100.32H531.607L529.447 106L527.287 100.32H525.527L528.647 108L528.327 108.8C528.071 109.44 527.607 109.84 526.967 109.84C526.663 109.84 526.455 109.792 526.279 109.728C526.167 109.68 526.087 109.648 526.007 109.6V111.12ZM533.458 109.92H535.058V108H540.418V109.92H542.018V106.48H540.898V100.32H535.298V102.56C535.298 103.92 534.978 104.896 534.658 105.536C534.466 105.904 534.258 106.224 534.018 106.48H533.458V109.92ZM535.698 106.48C535.906 106.224 536.114 105.904 536.29 105.536C536.594 104.896 536.898 103.92 536.898 102.56V101.84H539.298V106.48H535.698ZM543.545 108H545.145V104.8H548.905V108H550.505V100.32H548.905V103.36H545.145V100.32H543.545V108ZM552.84 108H554.28L558.28 102.88V108H559.88V100.32H558.44L554.44 105.44V100.32H552.84V108ZM562.213 108H563.813V105.92L565.093 104.56L567.493 108H569.333L566.133 103.44L569.093 100.32H567.093L563.813 103.84V100.32H562.213V108ZM569.902 104.16C569.902 106.4 571.662 108.16 573.902 108.16C576.142 108.16 577.902 106.4 577.902 104.16C577.902 101.92 576.142 100.16 573.902 100.16C571.662 100.16 569.902 101.92 569.902 104.16ZM573.902 106.64C572.542 106.64 571.502 105.616 571.502 104.16C571.502 102.704 572.542 101.68 573.902 101.68C575.262 101.68 576.302 102.704 576.302 104.16C576.302 105.616 575.262 106.64 573.902 106.64ZM579.755 108H583.515C585.179 108 586.235 106.96 586.235 105.76C586.235 105.04 585.915 104.608 585.595 104.304C585.403 104.144 585.195 104.016 584.955 103.92C585.131 103.84 585.291 103.728 585.435 103.584C585.675 103.344 585.915 102.96 585.915 102.4C585.915 101.296 584.955 100.32 583.355 100.32H579.755V108ZM581.355 106.56V104.64H583.435C584.155 104.64 584.555 105.04 584.555 105.6C584.555 106.16 584.155 106.56 583.435 106.56H581.355ZM581.355 103.36V101.76H583.275C583.915 101.76 584.235 102.064 584.235 102.56C584.235 103.056 583.915 103.36 583.275 103.36H581.355Z" fill="#2E2E3D"/>
<path d="M657.28 147.64C659.84 142.68 668.16 141.72 668.16 135.16C668.16 131.32 665.12 128.28 660.64 128.28C657.664 128.28 655.872 129.56 654.816 130.84C654.208 131.576 653.728 132.44 653.44 133.4L656.32 134.68C656.544 134.136 656.832 133.624 657.216 133.176C657.888 132.408 658.944 131.64 660.64 131.64C663.2 131.64 664.64 133.08 664.64 135.16C664.64 140.632 653.12 140.92 653.12 151H668.16V147.64H657.28ZM687.118 139.8C687.118 145.4 684.398 148.12 681.358 148.12C678.318 148.12 675.598 145.4 675.598 139.8C675.598 134.2 678.318 131.48 681.358 131.48C684.398 131.48 687.118 134.2 687.118 139.8ZM681.358 151.32C686.478 151.32 690.638 147.128 690.638 139.8C690.638 132.472 686.478 128.28 681.358 128.28C676.238 128.28 672.078 132.472 672.078 139.8C672.078 147.128 676.238 151.32 681.358 151.32ZM699.794 151C699.954 151.064 700.114 151.128 700.338 151.16C700.722 151.256 701.17 151.32 701.714 151.32C704.754 151.32 706.994 149.08 706.994 140.12V138.68H712.434V151H715.634V135.64H703.794V140.12C703.794 147 702.674 148.12 700.914 148.12C700.658 148.12 700.402 148.088 700.178 148.056L699.794 147.96V151ZM732.193 146.2C731.841 146.616 731.425 146.968 730.977 147.256C730.209 147.768 729.089 148.28 727.713 148.28C725.121 148.28 723.265 146.52 722.913 144.44H734.753L734.817 143.992C734.849 143.704 734.913 143.32 734.913 142.84C734.913 138.488 731.745 135.32 727.393 135.32C723.073 135.32 719.553 138.84 719.553 143.32C719.553 147.8 723.073 151.32 727.553 151.32C729.825 151.32 731.393 150.616 732.513 149.88C733.153 149.464 733.697 148.984 734.113 148.44L732.193 146.2ZM722.913 141.72C723.553 139.64 724.961 138.2 727.393 138.2C729.665 138.2 731.073 139.64 731.553 141.72H722.913ZM742.198 151H745.398V138.68H750.678V135.64H736.918V138.68H742.198V151Z" fill="#4169e1"/>
<path d="M656.6 108H658.36V103.12H663.88V108H665.64V96.8H663.88V101.52H658.36V96.8H656.6V108ZM672.926 108H674.526V103.12C674.526 101.44 673.246 100.16 671.326 100.16C670.302 100.16 669.566 100.512 669.054 100.88C668.75 101.088 668.494 101.328 668.286 101.6L669.326 102.64C669.486 102.448 669.662 102.272 669.87 102.128C670.238 101.872 670.702 101.6 671.326 101.6C672.286 101.6 672.926 102.224 672.926 103.04L670.126 103.52C668.766 103.76 667.886 104.64 667.886 105.92C667.886 107.12 668.91 108.16 670.446 108.16C671.278 108.16 671.886 107.84 672.318 107.52C672.558 107.328 672.766 107.12 672.926 106.88V108ZM672.926 104.56C672.926 105.84 671.966 106.8 670.766 106.8C669.95 106.8 669.486 106.32 669.486 105.76C669.486 105.264 669.87 104.864 670.686 104.72L672.926 104.32V104.56ZM680.301 111.36H681.901V106.88C682.061 107.12 682.269 107.328 682.525 107.52C682.957 107.84 683.597 108.16 684.541 108.16C686.461 108.16 688.141 106.48 688.141 104.16C688.141 101.84 686.461 100.16 684.541 100.16C683.597 100.16 682.957 100.48 682.525 100.8C682.269 100.992 682.061 101.2 681.901 101.44V100.32H680.301V111.36ZM684.221 106.64C682.941 106.64 681.901 105.616 681.901 104.16C681.901 102.704 682.941 101.68 684.221 101.68C685.501 101.68 686.541 102.704 686.541 104.16C686.541 105.616 685.501 106.64 684.221 106.64ZM697.267 108H698.867V100.32H697.267V108ZM691.587 106.56V104.16H693.187C694.083 104.16 694.547 104.64 694.547 105.36C694.547 106.08 694.083 106.56 693.187 106.56H691.587ZM689.987 108H693.187C695.043 108 696.147 106.88 696.147 105.36C696.147 103.84 695.043 102.72 693.187 102.72H691.587V100.32H689.987V108ZM701.203 108H702.803V104.8H706.563V108H708.163V100.32H706.563V103.36H702.803V100.32H701.203V108ZM710.498 108H712.098V105.92L713.378 104.56L715.778 108H717.618L714.418 103.44L717.378 100.32H715.378L712.098 103.84V100.32H710.498V108ZM724.508 105.6C724.332 105.808 724.124 105.984 723.9 106.128C723.516 106.384 722.956 106.64 722.268 106.64C720.972 106.64 720.044 105.76 719.868 104.72H725.788L725.82 104.496C725.836 104.352 725.868 104.16 725.868 103.92C725.868 101.744 724.284 100.16 722.108 100.16C719.948 100.16 718.188 101.92 718.188 104.16C718.188 106.4 719.948 108.16 722.188 108.16C723.324 108.16 724.108 107.808 724.668 107.44C724.988 107.232 725.26 106.992 725.468 106.72L724.508 105.6ZM719.868 103.36C720.188 102.32 720.892 101.6 722.108 101.6C723.244 101.6 723.948 102.32 724.188 103.36H719.868Z" fill="#2E2E3D"/>
<path opacity="0.409017" d="M454.5 103.5V157.5" stroke="#E0E0E0" stroke-linecap="square" stroke-dasharray="2"/>
<path opacity="0.409017" d="M287.5 103.5V157.5" stroke="#E0E0E0" stroke-linecap="square" stroke-dasharray="2"/>
<path opacity="0.409017" d="M622.5 103.5V157.5" stroke="#E0E0E0" stroke-linecap="square" stroke-dasharray="2"/>
<defs>
<filter id="filter0_f" x="0.085907" y="0.085907" width="906.828" height="333.828" filterUnits="userSpaceOnUse" color-interpolation-filters="sRGB">
<feFlood flood-opacity="0" result="BackgroundImageFix"/>
<feBlend mode="normal" in="SourceGraphic" in2="BackgroundImageFix" result="shape"/>
<feGaussianBlur stdDeviation="67.957" result="effect1_foregroundBlur"/>
</filter>
<filter id="filter1_df" x="87" y="101.944" width="735" height="144.056" filterUnits="userSpaceOnUse" color-interpolation-filters="sRGB">
<feFlood flood-opacity="0" result="BackgroundImageFix"/>
<feColorMatrix in="SourceAlpha" type="matrix" values="0 0 0 0 0 0 0 0 0 0 0 0 0 0 0 0 0 0 127 0"/>
<feOffset dy="20"/>
<feGaussianBlur stdDeviation="25"/>
<feColorMatrix type="matrix" values="0 0 0 0 0 0 0 0 0 0 0 0 0 0 0 0 0 0 0.1 0"/>
<feBlend mode="normal" in2="BackgroundImageFix" result="effect1_dropShadow"/>
<feBlend mode="normal" in="SourceGraphic" in2="effect1_dropShadow" result="shape"/>
<feGaussianBlur stdDeviation="19.028" result="effect2_foregroundBlur"/>
</filter>
</defs>
</svg>
