<?xml version="1.0" encoding="UTF-8"?>
<svg width="447px" height="435px" viewBox="0 0 447 435" version="1.1" xmlns="http://www.w3.org/2000/svg" xmlns:xlink="http://www.w3.org/1999/xlink">
    <title>Dots</title>
    <defs>
        <polygon id="path-1" points="220 78.24164 226.259838 78.24164 226.259838 84.91964 220 84.91964"></polygon>
        <polygon id="path-3" points="220 118.088594 226.259838 118.088594 226.259838 124.351187 220 124.351187"></polygon>
        <polygon id="path-5" points="220 156.278972 226.259838 156.278972 226.259838 162.541566 220 162.541566"></polygon>
        <polygon id="path-7" points="220 195.471319 226.259838 195.471319 226.259838 201.731944 220 201.731944"></polygon>
        <polygon id="path-9" points="220 233.6615 226.259838 233.6615 226.259838 239.922125 220 239.922125"></polygon>
        <polygon id="path-11" points="220 272.8654 226.259838 272.8654 226.259838 279.2254 220 279.2254"></polygon>
        <polygon id="path-13" points="220 312.167256 226.259838 312.167256 226.259838 318.427881 220 318.427881"></polygon>
        <polygon id="path-15" points="220 350.357634 226.259838 350.357634 226.259838 356.618259 220 356.618259"></polygon>
        <polygon id="path-17" points="220 389.548013 226.259838 389.548013 226.259838 395.810606 220 395.810606"></polygon>
        <polygon id="path-19" points="220 428.740162 226.259838 428.740162 226.259838 435 220 435"></polygon>
        <polygon id="path-21" points="264.7182 428.740162 270.978825 428.740162 270.978825 435 264.7182 435"></polygon>
    </defs>
    <g id="Page-1" stroke="none" stroke-width="1" fill="none" fill-rule="evenodd" opacity="0.529320126">
        <g id="1372" transform="translate(-737.000000, -10700.000000)">
            <g id="Dots" transform="translate(737.000000, 10700.000000)">
                <path d="M6.2598375,3.74171875 C6.2598375,5.47028125 4.8580875,6.87203125 3.129525,6.87203125 C1.4009625,6.87203125 -0.0007875,5.47028125 -0.0007875,3.74171875 C-0.0007875,2.01315625 1.4009625,0.61140625 3.129525,0.61140625 C4.8580875,0.61140625 6.2598375,2.01315625 6.2598375,3.74171875" id="Fill-1" fill="#C7C7C7" opacity="0.519740513"></path>
                <path d="M51,4 C51,5.65660377 49.6584906,7 48,7 C46.3433962,7 45,5.65660377 45,4 C45,2.34339623 46.3433962,1 48,1 C49.6584906,1 51,2.34339623 51,4" id="Fill-4" fill="#C7C7C7" opacity="0.519740513"></path>
                <path d="M94,4 C94,5.65660377 92.6566038,7 91,7 C89.3433962,7 88,5.65660377 88,4 C88,2.34339623 89.3433962,1 91,1 C92.6566038,1 94,2.34339623 94,4" id="Fill-6" fill="#C7C7C7" opacity="0.519740513"></path>
                <path d="M138,4 C138,5.65660377 136.656604,7 135,7 C133.343396,7 132,5.65660377 132,4 C132,2.34339623 133.343396,1 135,1 C136.656604,1 138,2.34339623 138,4" id="Fill-8" fill="#C7C7C7" opacity="0.519740513"></path>
                <path d="M182,4 C182,5.65660377 180.658491,7 179,7 C177.343396,7 176,5.65660377 176,4 C176,2.34339623 177.343396,1 179,1 C180.658491,1 182,2.34339623 182,4" id="Fill-10" fill="#C7C7C7" opacity="0.519740513"></path>
                <path d="M226,4 C226,5.65660377 224.656604,7 223,7 C221.343396,7 220,5.65660377 220,4 C220,2.34339623 221.343396,1 223,1 C224.656604,1 226,2.34339623 226,4" id="Fill-12" fill="#C7C7C7" opacity="0.519740513"></path>
                <path d="M6.2598375,42.37757 C6.2598375,44.22137 4.8580875,45.71657 3.129525,45.71657 C1.4009625,45.71657 -0.0007875,44.22137 -0.0007875,42.37757 C-0.0007875,40.53377 1.4009625,39.03857 3.129525,39.03857 C4.8580875,39.03857 6.2598375,40.53377 6.2598375,42.37757" id="Fill-26" fill="#C7C7C7" opacity="0.519740513"></path>
                <path d="M51,43 C51,44.6566038 49.6584906,46 48,46 C46.3433962,46 45,44.6566038 45,43 C45,41.3433962 46.3433962,40 48,40 C49.6584906,40 51,41.3433962 51,43" id="Fill-29" fill="#C7C7C7" opacity="0.519740513"></path>
                <path d="M94,43 C94,44.6566038 92.6566038,46 91,46 C89.3433962,46 88,44.6566038 88,43 C88,41.3433962 89.3433962,40 91,40 C92.6566038,40 94,41.3433962 94,43" id="Fill-31" fill="#C7C7C7" opacity="0.519740513"></path>
                <path d="M138,43 C138,44.6566038 136.656604,46 135,46 C133.343396,46 132,44.6566038 132,43 C132,41.3433962 133.343396,40 135,40 C136.656604,40 138,41.3433962 138,43" id="Fill-33" fill="#C7C7C7" opacity="0.519740513"></path>
                <path d="M182,43 C182,44.6566038 180.658491,46 179,46 C177.343396,46 176,44.6566038 176,43 C176,41.3433962 177.343396,40 179,40 C180.658491,40 182,41.3433962 182,43" id="Fill-35" fill="#C7C7C7" opacity="0.519740513"></path>
                <path d="M226,43 C226,44.6566038 224.656604,46 223,46 C221.343396,46 220,44.6566038 220,43 C220,41.3433962 221.343396,40 223,40 C224.656604,40 226,41.3433962 226,43" id="Fill-37" fill="#C7C7C7" opacity="0.519740513"></path>
                <path d="M6.2598375,81.58064 C6.2598375,83.42654 4.8580875,84.91964 3.129525,84.91964 C1.4009625,84.91964 -0.0007875,83.42654 -0.0007875,81.58064 C-0.0007875,79.73684 1.4009625,78.24164 3.129525,78.24164 C4.8580875,78.24164 6.2598375,79.73684 6.2598375,81.58064" id="Fill-51" fill="#C7C7C7" opacity="0.519740513"></path>
                <path d="M51,82 C51,83.6584906 49.6584906,85 48,85 C46.3433962,85 45,83.6584906 45,82 C45,80.3433962 46.3433962,79 48,79 C49.6584906,79 51,80.3433962 51,82" id="Fill-54" fill="#C7C7C7" opacity="0.519740513"></path>
                <path d="M94,82 C94,83.6584906 92.6566038,85 91,85 C89.3433962,85 88,83.6584906 88,82 C88,80.3433962 89.3433962,79 91,79 C92.6566038,79 94,80.3433962 94,82" id="Fill-56" fill="#C7C7C7" opacity="0.519740513"></path>
                <path d="M138,82 C138,83.6584906 136.656604,85 135,85 C133.343396,85 132,83.6584906 132,82 C132,80.3433962 133.343396,79 135,79 C136.656604,79 138,80.3433962 138,82" id="Fill-58" fill="#C7C7C7" opacity="0.519740513"></path>
                <path d="M182,82 C182,83.6584906 180.658491,85 179,85 C177.343396,85 176,83.6584906 176,82 C176,80.3433962 177.343396,79 179,79 C180.658491,79 182,80.3433962 182,82" id="Fill-60" fill="#C7C7C7" opacity="0.519740513"></path>
                <path d="M226,82 C226,83.6584906 224.656604,85 223,85 C221.343396,85 220,83.6584906 220,82 C220,80.3433962 221.343396,79 223,79 C224.656604,79 226,80.3433962 226,82" id="Fill-62" fill="#C7C7C7" opacity="0.519740513"></path>
                <path d="M6.2598375,121.218906 C6.2598375,122.949437 4.8580875,124.351187 3.129525,124.351187 C1.4009625,124.351187 -0.0007875,122.949437 -0.0007875,121.218906 C-0.0007875,119.490344 1.4009625,118.088594 3.129525,118.088594 C4.8580875,118.088594 6.2598375,119.490344 6.2598375,121.218906" id="Fill-76" fill="#C7C7C7" opacity="0.519740513"></path>
                <path d="M51,120.999057 C51,122.657026 49.6584906,124 48,124 C46.3433962,124 45,122.657026 45,120.999057 C45,119.342974 46.3433962,118 48,118 C49.6584906,118 51,119.342974 51,120.999057" id="Fill-79" fill="#C7C7C7" opacity="0.519740513"></path>
                <path d="M94,120.999057 C94,122.657026 92.6566038,124 91,124 C89.3433962,124 88,122.657026 88,120.999057 C88,119.342974 89.3433962,118 91,118 C92.6566038,118 94,119.342974 94,120.999057" id="Fill-81" fill="#C7C7C7" opacity="0.519740513"></path>
                <path d="M138,120.999057 C138,122.657026 136.656604,124 135,124 C133.343396,124 132,122.657026 132,120.999057 C132,119.342974 133.343396,118 135,118 C136.656604,118 138,119.342974 138,120.999057" id="Fill-83" fill="#C7C7C7" opacity="0.519740513"></path>
                <path d="M182,120.999057 C182,122.657026 180.658491,124 179,124 C177.343396,124 176,122.657026 176,120.999057 C176,119.342974 177.343396,118 179,118 C180.658491,118 182,119.342974 182,120.999057" id="Fill-85" fill="#C7C7C7" opacity="0.519740513"></path>
                <path d="M226,120.999057 C226,122.657026 224.656604,124 223,124 C221.343396,124 220,122.657026 220,120.999057 C220,119.342974 221.343396,118 223,118 C224.656604,118 226,119.342974 226,120.999057" id="Fill-87" fill="#C7C7C7" opacity="0.519740513"></path>
                <path d="M6.2598375,159.411253 C6.2598375,161.139816 4.8580875,162.541566 3.129525,162.541566 C1.4009625,162.541566 -0.0007875,161.139816 -0.0007875,159.411253 C-0.0007875,157.680722 1.4009625,156.278972 3.129525,156.278972 C4.8580875,156.278972 6.2598375,157.680722 6.2598375,159.411253" id="Fill-101" fill="#C7C7C7" opacity="0.519740513"></path>
                <path d="M51,160.000943 C51,161.657026 49.6584906,163 48,163 C46.3433962,163 45,161.657026 45,160.000943 C45,158.342974 46.3433962,157 48,157 C49.6584906,157 51,158.342974 51,160.000943" id="Fill-104" fill="#C7C7C7" opacity="0.519740513"></path>
                <path d="M94,160.000943 C94,161.657026 92.6566038,163 91,163 C89.3433962,163 88,161.657026 88,160.000943 C88,158.342974 89.3433962,157 91,157 C92.6566038,157 94,158.342974 94,160.000943" id="Fill-106" fill="#C7C7C7" opacity="0.519740513"></path>
                <path d="M138,160.000943 C138,161.657026 136.656604,163 135,163 C133.343396,163 132,161.657026 132,160.000943 C132,158.342974 133.343396,157 135,157 C136.656604,157 138,158.342974 138,160.000943" id="Fill-108" fill="#C7C7C7" opacity="0.519740513"></path>
                <path d="M182,160.000943 C182,161.657026 180.658491,163 179,163 C177.343396,163 176,161.657026 176,160.000943 C176,158.342974 177.343396,157 179,157 C180.658491,157 182,158.342974 182,160.000943" id="Fill-110" fill="#C7C7C7" opacity="0.519740513"></path>
                <path d="M226,160.000943 C226,161.657026 224.656604,163 223,163 C221.343396,163 220,161.657026 220,160.000943 C220,158.342974 221.343396,157 223,157 C224.656604,157 226,158.342974 226,160.000943" id="Fill-112" fill="#C7C7C7" opacity="0.519740513"></path>
                <path d="M6.2598375,198.601631 C6.2598375,200.330194 4.8580875,201.731944 3.129525,201.731944 C1.4009625,201.731944 -0.0007875,200.330194 -0.0007875,198.601631 C-0.0007875,196.873069 1.4009625,195.471319 3.129525,195.471319 C4.8580875,195.471319 6.2598375,196.873069 6.2598375,198.601631" id="Fill-126" fill="#C7C7C7" opacity="0.519740513"></path>
                <path d="M51,199 C51,200.656604 49.6584906,202 48,202 C46.3433962,202 45,200.656604 45,199 C45,197.343396 46.3433962,196 48,196 C49.6584906,196 51,197.343396 51,199" id="Fill-129" fill="#C7C7C7" opacity="0.519740513"></path>
                <path d="M94,199 C94,200.656604 92.6566038,202 91,202 C89.3433962,202 88,200.656604 88,199 C88,197.343396 89.3433962,196 91,196 C92.6566038,196 94,197.343396 94,199" id="Fill-131" fill="#C7C7C7" opacity="0.519740513"></path>
                <path d="M138,199 C138,200.656604 136.656604,202 135,202 C133.343396,202 132,200.656604 132,199 C132,197.343396 133.343396,196 135,196 C136.656604,196 138,197.343396 138,199" id="Fill-133" fill="#C7C7C7" opacity="0.519740513"></path>
                <path d="M182,199 C182,200.656604 180.658491,202 179,202 C177.343396,202 176,200.656604 176,199 C176,197.343396 177.343396,196 179,196 C180.658491,196 182,197.343396 182,199" id="Fill-135" fill="#C7C7C7" opacity="0.519740513"></path>
                <path d="M226,199 C226,200.656604 224.656604,202 223,202 C221.343396,202 220,200.656604 220,199 C220,197.343396 221.343396,196 223,196 C224.656604,196 226,197.343396 226,199" id="Fill-137" fill="#C7C7C7" opacity="0.519740513"></path>
                <path d="M6.2598375,236.791812 C6.2598375,238.520375 4.8580875,239.922125 3.129525,239.922125 C1.4009625,239.922125 -0.0007875,238.520375 -0.0007875,236.791812 C-0.0007875,235.06325 1.4009625,233.6615 3.129525,233.6615 C4.8580875,233.6615 6.2598375,235.06325 6.2598375,236.791812" id="Fill-151" fill="#C7C7C7" opacity="0.519740513"></path>
                <path d="M51,237 C51,238.656604 49.6584906,240 48,240 C46.3433962,240 45,238.656604 45,237 C45,235.343396 46.3433962,234 48,234 C49.6584906,234 51,235.343396 51,237" id="Fill-154" fill="#C7C7C7" opacity="0.519740513"></path>
                <path d="M94,237 C94,238.656604 92.6566038,240 91,240 C89.3433962,240 88,238.656604 88,237 C88,235.343396 89.3433962,234 91,234 C92.6566038,234 94,235.343396 94,237" id="Fill-156" fill="#C7C7C7" opacity="0.519740513"></path>
                <path d="M138,237 C138,238.656604 136.656604,240 135,240 C133.343396,240 132,238.656604 132,237 C132,235.343396 133.343396,234 135,234 C136.656604,234 138,235.343396 138,237" id="Fill-158" fill="#C7C7C7" opacity="0.519740513"></path>
                <path d="M182,237 C182,238.656604 180.658491,240 179,240 C177.343396,240 176,238.656604 176,237 C176,235.343396 177.343396,234 179,234 C180.658491,234 182,235.343396 182,237" id="Fill-160" fill="#C7C7C7" opacity="0.519740513"></path>
                <path d="M226,237 C226,238.656604 224.656604,240 223,240 C221.343396,240 220,238.656604 220,237 C220,235.343396 221.343396,234 223,234 C224.656604,234 226,235.343396 226,237" id="Fill-162" fill="#C7C7C7" opacity="0.519740513"></path>
                <path d="M6.2598375,276.0454 C6.2598375,277.8014 4.8580875,279.2254 3.129525,279.2254 C1.4009625,279.2254 -0.0007875,277.8014 -0.0007875,276.0454 C-0.0007875,274.2894 1.4009625,272.8654 3.129525,272.8654 C4.8580875,272.8654 6.2598375,274.2894 6.2598375,276.0454" id="Fill-176" fill="#C7C7C7" opacity="0.519740513"></path>
                <path d="M51,276 C51,277.656604 49.6584906,279 48,279 C46.3433962,279 45,277.656604 45,276 C45,274.343396 46.3433962,273 48,273 C49.6584906,273 51,274.343396 51,276" id="Fill-179" fill="#C7C7C7" opacity="0.519740513"></path>
                <path d="M94,276 C94,277.656604 92.6566038,279 91,279 C89.3433962,279 88,277.656604 88,276 C88,274.343396 89.3433962,273 91,273 C92.6566038,273 94,274.343396 94,276" id="Fill-181" fill="#C7C7C7" opacity="0.519740513"></path>
                <path d="M138,276 C138,277.656604 136.656604,279 135,279 C133.343396,279 132,277.656604 132,276 C132,274.343396 133.343396,273 135,273 C136.656604,273 138,274.343396 138,276" id="Fill-183" fill="#C7C7C7" opacity="0.519740513"></path>
                <path d="M182,276 C182,277.656604 180.658491,279 179,279 C177.343396,279 176,277.656604 176,276 C176,274.343396 177.343396,273 179,273 C180.658491,273 182,274.343396 182,276" id="Fill-185" fill="#C7C7C7" opacity="0.519740513"></path>
                <path d="M226,276 C226,277.656604 224.656604,279 223,279 C221.343396,279 220,277.656604 220,276 C220,274.343396 221.343396,273 223,273 C224.656604,273 226,274.343396 226,276" id="Fill-187" fill="#C7C7C7" opacity="0.519740513"></path>
                <path d="M6.2598375,315.297569 C6.2598375,317.026131 4.8580875,318.427881 3.129525,318.427881 C1.4009625,318.427881 -0.0007875,317.026131 -0.0007875,315.297569 C-0.0007875,313.569006 1.4009625,312.167256 3.129525,312.167256 C4.8580875,312.167256 6.2598375,313.569006 6.2598375,315.297569" id="Fill-201" fill="#C7C7C7" opacity="0.519740513"></path>
                <path d="M51,315 C51,316.656604 49.6584906,318 48,318 C46.3433962,318 45,316.656604 45,315 C45,313.343396 46.3433962,312 48,312 C49.6584906,312 51,313.343396 51,315" id="Fill-204" fill="#C7C7C7" opacity="0.519740513"></path>
                <path d="M94,315 C94,316.656604 92.6566038,318 91,318 C89.3433962,318 88,316.656604 88,315 C88,313.343396 89.3433962,312 91,312 C92.6566038,312 94,313.343396 94,315" id="Fill-206" fill="#C7C7C7" opacity="0.519740513"></path>
                <path d="M138,315 C138,316.656604 136.656604,318 135,318 C133.343396,318 132,316.656604 132,315 C132,313.343396 133.343396,312 135,312 C136.656604,312 138,313.343396 138,315" id="Fill-208" fill="#C7C7C7" opacity="0.519740513"></path>
                <path d="M182,315 C182,316.656604 180.658491,318 179,318 C177.343396,318 176,316.656604 176,315 C176,313.343396 177.343396,312 179,312 C180.658491,312 182,313.343396 182,315" id="Fill-210" fill="#C7C7C7" opacity="0.519740513"></path>
                <path d="M226,315 C226,316.656604 224.656604,318 223,318 C221.343396,318 220,316.656604 220,315 C220,313.343396 221.343396,312 223,312 C224.656604,312 226,313.343396 226,315" id="Fill-212" fill="#C7C7C7" opacity="0.519740513"></path>
                <path d="M6.2598375,353.487947 C6.2598375,355.216509 4.8580875,356.618259 3.129525,356.618259 C1.4009625,356.618259 -0.0007875,355.216509 -0.0007875,353.487947 C-0.0007875,351.759384 1.4009625,350.357634 3.129525,350.357634 C4.8580875,350.357634 6.2598375,351.759384 6.2598375,353.487947" id="Fill-226" fill="#C7C7C7" opacity="0.519740513"></path>
                <path d="M51,354 C51,355.656604 49.6584906,357 48,357 C46.3433962,357 45,355.656604 45,354 C45,352.343396 46.3433962,351 48,351 C49.6584906,351 51,352.343396 51,354" id="Fill-229" fill="#C7C7C7" opacity="0.519740513"></path>
                <path d="M94,354 C94,355.656604 92.6566038,357 91,357 C89.3433962,357 88,355.656604 88,354 C88,352.343396 89.3433962,351 91,351 C92.6566038,351 94,352.343396 94,354" id="Fill-231" fill="#C7C7C7" opacity="0.519740513"></path>
                <path d="M138,354 C138,355.656604 136.656604,357 135,357 C133.343396,357 132,355.656604 132,354 C132,352.343396 133.343396,351 135,351 C136.656604,351 138,352.343396 138,354" id="Fill-233" fill="#C7C7C7" opacity="0.519740513"></path>
                <path d="M182,354 C182,355.656604 180.658491,357 179,357 C177.343396,357 176,355.656604 176,354 C176,352.343396 177.343396,351 179,351 C180.658491,351 182,352.343396 182,354" id="Fill-235" fill="#C7C7C7" opacity="0.519740513"></path>
                <path d="M226,354 C226,355.656604 224.656604,357 223,357 C221.343396,357 220,355.656604 220,354 C220,352.343396 221.343396,351 223,351 C224.656604,351 226,352.343396 226,354" id="Fill-237" fill="#C7C7C7" opacity="0.519740513"></path>
                <path d="M6.2598375,392.678325 C6.2598375,394.408856 4.8580875,395.810606 3.129525,395.810606 C1.4009625,395.810606 -0.0007875,394.408856 -0.0007875,392.678325 C-0.0007875,390.949763 1.4009625,389.548013 3.129525,389.548013 C4.8580875,389.548013 6.2598375,390.949763 6.2598375,392.678325" id="Fill-251" fill="#C7C7C7" opacity="0.519740513"></path>
                <path d="M51,392.999057 C51,394.657026 49.6584906,396 48,396 C46.3433962,396 45,394.657026 45,392.999057 C45,391.342974 46.3433962,390 48,390 C49.6584906,390 51,391.342974 51,392.999057" id="Fill-254" fill="#C7C7C7" opacity="0.519740513"></path>
                <path d="M94,392.999057 C94,394.657026 92.6566038,396 91,396 C89.3433962,396 88,394.657026 88,392.999057 C88,391.342974 89.3433962,390 91,390 C92.6566038,390 94,391.342974 94,392.999057" id="Fill-256" fill="#C7C7C7" opacity="0.519740513"></path>
                <path d="M138,392.999057 C138,394.657026 136.656604,396 135,396 C133.343396,396 132,394.657026 132,392.999057 C132,391.342974 133.343396,390 135,390 C136.656604,390 138,391.342974 138,392.999057" id="Fill-258" fill="#C7C7C7" opacity="0.519740513"></path>
                <path d="M182,392.999057 C182,394.657026 180.658491,396 179,396 C177.343396,396 176,394.657026 176,392.999057 C176,391.342974 177.343396,390 179,390 C180.658491,390 182,391.342974 182,392.999057" id="Fill-260" fill="#C7C7C7" opacity="0.519740513"></path>
                <path d="M226,392.999057 C226,394.657026 224.656604,396 223,396 C221.343396,396 220,394.657026 220,392.999057 C220,391.342974 221.343396,390 223,390 C224.656604,390 226,391.342974 226,392.999057" id="Fill-262" fill="#C7C7C7" opacity="0.519740513"></path>
                <path d="M6.2598375,431.870475 C6.2598375,433.599037 4.8580875,435.000787 3.129525,435.000787 C1.4009625,435.000787 -0.0007875,433.599037 -0.0007875,431.870475 C-0.0007875,430.139944 1.4009625,428.740162 3.129525,428.740162 C4.8580875,428.740162 6.2598375,430.139944 6.2598375,431.870475" id="Fill-276" fill="#C7C7C7" opacity="0.519740513"></path>
                <path d="M50.978825,431.870475 C50.978825,433.599037 49.5790437,435.000787 47.8485125,435.000787 C46.11995,435.000787 44.7182,433.599037 44.7182,431.870475 C44.7182,430.139944 46.11995,428.740162 47.8485125,428.740162 C49.5790437,428.740162 50.978825,430.139944 50.978825,431.870475" id="Fill-279" fill="#C7C7C7" opacity="0.519740513"></path>
                <path d="M93.8228125,431.870475 C93.8228125,433.599037 92.4210625,435.000787 90.6925,435.000787 C88.9639375,435.000787 87.5621875,433.599037 87.5621875,431.870475 C87.5621875,430.139944 88.9639375,428.740162 90.6925,428.740162 C92.4210625,428.740162 93.8228125,430.139944 93.8228125,431.870475" id="Fill-282" fill="#C7C7C7" opacity="0.519740513"></path>
                <path d="M138.448247,431.870475 C138.448247,433.599037 137.046497,435.000787 135.317934,435.000787 C133.589372,435.000787 132.187622,433.599037 132.187622,431.870475 C132.187622,430.139944 133.589372,428.740162 135.317934,428.740162 C137.046497,428.740162 138.448247,430.139944 138.448247,431.870475" id="Fill-285" fill="#C7C7C7" opacity="0.519740513"></path>
                <path d="M181.292234,431.870475 C181.292234,433.599037 179.892453,435.000787 178.161922,435.000787 C176.433359,435.000787 175.031609,433.599037 175.031609,431.870475 C175.031609,430.139944 176.433359,428.740162 178.161922,428.740162 C179.892453,428.740162 181.292234,430.139944 181.292234,431.870475" id="Fill-288" fill="#C7C7C7" opacity="0.519740513"></path>
                <path d="M226.656818,431.870475 C226.656818,433.599037 225.137884,435.000787 223.264818,435.000787 C221.391751,435.000787 219.872818,433.599037 219.872818,431.870475 C219.872818,430.139944 221.391751,428.740162 223.264818,428.740162 C225.137884,428.740162 226.656818,430.139944 226.656818,431.870475" id="Fill-291" fill="#C7C7C7" opacity="0.519740513"></path>
                <path d="M271,4 C271,5.65660377 269.658491,7 268,7 C266.343396,7 265,5.65660377 265,4 C265,2.34339623 266.343396,1 268,1 C269.658491,1 271,2.34339623 271,4" id="Fill-4" fill="#C7C7C7" opacity="0.519740513"></path>
                <path d="M314,4 C314,5.65660377 312.656604,7 311,7 C309.343396,7 308,5.65660377 308,4 C308,2.34339623 309.343396,1 311,1 C312.656604,1 314,2.34339623 314,4" id="Fill-6" fill="#C7C7C7" opacity="0.519740513"></path>
                <path d="M358,4 C358,5.65660377 356.656604,7 355,7 C353.343396,7 352,5.65660377 352,4 C352,2.34339623 353.343396,1 355,1 C356.656604,1 358,2.34339623 358,4" id="Fill-8" fill="#C7C7C7" opacity="0.519740513"></path>
                <path d="M402,4 C402,5.65660377 400.658491,7 399,7 C397.343396,7 396,5.65660377 396,4 C396,2.34339623 397.343396,1 399,1 C400.658491,1 402,2.34339623 402,4" id="Fill-10" fill="#C7C7C7" opacity="0.519740513"></path>
                <path d="M446,4 C446,5.65660377 444.656604,7 443,7 C441.343396,7 440,5.65660377 440,4 C440,2.34339623 441.343396,1 443,1 C444.656604,1 446,2.34339623 446,4" id="Fill-12" fill="#C7C7C7" opacity="0.519740513"></path>
                <path d="M271,43 C271,44.6566038 269.658491,46 268,46 C266.343396,46 265,44.6566038 265,43 C265,41.3433962 266.343396,40 268,40 C269.658491,40 271,41.3433962 271,43" id="Fill-29" fill="#C7C7C7" opacity="0.519740513"></path>
                <path d="M314,43 C314,44.6566038 312.656604,46 311,46 C309.343396,46 308,44.6566038 308,43 C308,41.3433962 309.343396,40 311,40 C312.656604,40 314,41.3433962 314,43" id="Fill-31" fill="#C7C7C7" opacity="0.519740513"></path>
                <path d="M358,43 C358,44.6566038 356.656604,46 355,46 C353.343396,46 352,44.6566038 352,43 C352,41.3433962 353.343396,40 355,40 C356.656604,40 358,41.3433962 358,43" id="Fill-33" fill="#C7C7C7" opacity="0.519740513"></path>
                <path d="M402,43 C402,44.6566038 400.658491,46 399,46 C397.343396,46 396,44.6566038 396,43 C396,41.3433962 397.343396,40 399,40 C400.658491,40 402,41.3433962 402,43" id="Fill-35" fill="#C7C7C7" opacity="0.519740513"></path>
                <path d="M446,43 C446,44.6566038 444.656604,46 443,46 C441.343396,46 440,44.6566038 440,43 C440,41.3433962 441.343396,40 443,40 C444.656604,40 446,41.3433962 446,43" id="Fill-37" fill="#C7C7C7" opacity="0.519740513"></path>
                <mask id="mask-2" fill="white">
                    <use xlink:href="#path-1"></use>
                </mask>
                <g id="Clip-52" opacity="0.519740513"></g>
                <path d="M271,82 C271,83.6584906 269.658491,85 268,85 C266.343396,85 265,83.6584906 265,82 C265,80.3433962 266.343396,79 268,79 C269.658491,79 271,80.3433962 271,82" id="Fill-54" fill="#C7C7C7" opacity="0.519740513"></path>
                <path d="M314,82 C314,83.6584906 312.656604,85 311,85 C309.343396,85 308,83.6584906 308,82 C308,80.3433962 309.343396,79 311,79 C312.656604,79 314,80.3433962 314,82" id="Fill-56" fill="#C7C7C7" opacity="0.519740513"></path>
                <path d="M358,82 C358,83.6584906 356.656604,85 355,85 C353.343396,85 352,83.6584906 352,82 C352,80.3433962 353.343396,79 355,79 C356.656604,79 358,80.3433962 358,82" id="Fill-58" fill="#C7C7C7" opacity="0.519740513"></path>
                <path d="M402,82 C402,83.6584906 400.658491,85 399,85 C397.343396,85 396,83.6584906 396,82 C396,80.3433962 397.343396,79 399,79 C400.658491,79 402,80.3433962 402,82" id="Fill-60" fill="#C7C7C7" opacity="0.519740513"></path>
                <path d="M446,82 C446,83.6584906 444.656604,85 443,85 C441.343396,85 440,83.6584906 440,82 C440,80.3433962 441.343396,79 443,79 C444.656604,79 446,80.3433962 446,82" id="Fill-62" fill="#C7C7C7" opacity="0.519740513"></path>
                <mask id="mask-4" fill="white">
                    <use xlink:href="#path-3"></use>
                </mask>
                <g id="Clip-77" opacity="0.519740513"></g>
                <path d="M271,120.999057 C271,122.657026 269.658491,124 268,124 C266.343396,124 265,122.657026 265,120.999057 C265,119.342974 266.343396,118 268,118 C269.658491,118 271,119.342974 271,120.999057" id="Fill-79" fill="#C7C7C7" opacity="0.519740513"></path>
                <path d="M314,120.999057 C314,122.657026 312.656604,124 311,124 C309.343396,124 308,122.657026 308,120.999057 C308,119.342974 309.343396,118 311,118 C312.656604,118 314,119.342974 314,120.999057" id="Fill-81" fill="#C7C7C7" opacity="0.519740513"></path>
                <path d="M358,120.999057 C358,122.657026 356.656604,124 355,124 C353.343396,124 352,122.657026 352,120.999057 C352,119.342974 353.343396,118 355,118 C356.656604,118 358,119.342974 358,120.999057" id="Fill-83" fill="#C7C7C7" opacity="0.519740513"></path>
                <path d="M402,120.999057 C402,122.657026 400.658491,124 399,124 C397.343396,124 396,122.657026 396,120.999057 C396,119.342974 397.343396,118 399,118 C400.658491,118 402,119.342974 402,120.999057" id="Fill-85" fill="#C7C7C7" opacity="0.519740513"></path>
                <path d="M446,120.999057 C446,122.657026 444.656604,124 443,124 C441.343396,124 440,122.657026 440,120.999057 C440,119.342974 441.343396,118 443,118 C444.656604,118 446,119.342974 446,120.999057" id="Fill-87" fill="#C7C7C7" opacity="0.519740513"></path>
                <mask id="mask-6" fill="white">
                    <use xlink:href="#path-5"></use>
                </mask>
                <g id="Clip-102" opacity="0.519740513"></g>
                <path d="M271,160.000943 C271,161.657026 269.658491,163 268,163 C266.343396,163 265,161.657026 265,160.000943 C265,158.342974 266.343396,157 268,157 C269.658491,157 271,158.342974 271,160.000943" id="Fill-104" fill="#C7C7C7" opacity="0.519740513"></path>
                <path d="M314,160.000943 C314,161.657026 312.656604,163 311,163 C309.343396,163 308,161.657026 308,160.000943 C308,158.342974 309.343396,157 311,157 C312.656604,157 314,158.342974 314,160.000943" id="Fill-106" fill="#C7C7C7" opacity="0.519740513"></path>
                <path d="M358,160.000943 C358,161.657026 356.656604,163 355,163 C353.343396,163 352,161.657026 352,160.000943 C352,158.342974 353.343396,157 355,157 C356.656604,157 358,158.342974 358,160.000943" id="Fill-108" fill="#C7C7C7" opacity="0.519740513"></path>
                <path d="M402,160.000943 C402,161.657026 400.658491,163 399,163 C397.343396,163 396,161.657026 396,160.000943 C396,158.342974 397.343396,157 399,157 C400.658491,157 402,158.342974 402,160.000943" id="Fill-110" fill="#C7C7C7" opacity="0.519740513"></path>
                <path d="M446,160.000943 C446,161.657026 444.656604,163 443,163 C441.343396,163 440,161.657026 440,160.000943 C440,158.342974 441.343396,157 443,157 C444.656604,157 446,158.342974 446,160.000943" id="Fill-112" fill="#C7C7C7" opacity="0.519740513"></path>
                <mask id="mask-8" fill="white">
                    <use xlink:href="#path-7"></use>
                </mask>
                <g id="Clip-127" opacity="0.519740513"></g>
                <path d="M271,199 C271,200.656604 269.658491,202 268,202 C266.343396,202 265,200.656604 265,199 C265,197.343396 266.343396,196 268,196 C269.658491,196 271,197.343396 271,199" id="Fill-129" fill="#C7C7C7" opacity="0.519740513"></path>
                <path d="M314,199 C314,200.656604 312.656604,202 311,202 C309.343396,202 308,200.656604 308,199 C308,197.343396 309.343396,196 311,196 C312.656604,196 314,197.343396 314,199" id="Fill-131" fill="#C7C7C7" opacity="0.519740513"></path>
                <path d="M358,199 C358,200.656604 356.656604,202 355,202 C353.343396,202 352,200.656604 352,199 C352,197.343396 353.343396,196 355,196 C356.656604,196 358,197.343396 358,199" id="Fill-133" fill="#C7C7C7" opacity="0.519740513"></path>
                <path d="M402,199 C402,200.656604 400.658491,202 399,202 C397.343396,202 396,200.656604 396,199 C396,197.343396 397.343396,196 399,196 C400.658491,196 402,197.343396 402,199" id="Fill-135" fill="#C7C7C7" opacity="0.519740513"></path>
                <path d="M446,199 C446,200.656604 444.656604,202 443,202 C441.343396,202 440,200.656604 440,199 C440,197.343396 441.343396,196 443,196 C444.656604,196 446,197.343396 446,199" id="Fill-137" fill="#C7C7C7" opacity="0.519740513"></path>
                <mask id="mask-10" fill="white">
                    <use xlink:href="#path-9"></use>
                </mask>
                <g id="Clip-152" opacity="0.519740513"></g>
                <path d="M271,237 C271,238.656604 269.658491,240 268,240 C266.343396,240 265,238.656604 265,237 C265,235.343396 266.343396,234 268,234 C269.658491,234 271,235.343396 271,237" id="Fill-154" fill="#C7C7C7" opacity="0.519740513"></path>
                <path d="M314,237 C314,238.656604 312.656604,240 311,240 C309.343396,240 308,238.656604 308,237 C308,235.343396 309.343396,234 311,234 C312.656604,234 314,235.343396 314,237" id="Fill-156" fill="#C7C7C7" opacity="0.519740513"></path>
                <path d="M358,237 C358,238.656604 356.656604,240 355,240 C353.343396,240 352,238.656604 352,237 C352,235.343396 353.343396,234 355,234 C356.656604,234 358,235.343396 358,237" id="Fill-158" fill="#C7C7C7" opacity="0.519740513"></path>
                <path d="M402,237 C402,238.656604 400.658491,240 399,240 C397.343396,240 396,238.656604 396,237 C396,235.343396 397.343396,234 399,234 C400.658491,234 402,235.343396 402,237" id="Fill-160" fill="#C7C7C7" opacity="0.519740513"></path>
                <path d="M446,237 C446,238.656604 444.656604,240 443,240 C441.343396,240 440,238.656604 440,237 C440,235.343396 441.343396,234 443,234 C444.656604,234 446,235.343396 446,237" id="Fill-162" fill="#C7C7C7" opacity="0.519740513"></path>
                <mask id="mask-12" fill="white">
                    <use xlink:href="#path-11"></use>
                </mask>
                <g id="Clip-177" opacity="0.519740513"></g>
                <path d="M271,276 C271,277.656604 269.658491,279 268,279 C266.343396,279 265,277.656604 265,276 C265,274.343396 266.343396,273 268,273 C269.658491,273 271,274.343396 271,276" id="Fill-179" fill="#C7C7C7" opacity="0.519740513"></path>
                <path d="M314,276 C314,277.656604 312.656604,279 311,279 C309.343396,279 308,277.656604 308,276 C308,274.343396 309.343396,273 311,273 C312.656604,273 314,274.343396 314,276" id="Fill-181" fill="#C7C7C7" opacity="0.519740513"></path>
                <path d="M358,276 C358,277.656604 356.656604,279 355,279 C353.343396,279 352,277.656604 352,276 C352,274.343396 353.343396,273 355,273 C356.656604,273 358,274.343396 358,276" id="Fill-183" fill="#C7C7C7" opacity="0.519740513"></path>
                <path d="M402,276 C402,277.656604 400.658491,279 399,279 C397.343396,279 396,277.656604 396,276 C396,274.343396 397.343396,273 399,273 C400.658491,273 402,274.343396 402,276" id="Fill-185" fill="#C7C7C7" opacity="0.519740513"></path>
                <path d="M446,276 C446,277.656604 444.656604,279 443,279 C441.343396,279 440,277.656604 440,276 C440,274.343396 441.343396,273 443,273 C444.656604,273 446,274.343396 446,276" id="Fill-187" fill="#C7C7C7" opacity="0.519740513"></path>
                <mask id="mask-14" fill="white">
                    <use xlink:href="#path-13"></use>
                </mask>
                <g id="Clip-202" opacity="0.519740513"></g>
                <path d="M271,315 C271,316.656604 269.658491,318 268,318 C266.343396,318 265,316.656604 265,315 C265,313.343396 266.343396,312 268,312 C269.658491,312 271,313.343396 271,315" id="Fill-204" fill="#C7C7C7" opacity="0.519740513"></path>
                <path d="M314,315 C314,316.656604 312.656604,318 311,318 C309.343396,318 308,316.656604 308,315 C308,313.343396 309.343396,312 311,312 C312.656604,312 314,313.343396 314,315" id="Fill-206" fill="#C7C7C7" opacity="0.519740513"></path>
                <path d="M358,315 C358,316.656604 356.656604,318 355,318 C353.343396,318 352,316.656604 352,315 C352,313.343396 353.343396,312 355,312 C356.656604,312 358,313.343396 358,315" id="Fill-208" fill="#C7C7C7" opacity="0.519740513"></path>
                <path d="M402,315 C402,316.656604 400.658491,318 399,318 C397.343396,318 396,316.656604 396,315 C396,313.343396 397.343396,312 399,312 C400.658491,312 402,313.343396 402,315" id="Fill-210" fill="#C7C7C7" opacity="0.519740513"></path>
                <path d="M446,315 C446,316.656604 444.656604,318 443,318 C441.343396,318 440,316.656604 440,315 C440,313.343396 441.343396,312 443,312 C444.656604,312 446,313.343396 446,315" id="Fill-212" fill="#C7C7C7" opacity="0.519740513"></path>
                <mask id="mask-16" fill="white">
                    <use xlink:href="#path-15"></use>
                </mask>
                <g id="Clip-227" opacity="0.519740513"></g>
                <path d="M271,354 C271,355.656604 269.658491,357 268,357 C266.343396,357 265,355.656604 265,354 C265,352.343396 266.343396,351 268,351 C269.658491,351 271,352.343396 271,354" id="Fill-229" fill="#C7C7C7" opacity="0.519740513"></path>
                <path d="M314,354 C314,355.656604 312.656604,357 311,357 C309.343396,357 308,355.656604 308,354 C308,352.343396 309.343396,351 311,351 C312.656604,351 314,352.343396 314,354" id="Fill-231" fill="#C7C7C7" opacity="0.519740513"></path>
                <path d="M358,354 C358,355.656604 356.656604,357 355,357 C353.343396,357 352,355.656604 352,354 C352,352.343396 353.343396,351 355,351 C356.656604,351 358,352.343396 358,354" id="Fill-233" fill="#C7C7C7" opacity="0.519740513"></path>
                <path d="M402,354 C402,355.656604 400.658491,357 399,357 C397.343396,357 396,355.656604 396,354 C396,352.343396 397.343396,351 399,351 C400.658491,351 402,352.343396 402,354" id="Fill-235" fill="#C7C7C7" opacity="0.519740513"></path>
                <path d="M446,354 C446,355.656604 444.656604,357 443,357 C441.343396,357 440,355.656604 440,354 C440,352.343396 441.343396,351 443,351 C444.656604,351 446,352.343396 446,354" id="Fill-237" fill="#C7C7C7" opacity="0.519740513"></path>
                <mask id="mask-18" fill="white">
                    <use xlink:href="#path-17"></use>
                </mask>
                <g id="Clip-252" opacity="0.519740513"></g>
                <path d="M271,392.999057 C271,394.657026 269.658491,396 268,396 C266.343396,396 265,394.657026 265,392.999057 C265,391.342974 266.343396,390 268,390 C269.658491,390 271,391.342974 271,392.999057" id="Fill-254" fill="#C7C7C7" opacity="0.519740513"></path>
                <path d="M314,392.999057 C314,394.657026 312.656604,396 311,396 C309.343396,396 308,394.657026 308,392.999057 C308,391.342974 309.343396,390 311,390 C312.656604,390 314,391.342974 314,392.999057" id="Fill-256" fill="#C7C7C7" opacity="0.519740513"></path>
                <path d="M358,392.999057 C358,394.657026 356.656604,396 355,396 C353.343396,396 352,394.657026 352,392.999057 C352,391.342974 353.343396,390 355,390 C356.656604,390 358,391.342974 358,392.999057" id="Fill-258" fill="#C7C7C7" opacity="0.519740513"></path>
                <path d="M402,392.999057 C402,394.657026 400.658491,396 399,396 C397.343396,396 396,394.657026 396,392.999057 C396,391.342974 397.343396,390 399,390 C400.658491,390 402,391.342974 402,392.999057" id="Fill-260" fill="#C7C7C7" opacity="0.519740513"></path>
                <path d="M446,392.999057 C446,394.657026 444.656604,396 443,396 C441.343396,396 440,394.657026 440,392.999057 C440,391.342974 441.343396,390 443,390 C444.656604,390 446,391.342974 446,392.999057" id="Fill-262" fill="#C7C7C7" opacity="0.519740513"></path>
                <mask id="mask-20" fill="white">
                    <use xlink:href="#path-19"></use>
                </mask>
                <g id="Clip-277" opacity="0.519740513"></g>
                <mask id="mask-22" fill="white">
                    <use xlink:href="#path-21"></use>
                </mask>
                <g id="Clip-280" opacity="0.519740513"></g>
                <path d="M270.978825,431.870475 C270.978825,433.599038 269.579044,435.000788 267.848513,435.000788 C266.11995,435.000788 264.7182,433.599038 264.7182,431.870475 C264.7182,430.139944 266.11995,428.740162 267.848513,428.740162 C269.579044,428.740162 270.978825,430.139944 270.978825,431.870475" id="Fill-279" fill="#C7C7C7" opacity="0.519740513"></path>
                <path d="M313.822812,431.870475 C313.822812,433.599038 312.421063,435.000788 310.6925,435.000788 C308.963937,435.000788 307.562187,433.599038 307.562187,431.870475 C307.562187,430.139944 308.963937,428.740162 310.6925,428.740162 C312.421063,428.740162 313.822812,430.139944 313.822812,431.870475" id="Fill-282" fill="#C7C7C7" opacity="0.519740513"></path>
                <path d="M358.448247,431.870475 C358.448247,433.599038 357.046497,435.000788 355.317934,435.000788 C353.589372,435.000788 352.187622,433.599038 352.187622,431.870475 C352.187622,430.139944 353.589372,428.740162 355.317934,428.740162 C357.046497,428.740162 358.448247,430.139944 358.448247,431.870475" id="Fill-285" fill="#C7C7C7" opacity="0.519740513"></path>
                <path d="M401.292234,431.870475 C401.292234,433.599038 399.892453,435.000788 398.161922,435.000788 C396.433359,435.000788 395.031609,433.599038 395.031609,431.870475 C395.031609,430.139944 396.433359,428.740162 398.161922,428.740162 C399.892453,428.740162 401.292234,430.139944 401.292234,431.870475" id="Fill-288" fill="#C7C7C7" opacity="0.519740513"></path>
                <path d="M446.656818,431.870475 C446.656818,433.599038 445.137884,435.000788 443.264818,435.000788 C441.391751,435.000788 439.872818,433.599038 439.872818,431.870475 C439.872818,430.139944 441.391751,428.740162 443.264818,428.740162 C445.137884,428.740162 446.656818,430.139944 446.656818,431.870475" id="Fill-291" fill="#C7C7C7" opacity="0.519740513"></path>
            </g>
        </g>
    </g>
</svg>