<?xml version="1.0" encoding="UTF-8"?>
<svg width="240px" height="182px" viewBox="0 0 240 182" version="1.1" xmlns="http://www.w3.org/2000/svg" xmlns:xlink="http://www.w3.org/1999/xlink">
    <title>Dotted BG2</title>
    <defs>
        <rect id="path-1" x="0" y="0" width="240" height="182"></rect>
        <polygon id="path-3" points="0 0.08859375 6.2598375 0.08859375 6.2598375 6.3511875 0 6.3511875"></polygon>
        <polygon id="path-5" points="0 38.2789719 6.2598375 38.2789719 6.2598375 44.5415656 0 44.5415656"></polygon>
        <polygon id="path-7" points="0 77.4713187 6.2598375 77.4713187 6.2598375 83.7319437 0 83.7319437"></polygon>
        <polygon id="path-9" points="0 115.6615 6.2598375 115.6615 6.2598375 121.922125 0 121.922125"></polygon>
        <polygon id="path-11" points="0 154.8654 6.2598375 154.8654 6.2598375 161.2254 0 161.2254"></polygon>
        <polygon id="path-13" points="0 194.167256 6.2598375 194.167256 6.2598375 200.427881 0 200.427881"></polygon>
        <polygon id="path-15" points="0 232.357634 6.2598375 232.357634 6.2598375 238.618259 0 238.618259"></polygon>
    </defs>
    <g id="Web" stroke="none" stroke-width="1" fill="none" fill-rule="evenodd">
        <g id="Main" transform="translate(-424.000000, -2855.000000)">
            <g id="Dotted-BG2" transform="translate(424.000000, 2855.000000)">
                <mask id="mask-2" fill="white">
                    <use xlink:href="#path-1"></use>
                </mask>
                <g id="Background"></g>
                <g id="Dotted-BG1" stroke-width="1" fill-rule="evenodd" mask="url(#mask-2)">
                    <g transform="translate(120.000000, 90.500000) rotate(-270.000000) translate(-120.000000, -90.500000) translate(29.000000, -29.000000)">
                        <mask id="mask-4" fill="white">
                            <use xlink:href="#path-3"></use>
                        </mask>
                        <g id="Clip-77" stroke="none" fill="none"></g>
                        <path d="M6.2598375,3.21890625 C6.2598375,4.9494375 4.8580875,6.3511875 3.129525,6.3511875 C1.4009625,6.3511875 -0.0007875,4.9494375 -0.0007875,3.21890625 C-0.0007875,1.49034375 1.4009625,0.08859375 3.129525,0.08859375 C4.8580875,0.08859375 6.2598375,1.49034375 6.2598375,3.21890625" id="Fill-76" stroke="none" fill="#E6E6E7" fill-rule="evenodd"></path>
                        <path d="M51,2.9990569 C51,4.65702609 49.6584906,6 48,6 C46.3433962,6 45,4.65702609 45,2.9990569 C45,1.34297391 46.3433962,0 48,0 C49.6584906,0 51,1.34297391 51,2.9990569" id="Fill-79" stroke="none" fill="#E6E6E7" fill-rule="evenodd"></path>
                        <path d="M94,2.9990569 C94,4.65702609 92.6566038,6 91,6 C89.3433962,6 88,4.65702609 88,2.9990569 C88,1.34297391 89.3433962,0 91,0 C92.6566038,0 94,1.34297391 94,2.9990569" id="Fill-81" stroke="none" fill="#E6E6E7" fill-rule="evenodd"></path>
                        <path d="M138,2.9990569 C138,4.65702609 136.656604,6 135,6 C133.343396,6 132,4.65702609 132,2.9990569 C132,1.34297391 133.343396,0 135,0 C136.656604,0 138,1.34297391 138,2.9990569" id="Fill-83" stroke="none" fill="#E6E6E7" fill-rule="evenodd"></path>
                        <path d="M182,2.9990569 C182,4.65702609 180.658491,6 179,6 C177.343396,6 176,4.65702609 176,2.9990569 C176,1.34297391 177.343396,0 179,0 C180.658491,0 182,1.34297391 182,2.9990569" id="Fill-85" stroke="none" fill="#E6E6E7" fill-rule="evenodd"></path>
                        <mask id="mask-6" fill="white">
                            <use xlink:href="#path-5"></use>
                        </mask>
                        <g id="Clip-102" stroke="none" fill="none"></g>
                        <path d="M6.2598375,41.4112531 C6.2598375,43.1398156 4.8580875,44.5415656 3.129525,44.5415656 C1.4009625,44.5415656 -0.0007875,43.1398156 -0.0007875,41.4112531 C-0.0007875,39.6807219 1.4009625,38.2789719 3.129525,38.2789719 C4.8580875,38.2789719 6.2598375,39.6807219 6.2598375,41.4112531" id="Fill-101" stroke="none" fill="#E6E6E7" fill-rule="evenodd"></path>
                        <path d="M51,42.0009431 C51,43.6570261 49.6584906,45 48,45 C46.3433962,45 45,43.6570261 45,42.0009431 C45,40.3429739 46.3433962,39 48,39 C49.6584906,39 51,40.3429739 51,42.0009431" id="Fill-104" stroke="none" fill="#E6E6E7" fill-rule="evenodd"></path>
                        <path d="M94,42.0009431 C94,43.6570261 92.6566038,45 91,45 C89.3433962,45 88,43.6570261 88,42.0009431 C88,40.3429739 89.3433962,39 91,39 C92.6566038,39 94,40.3429739 94,42.0009431" id="Fill-106" stroke="none" fill="#E6E6E7" fill-rule="evenodd"></path>
                        <path d="M138,42.0009431 C138,43.6570261 136.656604,45 135,45 C133.343396,45 132,43.6570261 132,42.0009431 C132,40.3429739 133.343396,39 135,39 C136.656604,39 138,40.3429739 138,42.0009431" id="Fill-108" stroke="none" fill="#E6E6E7" fill-rule="evenodd"></path>
                        <path d="M182,42.0009431 C182,43.6570261 180.658491,45 179,45 C177.343396,45 176,43.6570261 176,42.0009431 C176,40.3429739 177.343396,39 179,39 C180.658491,39 182,40.3429739 182,42.0009431" id="Fill-110" stroke="none" fill="#E6E6E7" fill-rule="evenodd"></path>
                        <mask id="mask-8" fill="white">
                            <use xlink:href="#path-7"></use>
                        </mask>
                        <g id="Clip-127" stroke="none" fill="none"></g>
                        <path d="M6.2598375,80.6016312 C6.2598375,82.3301937 4.8580875,83.7319437 3.129525,83.7319437 C1.4009625,83.7319437 -0.0007875,82.3301937 -0.0007875,80.6016312 C-0.0007875,78.8730687 1.4009625,77.4713187 3.129525,77.4713187 C4.8580875,77.4713187 6.2598375,78.8730687 6.2598375,80.6016312" id="Fill-126" stroke="none" fill="#E6E6E7" fill-rule="evenodd"></path>
                        <path d="M51,81 C51,82.6566038 49.6584906,84 48,84 C46.3433962,84 45,82.6566038 45,81 C45,79.3433962 46.3433962,78 48,78 C49.6584906,78 51,79.3433962 51,81" id="Fill-129" stroke="none" fill="#E6E6E7" fill-rule="evenodd"></path>
                        <path d="M94,81 C94,82.6566038 92.6566038,84 91,84 C89.3433962,84 88,82.6566038 88,81 C88,79.3433962 89.3433962,78 91,78 C92.6566038,78 94,79.3433962 94,81" id="Fill-131" stroke="none" fill="#E6E6E7" fill-rule="evenodd"></path>
                        <path d="M138,81 C138,82.6566038 136.656604,84 135,84 C133.343396,84 132,82.6566038 132,81 C132,79.3433962 133.343396,78 135,78 C136.656604,78 138,79.3433962 138,81" id="Fill-133" stroke="none" fill="#E6E6E7" fill-rule="evenodd"></path>
                        <path d="M182,81 C182,82.6566038 180.658491,84 179,84 C177.343396,84 176,82.6566038 176,81 C176,79.3433962 177.343396,78 179,78 C180.658491,78 182,79.3433962 182,81" id="Fill-135" stroke="none" fill="#E6E6E7" fill-rule="evenodd"></path>
                        <mask id="mask-10" fill="white">
                            <use xlink:href="#path-9"></use>
                        </mask>
                        <g id="Clip-152" stroke="none" fill="none"></g>
                        <path d="M6.2598375,118.791813 C6.2598375,120.520375 4.8580875,121.922125 3.129525,121.922125 C1.4009625,121.922125 -0.0007875,120.520375 -0.0007875,118.791813 C-0.0007875,117.06325 1.4009625,115.6615 3.129525,115.6615 C4.8580875,115.6615 6.2598375,117.06325 6.2598375,118.791813" id="Fill-151" stroke="none" fill="#E6E6E7" fill-rule="evenodd"></path>
                        <path d="M51,119 C51,120.656604 49.6584906,122 48,122 C46.3433962,122 45,120.656604 45,119 C45,117.343396 46.3433962,116 48,116 C49.6584906,116 51,117.343396 51,119" id="Fill-154" stroke="none" fill="#E6E6E7" fill-rule="evenodd"></path>
                        <path d="M94,119 C94,120.656604 92.6566038,122 91,122 C89.3433962,122 88,120.656604 88,119 C88,117.343396 89.3433962,116 91,116 C92.6566038,116 94,117.343396 94,119" id="Fill-156" stroke="none" fill="#E6E6E7" fill-rule="evenodd"></path>
                        <path d="M138,119 C138,120.656604 136.656604,122 135,122 C133.343396,122 132,120.656604 132,119 C132,117.343396 133.343396,116 135,116 C136.656604,116 138,117.343396 138,119" id="Fill-158" stroke="none" fill="#E6E6E7" fill-rule="evenodd"></path>
                        <path d="M182,119 C182,120.656604 180.658491,122 179,122 C177.343396,122 176,120.656604 176,119 C176,117.343396 177.343396,116 179,116 C180.658491,116 182,117.343396 182,119" id="Fill-160" stroke="none" fill="#E6E6E7" fill-rule="evenodd"></path>
                        <mask id="mask-12" fill="white">
                            <use xlink:href="#path-11"></use>
                        </mask>
                        <g id="Clip-177" stroke="none" fill="none"></g>
                        <path d="M6.2598375,158.0454 C6.2598375,159.8014 4.8580875,161.2254 3.129525,161.2254 C1.4009625,161.2254 -0.0007875,159.8014 -0.0007875,158.0454 C-0.0007875,156.2894 1.4009625,154.8654 3.129525,154.8654 C4.8580875,154.8654 6.2598375,156.2894 6.2598375,158.0454" id="Fill-176" stroke="none" fill="#E6E6E7" fill-rule="evenodd"></path>
                        <path d="M51,158 C51,159.656604 49.6584906,161 48,161 C46.3433962,161 45,159.656604 45,158 C45,156.343396 46.3433962,155 48,155 C49.6584906,155 51,156.343396 51,158" id="Fill-179" stroke="none" fill="#E6E6E7" fill-rule="evenodd"></path>
                        <path d="M94,158 C94,159.656604 92.6566038,161 91,161 C89.3433962,161 88,159.656604 88,158 C88,156.343396 89.3433962,155 91,155 C92.6566038,155 94,156.343396 94,158" id="Fill-181" stroke="none" fill="#E6E6E7" fill-rule="evenodd"></path>
                        <path d="M138,158 C138,159.656604 136.656604,161 135,161 C133.343396,161 132,159.656604 132,158 C132,156.343396 133.343396,155 135,155 C136.656604,155 138,156.343396 138,158" id="Fill-183" stroke="none" fill="#E6E6E7" fill-rule="evenodd"></path>
                        <path d="M182,158 C182,159.656604 180.658491,161 179,161 C177.343396,161 176,159.656604 176,158 C176,156.343396 177.343396,155 179,155 C180.658491,155 182,156.343396 182,158" id="Fill-185" stroke="none" fill="#E6E6E7" fill-rule="evenodd"></path>
                        <mask id="mask-14" fill="white">
                            <use xlink:href="#path-13"></use>
                        </mask>
                        <g id="Clip-202" stroke="none" fill="none"></g>
                        <path d="M6.2598375,197.297569 C6.2598375,199.026131 4.8580875,200.427881 3.129525,200.427881 C1.4009625,200.427881 -0.0007875,199.026131 -0.0007875,197.297569 C-0.0007875,195.569006 1.4009625,194.167256 3.129525,194.167256 C4.8580875,194.167256 6.2598375,195.569006 6.2598375,197.297569" id="Fill-201" stroke="none" fill="#E6E6E7" fill-rule="evenodd"></path>
                        <path d="M51,197 C51,198.656604 49.6584906,200 48,200 C46.3433962,200 45,198.656604 45,197 C45,195.343396 46.3433962,194 48,194 C49.6584906,194 51,195.343396 51,197" id="Fill-204" stroke="none" fill="#E6E6E7" fill-rule="evenodd"></path>
                        <path d="M94,197 C94,198.656604 92.6566038,200 91,200 C89.3433962,200 88,198.656604 88,197 C88,195.343396 89.3433962,194 91,194 C92.6566038,194 94,195.343396 94,197" id="Fill-206" stroke="none" fill="#E6E6E7" fill-rule="evenodd"></path>
                        <path d="M138,197 C138,198.656604 136.656604,200 135,200 C133.343396,200 132,198.656604 132,197 C132,195.343396 133.343396,194 135,194 C136.656604,194 138,195.343396 138,197" id="Fill-208" stroke="none" fill="#E6E6E7" fill-rule="evenodd"></path>
                        <path d="M182,197 C182,198.656604 180.658491,200 179,200 C177.343396,200 176,198.656604 176,197 C176,195.343396 177.343396,194 179,194 C180.658491,194 182,195.343396 182,197" id="Fill-210" stroke="none" fill="#E6E6E7" fill-rule="evenodd"></path>
                        <mask id="mask-16" fill="white">
                            <use xlink:href="#path-15"></use>
                        </mask>
                        <g id="Clip-227" stroke="none" fill="none"></g>
                        <path d="M6.2598375,235.487947 C6.2598375,237.216509 4.8580875,238.618259 3.129525,238.618259 C1.4009625,238.618259 -0.0007875,237.216509 -0.0007875,235.487947 C-0.0007875,233.759384 1.4009625,232.357634 3.129525,232.357634 C4.8580875,232.357634 6.2598375,233.759384 6.2598375,235.487947" id="Fill-226" stroke="none" fill="#E6E6E7" fill-rule="evenodd"></path>
                        <path d="M51,236 C51,237.656604 49.6584906,239 48,239 C46.3433962,239 45,237.656604 45,236 C45,234.343396 46.3433962,233 48,233 C49.6584906,233 51,234.343396 51,236" id="Fill-229" stroke="none" fill="#E6E6E7" fill-rule="evenodd"></path>
                        <path d="M94,236 C94,237.656604 92.6566038,239 91,239 C89.3433962,239 88,237.656604 88,236 C88,234.343396 89.3433962,233 91,233 C92.6566038,233 94,234.343396 94,236" id="Fill-231" stroke="none" fill="#E6E6E7" fill-rule="evenodd"></path>
                        <path d="M138,236 C138,237.656604 136.656604,239 135,239 C133.343396,239 132,237.656604 132,236 C132,234.343396 133.343396,233 135,233 C136.656604,233 138,234.343396 138,236" id="Fill-233" stroke="none" fill="#E6E6E7" fill-rule="evenodd"></path>
                        <path d="M182,236 C182,237.656604 180.658491,239 179,239 C177.343396,239 176,237.656604 176,236 C176,234.343396 177.343396,233 179,233 C180.658491,233 182,234.343396 182,236" id="Fill-235" stroke="none" fill="#E6E6E7" fill-rule="evenodd"></path>
                    </g>
                </g>
            </g>
        </g>
    </g>
</svg>