<svg width="40" height="40" viewBox="0 0 40 40" fill="none" xmlns="http://www.w3.org/2000/svg">
<path d="M19.8399 12.0237L20.3528 11.5474L20.3528 11.5474L19.8399 12.0237ZM19.8032 13.013L20.2796 13.5259L20.2796 13.5259L19.8032 13.013ZM18.8506 11.987L18.3743 11.4741L18.3743 11.4741L18.8506 11.987ZM10.7751 19.4857L11.2501 19.9999L11.2515 19.9986L10.7751 19.4857ZM10.7231 20.4609L10.1963 20.9218L10.1963 20.9218L10.7231 20.4609ZM10.7737 20.513L10.2974 21.0259C10.5551 21.2652 10.9504 21.2762 11.2209 21.0514L10.7737 20.513ZM18.8506 28.013L18.3743 28.5259V28.5259L18.8506 28.013ZM10.7751 20.5143L10.3278 19.9759C10.1729 20.1046 10.0809 20.2937 10.0754 20.495C10.0698 20.6963 10.1512 20.8902 10.2988 21.0272L10.7751 20.5143ZM19.8399 27.9763L20.3528 28.4526L20.3528 28.4526L19.8399 27.9763ZM19.8032 26.987L20.2796 26.4741L20.2796 26.4741L19.8032 26.987ZM13.0326 20.7L13.0326 20C12.7447 20 12.4862 20.1762 12.381 20.4441C12.2758 20.7121 12.3453 21.0171 12.5563 21.213L13.0326 20.7ZM13.0326 19.3L12.5563 18.787C12.3453 18.9829 12.2758 19.2879 12.381 19.5559C12.4862 19.8238 12.7447 20 13.0326 20V19.3ZM19.3269 12.5L19.3269 12.5L20.2796 13.5259C20.8461 12.9998 20.879 12.114 20.3528 11.5474L19.3269 12.5ZM19.3269 12.5H19.3269L20.3528 11.5474C19.8267 10.9808 18.9409 10.948 18.3743 11.4741L19.3269 12.5ZM11.2515 19.9986L19.3269 12.5L18.3743 11.4741L10.2988 18.9727L11.2515 19.9986ZM11.25 20L11.2501 19.9999L10.3002 18.9715C10.0243 19.2263 9.85 19.5933 9.85 20L11.25 20ZM11.25 20L11.25 20L9.85 20C9.85 20.3407 9.97411 20.6678 10.1963 20.9218L11.25 20ZM11.25 20L11.25 20L10.1963 20.9218C10.228 20.958 10.2617 20.9928 10.2974 21.0259L11.25 20ZM11.2209 21.0514L20.2505 13.5514L19.356 12.4745L10.3264 19.9745L11.2209 21.0514ZM19.3269 27.5L11.2514 20.0013L10.2988 21.0272L18.3743 28.5259L19.3269 27.5ZM19.3269 27.5L19.3269 27.5L18.3743 28.5259C18.9409 29.052 19.8267 29.0192 20.3528 28.4526L19.3269 27.5ZM19.3269 27.5L19.3269 27.5L20.3528 28.4526C20.879 27.886 20.8461 27.0002 20.2796 26.4741L19.3269 27.5ZM12.5563 21.213L19.3269 27.5L20.2796 26.4741L13.5089 20.187L12.5563 21.213ZM28.75 20H13.0326L13.0326 21.4H28.75V20ZM28.75 20V21.4C29.5232 21.4 30.15 20.7732 30.15 20H28.75ZM28.75 20H30.15C30.15 19.2268 29.5232 18.6 28.75 18.6V20ZM13.0326 20H28.75V18.6H13.0326V20ZM19.3269 12.5L12.5563 18.787L13.5089 19.813L20.2796 13.5259L19.3269 12.5ZM19.3559 12.4746L10.3278 19.9759L11.2225 21.0527L20.2506 13.5514L19.3559 12.4746Z" fill="#4169e1"/>
<path d="M0.5 20C0.5 9.23045 9.23045 0.5 20 0.5C30.7696 0.5 39.5 9.23045 39.5 20C39.5 30.7696 30.7696 39.5 20 39.5C9.23045 39.5 0.5 30.7696 0.5 20Z" stroke="white"/>
</svg>
