<svg width="242" height="58" viewBox="0 0 242 58" fill="none" xmlns="http://www.w3.org/2000/svg">
<path d="M52.4149 16.2173L51.1741 13.1232L50.8647 13.2473C32.2782 20.7026 19.0596 18.7594 3.78123 6.26794L3.06104 5.67344L0.933434 8.23854L1.19003 8.45134C17.3563 21.858 32.0071 24.2372 51.513 16.5766L52.4149 16.2173Z" fill="#4169E1"/>
<path d="M1.87383 8.14962L3.15053 6.61092L3.36182 6.78482C18.6721 19.3011 32.0302 21.3693 50.545 14.0909L50.8038 13.9883L51.5485 15.8449L51.8579 15.7217C32.4776 23.4951 18.0481 21.367 2.09983 8.33542L1.87383 8.14962Z" fill="#4169E1"/>
<path d="M69.1716 7.51776C69.1829 15.5578 66.1315 24.0738 60.1078 32.835C54.0601 41.6298 45.9024 49.5843 35.8622 56.4784C35.2933 56.8682 34.5443 56.8682 33.9751 56.4782C23.9338 49.5827 15.776 41.6286 9.72906 32.835C3.60396 23.9253 0.552065 15.2692 0.668465 7.10926C0.681265 6.23426 1.36657 5.52495 2.22677 5.46955L2.33517 5.46616H2.35927C3.27957 5.47946 4.01506 6.23636 4.00176 7.15686C3.89486 14.6032 6.74267 22.6066 12.4765 30.946C18.0176 39.0048 25.4256 46.3477 34.5143 52.79L34.9184 53.0748L35.3227 52.7901C44.2136 46.4886 51.4964 39.3245 56.9971 31.4706L57.3611 30.946C63.0945 22.6071 65.9421 14.6036 65.8352 7.15696C65.8218 6.23636 66.5573 5.47946 67.4892 5.46616C68.3843 5.48446 69.0962 6.13866 69.1634 7.00046L69.1684 7.10926L69.1716 7.51776Z" fill="#4169E1"/>
<path d="M34.3518 55.9281C34.6936 56.1623 35.1432 56.1623 35.4847 55.9283C45.4594 49.0792 53.5583 41.182 59.5581 32.4569C65.6106 23.6538 68.6164 15.1285 68.5015 7.11856C68.4935 6.56866 68.0544 6.14415 67.4869 6.13235C66.9348 6.14035 66.4934 6.59456 66.5014 7.14696C66.6105 14.7444 63.7166 22.8782 57.9101 31.3233C52.3223 39.4498 44.8584 46.848 35.7081 53.3333L34.9182 53.8884L34.7271 53.755C25.3028 47.1684 17.6351 39.6255 11.9268 31.3233C6.11995 22.8777 3.22575 14.744 3.33485 7.14696C3.34235 6.62706 2.95185 6.19416 2.44955 6.13836L2.35415 6.13235H2.33475C1.78875 6.13235 1.34275 6.57165 1.33475 7.11845C1.22045 15.1285 4.22625 23.6538 10.2781 32.4569C16.277 41.1807 24.376 49.0775 34.3518 55.9281Z" fill="#4169E1"/>
<path fill-rule="evenodd" clip-rule="evenodd" d="M13.8675 0.724442L13.7972 0.720043L13.7251 0.71854L13.6135 0.72224C12.8013 0.77644 12.1362 1.41764 12.0657 2.24424C11.5733 8.05324 13.3354 14.3573 17.293 20.9802C21.1767 27.4799 26.6056 33.489 33.4274 38.8414C34.1507 39.4098 35.1983 39.2832 35.7667 38.559C36.3356 37.8351 36.2093 36.7873 35.4847 36.2195C28.9842 31.1189 23.8263 25.4153 20.1546 19.2702C16.5563 13.2481 14.9558 7.61474 15.3873 2.52604C15.4647 1.60884 14.7844 0.802842 13.8675 0.724442Z" fill="white"/>
<path d="M24.3773 46.6645C23.7535 47.3378 22.4107 47.4457 21.7299 46.8288C16.7772 42.3412 12.8034 37.475 9.24313 32.3538C3.08273 23.4934 0.525034 14.982 0.643534 6.83084C0.656734 5.91764 0.925731 5.18804 1.84903 5.20124C2.77233 5.21434 4.00033 5.91764 3.98713 6.83084C3.87953 14.2363 6.07043 21.4108 12.0726 30.4387C15.3953 35.4363 19.5046 40.0067 24.274 44.3282C24.9548 44.9452 25.0011 45.9911 24.3773 46.6645Z" fill="white"/>
<path d="M24.7938 47.2903L23.4659 48.2591L20.8536 45.9057L22.9466 44.516C31.9729 38.5698 39.3257 31.6772 44.8017 24.0309C50.0983 16.6359 52.8364 9.49693 52.9535 2.80473L52.9573 2.43333L53.2904 2.43443L53.2917 2.10103L56.2917 2.11003L56.2907 2.44344C56.2678 9.95904 53.311 17.8748 47.5117 25.9725C41.9167 33.7837 34.4711 40.8232 25.3885 46.8956L24.7938 47.2903Z" fill="#4169E1"/>
<path d="M23.5097 47.4008L24.4133 46.7417C33.713 40.6147 41.3017 33.4954 46.969 25.5833C52.4919 17.8715 55.3933 10.3522 55.6103 3.21722L55.6204 2.77342L53.6204 2.76742L53.6195 2.80712C53.5041 9.52482 50.8157 16.6533 45.6335 24.0092L45.343 24.4181C39.9377 31.9656 32.7264 38.7796 23.9042 44.6791L21.9384 45.9848L23.5097 47.4008Z" fill="#4169E1"/>
<path d="M13.8037 0.66884L13.9335 0.684042L14.0627 0.709543L22.9567 2.90074C29.9317 4.56724 37.3018 4.63594 44.3038 3.10344L44.8283 2.98544L54.1582 0.833143C55.0555 0.629743 55.949 1.18734 56.1553 2.08314C56.3545 2.94374 55.8468 3.80254 55.0122 4.05354L54.9062 4.08174L45.5775 6.23444C38.0947 7.96004 30.2024 7.97044 22.7158 6.26764L22.1817 6.14314L13.2876 3.95124C12.3925 3.73704 11.8402 2.83774 12.0543 1.94304C12.2252 1.22664 12.8423 0.716842 13.5598 0.667642L13.6739 0.663743L13.8037 0.66884Z" fill="#4169E1"/>
<path d="M92.4688 45V10.875H104.164C108.023 10.875 110.961 11.6484 112.977 13.1953C114.992 14.7422 116 17.0469 116 20.1094C116 21.6719 115.578 23.0781 114.734 24.3281C113.891 25.5781 112.656 26.5469 111.031 27.2344C112.875 27.7344 114.297 28.6797 115.297 30.0703C116.312 31.4453 116.82 33.1016 116.82 35.0391C116.82 38.2422 115.789 40.7031 113.727 42.4219C111.68 44.1406 108.742 45 104.914 45H92.4688ZM98.3984 29.6016V40.2656H104.984C106.844 40.2656 108.297 39.8047 109.344 38.8828C110.391 37.9609 110.914 36.6797 110.914 35.0391C110.914 31.4922 109.102 29.6797 105.477 29.6016H98.3984ZM98.3984 25.2422H104.211C106.055 25.2422 107.492 24.8281 108.523 24C109.57 23.1562 110.094 21.9688 110.094 20.4375C110.094 18.75 109.609 17.5312 108.641 16.7812C107.688 16.0312 106.195 15.6562 104.164 15.6562H98.3984V25.2422ZM128.258 45H122.562V19.6406H128.258V45ZM122.211 13.0547C122.211 12.1797 122.484 11.4531 123.031 10.875C123.594 10.2969 124.391 10.0078 125.422 10.0078C126.453 10.0078 127.25 10.2969 127.812 10.875C128.375 11.4531 128.656 12.1797 128.656 13.0547C128.656 13.9141 128.375 14.6328 127.812 15.2109C127.25 15.7734 126.453 16.0547 125.422 16.0547C124.391 16.0547 123.594 15.7734 123.031 15.2109C122.484 14.6328 122.211 13.9141 122.211 13.0547ZM141.617 13.4766V19.6406H146.094V23.8594H141.617V38.0156C141.617 38.9844 141.805 39.6875 142.18 40.125C142.57 40.5469 143.258 40.7578 144.242 40.7578C144.898 40.7578 145.562 40.6797 146.234 40.5234V44.9297C144.938 45.2891 143.688 45.4688 142.484 45.4688C138.109 45.4688 135.922 43.0547 135.922 38.2266V23.8594H131.75V19.6406H135.922V13.4766H141.617ZM149.398 32.1094C149.398 28.1406 150.305 24.9922 152.117 22.6641C153.93 20.3359 156.383 19.1719 159.477 19.1719C162.305 19.1719 164.547 20.1641 166.203 22.1484L166.531 19.6406H171.594V54.75H165.898V42.8438C164.242 44.5938 162.086 45.4688 159.43 45.4688C156.398 45.4688 153.969 44.2891 152.141 41.9297C150.312 39.5547 149.398 36.2812 149.398 32.1094ZM155.094 32.6016C155.094 35.1953 155.602 37.2344 156.617 38.7188C157.648 40.1875 159.07 40.9219 160.883 40.9219C163.133 40.9219 164.805 39.9609 165.898 38.0391V26.5078C164.805 24.6641 163.148 23.7422 160.93 23.7422C159.117 23.7422 157.688 24.4688 156.641 25.9219C155.609 27.375 155.094 29.6016 155.094 32.6016ZM176.68 32.0859C176.68 29.6016 177.172 27.3672 178.156 25.3828C179.141 23.3828 180.523 21.8516 182.305 20.7891C184.086 19.7109 186.133 19.1719 188.445 19.1719C191.867 19.1719 194.641 20.2734 196.766 22.4766C198.906 24.6797 200.062 27.6016 200.234 31.2422L200.258 32.5781C200.258 35.0781 199.773 37.3125 198.805 39.2812C197.852 41.25 196.477 42.7734 194.68 43.8516C192.898 44.9297 190.836 45.4688 188.492 45.4688C184.914 45.4688 182.047 44.2812 179.891 41.9062C177.75 39.5156 176.68 36.3359 176.68 32.3672V32.0859ZM182.375 32.5781C182.375 35.1875 182.914 37.2344 183.992 38.7188C185.07 40.1875 186.57 40.9219 188.492 40.9219C190.414 40.9219 191.906 40.1719 192.969 38.6719C194.047 37.1719 194.586 34.9766 194.586 32.0859C194.586 29.5234 194.031 27.4922 192.922 25.9922C191.828 24.4922 190.336 23.7422 188.445 23.7422C186.586 23.7422 185.109 24.4844 184.016 25.9688C182.922 27.4375 182.375 29.6406 182.375 32.5781ZM210.359 19.6406L210.523 22.5703C212.398 20.3047 214.859 19.1719 217.906 19.1719C223.188 19.1719 225.875 22.1953 225.969 28.2422V45H220.273V28.5703C220.273 26.9609 219.922 25.7734 219.219 25.0078C218.531 24.2266 217.398 23.8359 215.82 23.8359C213.523 23.8359 211.812 24.875 210.688 26.9531V45H204.992V19.6406H210.359Z" fill="white"/>
</svg>
