<?xml version="1.0" encoding="UTF-8"?>
<svg width="412px" height="51px" viewBox="0 0 412 51" version="1.1" xmlns="http://www.w3.org/2000/svg" xmlns:xlink="http://www.w3.org/1999/xlink">
    <title>Group 5</title>
    <g id="Page-1" stroke="none" stroke-width="1" fill="none" fill-rule="evenodd">
        <g id="1372" transform="translate(-275.000000, -87.000000)" fill-rule="nonzero">
            <g id="Menu-1" transform="translate(0.000000, 87.000000)">
                <g id="Group-5" transform="translate(275.000000, 0.000000)">
                    <g id="Logo-sign">
                        <path d="M15.6625146,36.9427141 L16.7755926,39.7053071 L17.0531404,39.5944998 C33.7263122,32.937959 45.5841453,34.6730363 59.2898177,45.8261568 L59.935863,46.3569702 L61.8444459,44.0666834 L61.6142589,43.876683 C47.1121303,31.9063646 33.9695072,29.7820769 16.4716031,36.6219162 L15.6625146,36.9427141 Z" id="Path-2" fill="#4169e1"></path>
                        <path d="M0.700979804,44.6783141 C0.690887411,37.4997158 3.42816596,29.8961849 8.83181515,22.0736276 C14.2569889,14.2211111 21.5748773,7.11887067 30.5815262,0.963416088 C31.0918567,0.61536924 31.7637942,0.61536924 32.274377,0.963588386 C41.2820541,7.12034304 48.6000282,14.2222229 54.0244545,22.0736576 C59.5190714,30.0287747 62.2567811,37.7573906 62.1523572,45.0430388 C62.1408886,45.8242487 61.5261542,46.4575967 60.7545291,46.5070147 L60.6572911,46.510119 L60.6356148,46.510119 C59.8100747,46.4981795 59.1502674,45.822364 59.1622239,45.0004892 C59.2581303,38.352075 56.7034509,31.2061087 51.5599147,23.760289 C46.5892565,16.5648962 39.9438386,10.0086993 31.7906929,4.25662956 L31.4282353,4.00238095 L31.0655607,4.25658905 C23.0898959,9.88289909 16.5567783,16.2794247 11.622331,23.2918786 L11.295738,23.7602864 C6.15250904,31.2056613 3.59811281,38.351671 3.69402448,45.0004529 C3.70598146,45.822364 3.04617415,46.4981795 2.21020516,46.510119 C1.40725706,46.4937617 0.768713251,45.9096163 0.708390044,45.1401271 L0.703891143,45.0430033 L0.700979804,44.6783141 Z" id="Path" fill="#4169e1"></path>
                        <path d="M32.7218811,16.7530024 C38.8414383,21.5319565 43.711425,26.8972414 47.1953666,32.7005574 C50.7455527,38.6138332 52.3263026,44.2425553 51.8845816,49.4291225 C51.8213073,50.1671667 51.224655,50.7396194 50.4960798,50.7880027 L50.3959486,50.7913184 L50.331312,50.7900445 L50.2682241,50.786071 C49.4457395,50.7161151 48.8354116,49.9963987 48.90491,49.1774812 C49.29199,44.6340288 47.8562521,39.6041985 44.6283271,34.2273052 C41.3346072,28.740603 36.7076445,23.6481597 30.8763012,19.0940278 C30.226343,18.5870676 30.1130106,17.6515055 30.6233776,17.0051929 C31.1332286,16.3585869 32.0730257,16.2455753 32.7218811,16.7530024 Z" id="Combined-Shape" fill="#FFFFFF"></path>
                        <path d="M40.8645677,9.81237359 C41.4241447,9.21117127 42.628719,9.11480904 43.2394804,9.66562803 C47.6823271,13.6724368 51.2470011,18.0172354 54.4408115,22.5897413 C59.9671012,30.5007896 62.2614863,38.100321 62.1552353,45.3781671 C62.1433326,46.1934637 61.902069,46.8448942 61.0738092,46.8334849 C60.2455494,46.8214613 59.1439109,46.1934637 59.1558136,45.3781671 C59.2523446,38.766112 57.2869151,32.3602813 51.9025754,24.2996563 C48.9219858,19.8375651 45.2356558,15.7568038 40.9572452,11.8982927 C40.3464838,11.3474737 40.3049906,10.4135759 40.8645677,9.81237359 Z" id="Stroke-10" fill="#FFFFFF"></path>
                        <path d="M40.4872872,9.1524841 L41.6784888,8.2874929 L44.0218671,10.3887361 L42.1443071,11.6295482 C34.0472384,16.9386549 27.4513674,23.0927612 22.5390428,29.9197894 C17.7876653,36.5224527 15.3314526,42.896592 15.2263545,48.8717911 L15.2229349,49.2033351 L14.9241471,49.202381 L14.9230196,49.5000582 L12.2318306,49.4920224 L12.2327415,49.194391 C12.2532797,42.4839955 14.9057279,35.4163322 20.1080292,28.1862772 C25.1270548,21.211978 31.8061809,14.9266931 39.9538382,9.5048562 L40.4872872,9.1524841 Z" id="Path" fill="#4169e1"></path>
                        <path d="M50.2630722,50.7961316 L50.1466415,50.7825028 L50.0307308,50.7597859 L42.0522936,48.80334 C35.7953255,47.3153453 29.1839095,47.2540389 22.9026398,48.6223753 L22.4321743,48.7276812 L14.0627255,50.649357 C13.257751,50.8310427 12.4562053,50.3331124 12.271178,49.5333496 C12.0925197,48.7649322 12.5479288,47.9981246 13.2966343,47.7740185 L13.3917254,47.748871 L21.760128,45.826838 C28.4726378,44.2860884 35.5524573,44.2768399 42.2683975,45.7971396 L42.7474788,45.9083337 L50.7259936,47.8653933 C51.5289517,48.0566351 52.0244284,48.859538 51.8323606,49.6584271 C51.6790477,50.2980713 51.1254488,50.7532694 50.4818384,50.7971901 L50.3795129,50.800674 L50.2630722,50.7961316 Z" id="Path" fill="#4169e1"></path>
                    </g>
                    <path d="M81.2062056,25.8738739 L82.4085326,22.7027027 L87.8190045,22.7027027 L89.0213316,25.8738739 L92.2275372,25.8738739 L86.8170653,12 L83.4104719,12 L78,25.8738739 L81.2062056,25.8738739 Z M86.8170653,20.027027 L83.4104719,20.027027 L85.073691,15.4684685 L85.1538462,15.4684685 L86.8170653,20.027027 Z M103.649644,25.8738739 L103.649644,23.0990991 L97.1370394,23.0990991 L97.1370394,12 L94.1312217,12 L94.1312217,25.8738739 L103.649644,25.8738739 Z M108.859729,25.8738739 L108.859729,20.8198198 L114.570782,20.8198198 L114.570782,18.045045 L108.859729,18.045045 L108.859729,14.7747748 L116.173885,14.7747748 L116.173885,12 L105.853911,12 L105.853911,25.8738739 L108.859729,25.8738739 Z M120.181642,25.8738739 L121.383969,22.7027027 L126.794441,22.7027027 L127.996768,25.8738739 L131.202973,25.8738739 L125.792502,12 L122.385908,12 L116.975436,25.8738739 L120.181642,25.8738739 Z M125.792502,20.027027 L122.385908,20.027027 L124.049127,15.4684685 L124.129282,15.4684685 L125.792502,20.027027 Z M86.4162896,45 C88.4201681,45 89.9030381,44.3063063 90.9250162,43.6126126 C91.5061409,43.1963964 92.0071105,42.7405405 92.427925,42.2252252 L90.4240465,40.2432432 C90.1435036,40.6198198 89.8028442,40.9369369 89.4020685,41.2342342 C88.7007111,41.7297297 87.7188106,42.2252252 86.4162896,42.2252252 C83.9114415,42.2252252 81.907563,40.2432432 81.907563,37.7657658 C81.907563,35.2882883 83.9114415,33.3063063 86.4162896,33.3063063 C87.678733,33.3063063 88.6405947,33.8018018 89.3018746,34.2972973 C89.6826115,34.5945946 90.0232708,34.9117117 90.3238526,35.2882883 L92.3277311,33.3063063 C91.9069166,32.790991 91.4259858,32.3351351 90.844861,31.9189189 C89.8629606,31.2252252 88.3600517,30.5315315 86.4162896,30.5315315 C82.0879121,30.5315315 78.8015514,33.8018018 78.8015514,37.7657658 C78.8015514,41.7297297 82.0879121,45 86.4162896,45 Z M101.345184,45 C105.673562,45 108.959922,41.7297297 108.959922,37.7657658 C108.959922,33.8018018 105.673562,30.5315315 101.345184,30.5315315 C97.0168067,30.5315315 93.730446,33.8018018 93.730446,37.7657658 C93.730446,41.7297297 97.0168067,45 101.345184,45 Z M101.345184,42.2252252 C98.8403361,42.2252252 96.8364577,40.2432432 96.8364577,37.7657658 C96.8364577,35.2882883 98.8403361,33.3063063 101.345184,33.3063063 C103.850032,33.3063063 105.853911,35.2882883 105.853911,37.7657658 C105.853911,40.2432432 103.850032,42.2252252 101.345184,42.2252252 Z M114.670976,44.7027027 L114.670976,40.1441441 L117.476406,40.1441441 L119.981254,44.7027027 L123.287654,44.7027027 L120.38203,39.5495495 C120.842922,39.3513514 121.243697,39.0738739 121.584357,38.7171171 C122.205559,38.1027027 122.786684,37.0720721 122.786684,35.4864865 C122.786684,32.7117117 120.882999,30.8288288 117.877182,30.8288288 L111.665158,30.8288288 L111.665158,44.7027027 L114.670976,44.7027027 Z M117.776988,37.3693694 L114.670976,37.3693694 L114.670976,33.6036036 L117.776988,33.6036036 C118.89916,33.6036036 119.680672,34.3765766 119.680672,35.4864865 C119.680672,36.5963964 118.89916,37.3693694 117.776988,37.3693694 Z M128.798319,44.7027027 L128.798319,40.1441441 L131.703943,40.1441441 C134.689722,40.1441441 136.713639,38.181982 136.713639,35.4864865 C136.713639,32.790991 134.689722,30.8288288 131.703943,30.8288288 L125.792502,30.8288288 L125.792502,44.7027027 L128.798319,44.7027027 Z M131.603749,37.3693694 L128.798319,37.3693694 L128.798319,33.6036036 L131.603749,33.6036036 C132.806076,33.6036036 133.607628,34.3765766 133.607628,35.4864865 C133.607628,36.5963964 132.806076,37.3693694 131.603749,37.3693694 Z M146.131868,45 C150.460246,45 153.746606,41.7297297 153.746606,37.7657658 C153.746606,33.8018018 150.460246,30.5315315 146.131868,30.5315315 C141.803491,30.5315315 138.51713,33.8018018 138.51713,37.7657658 C138.51713,41.7297297 141.803491,45 146.131868,45 Z M146.131868,42.2252252 C143.62702,42.2252252 141.623142,40.2432432 141.623142,37.7657658 C141.623142,35.2882883 143.62702,33.3063063 146.131868,33.3063063 C148.636716,33.3063063 150.640595,35.2882883 150.640595,37.7657658 C150.640595,40.2432432 148.636716,42.2252252 146.131868,42.2252252 Z M159.45766,44.7027027 L159.45766,40.1441441 L162.26309,40.1441441 L164.767938,44.7027027 L168.074337,44.7027027 L165.168714,39.5495495 C165.629606,39.3513514 166.030381,39.0738739 166.371041,38.7171171 C166.992243,38.1027027 167.573368,37.0720721 167.573368,35.4864865 C167.573368,32.7117117 165.669683,30.8288288 162.663866,30.8288288 L156.451842,30.8288288 L156.451842,44.7027027 L159.45766,44.7027027 Z M162.563672,37.3693694 L159.45766,37.3693694 L159.45766,33.6036036 L162.563672,33.6036036 C163.685844,33.6036036 164.467356,34.3765766 164.467356,35.4864865 C164.467356,36.5963964 163.685844,37.3693694 162.563672,37.3693694 Z M172.082094,44.7027027 L173.284421,41.5315315 L178.694893,41.5315315 L179.89722,44.7027027 L183.103426,44.7027027 L177.692954,30.8288288 L174.286361,30.8288288 L168.875889,44.7027027 L172.082094,44.7027027 Z M177.692954,38.8558559 L174.286361,38.8558559 L175.94958,34.2972973 L176.029735,34.2972973 L177.692954,38.8558559 Z M190.61797,44.7027027 L190.61797,33.6036036 L194.625727,33.6036036 L194.625727,30.8288288 L183.604396,30.8288288 L183.604396,33.6036036 L187.612153,33.6036036 L187.612153,44.7027027 L190.61797,44.7027027 Z M199.835811,44.7027027 L199.835811,30.8288288 L196.829994,30.8288288 L196.829994,44.7027027 L199.835811,44.7027027 Z M210.155785,45 C214.484163,45 217.770524,41.7297297 217.770524,37.7657658 C217.770524,33.8018018 214.484163,30.5315315 210.155785,30.5315315 C205.827408,30.5315315 202.541047,33.8018018 202.541047,37.7657658 C202.541047,41.7297297 205.827408,45 210.155785,45 Z M210.155785,42.2252252 C207.650937,42.2252252 205.647059,40.2432432 205.647059,37.7657658 C205.647059,35.2882883 207.650937,33.3063063 210.155785,33.3063063 C212.660633,33.3063063 214.664512,35.2882883 214.664512,37.7657658 C214.664512,40.2432432 212.660633,42.2252252 210.155785,42.2252252 Z M223.481577,44.7027027 L223.481577,36.0810811 L230.294764,44.7027027 L233,44.7027027 L233,30.8288288 L229.994182,30.8288288 L229.994182,39.4504505 L223.180995,30.8288288 L220.47576,30.8288288 L220.47576,44.7027027 L223.481577,44.7027027 Z" id="ALFACORPORATION" fill="#FFFFFF"></path>
                    <path d="M270.15,45.37 L270.15,42.08 L252.995,42.08 C255.815,33.385 270.15,31.74 270.15,21.635 C270.15,16.23 265.967,12 259.575,12 C255.298,12 252.854,13.88 251.35,15.76 C250.504,16.841 249.893,18.11 249.47,19.52 L252.525,20.93 C252.807,19.849 253.23,18.909 253.841,18.11 C254.922,16.653 256.567,15.29 259.575,15.29 C264.087,15.29 266.625,17.875 266.625,21.635 C266.625,31.082 249,31.505 249,45.37 L270.15,45.37 Z M289.696337,45.84 C296.464337,45.84 302.809337,39.495 302.809337,28.92 C302.809337,18.345 296.417337,12 289.649337,12 C282.881337,12 276.489337,18.345 276.489337,28.92 C276.489337,39.495 282.834337,45.84 289.696337,45.84 Z M289.696337,42.55 C284.714337,42.55 280.014337,37.85 280.014337,28.92 C280.014337,19.99 284.761337,15.29 289.649337,15.29 C294.537337,15.29 299.284337,19.99 299.284337,28.92 C299.284337,37.85 294.537337,42.55 289.696337,42.55 Z" id="20" fill="#BBA25B"></path>
                    <path d="M313.979046,29.2099783 C315.610789,29.2099783 316.785643,28.0425163 316.785643,22.7240781 L316.785643,21.362039 L320.114399,21.362039 L320.114399,29.0802603 L321.550333,29.0802603 L321.550333,20 L315.34971,20 L315.34971,22.7240781 C315.34971,27.0696312 314.566473,27.8479393 313.717967,27.8479393 C313.522158,27.8479393 313.352456,27.8219957 313.208863,27.7830803 C313.130539,27.7701085 313.06527,27.7441649 313,27.7182213 L313,29.0154013 L313.274133,29.1191757 C313.443834,29.1710629 313.678805,29.2099783 313.979046,29.2099783 Z M330.947599,29.0802603 L330.947599,27.7182213 L325.791291,27.7182213 L325.791291,25.0590022 L329.772744,25.0590022 L329.772744,23.6969631 L325.791291,23.6969631 L325.791291,21.362039 L330.817059,21.362039 L330.817059,20 L324.355357,20 L324.355357,29.0802603 L330.947599,29.0802603 Z M336.167603,29.0802603 L336.167603,21.362039 L338.908931,21.362039 L338.908931,20 L331.990341,20 L331.990341,21.362039 L334.731669,21.362039 L334.731669,29.0802603 L336.167603,29.0802603 Z M315.806598,41.0542299 L315.806598,37.0978308 L320.310208,37.0978308 L320.310208,41.0542299 L321.746142,41.0542299 L321.746142,31.9739696 L320.310208,31.9739696 L320.310208,35.8006508 L315.806598,35.8006508 L315.806598,31.9739696 L314.370664,31.9739696 L314.370664,41.0542299 L315.806598,41.0542299 Z M324.877515,41.0542299 L325.791291,38.7193059 L329.838013,38.7193059 L330.751789,41.0542299 L332.252993,41.0542299 L328.597889,31.9739696 L327.031416,31.9739696 L323.376312,41.0542299 L324.877515,41.0542299 Z M329.315856,37.4221258 L326.313449,37.4221258 L327.814652,33.6603037 L329.315856,37.4221258 Z M334.013702,43 L334.013702,41.0542299 L340.279595,41.0542299 L340.279595,43 L341.715528,43 L341.715528,39.6921909 L340.605943,39.6921909 L340.605943,31.9739696 L334.666399,31.9739696 L334.666399,34.6980477 C334.666399,36.5270716 334.287835,37.7723644 333.883163,38.5636443 C333.661246,39.0306291 333.400167,39.4068113 333.099926,39.6921909 L332.577768,39.6921909 L332.577768,43 L334.013702,43 Z M339.17001,39.6921909 L334.666399,39.6921909 C334.927478,39.4068113 335.162449,39.0306291 335.384366,38.5636443 C335.736823,37.7723644 336.102333,36.5270716 336.102333,34.6980477 L336.102333,33.3360087 L339.17001,33.3360087 L339.17001,39.6921909 Z M350.133749,41.0542299 L350.133749,39.6921909 L344.977441,39.6921909 L344.977441,37.0329718 L348.958894,37.0329718 L348.958894,35.6709328 L344.977441,35.6709328 L344.977441,33.3360087 L350.003209,33.3360087 L350.003209,31.9739696 L343.541507,31.9739696 L343.541507,41.0542299 L350.133749,41.0542299 Z M352.677694,41.0542299 L355.680101,36.7735358 L356.593877,37.7464208 L356.593877,41.0542299 L358.029811,41.0542299 L358.029811,37.7464208 L358.943587,36.7735358 L361.945994,41.0542299 L363.708276,41.0542299 L359.922633,35.7357918 L363.447197,31.9739696 L361.619645,31.9739696 L358.029811,35.8006508 L358.029811,31.9739696 L356.593877,31.9739696 L356.593877,35.8006508 L353.004043,31.9739696 L351.176491,31.9739696 L354.701056,35.7357918 L350.915412,41.0542299 L352.677694,41.0542299 Z M366.64384,41.0542299 L366.64384,37.0978308 L371.147451,37.0978308 L371.147451,41.0542299 L372.583384,41.0542299 L372.583384,31.9739696 L371.147451,31.9739696 L371.147451,35.8006508 L366.64384,35.8006508 L366.64384,31.9739696 L365.207907,31.9739696 L365.207907,41.0542299 L366.64384,41.0542299 Z M379.630941,41.1839479 C382.372269,41.1839479 384.460899,39.1084599 384.460899,36.5140998 C384.460899,33.9197397 382.372269,31.8442516 379.630941,31.8442516 C376.889613,31.8442516 374.800982,33.9197397 374.800982,36.5140998 C374.800982,39.1084599 376.889613,41.1839479 379.630941,41.1839479 Z M379.630941,39.8867679 C377.738119,39.8867679 376.236915,38.3950108 376.236915,36.5140998 C376.236915,34.6331887 377.738119,33.1414317 379.630941,33.1414317 C381.523762,33.1414317 383.024966,34.6331887 383.024966,36.5140998 C383.024966,38.3950108 381.523762,39.8867679 379.630941,39.8867679 Z M390.921028,41.1839479 C392.174207,41.1839479 393.101037,40.7299349 393.74068,40.2759219 C394.119244,40.0035141 394.432539,39.7051627 394.706672,39.3678959 L393.792896,38.4598698 C393.597086,38.7322777 393.349062,38.9657701 393.061875,39.1733189 C392.578879,39.5365293 391.860912,39.8867679 390.921028,39.8867679 C389.028206,39.8867679 387.527003,38.3950108 387.527003,36.5140998 C387.527003,34.6331887 389.028206,33.1414317 390.921028,33.1414317 C391.860912,33.1414317 392.565825,33.4786985 393.035767,33.8289371 C393.3099,34.0235141 393.544871,34.2570065 393.727626,34.5034707 L394.641402,33.5954447 C394.380323,33.2711497 394.067028,32.9857701 393.714572,32.7263341 C393.087983,32.272321 392.174207,31.8442516 390.921028,31.8442516 C388.1797,31.8442516 386.091069,33.9197397 386.091069,36.5140998 C386.091069,39.1084599 388.1797,41.1839479 390.921028,41.1839479 Z M399.730867,41.0542299 L399.730867,33.3360087 L402.472195,33.3360087 L402.472195,31.9739696 L395.553605,31.9739696 L395.553605,33.3360087 L398.294933,33.3360087 L398.294933,41.0542299 L399.730867,41.0542299 Z M405.538298,41.0542299 L410.564066,34.3737527 L410.564066,41.0542299 L412,41.0542299 L412,31.9739696 L410.694606,31.9739696 L405.668838,38.6544469 L405.668838,31.9739696 L404.232904,31.9739696 L404.232904,41.0542299 L405.538298,41.0542299 Z" id="ЛЕТНАДЕЖНОСТИ" fill="#BBA25B"></path>
                </g>
            </g>
        </g>
    </g>
</svg>