<svg width="163" height="34" viewBox="0 0 163 34" fill="none" xmlns="http://www.w3.org/2000/svg">
<path fill-rule="evenodd" clip-rule="evenodd" d="M21.15 33.37V30.08H3.995C5.2631 26.17 8.85967 23.6857 12.4342 21.2165C16.8086 18.1948 21.15 15.196 21.15 9.635C21.15 4.23 16.967 0 10.575 0C6.298 0 3.854 1.88 2.35 3.76C1.504 4.841 0.893 6.11 0.47 7.52L3.525 8.93C3.807 7.849 4.23 6.909 4.841 6.11C5.922 4.653 7.567 3.29 10.575 3.29C15.087 3.29 17.625 5.875 17.625 9.635C17.625 13.9068 14.0212 16.3335 10.0727 18.9922C5.28923 22.2131 0 25.7746 0 33.37H21.15ZM40.6963 33.84C47.4643 33.84 53.8093 27.495 53.8093 16.92C53.8093 6.345 47.4173 0 40.6493 0C33.8813 0 27.4893 6.345 27.4893 16.92C27.4893 27.495 33.8343 33.84 40.6963 33.84ZM31.0143 16.92C31.0143 25.85 35.7143 30.55 40.6963 30.55C45.5373 30.55 50.2843 25.85 50.2843 16.92C50.2843 7.99 45.5373 3.29 40.6493 3.29C35.7613 3.29 31.0143 7.99 31.0143 16.92Z" fill="#BBA25B"/>
<path fill-rule="evenodd" clip-rule="evenodd" d="M67.7856 10.7241C67.7856 16.0425 66.6108 17.21 64.979 17.21C64.6788 17.21 64.4438 17.1711 64.2741 17.1192L64 17.0154V15.7182C64.0653 15.7442 64.1305 15.7701 64.2089 15.7831C64.3525 15.822 64.5222 15.8479 64.718 15.8479C65.5665 15.8479 66.3497 15.0696 66.3497 10.7241V8H72.5503V17.0803H71.1144V9.36204H67.7856V10.7241ZM81.9476 15.7182V17.0803H75.3554V8H81.8171V9.36204H76.7913V11.697H80.7727V13.059H76.7913V15.7182H81.9476ZM87.1676 17.0803V9.36204H89.9089V8H82.9903V9.36204H85.7317V17.0803H87.1676ZM66.8066 25.0978V29.0542H65.3707V19.974H66.8066V23.8007H71.3102V19.974H72.7461V29.0542H71.3102V25.0978H66.8066ZM75.8775 29.0542L76.7913 26.7193H80.838L81.7518 29.0542H83.253L79.5979 19.974H78.0314L74.3763 29.0542H75.8775ZM77.3134 25.4221H80.3159L78.8147 21.6603L77.3134 25.4221ZM85.0137 31V29.0542H91.2796V31H92.7155V27.6922H91.6059V19.974H85.6664V22.698C85.6664 24.5271 85.2878 25.7724 84.8832 26.5636C84.6612 27.0306 84.4002 27.4068 84.0999 27.6922H83.5778V31H85.0137ZM85.6664 27.6922H90.17V21.336H87.1023V22.698C87.1023 24.5271 86.7368 25.7724 86.3844 26.5636C86.1624 27.0306 85.9275 27.4068 85.6664 27.6922ZM101.134 29.0542V27.6922H95.9774V25.033H99.9589V23.6709H95.9774V21.336H101.003V19.974H94.5415V29.0542H101.134ZM106.68 24.7735L103.678 29.0542H101.915L105.701 23.7358L102.176 19.974H104.004L107.594 23.8007V19.974H109.03V23.8007L112.62 19.974H114.447L110.923 23.7358L114.708 29.0542H112.946L109.944 24.7735L109.03 25.7464V29.0542H107.594V25.7464L106.68 24.7735ZM117.644 29.0542V25.0978H122.147V29.0542H123.583V19.974H122.147V23.8007H117.644V19.974H116.208V29.0542H117.644ZM135.461 24.5141C135.461 27.1085 133.372 29.1839 130.631 29.1839C127.89 29.1839 125.801 27.1085 125.801 24.5141C125.801 21.9197 127.89 19.8443 130.631 19.8443C133.372 19.8443 135.461 21.9197 135.461 24.5141ZM130.631 27.8868C128.738 27.8868 127.237 26.395 127.237 24.5141C127.237 22.6332 128.738 21.1414 130.631 21.1414C132.524 21.1414 134.025 22.6332 134.025 24.5141C134.025 26.395 132.524 27.8868 130.631 27.8868ZM144.741 28.2759C144.101 28.7299 143.174 29.1839 141.921 29.1839C139.18 29.1839 137.091 27.1085 137.091 24.5141C137.091 21.9197 139.18 19.8443 141.921 19.8443C143.174 19.8443 144.088 20.2723 144.715 20.7263C145.067 20.9858 145.38 21.2711 145.641 21.5954L144.728 22.5035C144.545 22.257 144.31 22.0235 144.036 21.8289C143.566 21.4787 142.861 21.1414 141.921 21.1414C140.028 21.1414 138.527 22.6332 138.527 24.5141C138.527 26.395 140.028 27.8868 141.921 27.8868C142.861 27.8868 143.579 27.5365 144.062 27.1733C144.349 26.9658 144.597 26.7323 144.793 26.4599L145.707 27.3679C145.433 27.7052 145.119 28.0035 144.741 28.2759ZM150.731 29.0542V21.336H153.472V19.974H146.554V21.336H149.295V29.0542H150.731ZM161.564 22.3738L156.538 29.0542H155.233V19.974H156.669V26.6544L161.695 19.974H163V29.0542H161.564V22.3738Z" fill="#BBA25B"/>
</svg>
