<svg width="190" height="51" viewBox="0 0 190 51" fill="none" xmlns="http://www.w3.org/2000/svg">
<path d="M47.1974 14.5606L46.0843 11.798L45.8068 11.9088C29.1336 18.5653 17.2758 16.8302 3.57008 5.67714L2.92409 5.14634L1.01549 7.43664L1.24569 7.62664C15.7478 19.5969 28.8904 21.7212 46.3883 14.8814L47.1974 14.5606Z" fill="#4169E1"/>
<path d="M62.1588 6.82484C62.1689 14.0034 59.4316 21.6069 54.028 29.4294C48.6028 37.282 41.2849 44.3842 32.2783 50.5397C31.768 50.8877 31.096 50.8877 30.5854 50.5395C21.5778 44.3828 14.2598 37.2808 8.83539 29.4294C3.34069 21.4743 0.602988 13.7457 0.707489 6.46004C0.718889 5.67884 1.33369 5.04554 2.10529 4.99614L2.20249 4.99294L2.22419 4.99304C3.04969 5.00494 3.70949 5.68073 3.69759 6.50263C3.60169 13.151 6.15639 20.297 11.2999 27.7428C16.2705 34.9382 22.916 41.4944 31.0691 47.2465L31.4316 47.5007L31.7942 47.2465C39.7699 41.6202 46.303 35.2236 51.2375 28.2112L51.5641 27.7428C56.7073 20.2974 59.2617 13.1514 59.1658 6.50264C59.1538 5.68074 59.8136 5.00494 60.6496 4.99304C61.4525 5.00934 62.0911 5.59344 62.1514 6.36294L62.1559 6.46014L62.1588 6.82484Z" fill="#4169E1"/>
<path fill-rule="evenodd" clip-rule="evenodd" d="M12.592 0.717238L12.5289 0.713335L12.4643 0.712034L12.3641 0.715338C11.6356 0.763738 11.0389 1.33614 10.9756 2.07424C10.5339 7.26074 12.1147 12.8895 15.6648 18.8027C19.1488 24.6061 24.0188 29.9713 30.1383 34.7503C30.7872 35.2577 31.727 35.1447 32.2368 34.4981C32.7472 33.8518 32.6339 32.9162 31.9839 32.4093C26.1526 27.8551 21.5256 22.7627 18.2319 17.276C15.004 11.8991 13.5682 6.86933 13.9553 2.32583C14.0248 1.50693 13.4145 0.787238 12.592 0.717238Z" fill="white"/>
<path d="M21.9953 41.6909C21.4357 42.2921 20.2312 42.3885 19.6204 41.8377C15.1776 37.8308 11.6129 33.486 8.41909 28.9135C2.89279 21.0025 0.598393 13.4029 0.704694 6.12514C0.716594 5.30984 0.957796 4.65844 1.7861 4.67014C2.6143 4.68184 3.716 5.30984 3.7041 6.12514C3.60749 12.7371 5.57299 19.143 10.9573 27.2036C13.9379 31.6657 17.6242 35.7465 21.9026 39.605C22.5134 40.1558 22.5549 41.0897 21.9953 41.6909Z" fill="white"/>
<path d="M22.3726 42.3508L21.1814 43.2157L18.838 41.1145L20.7156 39.8736C28.8127 34.5645 35.4085 28.4104 40.3209 21.5834C45.0722 14.9807 47.5284 8.60665 47.6335 2.63145L47.637 2.29994L47.9357 2.30084L47.9369 2.00314L50.6281 2.01125L50.6272 2.30885C50.6066 9.01925 47.9542 16.0869 42.7519 23.3169C37.7328 30.2912 31.0537 36.5765 22.9061 41.9984L22.3726 42.3508Z" fill="#4169E1"/>
<path d="M12.5969 0.707236L12.7133 0.720835L12.8293 0.743537L20.8077 2.69994C27.0647 4.18794 33.6761 4.24924 39.9574 2.88094L40.4278 2.77564L48.7973 0.853941C49.6022 0.672241 50.4038 1.17024 50.5888 1.96994C50.7675 2.73844 50.3121 3.50524 49.5634 3.72934L49.4683 3.75444L41.0999 5.67644C34.3874 7.21724 27.3075 7.22644 20.5916 5.70614L20.1125 5.59504L12.134 3.63794C11.331 3.44674 10.8356 2.64373 11.0276 1.84493C11.1809 1.20523 11.7345 0.750037 12.3782 0.706137L12.4805 0.702635L12.5969 0.707236Z" fill="#4169E1"/>
<path d="M84.6016 38V12.4062H93.373C96.2676 12.4062 98.4707 12.9863 99.9824 14.1465C101.494 15.3066 102.25 17.0352 102.25 19.332C102.25 20.5039 101.934 21.5586 101.301 22.4961C100.668 23.4336 99.7422 24.1602 98.5234 24.6758C99.9062 25.0508 100.973 25.7598 101.723 26.8027C102.484 27.834 102.865 29.0762 102.865 30.5293C102.865 32.9316 102.092 34.7773 100.545 36.0664C99.0098 37.3555 96.8066 38 93.9355 38H84.6016ZM89.0488 26.4512V34.4492H93.9883C95.3828 34.4492 96.4727 34.1035 97.2578 33.4121C98.043 32.7207 98.4355 31.7598 98.4355 30.5293C98.4355 27.8691 97.0762 26.5098 94.3574 26.4512H89.0488ZM89.0488 23.1816H93.4082C94.791 23.1816 95.8691 22.8711 96.6426 22.25C97.4277 21.6172 97.8203 20.7266 97.8203 19.5781C97.8203 18.3125 97.457 17.3984 96.7305 16.8359C96.0156 16.2734 94.8965 15.9922 93.373 15.9922H89.0488V23.1816ZM111.443 38H107.172V18.9805H111.443V38ZM106.908 14.041C106.908 13.3848 107.113 12.8398 107.523 12.4062C107.945 11.9727 108.543 11.7559 109.316 11.7559C110.09 11.7559 110.688 11.9727 111.109 12.4062C111.531 12.8398 111.742 13.3848 111.742 14.041C111.742 14.6855 111.531 15.2246 111.109 15.6582C110.688 16.0801 110.09 16.291 109.316 16.291C108.543 16.291 107.945 16.0801 107.523 15.6582C107.113 15.2246 106.908 14.6855 106.908 14.041ZM121.463 14.3574V18.9805H124.82V22.1445H121.463V32.7617C121.463 33.4883 121.604 34.0156 121.885 34.3438C122.178 34.6602 122.693 34.8184 123.432 34.8184C123.924 34.8184 124.422 34.7598 124.926 34.6426V37.9473C123.953 38.2168 123.016 38.3516 122.113 38.3516C118.832 38.3516 117.191 36.541 117.191 32.9199V22.1445H114.062V18.9805H117.191V14.3574H121.463ZM127.299 28.332C127.299 25.3555 127.979 22.9941 129.338 21.248C130.697 19.502 132.537 18.6289 134.857 18.6289C136.979 18.6289 138.66 19.373 139.902 20.8613L140.148 18.9805H143.945V45.3125H139.674V36.3828C138.432 37.6953 136.814 38.3516 134.822 38.3516C132.549 38.3516 130.727 37.4668 129.355 35.6973C127.984 33.916 127.299 31.4609 127.299 28.332ZM131.57 28.7012C131.57 30.6465 131.951 32.1758 132.713 33.2891C133.486 34.3906 134.553 34.9414 135.912 34.9414C137.6 34.9414 138.854 34.2207 139.674 32.7793V24.1309C138.854 22.748 137.611 22.0566 135.947 22.0566C134.588 22.0566 133.516 22.6016 132.73 23.6914C131.957 24.7812 131.57 26.4512 131.57 28.7012ZM147.76 28.3145C147.76 26.4512 148.129 24.7754 148.867 23.2871C149.605 21.7871 150.643 20.6387 151.979 19.8418C153.314 19.0332 154.85 18.6289 156.584 18.6289C159.15 18.6289 161.23 19.4551 162.824 21.1074C164.43 22.7598 165.297 24.9512 165.426 27.6816L165.443 28.6836C165.443 30.5586 165.08 32.2344 164.354 33.7109C163.639 35.1875 162.607 36.3301 161.26 37.1387C159.924 37.9473 158.377 38.3516 156.619 38.3516C153.936 38.3516 151.785 37.4609 150.168 35.6797C148.562 33.8867 147.76 31.502 147.76 28.5254V28.3145ZM152.031 28.6836C152.031 30.6406 152.436 32.1758 153.244 33.2891C154.053 34.3906 155.178 34.9414 156.619 34.9414C158.061 34.9414 159.18 34.3789 159.977 33.2539C160.785 32.1289 161.189 30.4824 161.189 28.3145C161.189 26.3926 160.773 24.8691 159.941 23.7441C159.121 22.6191 158.002 22.0566 156.584 22.0566C155.189 22.0566 154.082 22.6133 153.262 23.7266C152.441 24.8281 152.031 26.4805 152.031 28.6836ZM173.02 18.9805L173.143 21.1777C174.549 19.4785 176.395 18.6289 178.68 18.6289C182.641 18.6289 184.656 20.8965 184.727 25.4316V38H180.455V25.6777C180.455 24.4707 180.191 23.5801 179.664 23.0059C179.148 22.4199 178.299 22.127 177.115 22.127C175.393 22.127 174.109 22.9062 173.266 24.4648V38H168.994V18.9805H173.02Z" fill="white"/>
</svg>
