<?xml version="1.0" encoding="UTF-8"?>
<svg width="48px" height="48px" viewBox="0 0 48 48" version="1.1" xmlns="http://www.w3.org/2000/svg" xmlns:xlink="http://www.w3.org/1999/xlink">
    <title>Menu button</title>
    <defs>
        <rect id="path-1" x="0" y="0" width="48" height="48"></rect>
        <filter x="-140.6%" y="-281.2%" width="381.2%" height="662.5%" filterUnits="objectBoundingBox" id="filter-3">
            <feGaussianBlur stdDeviation="15" in="SourceGraphic"></feGaussianBlur>
        </filter>
    </defs>
    <g id="Menu-button" stroke="none" stroke-width="1" fill="none" fill-rule="evenodd">
        <mask id="mask-2" fill="white">
            <use xlink:href="#path-1"></use>
        </mask>
        <g id="Background"></g>
        <g id="shadow" mask="url(#mask-2)" fill="#2E2E3D" opacity="0.445800781">
            <g transform="translate(8.000000, 24.000000)">
                <rect filter="url(#filter-3)" x="0" y="0" width="32" height="16"></rect>
            </g>
        </g>
        <g id="Menu-1" mask="url(#mask-2)">
            <rect id="Button" fill="#FFFFFF" x="0" y="0" width="48" height="48" rx="4"></rect>
            <g id="menu_hamburger" transform="translate(12.000000, 16.000000)" fill="#4169e1" fill-rule="nonzero">
                <path d="M23.3333333,2 L0.666666667,2 C0.298476833,2 0,1.77614237 0,1.5 L0,0.5 C0,0.223857625 0.298476833,0 0.666666667,0 L23.3333333,0 C23.7015232,0 24,0.223857625 24,0.5 L24,1.5 C24,1.77614237 23.7015232,2 23.3333333,2 Z M24,8.5 L24,7.5 C24,7.22385763 23.7015232,7 23.3333333,7 L0.666666667,7 C0.298476833,7 0,7.22385763 0,7.5 L0,8.5 C0,8.77614237 0.298476833,9 0.666666667,9 L23.3333333,9 C23.7015232,9 24,8.77614237 24,8.5 Z M24,15.5 L24,14.5 C24,14.2238576 23.7015232,14 23.3333333,14 L0.666666667,14 C0.298476833,14 0,14.2238576 0,14.5 L0,15.5 C0,15.7761424 0.298476833,16 0.666666667,16 L23.3333333,16 C23.7015232,16 24,15.7761424 24,15.5 Z" id="Icon-color"></path>
            </g>
        </g>
    </g>
</svg>