<?xml version="1.0" encoding="UTF-8"?>
<svg width="12px" height="12px" viewBox="0 0 12 12" version="1.1" xmlns="http://www.w3.org/2000/svg" xmlns:xlink="http://www.w3.org/1999/xlink">
    <title>Shape</title>
    <g id="Symbols" stroke="none" stroke-width="1" fill="none" fill-rule="evenodd">
        <g id="No" transform="translate(-6.000000, -6.000000)" fill="#FF3E1D">
            <g id="No-2">
                <g id="No">
                    <path d="M15.6374063,17.2874213 C16.0872563,17.7374213 16.8375562,17.7374213 17.2872562,17.2874213 C17.7374062,16.8374212 17.7374062,16.0874212 17.2872562,15.6372713 L13.4625562,11.8124513 L17.2872562,7.98737625 C17.7374062,7.53749625 17.7374062,6.78749625 17.2872562,6.33742125 C16.8375562,5.88752625 16.0872563,5.88752625 15.6374063,6.33742125 L11.8124062,10.1624963 L7.98733125,6.33742125 C7.53725625,5.88752625 6.78725625,5.88752625 6.33755625,6.33742125 C5.88748125,6.78749625 5.88748125,7.53749625 6.33755625,7.98737625 L10.1622562,11.8124513 L6.33755625,15.6372713 C5.88748125,16.0874212 5.88748125,16.8374212 6.33755625,17.2874213 C6.78725625,17.7374213 7.53725625,17.7374213 7.98733125,17.2874213 L11.8124062,13.4624212 L15.6374063,17.2874213 Z" id="Shape"></path>
                </g>
            </g>
        </g>
    </g>
</svg>