<svg width="12" height="12" viewBox="0 0 12 12" fill="none" xmlns="http://www.w3.org/2000/svg">
<path fill-rule="evenodd" clip-rule="evenodd" d="M9.63741 11.2874C10.0873 11.7374 10.8376 11.7374 11.2873 11.2874C11.7374 10.8374 11.7374 10.0874 11.2873 9.63727L7.46256 5.81245L11.2873 1.98738C11.7374 1.5375 11.7374 0.787496 11.2873 0.337421C10.8376 -0.112474 10.0873 -0.112474 9.63741 0.337421L5.81241 4.1625L1.98733 0.337421C1.53726 -0.112474 0.787256 -0.112474 0.337556 0.337421C-0.112519 0.787496 -0.112519 1.5375 0.337556 1.98738L4.16226 5.81245L0.337556 9.63727C-0.112519 10.0874 -0.112519 10.8374 0.337556 11.2874C0.787256 11.7374 1.53726 11.7374 1.98733 11.2874L5.81241 7.46242L9.63741 11.2874Z" fill="white"/>
</svg>
