<?xml version="1.0" encoding="UTF-8"?>
<svg width="16px" height="16px" viewBox="0 0 16 16" version="1.1" xmlns="http://www.w3.org/2000/svg" xmlns:xlink="http://www.w3.org/1999/xlink">
    <title>Path 2</title>
    <g id="Symbols" stroke="none" stroke-width="1" fill="none" fill-rule="evenodd">
        <g id="Button-menu" transform="translate(-24.000000, -16.000000)" fill="#FFFFFF" fill-rule="nonzero">
            <g id="Button">
                <path d="M32,16 C34.780491,16 37.524764,16.7200271 39.9363979,18.0819575 C39.9757694,18.1041704 40.0002504,18.146577 40,18.1918863 C39.9534336,24.1694367 36.8351309,29.5843437 32.0559038,31.986748 C32.0383632,31.9955827 32.019056,32 32,32 C31.980694,32 31.9613868,31.9955827 31.9439724,31.986748 C27.1643668,29.5840912 24.046064,24.1691843 24,18.1918863 C23.9996258,18.146577 24.0241068,18.1041704 24.0634783,18.0819575 C26.4748598,16.7200271 29.219259,16 32,16 Z M34.496,21.192 L30.704,24.984 L29.504,23.792 C29.4314133,23.7146582 29.3300687,23.6707851 29.224,23.6707851 C29.1179313,23.6707851 29.0165867,23.7146582 28.944,23.792 L28.52,24.216 C28.4442749,24.2911066 28.4016807,24.393345 28.4016807,24.5 C28.4016807,24.606655 28.4442749,24.7088934 28.52,24.784 L30.4,26.68 C30.4725867,26.7573418 30.5739313,26.8012149 30.68,26.8012149 C30.7860687,26.8012149 30.8874133,26.7573418 30.96,26.68 L35.456,22.184 C35.5317251,22.1088934 35.5743193,22.006655 35.5743193,21.9 C35.5743193,21.793345 35.5317251,21.6911066 35.456,21.616 L35.056,21.192 C34.9004626,21.0395428 34.6515374,21.0395428 34.496,21.192 Z" id="Path-2"></path>
            </g>
        </g>
    </g>
</svg>