<svg width="41" height="40" viewBox="0 0 41 40" fill="none" xmlns="http://www.w3.org/2000/svg">
<path d="M20 40C31.0457 40 40 31.0457 40 20C40 8.9543 31.0457 0 20 0C8.9543 0 0 8.9543 0 20C0 31.0457 8.9543 40 20 40Z" stroke="white"/>
<path d="M13.72 17.01C13.72 18.522 14.998 19.8 16.51 19.8C18.022 19.8 19.3 18.522 19.3 17.01C19.3 15.498 18.022 14.22 16.51 14.22C14.998 14.22 13.72 15.498 13.72 17.01ZM15.25 27H16.51L24.43 14.4H23.17L15.25 27ZM16.51 18.72C15.592 18.72 14.89 18.018 14.89 17.01C14.89 16.002 15.592 15.3 16.51 15.3C17.428 15.3 18.13 16.002 18.13 17.01C18.13 18.018 17.428 18.72 16.51 18.72ZM20.38 24.39C20.38 25.902 21.658 27.18 23.17 27.18C24.682 27.18 25.96 25.902 25.96 24.39C25.96 22.878 24.682 21.6 23.17 21.6C21.658 21.6 20.38 22.878 20.38 24.39ZM23.17 26.1C22.252 26.1 21.55 25.398 21.55 24.39C21.55 23.382 22.252 22.68 23.17 22.68C24.088 22.68 24.79 23.382 24.79 24.39C24.79 25.398 24.088 26.1 23.17 26.1Z" fill="white"/>
</svg>
