<svg width="40" height="40" viewBox="0 0 40 40" fill="none" xmlns="http://www.w3.org/2000/svg">
<path d="M39.5 20C39.5 30.7696 30.7696 39.5 20 39.5C9.23045 39.5 0.5 30.7696 0.5 20C0.5 9.23045 9.23045 0.5 20 0.5C30.7696 0.5 39.5 9.23045 39.5 20Z" fill="#4169e1" stroke="#4169e1"/>
<path d="M20.1601 27.9763L19.6472 28.4526L19.6472 28.4526L20.1601 27.9763ZM20.1968 26.987L19.7204 26.4741L19.7204 26.4741L20.1968 26.987ZM21.1494 28.013L21.6257 28.5259L21.6257 28.5259L21.1494 28.013ZM29.2249 20.5143L28.7499 20.0001L28.7485 20.0014L29.2249 20.5143ZM29.2769 19.5391L29.8037 19.0782L29.8037 19.0782L29.2769 19.5391ZM29.2263 19.487L29.7026 18.9741C29.4449 18.7348 29.0496 18.7238 28.7791 18.9486L29.2263 19.487ZM21.1494 11.987L21.6257 11.4741V11.4741L21.1494 11.987ZM29.2249 19.4857L29.6722 20.0241C29.8271 19.8954 29.9191 19.7063 29.9246 19.505C29.9302 19.3037 29.8488 19.1098 29.7012 18.9728L29.2249 19.4857ZM20.1601 12.0237L19.6472 11.5474L19.6472 11.5474L20.1601 12.0237ZM20.1968 13.013L19.7204 13.5259L19.7204 13.5259L20.1968 13.013ZM26.9674 19.3V20C27.2553 20 27.5138 19.8238 27.619 19.5559C27.7242 19.2879 27.6547 18.9829 27.4437 18.787L26.9674 19.3ZM26.9674 20.7L27.4437 21.213C27.6547 21.0171 27.7242 20.7121 27.619 20.4441C27.5138 20.1762 27.2553 20 26.9674 20V20.7ZM20.6731 27.5L20.6731 27.5L19.7204 26.4741C19.1539 27.0002 19.121 27.886 19.6472 28.4526L20.6731 27.5ZM20.6731 27.5H20.6731L19.6472 28.4526C20.1733 29.0192 21.0591 29.052 21.6257 28.5259L20.6731 27.5ZM28.7485 20.0014L20.6731 27.5L21.6257 28.5259L29.7012 21.0273L28.7485 20.0014ZM28.75 20L28.7499 20.0001L29.6998 21.0285C29.9757 20.7737 30.15 20.4067 30.15 20H28.75ZM28.75 20L28.75 20H30.15C30.15 19.6593 30.0259 19.3322 29.8037 19.0782L28.75 20ZM28.75 20L28.75 20L29.8037 19.0782C29.772 19.042 29.7383 19.0072 29.7026 18.9741L28.75 20ZM28.7791 18.9486L19.7495 26.4486L20.644 27.5255L29.6736 20.0255L28.7791 18.9486ZM20.6731 12.5L28.7486 19.9987L29.7012 18.9728L21.6257 11.4741L20.6731 12.5ZM20.6731 12.5L20.6731 12.5L21.6257 11.4741C21.0591 10.948 20.1733 10.9808 19.6472 11.5474L20.6731 12.5ZM20.6731 12.5L20.6731 12.5L19.6472 11.5474C19.121 12.114 19.1539 12.9998 19.7204 13.5259L20.6731 12.5ZM27.4437 18.787L20.6731 12.5L19.7204 13.5259L26.4911 19.813L27.4437 18.787ZM11.25 20H26.9674V18.6H11.25V20ZM11.25 20V18.6C10.4768 18.6 9.85 19.2268 9.85 20H11.25ZM11.25 20H9.85C9.85 20.7732 10.4768 21.4 11.25 21.4V20ZM26.9674 20H11.25V21.4H26.9674V20ZM20.6731 27.5L27.4437 21.213L26.4911 20.187L19.7204 26.4741L20.6731 27.5ZM20.6441 27.5254L29.6722 20.0241L28.7775 18.9473L19.7494 26.4486L20.6441 27.5254Z" fill="white"/>
</svg>
