<svg width="25" height="25" viewBox="0 0 25 25" fill="none" xmlns="http://www.w3.org/2000/svg">
<path d="M12.5 23.5416C18.5982 23.5416 23.5417 18.5981 23.5417 12.5C23.5417 6.40184 18.5982 1.45831 12.5 1.45831C6.4019 1.45831 1.45837 6.40184 1.45837 12.5C1.45837 18.5981 6.4019 23.5416 12.5 23.5416Z" stroke="#4169e1" stroke-width="1.5"/>
<path d="M12.5 14.375C15.1464 14.375 17.2917 12.2297 17.2917 9.58335C17.2917 6.93699 15.1464 4.79169 12.5 4.79169C9.85368 4.79169 7.70837 6.93699 7.70837 9.58335C7.70837 12.2297 9.85368 14.375 12.5 14.375Z" stroke="#4169e1" stroke-width="1.5"/>
<path d="M4.45081 20.0584C5.04122 18.3958 6.13202 16.9567 7.57331 15.9391C9.01461 14.9214 10.7357 14.375 12.5 14.375C14.2644 14.375 15.9855 14.9214 17.4268 15.9391C18.8681 16.9567 19.9588 18.3958 20.5493 20.0584" stroke="#4169e1" stroke-width="1.5"/>
</svg>